<?xml version="1.0" encoding="UTF-8" standalone="no"?>
<!-- Created with Inkscape (http://www.inkscape.org/) -->

<svg
   version="1.1"
   id="svg2"
   width="1024.3333"
   height="557.78668"
   viewBox="0 0 1024.3333 557.78668"
   sodipodi:docname="GU-Logo-schwarz.eps"
   xmlns:inkscape="http://www.inkscape.org/namespaces/inkscape"
   xmlns:sodipodi="http://sodipodi.sourceforge.net/DTD/sodipodi-0.dtd"
   xmlns="http://www.w3.org/2000/svg"
   xmlns:svg="http://www.w3.org/2000/svg">
  <defs
     id="defs6" />
  <sodipodi:namedview
     id="namedview4"
     pagecolor="#ffffff"
     bordercolor="#000000"
     borderopacity="0.25"
     inkscape:showpageshadow="2"
     inkscape:pageopacity="0.0"
     inkscape:pagecheckerboard="0"
     inkscape:deskcolor="#d1d1d1" />
  <g
     id="g8"
     inkscape:groupmode="layer"
     inkscape:label="ink_ext_XXXXXX"
     transform="matrix(1.3333333,0,0,-1.3333333,0,557.78667)">
    <g
       id="g10"
       transform="scale(0.1)">
      <path
         d="m 5087.78,1864.44 c -1.35,308.33 329.99,356.61 680.88,540.72 l -2.89,7.81 c -2.91,35.35 -128.41,209.32 -129.9,252.32 -2.84,81.89 198.25,189.24 199.85,209.86 -14.53,19.15 -29.17,38.48 -41.89,58.9 -14.46,0.77 -69.38,-57.65 -140.47,-57.65 -178.21,0 -171.39,212.77 -97.43,323.51 -101.98,205.07 17.15,201.7 9.99,254.83 -7.3,54.22 -22.66,95.37 -22.48,153.01 0,0 -1.26,31.07 3.24,42.38 20.85,52.28 65,35.44 64.21,99.39 -1.35,108.79 91.59,153.68 173.12,196.96 15.49,8.21 1.99,101.16 87.35,148.28 99.58,54.98 232.6,101.29 330.34,25.76 88.13,43.5 202.51,56.39 299.7,62.44 72.18,4.5 104.34,-27.69 144.03,-81 l 9.73,-16.22 c 70.35,47.23 115.77,28.81 143.6,-42.67 116.81,86.69 316.97,-136.11 243.57,-294.8 l 4.23,-9.15 c 93.24,-24.04 104.55,-214.61 110.68,-286.88 4.94,-58.29 -29.07,-102.61 -32.47,-152.4 -0.44,-6.36 9.86,-13.2 13.89,-16.57 43.1,-35.91 54.66,-42.63 68.55,-98.35 14.46,-58.07 11.36,-135.91 -26.14,-187.12 -77.47,-105.79 -134.28,-64.65 -234.58,-36.41 -10.03,-13.65 -40.19,-54.08 -41.56,-68.76 304.36,-156.21 246.43,-137.33 118.87,-430.2 -3.22,-7.39 -26.33,-59.42 -26.44,-63.19 -0.1,-3.66 7.6,-7.29 9.97,-8.66 55.1,-31.99 434.41,-180.53 545.72,-277.26 110.81,-96.29 112.16,-249.36 112.16,-249.36 l 1.2,-64.23 H 0 v 66.45 z m 982.77,2173.64 c -19.99,0 -70.24,-21.24 -89.6,-36.15 -7.02,-5.39 -22.82,-11.95 -22.82,-23.81 0,-6.25 1.74,-8.63 2.88,-9.64 6.42,-1.14 80.63,2.16 80.63,2.16 7.28,-2.46 18.92,-12.51 18.92,-18.75 0,-14.68 -45.49,-45.09 -51.73,-47.91 -11.55,-5.3 -29.11,-4.39 -40.04,-10.02 -66.51,-34.96 -127.8,-84.96 -172.15,-141.17 -10.3,-13.11 -24.19,-39.72 -25.87,-45.74 -1.76,-6.28 -2.5,-11.24 -2.5,-17.48 0,-9.99 11.87,-23.74 29.97,-23.74 6.25,0 24.7,10.13 31.25,17.93 8.75,10.31 15.29,25.17 15.29,38.28 0,46.85 20.3,83.69 73.38,83.69 6.24,0 31.22,-7.49 37.47,-7.49 6.25,0 5.85,23.11 12.88,33 27.86,39.21 63,78.21 105.94,89.42 2.35,0 7.06,0.71 37.24,0 24.81,-4.98 52.7,-10.84 77.06,-20.53 8.13,-3.13 51.98,-39.43 69.16,-39.43 4.99,0 19.98,5.93 19.98,14.98 0,28.11 -72.44,39.35 -72.44,67.46 0,13.43 23.1,14.99 26.23,14.99 36.53,0 107.73,-36.44 130.54,-62.04 4.36,-4.69 20.59,-57.88 34.33,-57.88 11.24,0 26.23,18.42 26.23,29.99 0,6.23 2.5,23.73 2.5,29.98 0,6.23 -2.74,23.84 -8.67,31.96 -17.8,24.04 -74.39,60.47 -100,60.47 -0.93,0 -66.51,-12.49 -77.44,-12.49 -6.24,0 -41.08,6.15 -59.51,13.34 -14.04,5.31 -26.03,16.45 -37.27,23.32 -13.43,8.12 -43.11,20.79 -49.36,20.79 -6.24,0 -16.23,2.51 -22.48,2.51 z m 638.28,-29.99 c -19.68,0 -84.81,-32.04 -93.28,-38.42 -28.61,-21.55 -39.55,-43.8 -48.39,-80.76 -2.48,-10.36 -0.69,-20.11 1.19,-27.3 2.8,-9.99 9.3,-20.76 15.23,-27.95 6.24,-7.49 19.19,-13.8 23.26,-22.22 8.12,-16.56 4.2,-38.03 14.2,-50.21 19.68,-24.36 32.83,-25.45 51.57,-25.45 42.15,0 49.33,39.97 109.91,39.97 6.25,0 27.02,-4.8 38.29,-10.54 7.64,-3.88 20.96,-23.85 26.09,-16.71 5.34,7.43 5.56,16.01 5.56,22.26 0,38.1 -66.19,74.94 -106.16,74.94 -6.25,0 -45.23,-5.95 -67.71,-10.64 -12.17,-2.49 -33.46,-11.84 -39.71,-11.84 -9.07,0 -13.74,10.93 -13.74,21.23 0,6.25 4.88,27.46 9.99,42.48 5.03,14.78 64.1,94.2 89.16,102.2 2.68,1.66 3.31,3.67 3.43,6.55 0.14,3.15 -0.52,4.55 -3.43,7.32 -5.6,4.07 -9.22,5.09 -15.46,5.09 z m 62.45,-294.79 c -6.25,0 -14.52,0.2 -18.55,-3.05 -2.01,-1.64 -3.09,-4.34 -2.68,-9.44 0.7,-9.03 15.86,-18.73 20.3,-22.7 14.57,-13.02 32.07,-27.99 43.95,-44.23 20.29,-28.42 31.58,-63.15 53.43,-90 17.49,-21.23 30.95,-32.93 45.94,-32.93 6.25,0 7.23,6 7.23,6 2.73,10.46 2.98,17.81 2.98,24.06 0,6.24 -1.9,13.24 -3.36,18.85 -12.53,48.28 -38.28,123.07 -101.49,139.36 -15.54,4 -41.51,14.08 -47.75,14.08 z M 5988.12,2724 c -2.69,-15.31 -23.88,-67.67 -23.88,-73.42 0,-6.25 -22.48,-81.19 -22.48,-87.44 0,-6.24 -2.5,-22.48 -2.5,-28.73 0,-33.42 42.02,-102.76 60.75,-134.3 35.29,-58.71 95.83,-125.37 154.49,-163.51 18.27,-11.87 45.02,-35.43 66.26,-36.88 2.73,-0.34 4.67,-0.06 6.77,0.5 43.65,9.76 151.41,142.86 151.41,178.04 0,6.25 -2.78,10.77 -6.49,15.4 -10.64,3.28 -19.74,5.22 -27.24,5.22 -46.53,0.31 -105.18,15.72 -150.15,44.76 -34.03,22.18 -84.95,63.13 -110.56,95.3 -21.85,27.16 -42.01,61.29 -57.31,92.2 -2.4,4.9 -5.62,11.03 -8.78,17.19 l -11.78,28.61 c 0.39,4.04 1.3,3.87 1.03,4.78 h 6.26 c 14.61,-12.39 180.59,-176.4 244.94,-177.56 h 97.41 c 40.6,0 101.48,23.42 101.48,82.44 0,51.53 -57.45,59.95 -92.42,59.95 -6.25,0 -50.25,-9.3 -63.7,-9.99 -6.55,-0.33 -43.72,9.99 -43.72,24.98 0,21.56 55.59,24.99 68.7,24.99 6.24,0 73.69,-17.49 79.93,-17.49 23.43,0 58.71,14.06 58.71,49.96 0,19.68 -31.53,32.49 -49.96,32.49 -23.1,0 -48.17,-21.24 -75.34,-21.24 -6.25,0 -33.22,12.97 -39.47,12.97 -6.24,0 -47.15,-19.24 -58.39,-18.92 -9.87,0.28 -39.71,30.28 -45.96,30.28 -6.24,0 -25.66,-18.23 -31.91,-18.23 -6.24,0 -8.03,7.19 -12.42,9.03 1.89,4.44 5.08,42.51 30.07,42.51 6.25,0 28.57,-16.42 34.82,-16.42 35.28,0 31.53,29.98 61.2,29.98 34.98,0 37.79,-42.47 64.96,-42.47 22.17,0 29.66,39.97 61.2,39.97 25.61,0 50.9,-29.98 64.95,-29.98 14.37,0 29.35,19.99 54.96,19.99 6.25,0 15.36,-13.8 17.86,-21.62 2.18,-7.17 -0.06,-14.6 -0.06,-22.1 0,-7.49 2.86,-16.81 6.92,-20.87 3.44,-3.44 4.01,-7.87 10.26,-7.87 h 29.66 c 34.35,0 123.62,171.43 125.49,178.31 4.68,17.17 10.97,45.29 10.97,51.54 0,6.24 4.69,33.79 2.5,73.76 -2.19,45.59 22.49,79.25 22.49,124.84 0,6.25 -2.85,30.3 -5.98,42.78 -3.75,14.37 -18.62,25.35 -27.62,20.79 -3.22,-1.63 -16.37,-22.97 -16.37,-33.59 0,-6.25 1.98,-30.4 -3.32,-41.95 -11.87,-26.23 -64.76,-59.23 -86.61,-59.23 -6.56,0 -19.98,4.06 -19.98,22.49 0,6.25 12.49,17.49 12.49,23.73 0,10.31 -8.39,8.23 -20.16,15.53 0,0 -4.66,2.42 0,8.77 16.89,7.03 34.15,9.14 51.64,12.89 17.49,3.75 48.45,46.19 48.45,65.23 0,6.57 -17.48,26.24 -32.47,26.24 -6.25,0 -4.3,-3.33 -4.3,-3.33 3.39,-17.22 -7.72,-49.09 -22.71,-60.95 -9.06,-7.19 -22.95,-13.17 -29.19,-13.17 -6.25,0 -17.57,1.3 -20.39,2.16 -34.08,10.27 -43.32,37.81 -43.32,61.55 0,8.12 3.19,5.11 -3.36,13.68 -6.7,-1.87 -46.61,-19.61 -46.61,-37.42 0,-14.04 42.47,-37.47 42.47,-47.46 0,-25.92 -39.97,-5.31 -39.97,-27.48 0,-6.25 14.98,-69.64 14.98,-75.89 v -38.09 c 0,-55.9 37.49,-39.97 37.49,-90.87 0,-10.31 -23.09,-40.11 -30.89,-43.23 -7.49,-2.82 -11.09,-7.1 -17.31,-12.44 -5.13,-6.75 -4.32,-7.56 -9.72,-16.76 -8.56,-14.6 -19.86,-13.35 -30.29,-11.35 -25.41,4.86 -37.01,9.24 -57.94,9.24 -6.25,0 -21.24,-16.69 -27.48,-16.69 -6.25,0 -15.34,3.68 -20.96,9.61 -3.12,3.12 -13.83,37.3 -32.56,37.3 -6.25,0 -40.16,-15.64 -46.4,-15.64 -23.12,0 -51.22,28.1 -51.22,49.96 0,1.56 0.11,21.91 17.6,21.91 12.8,0 8.36,-15.2 21.19,-21.9 15.62,10.19 37.41,37.47 43.65,37.47 6.25,0 9.03,-0.45 13.1,-2.95 9.36,-5.62 21.88,-31.09 21.88,-47.01 0,-15 17.48,-27.49 32.47,-27.49 31.55,0 49.96,23.73 49.96,53.72 0,6.24 -12.49,49.96 -12.49,56.2 0,6.25 -0.04,3.45 0.63,6.14 -0.63,7.71 -0.65,15.32 -1.56,19.98 0.85,2.17 8.43,83.8 8.43,90.05 0,42.78 -22.49,84 -22.49,128.66 0,18.42 3.36,66.86 20.23,82.79 34.03,32.16 111.55,72.1 173.38,72.1 6.25,0 45.07,-8.94 64.44,-18 5.93,-2.5 24.59,-17.57 33.28,-19.44 12.7,10.57 20.95,38.69 20.95,54.93 0,56.83 -72.45,100.24 -72.45,164.88 0,6.25 12.49,76.2 12.49,82.44 0,6.25 -2.2,19.22 -3.45,28.91 -6.87,49.02 -65.87,101 -106.47,101 -6.25,0 -106.17,-10 -112.42,-10 -61.82,0 -101.18,39.97 -168.62,39.97 -6.25,0 -67.85,-8.42 -100.02,-10.61 -137.39,-9.69 -206.01,-108.67 -206.01,-244.2 0,-6.25 3.48,-29.05 0.67,-40.92 -15.93,-63.08 -58.12,-107.41 -58.12,-163.94 l 7.49,-236.06 c -4.99,-70.82 -54.96,-33.12 -54.96,-99.95 0,-6.24 2.52,-38.01 5.65,-55.19 1.87,-10.29 8.35,-21.45 12.72,-27.07 2.49,-3.43 24.1,-13.92 30.35,-13.92 17.17,0 27.1,32.94 40.09,37.48 14.04,-4 3.82,-36.84 5.94,-53.75 4.37,-34.91 26.02,-103.17 28.33,-110.22 4.1,-12.52 8.79,-20.74 12.54,-30.1 5.93,-15 19.28,-37.02 19.28,-43.27 z m -375.28,412.05 c -9.52,-20.52 -18.05,-50.71 -18.05,-72.26 0,-18.73 19.98,-59.95 49.96,-59.95 6.24,0 19.84,1.97 29.21,6.02 7.8,3.13 15.98,7.29 20.03,10.02 9.06,6.12 61.27,70.67 63.03,77.95 1.99,8.2 0,12.95 0,12.95 -10.8,2.94 -22.34,10.48 -28.59,10.48 -3.75,0 -28.11,-44.97 -56.21,-44.97 -6.24,0 -11.01,2.47 -15.77,3.34 -19.78,12.7 -10.06,39.85 -19.84,53.33 -8.17,3.89 -16.85,3.28 -23.77,3.09 z m 991.06,205.02 c -6.23,0 -18.73,-5 -24.97,-5 -0.95,0 -31.23,-4.68 -31.23,-16.23 0,-22.5 -47.47,-15 -47.47,-44.98 0,-6.25 4.99,-13.73 11.24,-13.73 7.49,0 41.22,19.98 67.46,19.98 14.99,0 41.21,-12.5 44.96,-12.5 6.24,0 5.88,2.87 8.73,6.05 -2.62,5.75 -4.98,7.7 -4.98,13.95 0,6.23 2.13,2.85 4.13,5.05 h 6.68 c 14.62,-12.26 27.02,-27.18 38.1,-37.52 5.91,10.67 8.55,22.47 8.55,28.72 0,27.48 -39.84,48.08 -61.07,50.57 -8.12,0.94 -13.88,5.64 -20.13,5.64 z m 298.53,84.94 c -43.09,0 -74.94,-89.32 -74.94,-117.42 0,-15.93 7.27,-43.67 17.44,-65.78 9.02,-19.56 21.56,-41.51 35.93,-58.69 34.67,-41.22 90.89,-65.4 130.24,-65.4 10.31,0 93.68,13.74 93.68,51.22 0,23.42 -6.81,43.22 -27.98,70.95 -27.78,10.78 -39.16,-30.84 -61.33,-43.96 -13.74,-7.81 -32.9,-13.86 -39.15,-13.86 -6.25,0 -19.19,1.42 -27.31,5.13 -38.38,17.58 -61.57,44.51 -61.57,79.16 0,31.55 23.86,77.46 68.83,82.14 4.05,0.32 11.11,9.68 11.11,16.55 0,24.98 -39.97,59.96 -64.95,59.96 z m -323.5,-167.38 c -9.07,0 -16.39,-15 -16.24,-20 0.29,-10.14 8.42,-24.98 19.98,-24.98 6.24,0 20.32,11.32 19.99,21.24 -0.35,9.99 -9.38,23.74 -23.73,23.74 z m -91.19,-328.52 c 0,25.29 -10.14,33.01 -36.98,43.47 2.01,-23.63 4.36,-30.84 4.5,-42.22 0.08,-6.25 -10,-17.18 -9.81,-23.43 0,0 -3.08,-7.97 -0.21,-11.34 2.32,-2.72 2.52,-2.71 8.77,-2.71 18.11,0 33.73,16.24 33.73,36.23 z m 286.18,-276.07 c -8.63,-5.18 -13.51,-11.17 -15.7,-18.35 -34.35,-108.99 -159.5,-181.91 -254.74,-223.13 -20.92,-9.05 -79.64,-18.65 -82.14,-18.97 -5.3,-0.93 -16.04,-8.72 -16.04,-18.09 0,-6.25 13.57,-30.25 21.69,-45.56 11.55,-21.85 23.25,-46.83 39.19,-70.16 11.36,-16.65 55.7,-60.3 82.77,-57.9 38.09,3.37 132.47,66.91 138.31,71.28 30.62,22.92 65.73,72.04 84.16,102.63 13.74,23.12 38.58,74.66 38.58,103.39 0,6.24 -12.4,109.51 -23.45,161.4 -2.17,10.18 -4.87,10.73 -12.63,13.46 z m -806.85,-277.32 c -6.39,-3.58 -2.82,-18.57 -2.82,-18.57 29.39,-96.11 79.68,-230.19 193.03,-288.9 11.24,-5.63 49.59,-24.5 63.01,-24.5 6.88,0 31.23,0.62 31.23,22.49 0,22.48 -36.27,81.13 -51.26,96.43 -10.92,10.93 -28.44,18.36 -42.81,25.24 -74.94,35.91 -125.39,117.66 -178.87,187.88 0,0 -7.59,2.13 -11.51,-0.07 z m -142.72,-22.19 c -6.25,0 -12.5,-8.74 -12.5,-14.99 0,-29.67 175.59,-296.5 187.95,-308.66 15.29,-15.01 33.14,-13.61 39.38,-13.61 6.25,0 5.07,1.2 7.33,3.38 4.93,4.75 0.11,17.54 0.11,17.54 0.06,6.24 -78.18,106.19 -105.97,153.34 -13.12,22.48 -62.48,93.72 -67.47,101.83 -6.24,9.99 -33.85,61.17 -48.83,61.17 z m 579.67,-67.71 c -11.08,0.07 -20.27,-14.53 -21.21,-31.23 -0.34,-6.24 5,-26.23 5,-32.48 0,-13.12 -6.56,-38.72 -29.98,-38.72 -6.24,0 -47.46,14.99 -53.7,14.99 -25.92,0 -38.73,-19.06 -38.73,-47.47 0,-31.85 29.67,-129.91 88.69,-129.91 23.42,0 153.63,29.35 153.63,83.69 0,11.87 -29.72,57.72 -30.66,58.62 h -8.42 c -9.74,-2.32 -14.61,-3.4 -19.55,-5.66 -25.33,-23.15 -17.7,-61.97 -42.93,-81.73 0,0 -21.16,-1.73 -34.48,0.13 -25.75,3.61 -61.31,6.78 -61.31,26.14 0,9.99 31.22,41.23 46.21,41.23 6.25,0 14.97,-6.23 21.22,-6.23 31.85,0 49.98,69.62 49.98,91.17 0,13.11 -4.56,52.12 -23.76,57.46 z m 400.71,44.77 c -5.21,0.18 -7.3,-1.14 -11.28,-3.42 -6.91,-3.97 -13.66,-36.15 -21.65,-49.41 -34.62,-57.5 -81.6,-121.96 -145.93,-151.01 -11.55,-5 -24.47,-8.99 -37.29,-12.42 -12.8,-3.43 -33.39,-9.95 -33.39,-24.63 0,-19.99 39.03,-66.2 68.7,-66.2 52.46,0 133.47,124.59 147.53,148.96 14.68,25.29 37.96,68.36 38.49,102.58 1.51,20.58 1.51,4.63 0.7,34.91 0,5.04 1.65,20.4 -5.88,20.64 v 0"
         style="fill:#231f20;fill-opacity:1;fill-rule:nonzero;stroke:none"
         id="path12" />
      <path
         d="m 6104.31,3388.53 c 20.1,-2.5 22.45,0 25.03,0 20.05,-2.5 44.82,-3.88 62.94,-13.26 31.23,-15.92 77.84,-44.97 104.38,-77.13 4.37,-5.31 13.71,-43.89 13.71,-55.76 0,-6.24 -17.53,-75.68 -17.49,-96.18 0.04,-14.76 12.49,-72.45 12.49,-78.69 0,-12.8 1.64,-34.14 -10.75,-51.12 -10.98,1.48 -49.2,62.67 -49.2,84.84 0,32.79 29.98,38.11 29.98,82.44 0,8.13 -1.56,14.99 -10,14.99 -6.24,0 -32.78,-29.98 -39.03,-29.92 0,0 -13.4,-4.14 -19.97,0.05 -2.81,1.79 -5.94,6.09 -5.94,6.09 10.49,17.27 29.97,40.65 29.97,55.01 0,9.99 -26.39,29.68 -33.45,28.76 -15.19,-4.97 -3.72,-26.42 -4.97,-36.41 -3.12,-22.49 -32.78,-53.56 -55.26,-53.56 -10.93,0 -39.01,12.27 -45.26,18.82 -26.23,27.79 -13.45,31.78 -13.45,56.13 0,6.25 -2.49,3.75 -2.13,7.87 -1.61,-0.37 -1.61,2.13 -7.86,2.13 -16.56,0 -32.47,-26.24 -32.47,-36.23 0,-19.05 12.43,-43.12 39.84,-49.42 -8.13,-17.33 -13.93,-19.28 -26.1,-19.28 -47.16,0 -41.54,62.45 -62.46,62.45 -6.24,0 -12.48,-4.99 -18.73,-4.99 -6.25,0 -18.29,11.53 -23.9,16.22 -10.31,8.42 -8.59,17.82 -8.59,23.75 0,86.51 70.5,136.46 168.67,142.4 z m -32.59,-29.98 c -12.66,-2.52 -26.04,-4.16 -35.41,-8.23 -26.22,-11.86 -58.19,-49.85 -58.19,-76.71 0,-8.73 7.49,-22.48 22.49,-22.48 19.98,0 34.97,37.48 54.95,37.48 6.25,0 5.36,0.35 7.58,-1.73 -0.08,-7.02 -0.08,-14.52 0.39,-22.99 31.04,6.94 44.94,13.49 71.54,10.03 0.43,3.44 2.93,3.44 2.93,9.69 0,6.25 -5,6.25 -5,12.48 0,6.25 -0.36,2.87 1.69,5.04 h 16.74 c 6.24,-0.04 22.79,-17.52 29.04,-17.52 6.24,0 7.49,6.25 7.49,12.48 0,34.05 -52.17,56.19 -78.55,62.46 -7.89,1.05 -17.09,1.6 -37.69,0 z m 58.78,-97.42 c -14.67,0 -22.48,-7.5 -22.48,-22.5 0,-8.11 3.12,-22.48 21.24,-22.48 9.99,0 18.73,13.43 18.73,24.98 0,4.69 -0.63,20 -17.49,20 v 0"
         style="fill:#231f20;fill-opacity:1;fill-rule:evenodd;stroke:none"
         id="path14" />
      <path
         d="m 728.402,1433.21 -46.707,-18.09 c -27.664,-11.68 -42.625,-21.27 -43.668,-43.55 -2.089,-59.56 0,-146.7 -2.089,-336.05 -2.122,-206.098 -103.125,-282.59 -261.446,-282.59 -154.137,0 -261.566,66.898 -261.566,229.55 v 298.68 c 0,89.24 -3.039,110.6 -32.9377,122.28 l -76.60549,29.77 v 14.84 c 52.20309,-4.23 102.17619,-8.56 152.04319,-8.56 56.39,0 111.64,4.33 168.027,8.56 v -14.84 l -48.922,-18.09 c -58.511,-22.34 -67.019,-26.62 -69.019,-63.79 -3.254,-62.81 -3.254,-154.08 -3.254,-317.81 0,-136.04 30.816,-225.36 199.769,-225.36 111.762,0 178.661,69.129 178.661,196.75 0,130.54 -1.043,299.71 -9.68,373.08 -1.992,19.12 -17.981,27.54 -46.711,37.13 l -58.504,18.09 v 14.84 c 45.785,-4.23 91.441,-8.56 138.25,-8.56 40.41,0 81.859,4.33 124.359,8.56 v -14.84 0"
         style="fill:#231f20;fill-opacity:1;fill-rule:nonzero;stroke:none"
         id="path16" />
      <path
         d="m 1623.74,1427.81 -71.23,-25.45 c -23.35,-8.51 -34.08,-19.12 -35.13,-38.38 -3.19,-85.97 -11.67,-274.17 -11.67,-335.86 0,-43.55 0,-165.671 2.06,-286.87 h -25.42 c -68.09,100.859 -141.41,197.691 -213.69,295.43 l -215.81,290.27 h -2.09 v -119.11 c 0,-140.36 2.09,-349.719 5.26,-369.918 3.25,-17.07 10.72,-25.442 41.57,-35.031 l 70.16,-22.321 v -14.8 c -46.81,4.082 -94.68,8.269 -141.39,8.269 -45.801,0 -90.251,-4.187 -136.04,-8.269 v 14.8 l 80.676,30.84 c 14.961,5.262 24.516,14.84 25.586,24.43 4.188,33.961 11.678,192.28 11.678,328.46 v 210.38 l -13.791,21.26 c -33.031,14.94 -65.875,26.52 -99.961,37.27 v 14.84 c 34.086,-4.23 68.094,-8.56 102.074,-8.56 31.848,0 63.738,4.33 95.638,8.56 20.18,-37.17 42.61,-71.22 68.06,-105.24 l 300.78,-403.869 2.12,2.09 v 257.229 c 0,51.04 -1.05,103.1 -4.18,155.21 -2.12,29.77 -10.64,38.29 -41.46,50.98 l -70.18,28.76 v 14.84 c 43.54,-4.23 88.28,-8.56 131.81,-8.56 47.77,0 95.65,4.33 144.57,8.56 v -20.24 0"
         style="fill:#231f20;fill-opacity:1;fill-rule:nonzero;stroke:none"
         id="path18" />
      <path
         d="m 1801.96,780.57 81.84,27.59 c 26.54,9.578 29.77,13.86 30.7,95.75 1.16,63.629 3.31,128.53 3.31,192.32 0,63.74 -2.15,128.64 -3.31,192.29 -2.09,99.98 -3.11,107.42 -23.36,114.92 l -89.18,29.77 v 14.84 c 50.9,-4.23 103.12,-8.56 162.56,-8.56 53.13,0 105.19,4.33 158.44,8.56 v -14.84 l -89.33,-29.77 c -20.22,-7.5 -21.24,-14.94 -23.38,-114.92 -1.02,-63.65 -3.26,-128.55 -3.26,-192.29 0,-63.79 2.24,-128.691 3.26,-192.32 1.07,-81.89 4.23,-86.172 30.85,-95.75 l 81.86,-27.59 v -14.8 c -49.99,4.082 -111.64,8.269 -158.44,8.269 -53.13,0 -114.83,-4.187 -162.56,-8.269 v 14.8 0"
         style="fill:#231f20;fill-opacity:1;fill-rule:nonzero;stroke:none"
         id="path20" />
      <path
         d="m 2234.48,1448.05 c 48.92,-4.23 98.91,-8.56 147.71,-8.56 44.71,0 90.38,4.33 135.11,8.56 v -14.84 l -37.26,-10.75 c -48.93,-13.77 -58.48,-19.02 -58.48,-30.7 0,-22.42 136.13,-352.89 186.12,-465.58 64.81,154.97 124.24,308.19 161.49,426.21 6.42,19.18 10.62,30.85 10.62,42.53 0,11.68 -32.93,23.45 -79.77,38.29 v 14.84 c 40.41,-4.23 80.82,-8.56 121.23,-8.56 32.92,0 64.8,4.33 96.67,8.56 v -14.84 c -45.66,-11.68 -60.6,-23.49 -77.52,-59.55 -67.03,-145.62 -150.98,-354.98 -248.73,-620.73 h -24.39 c -69.14,193.449 -177.62,461.19 -244.52,615.48 -17.05,39.21 -24.4,42.47 -58.51,54.05 l -29.77,10.75 v 14.84 0"
         style="fill:#231f20;fill-opacity:1;fill-rule:nonzero;stroke:none"
         id="path22" />
      <path
         d="m 3139.62,1288.52 c 0,99.98 -3.26,107.42 -26.49,114.92 l -89.45,29.77 v 14.84 c 88.28,-4.23 169.07,-8.56 249.76,-8.56 101.13,0 201.12,4.33 294.53,8.56 -1.11,-26.52 -3.26,-64.81 -3.26,-80.81 0,-15.91 2.15,-52.11 3.26,-76.63 h -14.93 l -27.64,79.79 c -10.56,29.87 -18.97,29.87 -141.29,29.87 -61.72,0 -110.67,-1.06 -149.91,-2.09 -2.09,-37.27 -5.25,-76.63 -5.25,-121.2 V 1146.2 h 110.47 c 128.71,0 140.39,2.09 149.98,25.45 l 27.53,75.56 h 14.89 c -0.97,-40.43 -2.13,-80.82 -2.13,-120.18 0,-43.64 1.16,-83.92 2.13,-128.542 h -14.89 l -27.53,80.822 c -9.59,23.2 -21.27,25.44 -149.98,25.44 H 3228.95 V 960.199 c 0,-48.949 3.16,-97.75 5.25,-142.461 50,-1.066 99.97,-4.328 147.87,-4.328 113.56,0 129.6,1.16 140.22,13.77 12.74,16 24.42,50.109 43.59,112.769 h 14.7 c -2.05,-30.789 -6.19,-62.66 -6.19,-93.597 V 765.77 c -55.22,4.082 -218.96,8.269 -278.52,8.269 -93.54,0 -195.59,-4.187 -272.19,-8.269 v 14.8 l 81.98,27.59 c 29.77,9.578 33.96,13.86 33.96,95.75 v 384.61 0"
         style="fill:#231f20;fill-opacity:1;fill-rule:nonzero;stroke:none"
         id="path24" />
      <path
         d="m 4007.13,1137.69 h 72.3 c 98.87,0 190.14,15.86 190.14,132.87 0,93.42 -64.71,133.89 -164.65,133.89 -34.05,0 -65.88,-1.01 -97.79,-1.01 z M 3802,780.57 l 81.84,27.59 c 29.68,9.578 33.96,13.86 33.96,95.75 v 384.61 c 0,99.98 -3.11,107.42 -26.57,114.92 l -89.23,29.77 v 14.84 c 39.32,-4.23 89.23,-8.56 146.65,-8.56 55.28,0 115.79,8.56 191.41,8.56 140.21,0 231.69,-57.36 231.69,-163.72 0,-107.42 -76.49,-158.32 -174.38,-174.33 l 146.64,-218.941 c 61.64,-92.489 67.04,-99.84 126.46,-110.489 v -14.8 c -24.38,1.949 -49.87,4.082 -74.2,4.082 -25.64,0 -52.26,-2.133 -78.77,-4.082 -67.98,114.628 -162.66,250.81 -228.54,336.74 h -81.83 V 980.379 c 0,-138.27 3.21,-162.641 30.85,-171.059 l 84.85,-28.75 v -14.8 c -45.63,4.082 -116.86,8.269 -153.94,8.269 -54.2,0 -115.89,-4.187 -166.89,-8.269 v 14.8 0"
         style="fill:#231f20;fill-opacity:1;fill-rule:nonzero;stroke:none"
         id="path26" />
      <path
         d="m 4656.57,955.859 h 14.89 l 36.2,-137.097 c 31.81,-18.102 81.73,-24.371 108.3,-24.371 85.05,0 162.6,38.129 162.6,137.05 0,150.879 -332.7,138.279 -332.7,338.049 0,128.69 119.01,191.41 233.89,191.41 44.62,0 112.68,-13.92 157.39,-34.01 l -6.51,-145.73 h -11.68 l -41.36,118.05 c -36.15,13.91 -71.18,20.23 -107.38,20.23 -66.95,0 -128.7,-52.2 -128.7,-123.43 0,-166.89 332.81,-124.36 332.81,-344.381 0,-92.438 -69.19,-198.699 -278.65,-198.699 -50.94,0 -96.58,6.281 -157.3,29.781 l 18.2,173.148 v 0"
         style="fill:#231f20;fill-opacity:1;fill-rule:nonzero;stroke:none"
         id="path28" />
      <path
         d="m 5287.18,780.57 81.83,27.59 c 26.67,9.578 29.93,13.86 30.85,95.75 1.18,63.629 3.17,128.53 3.17,192.32 0,63.74 -1.99,128.64 -3.17,192.29 -1.94,99.98 -3.11,107.42 -23.35,114.92 l -89.33,29.77 v 14.84 c 51.19,-4.23 103.25,-8.56 162.8,-8.56 53.04,0 105.19,4.33 158.32,8.56 v -14.84 l -89.33,-29.77 c -20.19,-7.5 -21.22,-14.94 -23.35,-114.92 -1.18,-63.65 -3.27,-128.55 -3.27,-192.29 0,-63.79 2.09,-128.691 3.27,-192.32 1.07,-81.89 4.17,-86.172 30.84,-95.75 l 81.84,-27.59 v -14.8 c -50.12,4.082 -111.61,8.269 -158.32,8.269 -53.23,0 -114.92,-4.187 -162.8,-8.269 v 14.8 0"
         style="fill:#231f20;fill-opacity:1;fill-rule:nonzero;stroke:none"
         id="path30" />
      <path
         d="m 5759.6,1448.05 c 92.5,-4.23 183.77,-8.56 276.41,-8.56 92.44,0 183.91,4.33 276.35,8.56 V 1267.4 h -14.94 l -31.86,84.99 c -14.85,36.11 -25.6,40.39 -184.98,40.39 V 929.352 c 0,-53.133 2.13,-80.813 8.56,-95.661 6.27,-13.863 28.6,-26.613 109.51,-53.121 v -14.8 c -50.11,4.082 -96.81,8.269 -162.64,8.269 -65.88,0 -112.69,-4.187 -162.71,-8.269 v 14.8 c 80.82,26.508 104.18,39.258 109.42,53.121 6.43,14.848 8.52,42.528 8.52,95.661 v 463.428 c -159.38,0 -170.09,-4.28 -184.93,-40.39 l -31.87,-84.99 h -14.84 v 180.65 0"
         style="fill:#231f20;fill-opacity:1;fill-rule:nonzero;stroke:none"
         id="path32" />
      <path
         d="m 6828.52,1507.75 c -25.49,0 -50.01,25.69 -50.01,53.28 0,23.35 25.58,48.89 50.01,48.89 26.62,0 52.06,-24.37 52.06,-48.89 0,-28.62 -24.43,-53.28 -52.06,-53.28 z m -128.6,-192.33 -122.26,-281.61 h 239.18 z m -81.83,192.33 c -26.76,0 -49.97,25.69 -49.97,53.28 0,23.35 24.38,48.89 49.97,48.89 26.61,0 52.06,-24.37 52.06,-48.89 0,-28.62 -24.52,-53.28 -52.06,-53.28 z M 6350.11,780.852 c 25.68,9.488 55.46,21.168 80.91,35.027 92.49,217.931 207.26,462.421 283.75,653.671 h 23.35 c 85.14,-221.03 180.76,-442.17 271,-657.851 l 89.34,-30.847 V 766.07 c -56.24,4.078 -111.53,8.27 -167.91,8.27 -47.88,0 -94.58,-4.192 -142.46,-8.27 v 14.782 c 26.51,6.328 72.4,20.097 104.17,32.847 -12.76,44.711 -46.71,144.641 -61.56,176.563 -44.61,1.019 -90.34,2.09 -135.1,2.09 -44.57,0 -88.17,-1.071 -132.73,-2.09 -28.76,-54.293 -45.79,-116.922 -60.62,-176.563 l 91.41,-32.847 V 766.07 c -41.55,4.078 -83.01,8.27 -125.53,8.27 -39.21,0 -78.57,-4.192 -118.02,-8.27 v 14.782 0"
         style="fill:#231f20;fill-opacity:1;fill-rule:nonzero;stroke:none"
         id="path34" />
      <path
         d="m 7114.75,1448.05 c 92.34,-4.23 183.8,-8.56 276.39,-8.56 92.4,0 183.92,4.33 276.31,8.56 V 1267.4 h -14.98 l -31.73,84.99 c -14.83,36.11 -25.63,40.39 -185.08,40.39 V 929.352 c 0,-53.133 2.19,-80.813 8.52,-95.661 6.43,-13.863 28.71,-26.613 109.47,-53.121 v -14.8 c -49.92,4.082 -96.63,8.269 -162.51,8.269 -65.96,0 -112.67,-4.187 -162.64,-8.269 v 14.8 c 80.67,26.508 104.12,39.258 109.37,53.121 6.32,14.848 8.57,42.528 8.57,95.661 v 463.428 c -159.4,0 -170.15,-4.28 -184.98,-40.39 l -31.88,-84.99 h -14.83 v 180.65 0"
         style="fill:#231f20;fill-opacity:1;fill-rule:nonzero;stroke:none"
         id="path36" />
      <path
         d="m 561.563,2452.42 c 0,19.04 -4.793,26.14 -58.165,46.32 l -71.23,27.21 v 16.73 c 56.996,-2.34 113.977,-9.49 170.945,-9.49 53.371,0 105.582,7.15 157.762,9.49 v -16.73 l -74.73,-35.62 c -21.36,-10.6 -24.868,-22.39 -24.868,-47.39 V 2260.2 c 0,-11.93 1.168,-32.11 2.34,-53.38 -45.078,-14.36 -143.629,-33.27 -223.152,-33.27 -270.543,0 -436.82047,157.88 -436.82047,380.9 0,271.99 254.07047,409.53 464.13247,409.53 65.297,0 117.481,-5.84 168.516,-16.6 -1.164,-30.85 -2.328,-61.64 -2.328,-91.42 0,-34.35 1.164,-68.79 2.328,-103.23 h -16.59 c -16.59,51.03 -39.117,116.42 -56.973,138.95 -11.917,15.42 -83.027,26.03 -129.402,26.03 -167.316,0 -308.605,-115.02 -308.605,-352.41 0,-204.34 121.097,-345.4 298.004,-345.4 49.73,0 94.929,5.84 136.375,20 1.293,17.95 2.461,35.62 2.461,43.89 v 168.63 0"
         style="fill:#231f20;fill-opacity:1;fill-rule:nonzero;stroke:none"
         id="path38" />
      <path
         d="m 1541.02,2537.86 c 0,198.27 -54.66,386.99 -250.38,386.99 -165.1,0 -254.07,-137.68 -254.07,-306.26 0,-244.55 86.63,-405.93 260.04,-405.93 180.28,0 244.41,163.86 244.41,325.2 z m -625.422,23.69 c 0,236.27 148.302,402.43 388.012,402.43 218.48,0 358.49,-153.22 358.49,-369.14 0,-235.05 -141.29,-421.29 -377.39,-421.29 -246.97,0 -369.112,195.83 -369.112,388 v 0"
         style="fill:#231f20;fill-opacity:1;fill-rule:nonzero;stroke:none"
         id="path40" />
      <path
         d="m 1929.87,2771.64 c 0,111.62 -3.57,120.04 -29.66,128.21 l -99.59,33.43 v 16.45 c 98.43,-4.68 188.73,-9.59 278.84,-9.59 112.8,0 224.44,4.91 328.83,9.59 -1.17,-29.54 -3.63,-72.4 -3.63,-90.16 0,-17.76 2.46,-58.24 3.63,-85.49 h -16.59 l -30.94,89.13 c -11.9,33.14 -21.24,33.14 -157.86,33.14 -68.75,0 -123.44,-1.17 -167.35,-2.34 -2.41,-41.55 -5.91,-85.48 -5.91,-135.21 v -146.05 h 123.38 c 143.64,0 156.72,2.33 167.45,28.35 l 30.82,84.33 h 16.59 c -1.17,-45.11 -2.46,-90.17 -2.46,-134.09 0,-48.66 1.29,-93.86 2.46,-143.59 h -16.59 l -30.82,90.11 c -10.73,26.18 -23.81,28.62 -167.45,28.62 h -123.38 v -161.59 c 0,-54.54 3.5,-109.08 5.91,-158.95 55.83,-1.27 111.64,-4.86 165.01,-4.86 126.92,0 144.8,1.35 156.57,15.37 14.38,17.91 27.34,55.95 48.82,125.91 h 16.57 c -2.43,-34.34 -7.1,-69.96 -7.1,-104.51 v -90.06 c -61.8,4.67 -244.49,9.35 -311.05,9.35 -104.43,0 -218.29,-4.68 -303.75,-9.35 v 16.6 l 91.3,30.7 c 33.28,10.85 37.95,15.52 37.95,106.99 v 429.56 0"
         style="fill:#231f20;fill-opacity:1;fill-rule:nonzero;stroke:none"
         id="path42" />
      <path
         d="m 2614.34,2949.73 c 103.34,-4.68 205.29,-9.59 308.63,-9.59 103.23,0 205.28,4.91 308.62,9.59 v -201.77 h -16.57 l -35.74,94.92 c -16.58,40.38 -28.5,45.2 -206.46,45.2 v -517.54 c 0,-59.31 2.21,-90.16 9.47,-106.85 7.12,-15.42 31.98,-29.63 122.26,-59.3 v -16.6 c -55.83,4.67 -108.01,9.35 -181.58,9.35 -73.68,0 -125.89,-4.68 -181.7,-9.35 v 16.6 c 90.26,29.67 116.44,43.88 122.37,59.3 7.13,16.69 9.46,47.54 9.46,106.85 v 517.54 c -178.07,0 -189.87,-4.82 -206.56,-45.2 l -35.61,-94.92 h -16.59 v 201.77 0"
         style="fill:#231f20;fill-opacity:1;fill-rule:nonzero;stroke:none"
         id="path44" />
      <path
         d="m 3387.63,2204.39 91.41,30.7 c 33.19,10.85 37.96,15.52 37.96,106.99 v 429.56 c 0,111.62 -3.6,120.04 -29.68,128.21 l -99.69,33.43 v 16.45 c 60.47,-4.68 118.76,-9.59 174.57,-9.59 60.38,0 120.9,4.91 183.86,9.59 v -16.45 l -88.94,-29.69 c -35.62,-11.91 -40.58,-20.33 -40.58,-78.47 v -212.37 h 351.38 v 212.37 c 0,58.14 -4.67,66.56 -40.28,78.47 l -89.04,29.69 v 16.45 c 63.06,-4.68 123.49,-9.59 184.11,-9.59 55.66,0 113.85,4.91 174.48,9.59 v -16.45 l -99.75,-33.43 c -26.17,-8.17 -29.68,-16.59 -29.68,-128.21 v -429.56 c 0,-91.47 4.67,-96.14 37.86,-106.99 l 91.57,-30.7 v -16.6 c -57.02,4.67 -125.92,9.35 -186.55,9.35 -41.45,0 -120.95,-4.68 -172.04,-9.35 v 16.6 l 94.97,32.11 c 30.85,9.44 34.35,36.68 34.35,191.01 v 138.97 h -351.38 v -138.97 c 0,-154.33 3.8,-181.57 34.64,-191.01 l 94.88,-32.11 v -16.6 c -50.99,4.67 -130.49,9.35 -172.14,9.35 -60.52,0 -129.33,-4.68 -186.29,-9.35 v 16.6 0"
         style="fill:#231f20;fill-opacity:1;fill-rule:nonzero;stroke:none"
         id="path46" />
      <path
         d="m 4467.56,2771.64 c 0,111.62 -3.51,120.04 -29.73,128.21 l -99.7,33.43 v 16.45 c 98.48,-4.68 188.78,-9.59 278.95,-9.59 112.82,0 224.44,4.91 328.85,9.59 -1.17,-29.54 -3.65,-72.4 -3.65,-90.16 0,-17.76 2.48,-58.24 3.65,-85.49 h -16.64 l -30.8,89.13 c -11.87,33.14 -21.46,33.14 -157.98,33.14 -68.75,0 -123.43,-1.17 -167.28,-2.34 -2.53,-41.55 -6.02,-85.48 -6.02,-135.21 v -146.05 h 123.42 c 143.78,0 156.72,2.33 167.43,28.35 l 30.9,84.33 h 16.54 c -1.17,-45.11 -2.34,-90.17 -2.34,-134.09 0,-48.66 1.17,-93.86 2.34,-143.59 h -16.54 l -30.9,90.11 c -10.71,26.18 -23.65,28.62 -167.43,28.62 h -123.42 v -161.59 c 0,-54.54 3.49,-109.08 6.02,-158.95 55.76,-1.27 111.56,-4.86 164.94,-4.86 126.9,0 144.7,1.35 156.67,15.37 14.31,17.91 27.25,55.95 48.75,125.91 h 16.55 c -2.43,-34.34 -7.2,-69.96 -7.2,-104.51 v -90.06 c -61.65,4.67 -244.54,9.35 -310.91,9.35 -104.41,0 -218.26,-4.68 -303.9,-9.35 v 16.6 l 91.48,30.7 c 33.09,10.85 37.95,15.52 37.95,106.99 v 429.56 0"
         style="fill:#231f20;fill-opacity:1;fill-rule:nonzero;stroke:none"
         id="path48" />
      <path
         d="m 14.7305,22.0391 45.8828,15.5312 c 16.8164,5.3985 19.1484,7.7305 19.1484,53.5586 V 306.961 c 0,56.051 -1.75,60.379 -14.8086,64.48 l -50.2226,16.821 v 8.027 c 52.5508,-2.187 100.7655,-4.519 149.6875,-4.519 48.926,0 97.871,2.332 146.207,4.519 -0.699,-13.527 -1.289,-27.769 -1.289,-41.449 0,-16.789 0.59,-34.11 1.289,-50.801 h -8.414 l -14.258,43.551 c -6.644,17.898 -13.765,17.898 -30.453,17.898 H 132.891 c -1.286,-23.84 -3.036,-47.769 -3.036,-71.468 v -66.899 h 52.543 c 72.059,0 78.723,1.219 84.079,14.359 l 15.543,42.27 h 8.269 c -0.582,-22.57 -1.164,-45.34 -1.164,-67.379 0,-24.43 0.582,-47.051 1.164,-71.961 h -8.269 l -15.543,45.102 c -5.356,13.136 -12.02,14.308 -84.079,14.308 H 129.855 V 91.1289 c 0,-45.8281 2.454,-48.1601 20.336,-53.5586 L 196.07,22.0391 v -8.2578 c -32.23,2.3203 -57.215,4.7695 -92.371,4.7695 -29.3123,0 -57.9217,-2.4492 -88.9685,-4.7695 v 8.2578 0"
         style="fill:#231f20;fill-opacity:1;fill-rule:nonzero;stroke:none"
         id="path50" />
      <path
         d="m 539.016,222.449 h 40.527 c 55.469,0 106.723,8.813 106.723,74.481 0,52.55 -36.321,75.179 -92.371,75.179 -19.149,0 -37,-0.668 -54.879,-0.668 z M 423.895,22.0391 469.773,37.5703 c 16.692,5.3985 19.149,7.7305 19.149,53.5586 V 306.961 c 0,56.051 -1.875,60.379 -14.938,64.48 l -50.089,16.821 v 8.027 c 22.062,-2.187 50.089,-4.519 82.32,-4.519 30.949,0 65.031,4.519 107.308,4.519 78.7,0 129.957,-31.961 129.957,-91.758 0,-60.133 -42.96,-88.75 -97.75,-97.5 L 727.965,84.082 c 34.664,-51.9726 37.582,-56.0507 70.98,-62.0429 v -8.2578 c -13.672,1.1601 -27.898,2.3203 -41.695,2.3203 -14.23,0 -29.285,-1.1602 -44.129,-2.3203 C 674.926,78.1016 621.797,154.34 584.918,202.648 h -45.902 v -68.507 c 0,-77.5121 1.746,-91.1722 17.293,-95.9926 l 47.754,-16.1093 v -8.2578 c -25.688,2.3203 -65.735,4.7695 -86.536,4.7695 -30.48,0 -65.023,-2.4492 -93.632,-4.7695 v 8.2578 0"
         style="fill:#231f20;fill-opacity:1;fill-rule:nonzero;stroke:none"
         id="path52" />
      <path
         d="m 1058.76,321.898 -68.53,-157.98 h 134.16 z M 862.605,22.0391 c 14.231,5.4023 31.043,12.0195 45.293,19.6093 51.965,122.2696 116.312,259.4726 159.272,366.8126 h 13.09 C 1127.9,284.43 1181.61,160.41 1232.28,39.4609 l 50.09,-17.4218 v -8.2578 c -31.65,2.3203 -62.57,4.7695 -94.22,4.7695 -26.85,0 -53,-2.4492 -79.86,-4.7695 v 8.2578 c 14.81,3.6523 40.5,11.4414 58.38,18.4492 -7.13,25.1015 -26.17,81.0117 -34.57,99.0507 -25.11,0.59 -50.67,1.172 -75.78,1.172 -25.01,0 -49.4,-0.582 -74.386,-1.172 C 965.703,109.18 956.246,74 947.949,40.4883 l 51.156,-18.4492 v -8.2578 c -23.253,2.3203 -46.488,4.7695 -70.304,4.7695 -22.067,0 -44.133,-2.4492 -66.196,-4.7695 v 8.2578 0"
         style="fill:#231f20;fill-opacity:1;fill-rule:nonzero;stroke:none"
         id="path54" />
      <path
         d="m 1766.24,385.34 -39.95,-14.5 c -13.06,-4.668 -19.02,-10.75 -19.73,-21.36 -1.75,-48.359 -6.55,-153.878 -6.55,-188.48 0,-24.621 0,-93.0781 1.18,-161 h -14.24 c -38.19,56.6289 -79.28,110.93 -119.81,165.809 L 1446.06,328.57 h -1.16 v -66.808 c 0,-78.672 1.16,-196.1722 2.92,-207.4612 1.85,-9.582 5.93,-14.4024 23.35,-19.6602 l 39.22,-12.6015 v -8.2578 c -26.15,2.3203 -52.89,4.7695 -79.29,4.7695 -25.56,0 -50.67,-2.4492 -76.24,-4.7695 v 8.2578 l 45.3,17.4218 c 8.3,2.7696 13.67,8.1797 14.25,13.6797 2.47,18.8711 6.55,107.8594 6.55,184.2384 v 118.043 l -7.71,11.918 c -18.46,8.281 -37.03,14.84 -56.05,20.922 v 8.027 c 19.02,-2.187 38.17,-4.519 57.21,-4.519 17.86,0 35.84,2.332 53.72,4.519 11.31,-20.668 23.82,-39.789 38.17,-58.82 l 168.73,-226.539 1.17,1.172 v 144.316 c 0,28.602 -0.58,58.031 -2.34,87.082 -1.16,16.59 -5.95,21.41 -23.23,28.609 l -39.36,16.153 v 8.027 c 24.42,-2.187 49.41,-4.519 73.94,-4.519 26.73,0 53.59,2.332 81.03,4.519 v -10.949 0"
         style="fill:#231f20;fill-opacity:1;fill-rule:nonzero;stroke:none"
         id="path56" />
      <path
         d="m 2141.51,22.0391 c 33.4,9.4922 44.15,12.6015 44.15,16.6914 0,4.6679 -4.79,8.4179 -10.17,14.4101 l -150.24,163.2304 125.73,114.527 c 21.6,19.614 33.52,32.114 33.52,38.102 0,6.621 -16.71,10.262 -41.82,19.262 v 8.027 c 25.69,-2.187 51.96,-4.519 77.58,-4.519 22.14,0 44.23,2.332 66.17,4.519 v -8.027 c -16.1,-4.231 -41.7,-10.903 -65,-31.184 L 2080.14,233.641 2255.48,47.1484 c 3.5,-3.75 12.51,-11.4765 14.26,-11.9179 6.06,-3.1211 22.06,-9.5391 37,-13.1914 v -8.2578 c -28.61,2.3203 -58.51,4.7695 -87.65,4.7695 -26.2,0 -51.89,-2.4492 -77.58,-4.7695 z m -246.27,0 46.01,15.5312 c 14.84,5.3985 16.71,7.7305 17.17,53.5586 0.71,35.9101 1.88,72.1991 1.88,107.9611 0,35.719 -1.17,72.16 -1.88,107.871 -1.16,56.051 -1.62,60.379 -13.08,64.48 l -50.1,16.821 v 8.027 c 28.62,-2.187 57.81,-4.519 91.33,-4.519 29.78,0 58.97,2.332 88.75,4.519 v -8.027 l -50.07,-16.821 c -11.36,-4.101 -11.94,-8.429 -13.11,-64.48 -0.59,-35.711 -1.75,-72.152 -1.75,-107.871 0,-35.762 1.16,-72.051 1.75,-107.9611 0.58,-45.8281 2.33,-48.1601 17.27,-53.5586 l 45.91,-15.5312 v -8.2578 c -27.88,2.3203 -62.6,4.7695 -88.75,4.7695 -29.77,0 -64.47,-2.4492 -91.33,-4.7695 v 8.2578 0"
         style="fill:#231f20;fill-opacity:1;fill-rule:nonzero;stroke:none"
         id="path58" />
      <path
         d="m 2403.32,22.0391 45.88,15.5312 c 16.71,5.3985 19.15,7.7305 19.15,53.5586 V 306.961 c 0,56.051 -1.85,60.379 -14.94,64.48 l -50.09,16.821 v 8.027 c 52.42,-2.187 100.76,-4.519 149.68,-4.519 48.83,0 97.75,2.332 146.09,4.519 -0.58,-13.527 -1.17,-27.769 -1.17,-41.449 0,-16.789 0.59,-34.11 1.17,-50.801 h -8.42 l -14.35,43.551 c -6.54,17.898 -13.67,17.898 -30.36,17.898 h -124.58 c -1.29,-23.84 -2.92,-47.769 -2.92,-71.468 v -66.899 h 52.43 c 72.03,0 78.69,1.219 84.07,14.359 l 15.52,42.27 h 8.29 c -0.58,-22.57 -1.16,-45.34 -1.16,-67.379 0,-24.43 0.58,-47.051 1.16,-71.961 h -8.29 l -15.52,45.102 c -5.38,13.136 -12.04,14.308 -84.07,14.308 h -52.43 V 91.1289 c 0,-45.8281 2.34,-48.1601 20.31,-53.5586 l 45.76,-15.5312 v -8.2578 c -32.11,2.3203 -57.21,4.7695 -92.34,4.7695 -29.19,0 -57.93,-2.4492 -88.87,-4.7695 v 8.2578 0"
         style="fill:#231f20;fill-opacity:1;fill-rule:nonzero;stroke:none"
         id="path60" />
      <path
         d="m 3229.06,388.262 -26.28,-10.313 c -15.4,-6.508 -23.81,-11.777 -24.39,-24.371 -1.17,-33.43 0,-82.328 -1.17,-188.34 C 3176.05,49.4805 3119.3,6.62109 3030.55,6.62109 c -86.53,0 -146.77,37.50781 -146.77,128.59791 v 167.66 c 0,50.109 -1.75,62.031 -18.46,68.562 l -42.96,16.821 v 8.027 c 29.31,-2.187 57.33,-4.519 85.36,-4.519 31.53,0 62.57,2.332 94.1,4.519 v -8.027 l -27.44,-10.313 c -32.7,-12.461 -37.47,-14.937 -38.64,-35.711 -1.87,-35.277 -1.87,-86.308 -1.87,-178.32 0,-76.336 17.27,-126.3477 112.22,-126.3477 62.57,0 100.18,38.7695 100.18,110.1917 0,73.519 -0.58,168.308 -5.49,209.316 -1.18,10.852 -10.03,15.621 -26.15,20.871 l -32.82,10.313 v 8.027 c 25.59,-2.187 51.28,-4.519 77.55,-4.519 22.65,0 45.88,2.332 69.7,4.519 v -8.027 0"
         style="fill:#231f20;fill-opacity:1;fill-rule:nonzero;stroke:none"
         id="path62" />
      <path
         d="m 3455.59,222.449 h 40.63 c 55.32,0 106.6,8.813 106.6,74.481 0,52.55 -36.29,75.179 -92.54,75.179 -18.97,0 -36.83,-0.668 -54.69,-0.668 z m -115.21,-200.4099 46.08,15.5312 c 16.59,5.3985 19.02,7.7305 19.02,53.5586 V 306.961 c 0,56.051 -1.75,60.379 -14.93,64.48 l -50.17,16.821 v 8.027 c 22.19,-2.187 50.17,-4.519 82.33,-4.519 30.94,0 65,4.519 107.38,4.519 78.77,0 130.05,-31.961 130.05,-91.758 0,-60.133 -43.01,-88.75 -97.89,-97.5 l 82.32,-122.949 c 34.64,-51.9726 37.56,-56.0507 70.94,-62.0429 v -8.2578 c -13.72,1.1601 -28.03,2.3203 -41.75,2.3203 -14.2,0 -29.19,-1.1602 -44.08,-2.3203 -38.24,64.3203 -91.18,140.5587 -128.21,188.8667 h -45.88 v -68.507 c 0,-77.5121 1.85,-91.1722 17.28,-95.9926 l 47.73,-16.1093 v -8.2578 c -25.69,2.3203 -65.59,4.7695 -86.51,4.7695 -30.36,0 -64.91,-2.4492 -93.71,-4.7695 v 8.2578 0"
         style="fill:#231f20;fill-opacity:1;fill-rule:nonzero;stroke:none"
         id="path64" />
      <path
         d="m 3803.87,396.289 c 51.86,-2.187 103.14,-4.519 155.1,-4.519 51.87,0 103.05,2.332 155.01,4.519 V 295.191 h -8.36 l -18,47.629 c -8.27,20.192 -14.21,22.668 -103.54,22.668 V 105.531 c 0,-29.7693 1.16,-45.3904 4.67,-53.7107 3.51,-7.6914 16.05,-14.9883 61.49,-29.7812 v -8.2578 c -28.12,2.3203 -54.29,4.7695 -91.27,4.7695 -37.08,0 -63.15,-2.4492 -91.36,-4.7695 v 8.2578 c 45.44,14.7929 58.57,22.0898 61.48,29.7812 3.62,8.3203 4.78,23.9414 4.78,53.7107 v 259.957 c -89.63,0 -95.27,-2.476 -103.73,-22.668 l -17.81,-47.629 h -8.46 v 101.098 0"
         style="fill:#231f20;fill-opacity:1;fill-rule:nonzero;stroke:none"
         id="path66" />
      <path
         d="m 4637.09,321.898 -68.55,-157.98 h 134.14 z M 4441.06,22.0391 c 14.21,5.4023 30.94,12.0195 45.16,19.6093 51.82,122.2696 116.27,259.4726 159.24,366.8126 h 13.08 C 4706.33,284.43 4759.89,160.41 4810.69,39.4609 l 50.06,-17.4218 v -8.2578 c -31.52,2.3203 -62.52,4.7695 -94.29,4.7695 -26.85,0 -53.03,-2.4492 -79.89,-4.7695 v 8.2578 c 15.09,3.6523 40.63,11.4414 58.54,18.4492 -7.15,25.1015 -26.28,81.0117 -34.6,99.0507 -25.11,0.59 -50.79,1.172 -75.75,1.172 -24.92,0 -49.58,-0.582 -74.55,-1.172 C 4544.11,109.18 4534.53,74 4526.1,40.4883 l 51.39,-18.4492 v -8.2578 c -23.26,2.3203 -46.46,4.7695 -70.4,4.7695 -22.04,0 -44.13,-2.4492 -66.03,-4.7695 v 8.2578 0"
         style="fill:#231f20;fill-opacity:1;fill-rule:nonzero;stroke:none"
         id="path68" />
      <path
         d="m 4950.66,22.0391 31.68,11.4414 c 20.87,7.5898 23.22,10.6484 26.27,30.2109 14.94,93.2306 30.36,246.4376 30.36,290.5586 0,10.66 -4.22,17.191 -15.42,21.371 l -34.06,12.641 v 8.027 c 38.24,-2.187 78.23,-3.937 113.95,-4.519 36.88,-93.661 78.14,-185.911 119.89,-278.5 47.1,91.421 88.3,184.839 127.57,278.5 35.22,0.582 74.44,2.332 114.53,4.519 v -8.027 l -26.27,-10.313 c -24.42,-9.429 -29.19,-13.039 -29.19,-23.699 0,-41.199 26.27,-258.7383 32.79,-296.4492 3.16,-18.3399 10.17,-22.5703 24.42,-26.8516 l 32.21,-8.9101 v -8.2578 c -27.44,2.3203 -55.46,4.7695 -83.49,4.7695 -28.02,0 -55.47,-2.4492 -82.9,-4.7695 v 8.2578 l 29.29,10.0703 c 20.23,6.6211 26.17,15.039 26.17,20.4414 0,29.7773 -28.03,256.3082 -32.11,285.5002 h -1.27 C 5302.64,225.371 5257.33,122.66 5212.63,13.7813 h -7.84 C 5162.41,127.039 5112.29,235.641 5063.94,344.57 h -1.18 c -7.68,-78.718 -18.87,-246.7184 -18.87,-286.7692 0,-13.6719 5.35,-19.6524 21.94,-25.1016 l 31.09,-10.6601 v -8.2578 c -25.69,2.3203 -50.8,4.7695 -76.38,4.7695 -23.36,0 -46.52,-2.4492 -69.88,-4.7695 v 8.2578 0"
         style="fill:#231f20;fill-opacity:1;fill-rule:nonzero;stroke:none"
         id="path70" />
      <path
         d="m 5844.67,22.0391 31.53,11.4414 c 20.87,7.5898 23.2,10.6484 26.27,30.2109 14.93,93.2306 30.36,246.4376 30.36,290.5586 0,10.66 -4.23,17.191 -15.43,21.371 l -34.1,12.641 v 8.027 c 38.19,-2.187 78.23,-3.937 113.96,-4.519 37.02,-93.661 78.12,-185.911 119.83,-278.5 47.14,91.421 88.41,184.839 127.71,278.5 35.18,0.582 74.54,2.332 114.44,4.519 v -8.027 l -26.12,-10.313 c -24.54,-9.429 -29.35,-13.039 -29.35,-23.699 0,-41.199 26.18,-258.7383 32.84,-296.4492 2.92,-18.3399 10.17,-22.5703 24.38,-26.8516 l 32.25,-8.9101 v -8.2578 c -27.44,2.3203 -55.47,4.7695 -83.48,4.7695 -28.03,0 -55.47,-2.4492 -82.91,-4.7695 v 8.2578 l 29.29,10.0703 c 20.19,6.6211 26.17,15.039 26.17,20.4414 0,29.7773 -28.02,256.3082 -32.25,285.5002 h -1.03 C 6196.48,225.371 6151.04,122.66 6106.33,13.7813 h -7.69 C 6056.37,127.039 6006.15,235.641 5957.79,344.57 h -1.17 c -7.68,-78.718 -19.02,-246.7184 -19.02,-286.7692 0,-13.6719 5.35,-19.6524 22.19,-25.1016 l 30.93,-10.6601 v -8.2578 c -25.68,2.3203 -50.69,4.7695 -76.37,4.7695 -23.22,0 -46.47,-2.4492 -69.68,-4.7695 v 8.2578 0"
         style="fill:#231f20;fill-opacity:1;fill-rule:nonzero;stroke:none"
         id="path72" />
      <path
         d="m 6669.43,321.898 -68.65,-157.98 h 134.39 z M 6473.26,22.0391 c 14.35,5.4023 31.09,12.0195 45.29,19.6093 51.97,122.2696 116.33,259.4726 159.3,366.8126 h 13.09 C 6738.57,284.43 6792.38,160.41 6842.98,39.4609 l 50.21,-17.4218 v -8.2578 c -31.82,2.3203 -62.76,4.7695 -94.24,4.7695 -26.86,0 -53.28,-2.4492 -79.99,-4.7695 v 8.2578 c 14.84,3.6523 40.53,11.4414 58.38,18.4492 -7.14,25.1015 -26.17,81.0117 -34.44,99.0507 -25.01,0.59 -50.8,1.172 -75.8,1.172 -25.11,0 -49.49,-0.582 -74.59,-1.172 C 6576.36,109.18 6566.91,74 6558.5,40.4883 l 51.38,-18.4492 v -8.2578 c -23.21,2.3203 -46.56,4.7695 -70.4,4.7695 -22.1,0 -44.14,-2.4492 -66.22,-4.7695 v 8.2578 0"
         style="fill:#231f20;fill-opacity:1;fill-rule:nonzero;stroke:none"
         id="path74" />
      <path
         d="m 6974.85,22.0391 45.99,15.5312 c 14.93,5.3985 16.69,7.7305 17.28,53.5586 0.57,35.9101 1.84,72.1991 1.84,107.9611 0,35.719 -1.27,72.16 -1.84,107.871 -1.08,56.051 -1.86,60.379 -13.05,64.48 l -50.22,16.821 v 8.027 c 28.62,-2.187 57.9,-4.519 91.38,-4.519 29.68,0 58.97,2.332 88.75,4.519 v -8.027 l -49.92,-16.821 c -11.49,-4.101 -11.97,-8.429 -13.23,-64.48 -0.59,-35.711 -1.76,-72.152 -1.76,-107.871 0,-35.762 1.17,-72.051 1.76,-107.9611 0.57,-45.8281 2.33,-48.1601 17.16,-53.5586 l 45.99,-15.5312 v -8.2578 c -28.03,2.3203 -62.58,4.7695 -88.75,4.7695 -29.97,0 -64.42,-2.4492 -91.38,-4.7695 v 8.2578 0"
         style="fill:#231f20;fill-opacity:1;fill-rule:nonzero;stroke:none"
         id="path76" />
      <path
         d="m 7682.49,385.34 -40.1,-14.5 c -13.03,-4.668 -18.97,-10.75 -19.69,-21.36 -1.76,-48.359 -6.43,-153.878 -6.43,-188.48 0,-24.621 0,-93.0781 1.17,-161 h -14.35 c -38.05,56.6289 -79.21,110.93 -119.79,165.809 L 7362.29,328.57 h -1.35 v -66.808 c 0,-78.672 1.35,-196.1722 3.1,-207.4612 1.86,-9.582 5.94,-14.4024 23.26,-19.6602 l 39.31,-12.6015 v -8.2578 c -26.27,2.3203 -53.12,4.7695 -79.26,4.7695 -25.83,0 -50.64,-2.4492 -76.48,-4.7695 v 8.2578 l 45.55,17.4218 c 8.32,2.7696 13.67,8.1797 14.25,13.6797 2.34,18.8711 6.52,107.8594 6.52,184.2384 v 118.043 l -7.69,11.918 c -18.58,8.281 -37.02,14.84 -56.05,20.922 v 8.027 c 19.03,-2.187 38.05,-4.519 57.22,-4.519 17.86,0 35.72,2.332 53.81,4.519 11.1,-20.668 23.6,-39.789 37.95,-58.82 l 168.88,-226.539 1.16,1.172 v 144.316 c 0,28.602 -0.58,58.031 -2.48,87.082 -1.16,16.59 -5.98,21.41 -23.2,28.609 l -39.27,16.153 v 8.027 c 24.34,-2.187 49.43,-4.519 73.95,-4.519 26.87,0 53.58,2.332 81.02,4.519 v -10.949 0"
         style="fill:#231f20;fill-opacity:1;fill-rule:nonzero;stroke:none"
         id="path78" />
    </g>
  </g>
</svg>
