<?xml version="1.0" encoding="utf-8"?>
<svg viewBox="0 0 865 865" preserveAspectRatio="xMinYMin" xmlns="http://www.w3.org/2000/svg">
  <path d="M 0 0 L 29.828 0 L 29.828 29.828 L 0 29.828 L 0 0 Z M 29.828 0 L 59.655 0 L 59.655 29.828 L 29.828 29.828 L 29.828 0 Z M 59.655 0 L 89.483 0 L 89.483 29.828 L 59.655 29.828 L 59.655 0 Z M 89.483 0 L 119.31 0 L 119.31 29.828 L 89.483 29.828 L 89.483 0 Z M 119.31 0 L 149.138 0 L 149.138 29.828 L 119.31 29.828 L 119.31 0 Z M 149.138 0 L 178.966 0 L 178.966 29.828 L 149.138 29.828 L 149.138 0 Z M 178.966 0 L 208.793 0 L 208.793 29.828 L 178.966 29.828 L 178.966 0 Z M 268.448 0 L 298.276 0 L 298.276 29.828 L 268.448 29.828 L 268.448 0 Z M 298.276 0 L 328.103 0 L 328.103 29.828 L 298.276 29.828 L 298.276 0 Z M 328.103 0 L 357.931 0 L 357.931 29.828 L 328.103 29.828 L 328.103 0 Z M 387.759 0 L 417.586 0 L 417.586 29.828 L 387.759 29.828 L 387.759 0 Z M 417.586 0 L 447.414 0 L 447.414 29.828 L 417.586 29.828 L 417.586 0 Z M 447.414 0 L 477.241 0 L 477.241 29.828 L 447.414 29.828 L 447.414 0 Z M 536.897 0 L 566.724 0 L 566.724 29.828 L 536.897 29.828 L 536.897 0 Z M 596.552 0 L 626.379 0 L 626.379 29.828 L 596.552 29.828 L 596.552 0 Z M 656.207 0 L 686.034 0 L 686.034 29.828 L 656.207 29.828 L 656.207 0 Z M 686.034 0 L 715.862 0 L 715.862 29.828 L 686.034 29.828 L 686.034 0 Z M 715.862 0 L 745.69 0 L 745.69 29.828 L 715.862 29.828 L 715.862 0 Z M 745.69 0 L 775.517 0 L 775.517 29.828 L 745.69 29.828 L 745.69 0 Z M 775.517 0 L 805.345 0 L 805.345 29.828 L 775.517 29.828 L 775.517 0 Z M 805.345 0 L 835.172 0 L 835.172 29.828 L 805.345 29.828 L 805.345 0 Z M 835.172 0 L 865 0 L 865 29.828 L 835.172 29.828 L 835.172 0 Z M 0 29.828 L 29.828 29.828 L 29.828 59.655 L 0 59.655 L 0 29.828 Z M 178.966 29.828 L 208.793 29.828 L 208.793 59.655 L 178.966 59.655 L 178.966 29.828 Z M 328.103 29.828 L 357.931 29.828 L 357.931 59.655 L 328.103 59.655 L 328.103 29.828 Z M 357.931 29.828 L 387.759 29.828 L 387.759 59.655 L 357.931 59.655 L 357.931 29.828 Z M 447.414 29.828 L 477.241 29.828 L 477.241 59.655 L 447.414 59.655 L 447.414 29.828 Z M 507.069 29.828 L 536.897 29.828 L 536.897 59.655 L 507.069 59.655 L 507.069 29.828 Z M 596.552 29.828 L 626.379 29.828 L 626.379 59.655 L 596.552 59.655 L 596.552 29.828 Z M 656.207 29.828 L 686.034 29.828 L 686.034 59.655 L 656.207 59.655 L 656.207 29.828 Z M 835.172 29.828 L 865 29.828 L 865 59.655 L 835.172 59.655 L 835.172 29.828 Z M 0 59.655 L 29.828 59.655 L 29.828 89.483 L 0 89.483 L 0 59.655 Z M 59.655 59.655 L 89.483 59.655 L 89.483 89.483 L 59.655 89.483 L 59.655 59.655 Z M 89.483 59.655 L 119.31 59.655 L 119.31 89.483 L 89.483 89.483 L 89.483 59.655 Z M 119.31 59.655 L 149.138 59.655 L 149.138 89.483 L 119.31 89.483 L 119.31 59.655 Z M 178.966 59.655 L 208.793 59.655 L 208.793 89.483 L 178.966 89.483 L 178.966 59.655 Z M 268.448 59.655 L 298.276 59.655 L 298.276 89.483 L 268.448 89.483 L 268.448 59.655 Z M 298.276 59.655 L 328.103 59.655 L 328.103 89.483 L 298.276 89.483 L 298.276 59.655 Z M 328.103 59.655 L 357.931 59.655 L 357.931 89.483 L 328.103 89.483 L 328.103 59.655 Z M 417.586 59.655 L 447.414 59.655 L 447.414 89.483 L 417.586 89.483 L 417.586 59.655 Z M 477.241 59.655 L 507.069 59.655 L 507.069 89.483 L 477.241 89.483 L 477.241 59.655 Z M 566.724 59.655 L 596.552 59.655 L 596.552 89.483 L 566.724 89.483 L 566.724 59.655 Z M 656.207 59.655 L 686.034 59.655 L 686.034 89.483 L 656.207 89.483 L 656.207 59.655 Z M 715.862 59.655 L 745.69 59.655 L 745.69 89.483 L 715.862 89.483 L 715.862 59.655 Z M 745.69 59.655 L 775.517 59.655 L 775.517 89.483 L 745.69 89.483 L 745.69 59.655 Z M 775.517 59.655 L 805.345 59.655 L 805.345 89.483 L 775.517 89.483 L 775.517 59.655 Z M 835.172 59.655 L 865 59.655 L 865 89.483 L 835.172 89.483 L 835.172 59.655 Z M 0 89.483 L 29.828 89.483 L 29.828 119.31 L 0 119.31 L 0 89.483 Z M 59.655 89.483 L 89.483 89.483 L 89.483 119.31 L 59.655 119.31 L 59.655 89.483 Z M 89.483 89.483 L 119.31 89.483 L 119.31 119.31 L 89.483 119.31 L 89.483 89.483 Z M 119.31 89.483 L 149.138 89.483 L 149.138 119.31 L 119.31 119.31 L 119.31 89.483 Z M 178.966 89.483 L 208.793 89.483 L 208.793 119.31 L 178.966 119.31 L 178.966 89.483 Z M 238.621 89.483 L 268.448 89.483 L 268.448 119.31 L 238.621 119.31 L 238.621 89.483 Z M 298.276 89.483 L 328.103 89.483 L 328.103 119.31 L 298.276 119.31 L 298.276 89.483 Z M 328.103 89.483 L 357.931 89.483 L 357.931 119.31 L 328.103 119.31 L 328.103 89.483 Z M 417.586 89.483 L 447.414 89.483 L 447.414 119.31 L 417.586 119.31 L 417.586 89.483 Z M 447.414 89.483 L 477.241 89.483 L 477.241 119.31 L 447.414 119.31 L 447.414 89.483 Z M 477.241 89.483 L 507.069 89.483 L 507.069 119.31 L 477.241 119.31 L 477.241 89.483 Z M 507.069 89.483 L 536.897 89.483 L 536.897 119.31 L 507.069 119.31 L 507.069 89.483 Z M 656.207 89.483 L 686.034 89.483 L 686.034 119.31 L 656.207 119.31 L 656.207 89.483 Z M 715.862 89.483 L 745.69 89.483 L 745.69 119.31 L 715.862 119.31 L 715.862 89.483 Z M 745.69 89.483 L 775.517 89.483 L 775.517 119.31 L 745.69 119.31 L 745.69 89.483 Z M 775.517 89.483 L 805.345 89.483 L 805.345 119.31 L 775.517 119.31 L 775.517 89.483 Z M 835.172 89.483 L 865 89.483 L 865 119.31 L 835.172 119.31 L 835.172 89.483 Z M 0 119.31 L 29.828 119.31 L 29.828 149.138 L 0 149.138 L 0 119.31 Z M 59.655 119.31 L 89.483 119.31 L 89.483 149.138 L 59.655 149.138 L 59.655 119.31 Z M 89.483 119.31 L 119.31 119.31 L 119.31 149.138 L 89.483 149.138 L 89.483 119.31 Z M 119.31 119.31 L 149.138 119.31 L 149.138 149.138 L 119.31 149.138 L 119.31 119.31 Z M 178.966 119.31 L 208.793 119.31 L 208.793 149.138 L 178.966 149.138 L 178.966 119.31 Z M 238.621 119.31 L 268.448 119.31 L 268.448 149.138 L 238.621 149.138 L 238.621 119.31 Z M 298.276 119.31 L 328.103 119.31 L 328.103 149.138 L 298.276 149.138 L 298.276 119.31 Z M 357.931 119.31 L 387.759 119.31 L 387.759 149.138 L 357.931 149.138 L 357.931 119.31 Z M 387.759 119.31 L 417.586 119.31 L 417.586 149.138 L 387.759 149.138 L 387.759 119.31 Z M 417.586 119.31 L 447.414 119.31 L 447.414 149.138 L 417.586 149.138 L 417.586 119.31 Z M 447.414 119.31 L 477.241 119.31 L 477.241 149.138 L 447.414 149.138 L 447.414 119.31 Z M 507.069 119.31 L 536.897 119.31 L 536.897 149.138 L 507.069 149.138 L 507.069 119.31 Z M 536.897 119.31 L 566.724 119.31 L 566.724 149.138 L 536.897 149.138 L 536.897 119.31 Z M 566.724 119.31 L 596.552 119.31 L 596.552 149.138 L 566.724 149.138 L 566.724 119.31 Z M 596.552 119.31 L 626.379 119.31 L 626.379 149.138 L 596.552 149.138 L 596.552 119.31 Z M 656.207 119.31 L 686.034 119.31 L 686.034 149.138 L 656.207 149.138 L 656.207 119.31 Z M 715.862 119.31 L 745.69 119.31 L 745.69 149.138 L 715.862 149.138 L 715.862 119.31 Z M 745.69 119.31 L 775.517 119.31 L 775.517 149.138 L 745.69 149.138 L 745.69 119.31 Z M 775.517 119.31 L 805.345 119.31 L 805.345 149.138 L 775.517 149.138 L 775.517 119.31 Z M 835.172 119.31 L 865 119.31 L 865 149.138 L 835.172 149.138 L 835.172 119.31 Z M 0 149.138 L 29.828 149.138 L 29.828 178.966 L 0 178.966 L 0 149.138 Z M 178.966 149.138 L 208.793 149.138 L 208.793 178.966 L 178.966 178.966 L 178.966 149.138 Z M 268.448 149.138 L 298.276 149.138 L 298.276 178.966 L 268.448 178.966 L 268.448 149.138 Z M 298.276 149.138 L 328.103 149.138 L 328.103 178.966 L 298.276 178.966 L 298.276 149.138 Z M 387.759 149.138 L 417.586 149.138 L 417.586 178.966 L 387.759 178.966 L 387.759 149.138 Z M 417.586 149.138 L 447.414 149.138 L 447.414 178.966 L 417.586 178.966 L 417.586 149.138 Z M 507.069 149.138 L 536.897 149.138 L 536.897 178.966 L 507.069 178.966 L 507.069 149.138 Z M 596.552 149.138 L 626.379 149.138 L 626.379 178.966 L 596.552 178.966 L 596.552 149.138 Z M 656.207 149.138 L 686.034 149.138 L 686.034 178.966 L 656.207 178.966 L 656.207 149.138 Z M 835.172 149.138 L 865 149.138 L 865 178.966 L 835.172 178.966 L 835.172 149.138 Z M 0 178.966 L 29.828 178.966 L 29.828 208.793 L 0 208.793 L 0 178.966 Z M 29.828 178.966 L 59.655 178.966 L 59.655 208.793 L 29.828 208.793 L 29.828 178.966 Z M 59.655 178.966 L 89.483 178.966 L 89.483 208.793 L 59.655 208.793 L 59.655 178.966 Z M 89.483 178.966 L 119.31 178.966 L 119.31 208.793 L 89.483 208.793 L 89.483 178.966 Z M 119.31 178.966 L 149.138 178.966 L 149.138 208.793 L 119.31 208.793 L 119.31 178.966 Z M 149.138 178.966 L 178.966 178.966 L 178.966 208.793 L 149.138 208.793 L 149.138 178.966 Z M 178.966 178.966 L 208.793 178.966 L 208.793 208.793 L 178.966 208.793 L 178.966 178.966 Z M 238.621 178.966 L 268.448 178.966 L 268.448 208.793 L 238.621 208.793 L 238.621 178.966 Z M 298.276 178.966 L 328.103 178.966 L 328.103 208.793 L 298.276 208.793 L 298.276 178.966 Z M 357.931 178.966 L 387.759 178.966 L 387.759 208.793 L 357.931 208.793 L 357.931 178.966 Z M 417.586 178.966 L 447.414 178.966 L 447.414 208.793 L 417.586 208.793 L 417.586 178.966 Z M 477.241 178.966 L 507.069 178.966 L 507.069 208.793 L 477.241 208.793 L 477.241 178.966 Z M 536.897 178.966 L 566.724 178.966 L 566.724 208.793 L 536.897 208.793 L 536.897 178.966 Z M 596.552 178.966 L 626.379 178.966 L 626.379 208.793 L 596.552 208.793 L 596.552 178.966 Z M 656.207 178.966 L 686.034 178.966 L 686.034 208.793 L 656.207 208.793 L 656.207 178.966 Z M 686.034 178.966 L 715.862 178.966 L 715.862 208.793 L 686.034 208.793 L 686.034 178.966 Z M 715.862 178.966 L 745.69 178.966 L 745.69 208.793 L 715.862 208.793 L 715.862 178.966 Z M 745.69 178.966 L 775.517 178.966 L 775.517 208.793 L 745.69 208.793 L 745.69 178.966 Z M 775.517 178.966 L 805.345 178.966 L 805.345 208.793 L 775.517 208.793 L 775.517 178.966 Z M 805.345 178.966 L 835.172 178.966 L 835.172 208.793 L 805.345 208.793 L 805.345 178.966 Z M 835.172 178.966 L 865 178.966 L 865 208.793 L 835.172 208.793 L 835.172 178.966 Z M 268.448 208.793 L 298.276 208.793 L 298.276 238.621 L 268.448 238.621 L 268.448 208.793 Z M 357.931 208.793 L 387.759 208.793 L 387.759 238.621 L 357.931 238.621 L 357.931 208.793 Z M 387.759 208.793 L 417.586 208.793 L 417.586 238.621 L 387.759 238.621 L 387.759 208.793 Z M 477.241 208.793 L 507.069 208.793 L 507.069 238.621 L 477.241 238.621 L 477.241 208.793 Z M 536.897 208.793 L 566.724 208.793 L 566.724 238.621 L 536.897 238.621 L 536.897 208.793 Z M 566.724 208.793 L 596.552 208.793 L 596.552 238.621 L 566.724 238.621 L 566.724 208.793 Z M 596.552 208.793 L 626.379 208.793 L 626.379 238.621 L 596.552 238.621 L 596.552 208.793 Z M 0 238.621 L 29.828 238.621 L 29.828 268.448 L 0 268.448 L 0 238.621 Z M 29.828 238.621 L 59.655 238.621 L 59.655 268.448 L 29.828 268.448 L 29.828 238.621 Z M 149.138 238.621 L 178.966 238.621 L 178.966 268.448 L 149.138 268.448 L 149.138 238.621 Z M 178.966 238.621 L 208.793 238.621 L 208.793 268.448 L 178.966 268.448 L 178.966 238.621 Z M 208.793 238.621 L 238.621 238.621 L 238.621 268.448 L 208.793 268.448 L 208.793 238.621 Z M 268.448 238.621 L 298.276 238.621 L 298.276 268.448 L 268.448 268.448 L 268.448 238.621 Z M 298.276 238.621 L 328.103 238.621 L 328.103 268.448 L 298.276 268.448 L 298.276 238.621 Z M 357.931 238.621 L 387.759 238.621 L 387.759 268.448 L 357.931 268.448 L 357.931 238.621 Z M 417.586 238.621 L 447.414 238.621 L 447.414 268.448 L 417.586 268.448 L 417.586 238.621 Z M 447.414 238.621 L 477.241 238.621 L 477.241 268.448 L 447.414 268.448 L 447.414 238.621 Z M 507.069 238.621 L 536.897 238.621 L 536.897 268.448 L 507.069 268.448 L 507.069 238.621 Z M 566.724 238.621 L 596.552 238.621 L 596.552 268.448 L 566.724 268.448 L 566.724 238.621 Z M 715.862 238.621 L 745.69 238.621 L 745.69 268.448 L 715.862 268.448 L 715.862 238.621 Z M 745.69 238.621 L 775.517 238.621 L 775.517 268.448 L 745.69 268.448 L 745.69 238.621 Z M 0 268.448 L 29.828 268.448 L 29.828 298.276 L 0 298.276 L 0 268.448 Z M 149.138 268.448 L 178.966 268.448 L 178.966 298.276 L 149.138 298.276 L 149.138 268.448 Z M 238.621 268.448 L 268.448 268.448 L 268.448 298.276 L 238.621 298.276 L 238.621 268.448 Z M 298.276 268.448 L 328.103 268.448 L 328.103 298.276 L 298.276 298.276 L 298.276 268.448 Z M 417.586 268.448 L 447.414 268.448 L 447.414 298.276 L 417.586 298.276 L 417.586 268.448 Z M 447.414 268.448 L 477.241 268.448 L 477.241 298.276 L 447.414 298.276 L 447.414 268.448 Z M 536.897 268.448 L 566.724 268.448 L 566.724 298.276 L 536.897 298.276 L 536.897 268.448 Z M 566.724 268.448 L 596.552 268.448 L 596.552 298.276 L 566.724 298.276 L 566.724 268.448 Z M 596.552 268.448 L 626.379 268.448 L 626.379 298.276 L 596.552 298.276 L 596.552 268.448 Z M 686.034 268.448 L 715.862 268.448 L 715.862 298.276 L 686.034 298.276 L 686.034 268.448 Z M 715.862 268.448 L 745.69 268.448 L 745.69 298.276 L 715.862 298.276 L 715.862 268.448 Z M 775.517 268.448 L 805.345 268.448 L 805.345 298.276 L 775.517 298.276 L 775.517 268.448 Z M 805.345 268.448 L 835.172 268.448 L 835.172 298.276 L 805.345 298.276 L 805.345 268.448 Z M 29.828 298.276 L 59.655 298.276 L 59.655 328.103 L 29.828 328.103 L 29.828 298.276 Z M 59.655 298.276 L 89.483 298.276 L 89.483 328.103 L 59.655 328.103 L 59.655 298.276 Z M 89.483 298.276 L 119.31 298.276 L 119.31 328.103 L 89.483 328.103 L 89.483 298.276 Z M 119.31 298.276 L 149.138 298.276 L 149.138 328.103 L 119.31 328.103 L 119.31 298.276 Z M 178.966 298.276 L 208.793 298.276 L 208.793 328.103 L 178.966 328.103 L 178.966 298.276 Z M 208.793 298.276 L 238.621 298.276 L 238.621 328.103 L 208.793 328.103 L 208.793 298.276 Z M 238.621 298.276 L 268.448 298.276 L 268.448 328.103 L 238.621 328.103 L 238.621 298.276 Z M 268.448 298.276 L 298.276 298.276 L 298.276 328.103 L 268.448 328.103 L 268.448 298.276 Z M 328.103 298.276 L 357.931 298.276 L 357.931 328.103 L 328.103 328.103 L 328.103 298.276 Z M 357.931 298.276 L 387.759 298.276 L 387.759 328.103 L 357.931 328.103 L 357.931 298.276 Z M 447.414 298.276 L 477.241 298.276 L 477.241 328.103 L 447.414 328.103 L 447.414 298.276 Z M 477.241 298.276 L 507.069 298.276 L 507.069 328.103 L 477.241 328.103 L 477.241 298.276 Z M 596.552 298.276 L 626.379 298.276 L 626.379 328.103 L 596.552 328.103 L 596.552 298.276 Z M 626.379 298.276 L 656.207 298.276 L 656.207 328.103 L 626.379 328.103 L 626.379 298.276 Z M 686.034 298.276 L 715.862 298.276 L 715.862 328.103 L 686.034 328.103 L 686.034 298.276 Z M 715.862 298.276 L 745.69 298.276 L 745.69 328.103 L 715.862 328.103 L 715.862 298.276 Z M 0 328.103 L 29.828 328.103 L 29.828 357.931 L 0 357.931 L 0 328.103 Z M 29.828 328.103 L 59.655 328.103 L 59.655 357.931 L 29.828 357.931 L 29.828 328.103 Z M 89.483 328.103 L 119.31 328.103 L 119.31 357.931 L 89.483 357.931 L 89.483 328.103 Z M 119.31 328.103 L 149.138 328.103 L 149.138 357.931 L 119.31 357.931 L 119.31 328.103 Z M 149.138 328.103 L 178.966 328.103 L 178.966 357.931 L 149.138 357.931 L 149.138 328.103 Z M 298.276 328.103 L 328.103 328.103 L 328.103 357.931 L 298.276 357.931 L 298.276 328.103 Z M 328.103 328.103 L 357.931 328.103 L 357.931 357.931 L 328.103 357.931 L 328.103 328.103 Z M 417.586 328.103 L 447.414 328.103 L 447.414 357.931 L 417.586 357.931 L 417.586 328.103 Z M 447.414 328.103 L 477.241 328.103 L 477.241 357.931 L 447.414 357.931 L 447.414 328.103 Z M 477.241 328.103 L 507.069 328.103 L 507.069 357.931 L 477.241 357.931 L 477.241 328.103 Z M 596.552 328.103 L 626.379 328.103 L 626.379 357.931 L 596.552 357.931 L 596.552 328.103 Z M 656.207 328.103 L 686.034 328.103 L 686.034 357.931 L 656.207 357.931 L 656.207 328.103 Z M 745.69 328.103 L 775.517 328.103 L 775.517 357.931 L 745.69 357.931 L 745.69 328.103 Z M 0 357.931 L 29.828 357.931 L 29.828 387.759 L 0 387.759 L 0 357.931 Z M 59.655 357.931 L 89.483 357.931 L 89.483 387.759 L 59.655 387.759 L 59.655 357.931 Z M 119.31 357.931 L 149.138 357.931 L 149.138 387.759 L 119.31 387.759 L 119.31 357.931 Z M 178.966 357.931 L 208.793 357.931 L 208.793 387.759 L 178.966 387.759 L 178.966 357.931 Z M 208.793 357.931 L 238.621 357.931 L 238.621 387.759 L 208.793 387.759 L 208.793 357.931 Z M 238.621 357.931 L 268.448 357.931 L 268.448 387.759 L 238.621 387.759 L 238.621 357.931 Z M 268.448 357.931 L 298.276 357.931 L 298.276 387.759 L 268.448 387.759 L 268.448 357.931 Z M 298.276 357.931 L 328.103 357.931 L 328.103 387.759 L 298.276 387.759 L 298.276 357.931 Z M 387.759 357.931 L 417.586 357.931 L 417.586 387.759 L 387.759 387.759 L 387.759 357.931 Z M 417.586 357.931 L 447.414 357.931 L 447.414 387.759 L 417.586 387.759 L 417.586 357.931 Z M 477.241 357.931 L 507.069 357.931 L 507.069 387.759 L 477.241 387.759 L 477.241 357.931 Z M 596.552 357.931 L 626.379 357.931 L 626.379 387.759 L 596.552 387.759 L 596.552 357.931 Z M 656.207 357.931 L 686.034 357.931 L 686.034 387.759 L 656.207 387.759 L 656.207 357.931 Z M 686.034 357.931 L 715.862 357.931 L 715.862 387.759 L 686.034 387.759 L 686.034 357.931 Z M 835.172 357.931 L 865 357.931 L 865 387.759 L 835.172 387.759 L 835.172 357.931 Z M 0 387.759 L 29.828 387.759 L 29.828 417.586 L 0 417.586 L 0 387.759 Z M 29.828 387.759 L 59.655 387.759 L 59.655 417.586 L 29.828 417.586 L 29.828 387.759 Z M 119.31 387.759 L 149.138 387.759 L 149.138 417.586 L 119.31 417.586 L 119.31 387.759 Z M 149.138 387.759 L 178.966 387.759 L 178.966 417.586 L 149.138 417.586 L 149.138 387.759 Z M 268.448 387.759 L 298.276 387.759 L 298.276 417.586 L 268.448 417.586 L 268.448 387.759 Z M 298.276 387.759 L 328.103 387.759 L 328.103 417.586 L 298.276 417.586 L 298.276 387.759 Z M 357.931 387.759 L 387.759 387.759 L 387.759 417.586 L 357.931 417.586 L 357.931 387.759 Z M 387.759 387.759 L 417.586 387.759 L 417.586 417.586 L 387.759 417.586 L 387.759 387.759 Z M 417.586 387.759 L 447.414 387.759 L 447.414 417.586 L 417.586 417.586 L 417.586 387.759 Z M 447.414 387.759 L 477.241 387.759 L 477.241 417.586 L 447.414 417.586 L 447.414 387.759 Z M 477.241 387.759 L 507.069 387.759 L 507.069 417.586 L 477.241 417.586 L 477.241 387.759 Z M 507.069 387.759 L 536.897 387.759 L 536.897 417.586 L 507.069 417.586 L 507.069 387.759 Z M 536.897 387.759 L 566.724 387.759 L 566.724 417.586 L 536.897 417.586 L 536.897 387.759 Z M 566.724 387.759 L 596.552 387.759 L 596.552 417.586 L 566.724 417.586 L 566.724 387.759 Z M 596.552 387.759 L 626.379 387.759 L 626.379 417.586 L 596.552 417.586 L 596.552 387.759 Z M 626.379 387.759 L 656.207 387.759 L 656.207 417.586 L 626.379 417.586 L 626.379 387.759 Z M 656.207 387.759 L 686.034 387.759 L 686.034 417.586 L 656.207 417.586 L 656.207 387.759 Z M 686.034 387.759 L 715.862 387.759 L 715.862 417.586 L 686.034 417.586 L 686.034 387.759 Z M 715.862 387.759 L 745.69 387.759 L 745.69 417.586 L 715.862 417.586 L 715.862 387.759 Z M 805.345 387.759 L 835.172 387.759 L 835.172 417.586 L 805.345 417.586 L 805.345 387.759 Z M 835.172 387.759 L 865 387.759 L 865 417.586 L 835.172 417.586 L 835.172 387.759 Z M 29.828 417.586 L 59.655 417.586 L 59.655 447.414 L 29.828 447.414 L 29.828 417.586 Z M 149.138 417.586 L 178.966 417.586 L 178.966 447.414 L 149.138 447.414 L 149.138 417.586 Z M 178.966 417.586 L 208.793 417.586 L 208.793 447.414 L 178.966 447.414 L 178.966 417.586 Z M 268.448 417.586 L 298.276 417.586 L 298.276 447.414 L 268.448 447.414 L 268.448 417.586 Z M 387.759 417.586 L 417.586 417.586 L 417.586 447.414 L 387.759 447.414 L 387.759 417.586 Z M 417.586 417.586 L 447.414 417.586 L 447.414 447.414 L 417.586 447.414 L 417.586 417.586 Z M 447.414 417.586 L 477.241 417.586 L 477.241 447.414 L 447.414 447.414 L 447.414 417.586 Z M 477.241 417.586 L 507.069 417.586 L 507.069 447.414 L 477.241 447.414 L 477.241 417.586 Z M 536.897 417.586 L 566.724 417.586 L 566.724 447.414 L 536.897 447.414 L 536.897 417.586 Z M 596.552 417.586 L 626.379 417.586 L 626.379 447.414 L 596.552 447.414 L 596.552 417.586 Z M 626.379 417.586 L 656.207 417.586 L 656.207 447.414 L 626.379 447.414 L 626.379 417.586 Z M 686.034 417.586 L 715.862 417.586 L 715.862 447.414 L 686.034 447.414 L 686.034 417.586 Z M 745.69 417.586 L 775.517 417.586 L 775.517 447.414 L 745.69 447.414 L 745.69 417.586 Z M 775.517 417.586 L 805.345 417.586 L 805.345 447.414 L 775.517 447.414 L 775.517 417.586 Z M 29.828 447.414 L 59.655 447.414 L 59.655 477.241 L 29.828 477.241 L 29.828 447.414 Z M 89.483 447.414 L 119.31 447.414 L 119.31 477.241 L 89.483 477.241 L 89.483 447.414 Z M 149.138 447.414 L 178.966 447.414 L 178.966 477.241 L 149.138 477.241 L 149.138 447.414 Z M 268.448 447.414 L 298.276 447.414 L 298.276 477.241 L 268.448 477.241 L 268.448 447.414 Z M 357.931 447.414 L 387.759 447.414 L 387.759 477.241 L 357.931 477.241 L 357.931 447.414 Z M 387.759 447.414 L 417.586 447.414 L 417.586 477.241 L 387.759 477.241 L 387.759 447.414 Z M 417.586 447.414 L 447.414 447.414 L 447.414 477.241 L 417.586 477.241 L 417.586 447.414 Z M 447.414 447.414 L 477.241 447.414 L 477.241 477.241 L 447.414 477.241 L 447.414 447.414 Z M 566.724 447.414 L 596.552 447.414 L 596.552 477.241 L 566.724 477.241 L 566.724 447.414 Z M 626.379 447.414 L 656.207 447.414 L 656.207 477.241 L 626.379 477.241 L 626.379 447.414 Z M 686.034 447.414 L 715.862 447.414 L 715.862 477.241 L 686.034 477.241 L 686.034 447.414 Z M 715.862 447.414 L 745.69 447.414 L 745.69 477.241 L 715.862 477.241 L 715.862 447.414 Z M 775.517 447.414 L 805.345 447.414 L 805.345 477.241 L 775.517 477.241 L 775.517 447.414 Z M 835.172 447.414 L 865 447.414 L 865 477.241 L 835.172 477.241 L 835.172 447.414 Z M 119.31 477.241 L 149.138 477.241 L 149.138 507.069 L 119.31 507.069 L 119.31 477.241 Z M 149.138 477.241 L 178.966 477.241 L 178.966 507.069 L 149.138 507.069 L 149.138 477.241 Z M 178.966 477.241 L 208.793 477.241 L 208.793 507.069 L 178.966 507.069 L 178.966 477.241 Z M 268.448 477.241 L 298.276 477.241 L 298.276 507.069 L 268.448 507.069 L 268.448 477.241 Z M 298.276 477.241 L 328.103 477.241 L 328.103 507.069 L 298.276 507.069 L 298.276 477.241 Z M 357.931 477.241 L 387.759 477.241 L 387.759 507.069 L 357.931 507.069 L 357.931 477.241 Z M 417.586 477.241 L 447.414 477.241 L 447.414 507.069 L 417.586 507.069 L 417.586 477.241 Z M 507.069 477.241 L 536.897 477.241 L 536.897 507.069 L 507.069 507.069 L 507.069 477.241 Z M 566.724 477.241 L 596.552 477.241 L 596.552 507.069 L 566.724 507.069 L 566.724 477.241 Z M 745.69 477.241 L 775.517 477.241 L 775.517 507.069 L 745.69 507.069 L 745.69 477.241 Z M 775.517 477.241 L 805.345 477.241 L 805.345 507.069 L 775.517 507.069 L 775.517 477.241 Z M 0 507.069 L 29.828 507.069 L 29.828 536.897 L 0 536.897 L 0 507.069 Z M 29.828 507.069 L 59.655 507.069 L 59.655 536.897 L 29.828 536.897 L 29.828 507.069 Z M 89.483 507.069 L 119.31 507.069 L 119.31 536.897 L 89.483 536.897 L 89.483 507.069 Z M 447.414 507.069 L 477.241 507.069 L 477.241 536.897 L 447.414 536.897 L 447.414 507.069 Z M 477.241 507.069 L 507.069 507.069 L 507.069 536.897 L 477.241 536.897 L 477.241 507.069 Z M 536.897 507.069 L 566.724 507.069 L 566.724 536.897 L 536.897 536.897 L 536.897 507.069 Z M 566.724 507.069 L 596.552 507.069 L 596.552 536.897 L 566.724 536.897 L 566.724 507.069 Z M 596.552 507.069 L 626.379 507.069 L 626.379 536.897 L 596.552 536.897 L 596.552 507.069 Z M 656.207 507.069 L 686.034 507.069 L 686.034 536.897 L 656.207 536.897 L 656.207 507.069 Z M 686.034 507.069 L 715.862 507.069 L 715.862 536.897 L 686.034 536.897 L 686.034 507.069 Z M 715.862 507.069 L 745.69 507.069 L 745.69 536.897 L 715.862 536.897 L 715.862 507.069 Z M 775.517 507.069 L 805.345 507.069 L 805.345 536.897 L 775.517 536.897 L 775.517 507.069 Z M 805.345 507.069 L 835.172 507.069 L 835.172 536.897 L 805.345 536.897 L 805.345 507.069 Z M 835.172 507.069 L 865 507.069 L 865 536.897 L 835.172 536.897 L 835.172 507.069 Z M 0 536.897 L 29.828 536.897 L 29.828 566.724 L 0 566.724 L 0 536.897 Z M 29.828 536.897 L 59.655 536.897 L 59.655 566.724 L 29.828 566.724 L 29.828 536.897 Z M 119.31 536.897 L 149.138 536.897 L 149.138 566.724 L 119.31 566.724 L 119.31 536.897 Z M 149.138 536.897 L 178.966 536.897 L 178.966 566.724 L 149.138 566.724 L 149.138 536.897 Z M 178.966 536.897 L 208.793 536.897 L 208.793 566.724 L 178.966 566.724 L 178.966 536.897 Z M 208.793 536.897 L 238.621 536.897 L 238.621 566.724 L 208.793 566.724 L 208.793 536.897 Z M 268.448 536.897 L 298.276 536.897 L 298.276 566.724 L 268.448 566.724 L 268.448 536.897 Z M 357.931 536.897 L 387.759 536.897 L 387.759 566.724 L 357.931 566.724 L 357.931 536.897 Z M 387.759 536.897 L 417.586 536.897 L 417.586 566.724 L 387.759 566.724 L 387.759 536.897 Z M 417.586 536.897 L 447.414 536.897 L 447.414 566.724 L 417.586 566.724 L 417.586 536.897 Z M 447.414 536.897 L 477.241 536.897 L 477.241 566.724 L 447.414 566.724 L 447.414 536.897 Z M 477.241 536.897 L 507.069 536.897 L 507.069 566.724 L 477.241 566.724 L 477.241 536.897 Z M 566.724 536.897 L 596.552 536.897 L 596.552 566.724 L 566.724 566.724 L 566.724 536.897 Z M 686.034 536.897 L 715.862 536.897 L 715.862 566.724 L 686.034 566.724 L 686.034 536.897 Z M 715.862 536.897 L 745.69 536.897 L 745.69 566.724 L 715.862 566.724 L 715.862 536.897 Z M 745.69 536.897 L 775.517 536.897 L 775.517 566.724 L 745.69 566.724 L 745.69 536.897 Z M 835.172 536.897 L 865 536.897 L 865 566.724 L 835.172 566.724 L 835.172 536.897 Z M 0 566.724 L 29.828 566.724 L 29.828 596.552 L 0 596.552 L 0 566.724 Z M 59.655 566.724 L 89.483 566.724 L 89.483 596.552 L 59.655 596.552 L 59.655 566.724 Z M 149.138 566.724 L 178.966 566.724 L 178.966 596.552 L 149.138 596.552 L 149.138 566.724 Z M 208.793 566.724 L 238.621 566.724 L 238.621 596.552 L 208.793 596.552 L 208.793 566.724 Z M 268.448 566.724 L 298.276 566.724 L 298.276 596.552 L 268.448 596.552 L 268.448 566.724 Z M 328.103 566.724 L 357.931 566.724 L 357.931 596.552 L 328.103 596.552 L 328.103 566.724 Z M 417.586 566.724 L 447.414 566.724 L 447.414 596.552 L 417.586 596.552 L 417.586 566.724 Z M 566.724 566.724 L 596.552 566.724 L 596.552 596.552 L 566.724 596.552 L 566.724 566.724 Z M 626.379 566.724 L 656.207 566.724 L 656.207 596.552 L 626.379 596.552 L 626.379 566.724 Z M 656.207 566.724 L 686.034 566.724 L 686.034 596.552 L 656.207 596.552 L 656.207 566.724 Z M 715.862 566.724 L 745.69 566.724 L 745.69 596.552 L 715.862 596.552 L 715.862 566.724 Z M 0 596.552 L 29.828 596.552 L 29.828 626.379 L 0 626.379 L 0 596.552 Z M 119.31 596.552 L 149.138 596.552 L 149.138 626.379 L 119.31 626.379 L 119.31 596.552 Z M 149.138 596.552 L 178.966 596.552 L 178.966 626.379 L 149.138 626.379 L 149.138 596.552 Z M 178.966 596.552 L 208.793 596.552 L 208.793 626.379 L 178.966 626.379 L 178.966 596.552 Z M 208.793 596.552 L 238.621 596.552 L 238.621 626.379 L 208.793 626.379 L 208.793 596.552 Z M 238.621 596.552 L 268.448 596.552 L 268.448 626.379 L 238.621 626.379 L 238.621 596.552 Z M 298.276 596.552 L 328.103 596.552 L 328.103 626.379 L 298.276 626.379 L 298.276 596.552 Z M 328.103 596.552 L 357.931 596.552 L 357.931 626.379 L 328.103 626.379 L 328.103 596.552 Z M 507.069 596.552 L 536.897 596.552 L 536.897 626.379 L 507.069 626.379 L 507.069 596.552 Z M 596.552 596.552 L 626.379 596.552 L 626.379 626.379 L 596.552 626.379 L 596.552 596.552 Z M 626.379 596.552 L 656.207 596.552 L 656.207 626.379 L 626.379 626.379 L 626.379 596.552 Z M 656.207 596.552 L 686.034 596.552 L 686.034 626.379 L 656.207 626.379 L 656.207 596.552 Z M 686.034 596.552 L 715.862 596.552 L 715.862 626.379 L 686.034 626.379 L 686.034 596.552 Z M 715.862 596.552 L 745.69 596.552 L 745.69 626.379 L 715.862 626.379 L 715.862 596.552 Z M 775.517 596.552 L 805.345 596.552 L 805.345 626.379 L 775.517 626.379 L 775.517 596.552 Z M 805.345 596.552 L 835.172 596.552 L 835.172 626.379 L 805.345 626.379 L 805.345 596.552 Z M 835.172 596.552 L 865 596.552 L 865 626.379 L 835.172 626.379 L 835.172 596.552 Z M 238.621 626.379 L 268.448 626.379 L 268.448 656.207 L 238.621 656.207 L 238.621 626.379 Z M 357.931 626.379 L 387.759 626.379 L 387.759 656.207 L 357.931 656.207 L 357.931 626.379 Z M 387.759 626.379 L 417.586 626.379 L 417.586 656.207 L 387.759 656.207 L 387.759 626.379 Z M 447.414 626.379 L 477.241 626.379 L 477.241 656.207 L 447.414 656.207 L 447.414 626.379 Z M 507.069 626.379 L 536.897 626.379 L 536.897 656.207 L 507.069 656.207 L 507.069 626.379 Z M 536.897 626.379 L 566.724 626.379 L 566.724 656.207 L 536.897 656.207 L 536.897 626.379 Z M 596.552 626.379 L 626.379 626.379 L 626.379 656.207 L 596.552 656.207 L 596.552 626.379 Z M 715.862 626.379 L 745.69 626.379 L 745.69 656.207 L 715.862 656.207 L 715.862 626.379 Z M 745.69 626.379 L 775.517 626.379 L 775.517 656.207 L 745.69 656.207 L 745.69 626.379 Z M 0 656.207 L 29.828 656.207 L 29.828 686.034 L 0 686.034 L 0 656.207 Z M 29.828 656.207 L 59.655 656.207 L 59.655 686.034 L 29.828 686.034 L 29.828 656.207 Z M 59.655 656.207 L 89.483 656.207 L 89.483 686.034 L 59.655 686.034 L 59.655 656.207 Z M 89.483 656.207 L 119.31 656.207 L 119.31 686.034 L 89.483 686.034 L 89.483 656.207 Z M 119.31 656.207 L 149.138 656.207 L 149.138 686.034 L 119.31 686.034 L 119.31 656.207 Z M 149.138 656.207 L 178.966 656.207 L 178.966 686.034 L 149.138 686.034 L 149.138 656.207 Z M 178.966 656.207 L 208.793 656.207 L 208.793 686.034 L 178.966 686.034 L 178.966 656.207 Z M 238.621 656.207 L 268.448 656.207 L 268.448 686.034 L 238.621 686.034 L 238.621 656.207 Z M 298.276 656.207 L 328.103 656.207 L 328.103 686.034 L 298.276 686.034 L 298.276 656.207 Z M 387.759 656.207 L 417.586 656.207 L 417.586 686.034 L 387.759 686.034 L 387.759 656.207 Z M 417.586 656.207 L 447.414 656.207 L 447.414 686.034 L 417.586 686.034 L 417.586 656.207 Z M 447.414 656.207 L 477.241 656.207 L 477.241 686.034 L 447.414 686.034 L 447.414 656.207 Z M 536.897 656.207 L 566.724 656.207 L 566.724 686.034 L 536.897 686.034 L 536.897 656.207 Z M 566.724 656.207 L 596.552 656.207 L 596.552 686.034 L 566.724 686.034 L 566.724 656.207 Z M 596.552 656.207 L 626.379 656.207 L 626.379 686.034 L 596.552 686.034 L 596.552 656.207 Z M 656.207 656.207 L 686.034 656.207 L 686.034 686.034 L 656.207 686.034 L 656.207 656.207 Z M 715.862 656.207 L 745.69 656.207 L 745.69 686.034 L 715.862 686.034 L 715.862 656.207 Z M 745.69 656.207 L 775.517 656.207 L 775.517 686.034 L 745.69 686.034 L 745.69 656.207 Z M 775.517 656.207 L 805.345 656.207 L 805.345 686.034 L 775.517 686.034 L 775.517 656.207 Z M 0 686.034 L 29.828 686.034 L 29.828 715.862 L 0 715.862 L 0 686.034 Z M 178.966 686.034 L 208.793 686.034 L 208.793 715.862 L 178.966 715.862 L 178.966 686.034 Z M 238.621 686.034 L 268.448 686.034 L 268.448 715.862 L 238.621 715.862 L 238.621 686.034 Z M 357.931 686.034 L 387.759 686.034 L 387.759 715.862 L 357.931 715.862 L 357.931 686.034 Z M 387.759 686.034 L 417.586 686.034 L 417.586 715.862 L 387.759 715.862 L 387.759 686.034 Z M 447.414 686.034 L 477.241 686.034 L 477.241 715.862 L 447.414 715.862 L 447.414 686.034 Z M 536.897 686.034 L 566.724 686.034 L 566.724 715.862 L 536.897 715.862 L 536.897 686.034 Z M 566.724 686.034 L 596.552 686.034 L 596.552 715.862 L 566.724 715.862 L 566.724 686.034 Z M 596.552 686.034 L 626.379 686.034 L 626.379 715.862 L 596.552 715.862 L 596.552 686.034 Z M 715.862 686.034 L 745.69 686.034 L 745.69 715.862 L 715.862 715.862 L 715.862 686.034 Z M 805.345 686.034 L 835.172 686.034 L 835.172 715.862 L 805.345 715.862 L 805.345 686.034 Z M 835.172 686.034 L 865 686.034 L 865 715.862 L 835.172 715.862 L 835.172 686.034 Z M 0 715.862 L 29.828 715.862 L 29.828 745.69 L 0 745.69 L 0 715.862 Z M 59.655 715.862 L 89.483 715.862 L 89.483 745.69 L 59.655 745.69 L 59.655 715.862 Z M 89.483 715.862 L 119.31 715.862 L 119.31 745.69 L 89.483 745.69 L 89.483 715.862 Z M 119.31 715.862 L 149.138 715.862 L 149.138 745.69 L 119.31 745.69 L 119.31 715.862 Z M 178.966 715.862 L 208.793 715.862 L 208.793 745.69 L 178.966 745.69 L 178.966 715.862 Z M 328.103 715.862 L 357.931 715.862 L 357.931 745.69 L 328.103 745.69 L 328.103 715.862 Z M 357.931 715.862 L 387.759 715.862 L 387.759 745.69 L 357.931 745.69 L 357.931 715.862 Z M 387.759 715.862 L 417.586 715.862 L 417.586 745.69 L 387.759 745.69 L 387.759 715.862 Z M 447.414 715.862 L 477.241 715.862 L 477.241 745.69 L 447.414 745.69 L 447.414 715.862 Z M 566.724 715.862 L 596.552 715.862 L 596.552 745.69 L 566.724 745.69 L 566.724 715.862 Z M 596.552 715.862 L 626.379 715.862 L 626.379 745.69 L 596.552 745.69 L 596.552 715.862 Z M 626.379 715.862 L 656.207 715.862 L 656.207 745.69 L 626.379 745.69 L 626.379 715.862 Z M 656.207 715.862 L 686.034 715.862 L 686.034 745.69 L 656.207 745.69 L 656.207 715.862 Z M 686.034 715.862 L 715.862 715.862 L 715.862 745.69 L 686.034 745.69 L 686.034 715.862 Z M 715.862 715.862 L 745.69 715.862 L 745.69 745.69 L 715.862 745.69 L 715.862 715.862 Z M 745.69 715.862 L 775.517 715.862 L 775.517 745.69 L 745.69 745.69 L 745.69 715.862 Z M 805.345 715.862 L 835.172 715.862 L 835.172 745.69 L 805.345 745.69 L 805.345 715.862 Z M 835.172 715.862 L 865 715.862 L 865 745.69 L 835.172 745.69 L 835.172 715.862 Z M 0 745.69 L 29.828 745.69 L 29.828 775.517 L 0 775.517 L 0 745.69 Z M 59.655 745.69 L 89.483 745.69 L 89.483 775.517 L 59.655 775.517 L 59.655 745.69 Z M 89.483 745.69 L 119.31 745.69 L 119.31 775.517 L 89.483 775.517 L 89.483 745.69 Z M 119.31 745.69 L 149.138 745.69 L 149.138 775.517 L 119.31 775.517 L 119.31 745.69 Z M 178.966 745.69 L 208.793 745.69 L 208.793 775.517 L 178.966 775.517 L 178.966 745.69 Z M 268.448 745.69 L 298.276 745.69 L 298.276 775.517 L 268.448 775.517 L 268.448 745.69 Z M 298.276 745.69 L 328.103 745.69 L 328.103 775.517 L 298.276 775.517 L 298.276 745.69 Z M 447.414 745.69 L 477.241 745.69 L 477.241 775.517 L 447.414 775.517 L 447.414 745.69 Z M 477.241 745.69 L 507.069 745.69 L 507.069 775.517 L 477.241 775.517 L 477.241 745.69 Z M 536.897 745.69 L 566.724 745.69 L 566.724 775.517 L 536.897 775.517 L 536.897 745.69 Z M 596.552 745.69 L 626.379 745.69 L 626.379 775.517 L 596.552 775.517 L 596.552 745.69 Z M 626.379 745.69 L 656.207 745.69 L 656.207 775.517 L 626.379 775.517 L 626.379 745.69 Z M 686.034 745.69 L 715.862 745.69 L 715.862 775.517 L 686.034 775.517 L 686.034 745.69 Z M 745.69 745.69 L 775.517 745.69 L 775.517 775.517 L 745.69 775.517 L 745.69 745.69 Z M 775.517 745.69 L 805.345 745.69 L 805.345 775.517 L 775.517 775.517 L 775.517 745.69 Z M 835.172 745.69 L 865 745.69 L 865 775.517 L 835.172 775.517 L 835.172 745.69 Z M 0 775.517 L 29.828 775.517 L 29.828 805.345 L 0 805.345 L 0 775.517 Z M 59.655 775.517 L 89.483 775.517 L 89.483 805.345 L 59.655 805.345 L 59.655 775.517 Z M 89.483 775.517 L 119.31 775.517 L 119.31 805.345 L 89.483 805.345 L 89.483 775.517 Z M 119.31 775.517 L 149.138 775.517 L 149.138 805.345 L 119.31 805.345 L 119.31 775.517 Z M 178.966 775.517 L 208.793 775.517 L 208.793 805.345 L 178.966 805.345 L 178.966 775.517 Z M 268.448 775.517 L 298.276 775.517 L 298.276 805.345 L 268.448 805.345 L 268.448 775.517 Z M 328.103 775.517 L 357.931 775.517 L 357.931 805.345 L 328.103 805.345 L 328.103 775.517 Z M 357.931 775.517 L 387.759 775.517 L 387.759 805.345 L 357.931 805.345 L 357.931 775.517 Z M 447.414 775.517 L 477.241 775.517 L 477.241 805.345 L 447.414 805.345 L 447.414 775.517 Z M 477.241 775.517 L 507.069 775.517 L 507.069 805.345 L 477.241 805.345 L 477.241 775.517 Z M 507.069 775.517 L 536.897 775.517 L 536.897 805.345 L 507.069 805.345 L 507.069 775.517 Z M 536.897 775.517 L 566.724 775.517 L 566.724 805.345 L 536.897 805.345 L 536.897 775.517 Z M 566.724 775.517 L 596.552 775.517 L 596.552 805.345 L 566.724 805.345 L 566.724 775.517 Z M 596.552 775.517 L 626.379 775.517 L 626.379 805.345 L 596.552 805.345 L 596.552 775.517 Z M 626.379 775.517 L 656.207 775.517 L 656.207 805.345 L 626.379 805.345 L 626.379 775.517 Z M 656.207 775.517 L 686.034 775.517 L 686.034 805.345 L 656.207 805.345 L 656.207 775.517 Z M 686.034 775.517 L 715.862 775.517 L 715.862 805.345 L 686.034 805.345 L 686.034 775.517 Z M 715.862 775.517 L 745.69 775.517 L 745.69 805.345 L 715.862 805.345 L 715.862 775.517 Z M 745.69 775.517 L 775.517 775.517 L 775.517 805.345 L 745.69 805.345 L 745.69 775.517 Z M 775.517 775.517 L 805.345 775.517 L 805.345 805.345 L 775.517 805.345 L 775.517 775.517 Z M 805.345 775.517 L 835.172 775.517 L 835.172 805.345 L 805.345 805.345 L 805.345 775.517 Z M 0 805.345 L 29.828 805.345 L 29.828 835.172 L 0 835.172 L 0 805.345 Z M 178.966 805.345 L 208.793 805.345 L 208.793 835.172 L 178.966 835.172 L 178.966 805.345 Z M 238.621 805.345 L 268.448 805.345 L 268.448 835.172 L 238.621 835.172 L 238.621 805.345 Z M 268.448 805.345 L 298.276 805.345 L 298.276 835.172 L 268.448 835.172 L 268.448 805.345 Z M 328.103 805.345 L 357.931 805.345 L 357.931 835.172 L 328.103 835.172 L 328.103 805.345 Z M 447.414 805.345 L 477.241 805.345 L 477.241 835.172 L 447.414 835.172 L 447.414 805.345 Z M 536.897 805.345 L 566.724 805.345 L 566.724 835.172 L 536.897 835.172 L 536.897 805.345 Z M 626.379 805.345 L 656.207 805.345 L 656.207 835.172 L 626.379 835.172 L 626.379 805.345 Z M 745.69 805.345 L 775.517 805.345 L 775.517 835.172 L 745.69 835.172 L 745.69 805.345 Z M 775.517 805.345 L 805.345 805.345 L 805.345 835.172 L 775.517 835.172 L 775.517 805.345 Z M 835.172 805.345 L 865 805.345 L 865 835.172 L 835.172 835.172 L 835.172 805.345 Z M 0 835.172 L 29.828 835.172 L 29.828 865 L 0 865 L 0 835.172 Z M 29.828 835.172 L 59.655 835.172 L 59.655 865 L 29.828 865 L 29.828 835.172 Z M 59.655 835.172 L 89.483 835.172 L 89.483 865 L 59.655 865 L 59.655 835.172 Z M 89.483 835.172 L 119.31 835.172 L 119.31 865 L 89.483 865 L 89.483 835.172 Z M 119.31 835.172 L 149.138 835.172 L 149.138 865 L 119.31 865 L 119.31 835.172 Z M 149.138 835.172 L 178.966 835.172 L 178.966 865 L 149.138 865 L 149.138 835.172 Z M 178.966 835.172 L 208.793 835.172 L 208.793 865 L 178.966 865 L 178.966 835.172 Z M 238.621 835.172 L 268.448 835.172 L 268.448 865 L 238.621 865 L 238.621 835.172 Z M 268.448 835.172 L 298.276 835.172 L 298.276 865 L 268.448 865 L 268.448 835.172 Z M 328.103 835.172 L 357.931 835.172 L 357.931 865 L 328.103 865 L 328.103 835.172 Z M 507.069 835.172 L 536.897 835.172 L 536.897 865 L 507.069 865 L 507.069 835.172 Z M 626.379 835.172 L 656.207 835.172 L 656.207 865 L 626.379 865 L 626.379 835.172 Z M 656.207 835.172 L 686.034 835.172 L 686.034 865 L 656.207 865 L 656.207 835.172 Z M 686.034 835.172 L 715.862 835.172 L 715.862 865 L 686.034 865 L 686.034 835.172 Z M 775.517 835.172 L 805.345 835.172 L 805.345 865 L 775.517 865 L 775.517 835.172 Z" stroke="transparent" style="fill: rgb(216, 199, 168);"/>
</svg>