<?xml version="1.0" encoding="UTF-8" standalone="no"?>
<!-- Created with Inkscape (http://www.inkscape.org/) -->

<svg
   version="1.1"
   id="svg2"
   width="602.47998"
   height="324.32001"
   viewBox="0 0 602.47998 324.32001"
   sodipodi:docname="GU-Logo-weiss.eps"
   xmlns:inkscape="http://www.inkscape.org/namespaces/inkscape"
   xmlns:sodipodi="http://sodipodi.sourceforge.net/DTD/sodipodi-0.dtd"
   xmlns="http://www.w3.org/2000/svg"
   xmlns:svg="http://www.w3.org/2000/svg">
  <defs
     id="defs6" />
  <sodipodi:namedview
     id="namedview4"
     pagecolor="#ffffff"
     bordercolor="#000000"
     borderopacity="0.25"
     inkscape:showpageshadow="2"
     inkscape:pageopacity="0.0"
     inkscape:pagecheckerboard="0"
     inkscape:deskcolor="#d1d1d1" />
  <g
     id="g8"
     inkscape:groupmode="layer"
     inkscape:label="ink_ext_XXXXXX"
     transform="matrix(1.3333333,0,0,-1.3333333,0,324.32)">
    <g
       id="g10"
       transform="scale(0.1)">
      <path
         d="m 465.352,835.352 -27.223,-10.551 c -16.117,-6.789 -24.836,-12.391 -25.449,-25.379 -1.219,-34.711 0,-85.5 -1.219,-195.871 C 410.219,483.43 351.348,438.852 259.07,438.852 c -89.832,0 -152.449,38.988 -152.449,133.789 v 174.097 c 0,52 -1.773,64.453 -19.1991,71.274 l -44.6524,17.34 V 844 c 30.4297,-2.469 59.5505,-4.988 88.6215,-4.988 32.867,0 65.07,2.519 97.941,4.988 v -8.648 l -28.519,-10.551 c -34.102,-13.012 -39.067,-15.512 -40.231,-37.18 -1.891,-36.609 -1.891,-89.801 -1.891,-185.242 0,-79.277 17.957,-131.348 116.43,-131.348 65.137,0 104.137,40.309 104.137,114.68 0,76.09 -0.606,174.687 -5.649,217.449 -1.16,11.149 -10.48,16.059 -27.218,21.641 l -34.102,10.551 V 844 c 26.68,-2.469 53.301,-4.988 80.582,-4.988 23.551,0 47.711,2.519 72.481,4.988 v -8.648"
         style="fill:#ffffff;fill-opacity:1;fill-rule:nonzero;stroke:none"
         id="path12" />
      <path
         d="M 975.543,832.199 934.031,817.371 C 920.414,812.398 914.164,806.238 913.555,795 c -1.86,-50.109 -6.813,-159.801 -6.813,-195.762 0,-25.386 0,-96.558 1.211,-167.199 H 893.137 C 853.453,490.828 810.715,547.262 768.586,604.238 L 642.805,773.422 h -1.223 v -69.434 c 0,-81.808 1.223,-203.84 3.063,-215.597 1.898,-9.961 6.25,-14.84 24.238,-20.411 l 40.89,-13.019 v -8.621 c -27.289,2.379 -55.187,4.808 -82.41,4.808 -26.699,0 -52.605,-2.429 -79.289,-4.808 v 8.621 l 47.02,17.98 c 8.719,3.047 14.293,8.649 14.91,14.239 2.441,19.781 6.812,112.058 6.812,191.429 V 801.25 l -8.043,12.379 c -19.246,8.699 -38.398,15.461 -58.261,21.73 v 8.629 c 19.863,-2.457 39.683,-4.976 59.492,-4.976 18.559,0 37.148,2.519 55.738,4.976 11.774,-21.66 24.844,-41.5 39.672,-61.328 l 175.316,-235.398 1.235,1.207 v 149.953 c 0,29.726 -0.613,60.078 -2.445,90.449 -1.223,17.367 -6.196,22.328 -24.153,29.719 l -40.902,16.769 v 8.629 c 25.371,-2.457 51.449,-4.976 76.82,-4.976 27.84,0 55.75,2.519 84.258,4.976 v -11.789"
         style="fill:#ffffff;fill-opacity:1;fill-rule:nonzero;stroke:none"
         id="path14" />
      <path
         d="m 1085.25,454.949 47.7,16.082 c 15.47,5.578 17.35,8.078 17.89,55.809 0.68,37.09 1.93,74.922 1.93,112.101 0,37.149 -1.25,74.981 -1.93,112.071 -1.22,58.269 -1.81,62.617 -13.6,66.988 l -51.99,17.352 v 8.636 c 29.66,-2.457 60.1,-4.976 94.75,-4.976 30.96,0 61.31,2.519 92.35,4.976 v -8.636 L 1220.28,818 c -11.78,-4.371 -12.37,-8.719 -13.62,-66.988 -0.6,-37.09 -1.9,-74.922 -1.9,-112.071 0,-37.179 1.3,-75.011 1.9,-112.101 0.63,-47.731 2.47,-50.231 17.97,-55.809 l 47.72,-16.082 v -8.609 c -29.14,2.379 -65.06,4.808 -92.35,4.808 -30.97,0 -66.92,-2.429 -94.75,-4.808 v 8.609"
         style="fill:#ffffff;fill-opacity:1;fill-rule:nonzero;stroke:none"
         id="path16" />
      <path
         d="m 1343.17,844 c 28.51,-2.461 57.66,-4.988 86.11,-4.988 26.06,0 52.66,2.527 78.75,4.988 v -8.648 l -21.74,-6.262 c -28.51,-8.031 -34.07,-11.09 -34.07,-17.899 0,-13.082 79.34,-205.679 108.47,-271.363 37.79,90.313 72.43,179.621 94.13,248.422 3.74,11.18 6.2,17.98 6.2,24.781 0,6.809 -19.2,13.668 -46.49,22.321 V 844 c 23.55,-2.461 47.1,-4.988 70.65,-4.988 19.19,0 37.76,2.527 56.34,4.988 v -8.648 c -26.6,-6.801 -35.31,-13.692 -45.19,-34.711 -39.05,-84.871 -87.99,-206.903 -144.96,-361.789 h -14.23 c -40.29,112.75 -103.52,268.796 -142.51,358.726 -9.93,22.863 -14.22,24.762 -34.09,31.512 l -17.37,6.262 V 844"
         style="fill:#ffffff;fill-opacity:1;fill-rule:nonzero;stroke:none"
         id="path18" />
      <path
         d="m 1870.74,751.012 c 0,58.269 -1.9,62.617 -15.44,66.988 l -52.14,17.359 v 8.629 c 51.46,-2.457 98.55,-4.976 145.58,-4.976 58.94,0 117.22,2.519 171.67,4.976 -0.65,-15.449 -1.9,-37.75 -1.9,-47.097 0,-9.27 1.25,-30.371 1.9,-44.661 h -8.71 l -16.11,46.52 c -6.15,17.398 -11.05,17.398 -82.35,17.398 -35.97,0 -64.5,-0.617 -87.37,-1.207 -1.22,-21.742 -3.07,-44.671 -3.07,-70.652 v -76.23 h 64.39 c 75.03,0 81.83,1.222 87.42,14.839 l 16.05,44.032 h 8.68 c -0.57,-23.551 -1.25,-47.102 -1.25,-70.039 0,-25.442 0.68,-48.911 1.25,-74.922 h -8.68 l -16.05,47.101 c -5.59,13.532 -12.39,14.828 -87.42,14.828 H 1922.8 V 559.66 c 0,-28.539 1.85,-56.98 3.07,-83.039 29.14,-0.633 58.26,-2.519 86.18,-2.519 66.19,0 75.54,0.668 81.73,8.027 7.43,9.32 14.24,29.199 25.41,65.73 h 8.56 c -1.19,-17.961 -3.6,-36.531 -3.6,-54.558 V 446.34 c -32.19,2.379 -127.63,4.808 -162.34,4.808 -54.52,0 -114,-2.429 -158.65,-4.808 v 8.621 l 47.79,16.07 c 17.35,5.59 19.79,8.09 19.79,55.809 v 224.172"
         style="fill:#ffffff;fill-opacity:1;fill-rule:nonzero;stroke:none"
         id="path20" />
      <path
         d="m 2256.82,454.949 47.69,16.082 c 17.31,5.578 19.79,8.078 19.79,55.809 v 224.172 c 0,58.269 -1.8,62.617 -15.47,66.988 l -52.01,17.352 v 8.636 c 22.92,-2.457 52.01,-4.976 85.47,-4.976 32.21,0 67.49,4.976 111.56,4.976 81.74,0 135.04,-33.418 135.04,-95.418 0,-62.609 -44.57,-92.261 -101.63,-101.609 l 85.46,-127.609 c 35.93,-53.903 39.08,-58.192 73.72,-64.403 v -8.609 c -14.21,1.129 -29.08,2.379 -43.26,2.379 -14.94,0 -30.46,-1.25 -45.9,-2.379 -39.62,66.801 -94.8,146.191 -133.21,196.262 h -47.7 v -71.18 c 0,-80.594 1.87,-94.813 17.99,-99.703 l 49.45,-16.77 v -8.609 c -26.6,2.379 -68.12,4.808 -89.73,4.808 -31.58,0 -67.55,-2.429 -97.26,-4.808 z m 119.55,208.153 h 42.15 c 57.62,0 110.83,9.238 110.83,77.437 0,54.461 -37.73,78.051 -95.97,78.051 -19.85,0 -38.4,-0.59 -57.01,-0.59 V 663.102"
         style="fill:#ffffff;fill-opacity:1;fill-rule:nonzero;stroke:none"
         id="path22" />
      <path
         d="m 2754.9,557.129 h 8.67 l 21.12,-79.918 c 18.53,-10.551 47.63,-14.199 63.11,-14.199 49.57,0 94.78,22.226 94.78,79.879 0,87.937 -193.92,80.597 -193.92,197.039 0,75 69.37,111.558 136.32,111.558 26,0 65.68,-8.109 91.74,-19.828 l -3.8,-84.93 h -6.8 l -24.11,68.801 c -21.07,8.11 -41.48,11.797 -62.58,11.797 -39.03,0 -75.02,-30.43 -75.02,-71.949 0,-97.27 193.98,-72.481 193.98,-200.719 0,-53.879 -40.32,-115.808 -162.41,-115.808 -29.69,0 -56.29,3.66 -91.68,17.347 l 10.6,100.93"
         style="fill:#ffffff;fill-opacity:1;fill-rule:nonzero;stroke:none"
         id="path24" />
      <path
         d="m 3122.45,454.949 47.71,16.082 c 15.54,5.578 17.44,8.078 17.97,55.809 0.7,37.09 1.85,74.922 1.85,112.101 0,37.149 -1.15,74.981 -1.85,112.071 -1.13,58.269 -1.82,62.617 -13.61,66.988 l -52.07,17.352 v 8.636 c 29.84,-2.457 60.19,-4.976 94.9,-4.976 30.9,0 61.3,2.519 92.28,4.976 v -8.636 L 3257.56,818 c -11.78,-4.371 -12.36,-8.719 -13.61,-66.988 -0.69,-37.09 -1.91,-74.922 -1.91,-112.071 0,-37.179 1.22,-75.011 1.91,-112.101 0.61,-47.731 2.44,-50.231 17.98,-55.809 l 47.7,-16.082 v -8.609 c -29.22,2.379 -65.07,4.808 -92.28,4.808 -31.04,0 -66.99,-2.429 -94.9,-4.808 v 8.609"
         style="fill:#ffffff;fill-opacity:1;fill-rule:nonzero;stroke:none"
         id="path26" />
      <path
         d="m 3397.81,844 c 53.91,-2.461 107.11,-4.988 161.1,-4.988 53.88,0 107.2,2.527 161.07,4.988 V 738.711 h -8.69 l -18.58,49.539 c -8.65,21.031 -14.92,23.531 -107.83,23.531 V 541.668 c 0,-30.957 1.25,-47.098 5,-55.746 3.66,-8.082 16.68,-15.512 63.83,-30.961 v -8.633 c -29.2,2.391 -56.42,4.82 -94.8,4.82 -38.39,0 -65.67,-2.429 -94.83,-4.82 v 8.633 c 47.11,15.449 60.72,22.879 63.77,30.961 3.75,8.648 4.96,24.789 4.96,55.746 v 270.113 c -92.89,0 -99.12,-2.5 -107.77,-23.531 l -18.58,-49.539 h -8.65 V 844"
         style="fill:#ffffff;fill-opacity:1;fill-rule:nonzero;stroke:none"
         id="path28" />
      <path
         d="m 3741.98,455.121 c 14.97,5.527 32.34,12.34 47.16,20.418 53.92,127.02 120.82,269.531 165.39,380.992 h 13.6 C 4017.77,727.699 4073.5,598.82 4126.09,473.102 l 52.06,-17.981 V 446.5 c -32.76,2.379 -64.99,4.828 -97.85,4.828 -27.92,0 -55.12,-2.449 -83.03,-4.828 v 8.621 c 15.44,3.688 42.19,11.707 60.7,19.141 -7.42,26.058 -27.21,84.308 -35.86,102.918 -26.02,0.582 -52.67,1.218 -78.75,1.218 -25.99,0 -51.4,-0.636 -77.35,-1.218 -16.77,-31.66 -26.7,-68.149 -35.35,-102.918 l 53.29,-19.141 V 446.5 c -24.22,2.379 -48.38,4.828 -73.17,4.828 -22.87,0 -45.8,-2.449 -68.8,-4.828 z m 156.2,423.68 c -15.6,0 -29.13,14.969 -29.13,31.039 0,13.621 14.21,28.512 29.13,28.512 15.51,0 30.35,-14.204 30.35,-28.512 0,-16.668 -14.29,-31.039 -30.35,-31.039 m 47.7,-112.102 -71.27,-164.14 h 139.41 z m 74.96,112.102 c -14.87,0 -29.16,14.969 -29.16,31.039 0,13.621 14.92,28.512 29.16,28.512 15.51,0 30.33,-14.204 30.33,-28.512 0,-16.668 -14.23,-31.039 -30.33,-31.039"
         style="fill:#ffffff;fill-opacity:1;fill-rule:nonzero;stroke:none"
         id="path30" />
      <path
         d="m 4187.66,844 c 53.82,-2.461 107.13,-4.988 161.09,-4.988 53.87,0 107.22,2.527 161.05,4.988 V 738.711 h -8.73 l -18.49,49.539 c -8.64,21.031 -14.93,23.531 -107.86,23.531 V 541.668 c 0,-30.957 1.27,-47.098 4.95,-55.746 3.74,-8.082 16.75,-15.512 63.82,-30.961 v -8.633 c -29.11,2.391 -56.34,4.82 -94.74,4.82 -38.44,0 -65.66,-2.429 -94.79,-4.82 v 8.633 c 47.03,15.449 60.69,22.879 63.75,30.961 3.69,8.648 5,24.789 5,55.746 v 270.113 c -92.92,0 -99.17,-2.5 -107.83,-23.531 l -18.57,-49.539 h -8.65 V 844"
         style="fill:#ffffff;fill-opacity:1;fill-rule:nonzero;stroke:none"
         id="path32" />
      <path
         d="m 368.105,1429.4 c 0,11.1 -2.789,15.24 -33.902,27 l -41.515,15.85 v 9.75 c 33.218,-1.35 66.437,-5.52 99.636,-5.52 31.114,0 61.543,4.17 91.953,5.52 v -9.75 l -43.558,-20.75 c -12.453,-6.19 -14.492,-13.05 -14.492,-27.63 v -106.51 c 0,-6.95 0.675,-18.72 1.371,-31.1 -26.282,-8.38 -83.719,-19.41 -130.075,-19.41 -157.687,0 -254.5972,92.02 -254.5972,222.03 0,158.51 148.0822,238.69 270.5192,238.69 38.059,0 68.469,-3.41 98.219,-9.68 -0.68,-17.98 -1.355,-35.93 -1.355,-53.28 0,-20.01 0.675,-40.1 1.355,-60.18 h -9.668 c -9.672,29.76 -22.801,67.86 -33.211,81 -6.937,8.98 -48.39,15.16 -75.422,15.16 -97.519,0 -179.867,-67.04 -179.867,-205.4 0,-119.1 70.582,-201.31 173.692,-201.31 28.988,0 55.328,3.4 79.488,11.65 0.75,10.46 1.429,20.77 1.429,25.58 v 98.29"
         style="fill:#ffffff;fill-opacity:1;fill-rule:nonzero;stroke:none"
         id="path34" />
      <path
         d="m 574.457,1493 c 0,137.72 86.441,234.55 226.164,234.55 127.34,0 208.939,-89.29 208.939,-215.14 0,-137 -82.353,-245.55 -219.958,-245.55 -143.942,0 -215.145,114.14 -215.145,226.14 m 364.531,-13.8 c 0,115.56 -31.859,225.56 -145.929,225.56 -96.235,0 -148.094,-80.25 -148.094,-178.51 0,-142.53 50.504,-236.6 151.574,-236.6 105.078,0 142.449,95.51 142.449,189.55"
         style="fill:#ffffff;fill-opacity:1;fill-rule:nonzero;stroke:none"
         id="path36" />
      <path
         d="m 1165.63,1615.46 c 0,65.06 -2.08,69.97 -17.28,74.72 l -58.05,19.5 v 9.57 c 57.37,-2.72 110,-5.58 162.52,-5.58 65.75,0 130.82,2.86 191.66,5.58 -0.68,-17.2 -2.11,-42.19 -2.11,-52.54 0,-10.35 1.43,-33.95 2.11,-49.83 h -9.67 l -18.03,51.96 c -6.94,19.3 -12.38,19.3 -92.02,19.3 -40.07,0 -71.94,-0.67 -97.53,-1.35 -1.41,-24.22 -3.45,-49.83 -3.45,-78.81 v -85.14 h 71.92 c 83.71,0 91.34,1.37 97.59,16.53 l 17.97,49.15 h 9.67 c -0.68,-26.29 -1.43,-52.55 -1.43,-78.16 0,-28.36 0.75,-54.7 1.43,-83.67 h -9.67 l -17.97,52.52 c -6.25,15.25 -13.88,16.68 -97.59,16.68 h -71.92 v -94.19 c 0,-31.79 2.04,-63.59 3.45,-92.65 32.54,-0.73 65.07,-2.83 96.17,-2.83 73.98,0 84.4,0.79 91.26,8.95 8.38,10.44 15.94,32.62 28.46,73.4 h 9.65 c -1.41,-20.03 -4.14,-40.78 -4.14,-60.92 v -52.49 c -36.01,2.73 -142.5,5.44 -181.29,5.44 -60.87,0 -127.23,-2.71 -177.04,-5.44 v 9.67 l 53.21,17.89 c 19.4,6.33 22.12,9.05 22.12,62.37 v 250.37"
         style="fill:#ffffff;fill-opacity:1;fill-rule:nonzero;stroke:none"
         id="path38" />
      <path
         d="m 1564.58,1719.25 c 60.22,-2.72 119.66,-5.58 179.89,-5.58 60.16,0 119.65,2.86 179.88,5.58 v -117.59 h -9.66 l -20.83,55.32 c -9.67,23.54 -16.61,26.35 -120.33,26.35 v -301.65 c 0,-34.57 1.27,-52.55 5.51,-62.29 4.16,-8.97 18.64,-17.26 71.26,-34.56 v -9.67 c -32.54,2.73 -62.95,5.44 -105.83,5.44 -42.95,0 -73.37,-2.71 -105.91,-5.44 v 9.67 c 52.61,17.3 67.87,25.59 71.33,34.56 4.15,9.74 5.51,27.72 5.51,62.29 v 301.65 c -103.79,0 -110.66,-2.81 -120.4,-26.35 l -20.75,-55.32 h -9.67 v 117.59"
         style="fill:#ffffff;fill-opacity:1;fill-rule:nonzero;stroke:none"
         id="path40" />
      <path
         d="m 2015.29,1284.83 53.28,17.89 c 19.35,6.33 22.12,9.05 22.12,62.37 v 250.37 c 0,65.06 -2.09,69.97 -17.3,74.72 l -58.1,19.5 v 9.57 c 35.25,-2.72 69.22,-5.58 101.76,-5.58 35.19,0 70.46,2.86 107.15,5.58 v -9.57 l -51.84,-17.31 c -20.74,-6.94 -23.64,-11.85 -23.64,-45.74 v -123.79 h 204.8 v 123.79 c 0,33.89 -2.72,38.8 -23.48,45.74 l -51.9,17.31 v 9.57 c 36.76,-2.72 71.98,-5.58 107.33,-5.58 32.42,0 66.35,2.86 101.68,5.58 v -9.57 l -58.14,-19.5 c -15.24,-4.75 -17.29,-9.66 -17.29,-74.72 v -250.37 c 0,-53.32 2.71,-56.04 22.05,-62.37 l 53.38,-17.89 v -9.67 c -33.23,2.72 -73.38,5.44 -108.73,5.44 -24.16,0 -70.49,-2.72 -100.28,-5.44 v 9.67 l 55.37,18.72 c 17.97,5.5 20.01,21.38 20.01,111.33 v 81.01 h -204.8 v -81.01 c 0,-89.95 2.21,-105.83 20.19,-111.33 l 55.29,-18.72 v -9.67 c -29.71,2.72 -76.05,5.44 -100.33,5.44 -35.27,0 -75.37,-2.72 -108.58,-5.44 v 9.67"
         style="fill:#ffffff;fill-opacity:1;fill-rule:nonzero;stroke:none"
         id="path42" />
      <path
         d="m 2644.75,1615.46 c 0,65.06 -2.05,69.97 -17.35,74.72 l -58.1,19.5 v 9.57 c 57.4,-2.72 110.04,-5.58 162.58,-5.58 65.77,0 130.83,2.86 191.67,5.58 -0.68,-17.2 -2.12,-42.19 -2.12,-52.54 0,-10.35 1.44,-33.95 2.12,-49.83 h -9.69 l -17.96,51.96 c -6.92,19.3 -12.5,19.3 -92.07,19.3 -40.07,0 -71.95,-0.67 -97.5,-1.35 -1.47,-24.22 -3.52,-49.83 -3.52,-78.81 v -85.14 h 71.96 c 83.78,0 91.32,1.37 97.57,16.53 l 18.01,49.15 h 9.64 c -0.68,-26.29 -1.36,-52.55 -1.36,-78.16 0,-28.36 0.68,-54.7 1.36,-83.67 h -9.64 l -18.01,52.52 c -6.25,15.25 -13.79,16.68 -97.57,16.68 h -71.96 v -94.19 c 0,-31.79 2.05,-63.59 3.52,-92.65 32.5,-0.73 65.02,-2.83 96.13,-2.83 73.97,0 84.35,0.79 91.33,8.95 8.33,10.44 15.88,32.62 28.41,73.4 h 9.64 c -1.42,-20.03 -4.2,-40.78 -4.2,-60.92 v -52.49 c -35.93,2.73 -142.52,5.44 -181.21,5.44 -60.86,0 -127.21,-2.71 -177.13,-5.44 v 9.67 l 53.32,17.89 c 19.29,6.33 22.13,9.05 22.13,62.37 v 250.37"
         style="fill:#ffffff;fill-opacity:1;fill-rule:nonzero;stroke:none"
         id="path44" />
      <path
         d="m 49.3867,12.8516 26.7422,9.039 c 9.7969,3.1602 11.1563,4.5078 11.1563,31.2188 V 178.91 c 0,32.66 -1.0196,35.199 -8.6289,37.578 l -29.2696,9.821 v 4.66 c 30.6289,-1.27 58.7263,-2.617 87.2503,-2.617 28.508,0 57.039,1.347 85.211,2.617 -0.41,-7.879 -0.754,-16.188 -0.754,-24.149 0,-9.789 0.344,-19.89 0.754,-29.609 h -4.899 l -8.312,25.391 c -3.871,10.429 -8.032,10.429 -17.754,10.429 h -72.625 c -0.754,-13.89 -1.774,-27.859 -1.774,-41.66 v -39 h 30.621 c 42.012,0 45.891,0.707 49.012,8.367 l 9.059,24.653 h 4.82 c -0.34,-13.172 -0.68,-26.442 -0.68,-39.289 0,-14.231 0.34,-27.4106 0.68,-41.9301 h -4.82 l -9.059,26.2891 c -3.121,7.648 -7,8.34 -49.012,8.34 H 116.484 V 53.1094 c 0,-26.711 1.43,-28.0586 11.852,-31.2188 l 26.742,-9.039 V 8.01953 c -18.785,1.35938 -33.34,2.78907 -53.832,2.78907 -17.0897,0 -33.7694,-1.42969 -51.8593,-2.78907 v 4.83207"
         style="fill:#ffffff;fill-opacity:1;fill-rule:nonzero;stroke:none"
         id="path46" />
      <path
         d="m 287.871,12.8516 26.738,9.039 c 9.731,3.1602 11.161,4.5078 11.161,31.2188 V 178.91 c 0,32.66 -1.09,35.199 -8.707,37.578 l -29.192,9.821 v 4.66 c 12.859,-1.27 29.192,-2.617 47.981,-2.617 18.039,0 37.898,2.617 62.546,2.617 45.86,0 75.743,-18.629 75.743,-53.469 0,-35.051 -25.039,-51.73 -56.973,-56.84 L 465.09,49 C 485.297,18.7188 487.004,16.3398 506.469,12.8516 V 8.01953 c -7.969,0.69141 -16.258,1.35938 -24.301,1.35938 -8.297,0 -17.078,-0.66797 -25.719,-1.35938 C 434.18,45.5117 403.207,89.9609 381.719,118.109 H 354.973 V 78.1797 c 0,-45.168 1.019,-53.1289 10.078,-55.9492 l 27.832,-9.3789 V 8.01953 c -14.973,1.35938 -38.313,2.78907 -50.442,2.78907 -17.761,0 -37.902,-1.42969 -54.57,-2.78907 z M 354.973,129.66 h 23.617 c 32.328,0 62.203,5.121 62.203,43.399 0,30.64 -21.176,43.82 -53.836,43.82 -11.164,0 -21.566,-0.391 -31.984,-0.391 V 129.66"
         style="fill:#ffffff;fill-opacity:1;fill-rule:nonzero;stroke:none"
         id="path48" />
      <path
         d="m 543.574,12.8516 c 8.289,3.1367 18.09,7 26.403,11.4179 30.289,71.2618 67.789,151.2425 92.828,213.7895 h 7.629 C 698.191,165.789 729.504,93.4883 759.043,23 L 788.23,12.8516 V 8.01953 c -18.445,1.35938 -36.468,2.78907 -54.914,2.78907 -15.648,0 -30.894,-1.42969 -46.543,-2.78907 v 4.83207 c 8.633,2.1289 23.602,6.6679 34.024,10.7382 -4.152,14.629 -15.254,47.2305 -20.152,57.75 -14.629,0.3399 -29.532,0.6797 -44.161,0.6797 -14.582,0 -28.796,-0.3398 -43.359,-0.6797 -9.465,-17.7109 -14.98,-38.2109 -19.809,-57.75 L 623.137,12.8516 V 8.01953 c -13.563,1.35938 -27.102,2.78907 -40.985,2.78907 -12.859,0 -25.714,-1.42969 -38.578,-2.78907 z M 657.906,187.621 617.953,95.5313 h 78.199 z"
         style="fill:#ffffff;fill-opacity:1;fill-rule:nonzero;stroke:none"
         id="path50" />
      <path
         d="m 1070.26,224.602 -23.28,-8.454 c -7.62,-2.718 -11.09,-6.277 -11.5,-12.457 -1.02,-28.179 -3.82,-89.691 -3.82,-109.8512 0,-14.3593 0,-54.25 0.69,-93.8398 h -8.3 c -22.26,33.0117 -46.214,64.6719 -69.831,96.6484 L 883.648,191.5 h -0.679 v -38.922 c 0,-45.859 0.679,-114.3592 1.699,-120.9374 1.07,-5.582 3.461,-8.3906 13.609,-11.4492 l 22.86,-7.3516 V 8.03125 c -15.246,1.34766 -30.828,2.76955 -46.211,2.76955 -14.899,0 -29.539,-1.42189 -44.438,-2.76955 v 4.80855 l 26.403,10.1719 c 4.839,1.5977 7.968,4.75 8.308,7.9571 1.426,11 3.821,62.871 3.821,107.3902 v 68.801 l -4.504,6.942 c -10.754,4.828 -21.578,8.66 -32.668,12.207 v 4.671 c 11.09,-1.281 22.25,-2.64 33.351,-2.64 10.41,0 20.891,1.359 31.309,2.64 6.59,-12.05 13.879,-23.199 22.254,-34.289 l 98.338,-132.0191 0.68,0.6562 v 84.1209 c 0,16.672 -0.34,33.832 -1.36,50.762 -0.68,9.66 -3.47,12.48 -13.54,16.668 l -22.942,9.43 v 4.671 c 14.234,-1.281 28.802,-2.64 43.092,-2.64 15.58,0 31.24,1.359 47.23,2.64 v -6.378"
         style="fill:#ffffff;fill-opacity:1;fill-rule:nonzero;stroke:none"
         id="path52" />
      <path
         d="m 1145.45,12.8516 26.81,9.039 c 8.65,3.1602 9.74,4.5078 10.01,31.2188 0.42,20.9297 1.1,42.0898 1.1,62.9296 0,20.82 -0.68,42.051 -1.1,62.871 -0.68,32.66 -0.95,35.199 -7.62,37.578 l -29.2,9.821 v 4.66 c 16.68,-1.27 33.69,-2.617 53.23,-2.617 17.36,0 34.37,1.347 51.73,2.617 v -4.66 l -29.18,-9.821 c -6.63,-2.379 -6.97,-4.918 -7.65,-37.578 -0.34,-20.82 -1.02,-42.051 -1.02,-62.871 0,-20.8398 0.68,-41.9999 1.02,-62.9296 0.34,-26.711 1.36,-28.0586 10.07,-31.2188 l 26.76,-9.039 V 8.01953 c -16.25,1.35938 -36.49,2.78907 -51.73,2.78907 -17.36,0 -37.57,-1.42969 -53.23,-2.78907 z m 143.54,0 c 19.47,5.5273 25.73,7.3398 25.73,9.7265 0,2.711 -2.79,4.9024 -5.93,8.3828 l -87.56,95.1411 73.27,66.769 c 12.6,11.418 19.54,18.699 19.54,22.199 0,3.852 -9.74,5.981 -24.37,11.239 v 4.66 c 14.97,-1.27 30.29,-2.617 45.22,-2.617 12.9,0 25.77,1.347 38.56,2.617 v -4.66 c -9.38,-2.469 -24.3,-6.36 -37.88,-18.188 L 1253.21,136.18 1355.42,27.4805 c 2.04,-2.1914 7.29,-6.6914 8.3,-6.961 3.54,-1.8007 12.87,-5.539 21.57,-7.6679 V 8.01953 c -16.67,1.35938 -34.1,2.78907 -51.09,2.78907 -15.27,0 -30.24,-1.42969 -45.21,-2.78907 v 4.83207"
         style="fill:#ffffff;fill-opacity:1;fill-rule:nonzero;stroke:none"
         id="path54" />
      <path
         d="m 1441.59,12.8516 26.74,9.039 c 9.74,3.1602 11.16,4.5078 11.16,31.2188 V 178.91 c 0,32.66 -1.08,35.199 -8.7,37.578 l -29.2,9.821 v 4.66 c 30.54,-1.27 58.73,-2.617 87.24,-2.617 28.46,0 56.98,1.347 85.14,2.617 -0.33,-7.879 -0.67,-16.188 -0.67,-24.149 0,-9.789 0.34,-19.89 0.67,-29.609 h -4.89 l -8.37,25.391 c -3.83,10.429 -7.98,10.429 -17.7,10.429 h -72.61 c -0.75,-13.89 -1.7,-27.859 -1.7,-41.66 v -39 h 30.56 c 41.98,0 45.87,0.707 49,8.367 l 9.03,24.653 h 4.84 c -0.33,-13.172 -0.67,-26.442 -0.67,-39.289 0,-14.231 0.34,-27.4106 0.67,-41.9301 h -4.84 l -9.03,26.2891 c -3.13,7.648 -7.02,8.34 -49,8.34 H 1508.7 V 53.1094 c 0,-26.711 1.35,-28.0586 11.84,-31.2188 l 26.67,-9.039 V 8.01953 c -18.72,1.35938 -33.35,2.78907 -53.83,2.78907 -17.01,0 -33.77,-1.42969 -51.79,-2.78907 v 4.83207"
         style="fill:#ffffff;fill-opacity:1;fill-rule:nonzero;stroke:none"
         id="path56" />
      <path
         d="m 1922.87,226.309 -15.31,-6.028 c -8.98,-3.793 -13.88,-6.851 -14.22,-14.203 -0.69,-19.488 0,-47.988 -0.69,-109.7694 -0.68,-67.457 -33.76,-92.45704 -85.48,-92.45704 -50.44,0 -85.54,21.86724 -85.54,74.95704 v 97.7224 c 0,29.207 -1.03,36.149 -10.76,39.957 l -25.05,9.821 v 4.66 c 17.09,-1.27 33.42,-2.617 49.76,-2.617 18.37,0 36.47,1.347 54.84,2.617 v -4.66 l -15.99,-6.028 c -19.06,-7.25 -21.84,-8.711 -22.52,-20.812 -1.09,-20.559 -1.09,-50.297 -1.09,-103.9377 0,-44.4922 10.07,-73.6407 65.41,-73.6407 36.47,0 58.39,22.5977 58.39,64.2305 0,42.8479 -0.34,98.0979 -3.2,121.9999 -0.69,6.32 -5.85,9.098 -15.25,12.16 l -19.13,6.028 v 4.66 c 14.92,-1.27 29.9,-2.617 45.21,-2.617 13.2,0 26.74,1.347 40.62,2.617 v -4.66"
         style="fill:#ffffff;fill-opacity:1;fill-rule:nonzero;stroke:none"
         id="path58" />
      <path
         d="m 1987.75,12.8516 26.85,9.039 c 9.69,3.1602 11.1,4.5078 11.1,31.2188 V 178.91 c 0,32.66 -1.02,35.199 -8.7,37.578 l -29.25,9.821 v 4.66 c 12.93,-1.27 29.25,-2.617 47.99,-2.617 18.03,0 37.89,2.617 62.59,2.617 45.91,0 75.8,-18.629 75.8,-53.469 0,-35.051 -25.07,-51.73 -57.06,-56.84 L 2165.05,49 c 20.19,-30.2812 21.9,-32.6602 41.35,-36.1484 V 8.01953 c -8,0.69141 -16.33,1.35938 -24.33,1.35938 -8.29,0 -17.02,-0.66797 -25.69,-1.35938 -22.29,37.49217 -53.14,81.94137 -74.73,110.08947 h -26.74 V 78.1797 c 0,-45.168 1.08,-53.1289 10.07,-55.9492 l 27.82,-9.3789 V 8.01953 c -14.97,1.35938 -38.23,2.78907 -50.42,2.78907 -17.7,0 -37.83,-1.42969 -54.63,-2.78907 z m 67.16,116.8084 h 23.67 c 32.25,0 62.14,5.121 62.14,43.399 0,30.64 -21.15,43.82 -53.93,43.82 -11.06,0 -21.47,-0.391 -31.88,-0.391 V 129.66"
         style="fill:#ffffff;fill-opacity:1;fill-rule:nonzero;stroke:none"
         id="path60" />
      <path
         d="m 2257.9,230.969 c 30.23,-1.278 60.12,-2.629 90.4,-2.629 30.24,0 60.07,1.351 90.35,2.629 v -58.918 h -4.87 l -10.5,27.758 c -4.82,11.769 -8.28,13.211 -60.34,13.211 V 61.5117 c 0,-17.3515 0.67,-26.4609 2.72,-31.3203 2.04,-4.4726 9.36,-8.7305 35.84,-17.3398 V 8.01953 c -16.39,1.35938 -31.66,2.78907 -53.2,2.78907 -21.6,0 -36.8,-1.42969 -53.25,-2.78907 v 4.83207 c 26.49,8.6093 34.14,12.8672 35.84,17.3398 2.1,4.8594 2.78,13.9688 2.78,31.3203 V 213.02 c -52.23,0 -55.53,-1.442 -60.47,-13.211 l -10.37,-27.758 h -4.93 v 58.918"
         style="fill:#ffffff;fill-opacity:1;fill-rule:nonzero;stroke:none"
         id="path62" />
      <path
         d="m 2629.3,12.8516 c 8.28,3.1367 18.02,7 26.31,11.4179 30.2,71.2618 67.77,151.2425 92.81,213.7895 h 7.63 C 2783.91,165.789 2815.12,93.4883 2844.73,23 l 29.18,-10.1484 V 8.01953 c -18.38,1.35938 -36.44,2.78907 -54.95,2.78907 -15.66,0 -30.91,-1.42969 -46.57,-2.78907 v 4.83207 c 8.8,2.1289 23.66,6.6679 34.11,10.7382 -4.16,14.629 -15.31,47.2305 -20.15,57.75 -14.65,0.3399 -29.62,0.6797 -44.16,0.6797 -14.51,0 -28.9,-0.3398 -43.45,-0.6797 -9.38,-17.7109 -14.97,-38.2109 -19.87,-57.75 l 29.94,-10.7382 V 8.01953 c -13.56,1.35938 -27.09,2.78907 -41.03,2.78907 -12.85,0 -25.73,-1.42969 -38.48,-2.78907 z m 114.25,174.7694 -39.96,-92.0897 h 78.19 z"
         style="fill:#ffffff;fill-opacity:1;fill-rule:nonzero;stroke:none"
         id="path64" />
      <path
         d="m 2926.32,12.8516 18.47,6.6679 c 12.14,4.4102 13.52,6.1914 15.31,17.6094 8.7,54.3203 17.69,143.6331 17.69,169.3401 0,6.211 -2.46,10.019 -8.99,12.453 l -19.85,7.387 v 4.66 c 22.29,-1.27 45.59,-2.278 66.41,-2.617 21.5,-54.59 45.55,-108.364 69.87,-162.3403 27.47,53.2893 51.48,107.7503 74.37,162.3403 20.52,0.339 43.38,1.347 66.75,2.617 v -4.66 l -15.31,-6.028 c -14.24,-5.5 -17.02,-7.601 -17.02,-13.812 0,-24.008 15.32,-150.7971 19.12,-172.7776 1.84,-10.6914 5.93,-13.1719 14.22,-15.6601 l 18.79,-5.1797 V 8.01953 c -15.99,1.35938 -32.33,2.78907 -48.67,2.78907 -16.33,0 -32.32,-1.42969 -48.32,-2.78907 v 4.83207 l 17.08,5.8672 c 11.79,3.8593 15.24,8.7617 15.24,11.9023 0,17.3672 -16.32,149.3989 -18.71,166.4099 h -0.74 C 3131.46,131.352 3105.06,71.4805 3079,8.01953 h -4.57 C 3049.73,74.0391 3020.52,137.328 2992.34,200.84 h -0.69 c -4.47,-45.891 -11.01,-143.8009 -11.01,-167.1486 0,-7.9805 3.13,-11.4609 12.8,-14.6406 l 18.12,-6.1992 V 8.01953 c -14.97,1.35938 -29.61,2.78907 -44.52,2.78907 -13.61,0 -27.1,-1.42969 -40.72,-2.78907 v 4.83207"
         style="fill:#ffffff;fill-opacity:1;fill-rule:nonzero;stroke:none"
         id="path66" />
      <path
         d="m 3447.39,12.8516 18.37,6.6679 c 12.17,4.4102 13.54,6.1914 15.31,17.6094 8.72,54.3203 17.72,143.6331 17.72,169.3401 0,6.211 -2.48,10.019 -9,12.453 l -19.88,7.387 v 4.66 c 22.26,-1.27 45.6,-2.278 66.42,-2.617 21.58,-54.59 45.54,-108.364 69.84,-162.3403 27.47,53.2893 51.54,107.7503 74.44,162.3403 20.5,0.339 43.44,1.347 66.7,2.617 v -4.66 l -15.22,-6.028 c -14.31,-5.5 -17.11,-7.601 -17.11,-13.812 0,-24.008 15.25,-150.7971 19.14,-172.7776 1.7,-10.6914 5.94,-13.1719 14.2,-15.6601 l 18.81,-5.1797 V 8.01953 c -16,1.35938 -32.33,2.78907 -48.67,2.78907 -16.33,0 -32.33,-1.42969 -48.31,-2.78907 v 4.83207 l 17.06,5.8672 c 11.77,3.8593 15.27,8.7617 15.27,11.9023 0,17.3672 -16.35,149.3989 -18.81,166.4099 h -0.59 C 3652.46,131.352 3625.96,71.4805 3599.9,8.01953 h -4.49 C 3570.77,74.0391 3541.51,137.328 3513.34,200.84 h -0.69 c -4.49,-45.891 -11.1,-143.8009 -11.1,-167.1486 0,-7.9805 3.12,-11.4609 12.94,-14.6406 l 18.03,-6.1992 V 8.01953 c -14.96,1.35938 -29.55,2.78907 -44.51,2.78907 -13.54,0 -27.09,-1.42969 -40.62,-2.78907 v 4.83207"
         style="fill:#ffffff;fill-opacity:1;fill-rule:nonzero;stroke:none"
         id="path68" />
      <path
         d="m 3813.76,12.8516 c 8.37,3.1367 18.12,7 26.4,11.4179 30.29,71.2618 67.81,151.2425 92.87,213.7895 h 7.6 C 3968.4,165.789 3999.77,93.4883 4029.26,23 l 29.28,-10.1484 V 8.01953 c -18.56,1.35938 -36.59,2.78907 -54.95,2.78907 -15.64,0 -31.05,-1.42969 -46.61,-2.78907 v 4.83207 c 8.65,2.1289 23.63,6.6679 34.04,10.7382 -4.18,14.629 -15.27,47.2305 -20.08,57.75 -14.59,0.3399 -29.62,0.6797 -44.18,0.6797 -14.64,0 -28.86,-0.3398 -43.49,-0.6797 -9.4,-17.7109 -14.91,-38.2109 -19.81,-57.75 L 3893.4,12.8516 V 8.01953 c -13.53,1.35938 -27.15,2.78907 -41.04,2.78907 -12.87,0 -25.72,-1.42969 -38.6,-2.78907 z m 114.35,174.7694 -40,-92.0897 h 78.32 z"
         style="fill:#ffffff;fill-opacity:1;fill-rule:nonzero;stroke:none"
         id="path70" />
      <path
         d="m 4106.12,12.8516 26.81,9.039 c 8.7,3.1602 9.73,4.5078 10.06,31.2188 0.34,20.9297 1.08,42.0898 1.08,62.9296 0,20.82 -0.74,42.051 -1.08,62.871 -0.62,32.66 -1.08,35.199 -7.6,37.578 l -29.27,9.821 v 4.66 c 16.68,-1.27 33.75,-2.617 53.27,-2.617 17.29,0 34.36,1.347 51.72,2.617 v -4.66 l -29.09,-9.821 c -6.7,-2.379 -6.98,-4.918 -7.72,-37.578 -0.34,-20.82 -1.03,-42.051 -1.03,-62.871 0,-20.8398 0.69,-41.9999 1.03,-62.9296 0.34,-26.711 1.36,-28.0586 10,-31.2188 l 26.81,-9.039 V 8.01953 c -16.32,1.35938 -36.47,2.78907 -51.72,2.78907 -17.48,0 -37.55,-1.42969 -53.27,-2.78907 v 4.83207"
         style="fill:#ffffff;fill-opacity:1;fill-rule:nonzero;stroke:none"
         id="path72" />
      <path
         d="m 4518.57,224.602 -23.36,-8.454 c -7.6,-2.718 -11.06,-6.277 -11.49,-12.457 -1.01,-28.179 -3.74,-89.691 -3.74,-109.8512 0,-14.3593 0,-54.25 0.68,-93.8398 h -8.37 c -22.17,33.0117 -46.17,64.6719 -69.82,96.6484 L 4331.94,191.5 h -0.78 v -38.922 c 0,-45.859 0.78,-114.3592 1.81,-120.9374 1.08,-5.582 3.46,-8.3906 13.56,-11.4492 l 22.9,-7.3516 V 8.03125 c -15.31,1.34766 -30.96,2.76955 -46.2,2.76955 -15.05,0 -29.51,-1.42189 -44.58,-2.76955 v 4.80855 l 26.56,10.1719 c 4.84,1.5977 7.96,4.75 8.31,7.9571 1.35,11 3.79,62.871 3.79,107.3902 v 68.801 l -4.48,6.942 c -10.83,4.828 -21.57,8.66 -32.67,12.207 v 4.671 c 11.1,-1.281 22.17,-2.64 33.36,-2.64 10.4,0 20.81,1.359 31.35,2.64 6.47,-12.05 13.76,-23.199 22.12,-34.289 l 98.44,-132.0191 0.67,0.6562 v 84.1209 c 0,16.672 -0.33,33.832 -1.44,50.762 -0.68,9.66 -3.49,12.48 -13.53,16.668 l -22.88,9.43 v 4.671 c 14.17,-1.281 28.81,-2.64 43.1,-2.64 15.66,0 31.23,1.359 47.22,2.64 v -6.378"
         style="fill:#ffffff;fill-opacity:1;fill-rule:nonzero;stroke:none"
         id="path74" />
      <path
         d="m 0,1048.97 h 4509.2 l -0.61,37.44 -1502.36,0.29 L 0,1087.71 v -38.74"
         style="fill:#ffffff;fill-opacity:1;fill-rule:nonzero;stroke:none"
         id="path76" />
      <path
         d="m 3572.21,2336.05 c 3.61,0 9.37,-1.45 12.99,-1.45 3.61,0 20.76,-7.32 28.51,-12.01 6.5,-3.97 13.42,-10.41 21.53,-13.47 10.66,-4.15 30.78,-7.73 34.39,-7.73 6.32,0 44.22,7.23 44.75,7.23 14.8,0 47.5,-21.05 57.78,-34.94 3.42,-4.69 5.02,-14.86 5.02,-18.47 0,-3.61 -1.46,-13.71 -1.46,-17.32 0,-6.67 -8.65,-17.33 -15.14,-17.33 -7.95,0 -17.34,30.74 -19.84,33.45 -13.2,14.79 -54.33,35.85 -75.43,35.85 -1.81,0 -15.15,-0.91 -15.15,-8.66 0,-16.24 41.85,-22.75 41.85,-38.99 0,-5.22 -8.67,-8.65 -11.56,-8.65 -9.91,0 -35.26,20.98 -39.95,22.78 -14.07,5.6 -30.19,8.99 -44.52,11.86 -17.44,0.42 -20.16,0 -21.53,0.01 -24.79,-6.48 -45.1,-29.01 -61.21,-51.67 -4.06,-5.72 -3.83,-19.07 -7.44,-19.07 -3.6,0 -18.05,4.33 -21.64,4.33 -30.67,0 -42.41,-21.3 -42.41,-48.35 0,-7.58 -3.77,-16.17 -8.82,-22.13 -3.79,-4.51 -14.45,-10.36 -18.07,-10.36 -10.46,0 -17.32,7.94 -17.32,13.72 0,3.61 0.44,6.48 1.44,10.11 0.98,3.47 9.01,18.85 14.96,26.43 25.63,32.48 61.04,61.35 99.47,81.57 6.32,3.24 16.44,2.71 23.13,5.79 3.61,1.62 29.9,19.19 29.9,27.67 0,3.61 -6.73,9.42 -10.94,10.83 0,0 -42.87,-1.9 -46.58,-1.24 -0.66,0.58 -1.67,1.95 -1.67,5.55 0,6.87 9.12,10.66 13.18,13.78 11.19,8.61 40.22,20.88 51.78,20.88"
         style="fill:#ffffff;fill-opacity:1;fill-rule:nonzero;stroke:none"
         id="path78" />
      <path
         d="m 3941,2318.72 c 3.61,0 5.7,-0.59 8.94,-2.94 1.68,-1.59 2.07,-2.4 1.97,-4.23 -0.05,-1.66 -0.43,-2.82 -1.97,-3.78 -14.48,-4.63 -48.61,-50.51 -51.52,-59.06 -2.96,-8.67 -5.77,-20.93 -5.77,-24.53 0,-5.96 2.7,-12.28 7.94,-12.28 3.61,0 15.89,5.4 22.95,6.85 12.98,2.7 35.5,6.15 39.11,6.15 23.09,0 61.35,-21.3 61.35,-43.31 0,-3.61 -0.14,-8.57 -3.22,-12.86 -2.97,-4.12 -10.66,7.41 -15.08,9.66 -6.51,3.32 -18.5,6.09 -22.11,6.09 -35.02,0 -39.16,-23.1 -63.51,-23.1 -10.83,0 -18.43,0.63 -29.81,14.71 -5.76,7.03 -3.5,19.45 -8.19,29 -2.35,4.87 -9.83,8.52 -13.45,12.86 -3.42,4.15 -7.17,10.37 -8.81,16.14 -1.07,4.15 -2.11,9.79 -0.67,15.77 5.1,21.35 11.44,34.21 27.96,46.66 4.88,3.69 42.53,22.2 53.89,22.2"
         style="fill:#ffffff;fill-opacity:1;fill-rule:nonzero;stroke:none"
         id="path80" />
      <path
         d="m 3977.09,2148.39 c 3.6,0 18.6,-5.82 27.59,-8.13 36.51,-9.41 51.39,-52.63 58.64,-80.53 0.84,-3.23 1.93,-7.28 1.93,-10.89 0,-3.61 -0.13,-7.86 -1.71,-13.9 0,0 -0.57,-3.47 -4.18,-3.47 -8.66,0 -16.45,6.77 -26.53,19.03 -12.63,15.51 -19.16,35.59 -30.9,52.01 -6.84,9.37 -16.97,18.03 -25.39,25.54 -2.56,2.31 -11.32,7.9 -11.73,13.13 -0.22,2.95 0.4,4.51 1.57,5.45 2.31,1.87 7.1,1.76 10.71,1.76"
         style="fill:#ffffff;fill-opacity:1;fill-rule:nonzero;stroke:none"
         id="path82" />
      <path
         d="m 4052.87,1982.39 c 14.43,0 37.52,-20.21 37.52,-34.64 0,-3.96 -4.07,-9.37 -6.43,-9.56 -25.97,-2.71 -39.75,-29.24 -39.75,-47.46 0,-20.03 13.4,-35.59 35.57,-45.73 4.69,-2.15 12.17,-2.97 15.78,-2.97 3.61,0 14.67,3.49 22.62,8.01 12.81,7.57 19.39,31.63 35.43,25.4 12.23,-16.03 16.17,-27.46 16.17,-41.01 0,-21.65 -48.18,-29.59 -54.14,-29.59 -22.72,0 -55.2,13.98 -75.24,37.79 -8.29,9.92 -15.56,22.61 -20.75,33.91 -5.88,12.78 -10.08,28.81 -10.08,38.02 0,16.24 18.39,67.83 43.3,67.83"
         style="fill:#ffffff;fill-opacity:1;fill-rule:nonzero;stroke:none"
         id="path84" />
      <path
         d="m 3964.81,1820.01 c 0,3.6 -1.64,17.5 -3.44,24.71 -2.17,8.3 -10.76,14.64 -15.96,12.01 -1.87,-0.95 -9.47,-13.27 -9.47,-19.41 0,-3.61 1.15,-17.56 -1.91,-24.24 -6.86,-15.15 -37.41,-34.22 -50.05,-34.22 -3.78,0 -11.55,2.35 -11.55,12.99 0,3.61 7.22,10.11 7.22,13.71 0,5.96 -4.84,4.76 -11.64,8.99 0,0 -2.7,1.4 0,5.06 9.76,4.06 19.73,5.28 29.83,7.45 10.11,2.17 28,26.69 28,37.69 0,3.79 -10.11,15.15 -18.77,15.15 -3.61,0 -2.48,-1.92 -2.48,-1.92 1.96,-9.94 -4.45,-28.36 -13.11,-35.22 -5.23,-4.15 -13.28,-7.61 -16.87,-7.61 -3.6,0 -10.16,0.76 -11.79,1.25 -19.68,5.93 -25.03,21.85 -25.03,35.56 0,4.71 1.84,2.96 -1.93,7.91 -3.88,-1.07 -26.93,-11.33 -26.93,-21.62 0,-8.12 24.53,-21.65 24.53,-27.41 0,-14.98 -23.09,-3.08 -23.09,-15.89 0,-3.61 8.66,-40.24 8.66,-43.85 v -22.01 c 0,-32.3 21.65,-23.1 21.65,-52.51 0,-5.95 -13.34,-23.17 -17.85,-24.98 -4.32,-1.61 -6.4,-4.09 -10,-7.18 -2.97,-3.9 -2.5,-4.37 -5.6,-9.69 -4.95,-8.43 -11.48,-7.71 -17.52,-6.56 -14.67,2.82 -21.39,5.34 -33.48,5.34 -3.59,0 -12.26,-9.63 -15.88,-9.63 -3.59,0 -8.85,2.12 -12.11,5.54 -1.79,1.82 -7.98,21.56 -18.81,21.56 -3.59,0 -23.18,-9.04 -26.81,-9.04 -13.34,0 -29.59,16.24 -29.59,28.88 0,0.89 0.08,12.65 10.16,12.65 7.41,0 4.84,-8.79 12.26,-12.65 9.01,5.89 21.62,21.64 25.22,21.64 3.61,0 5.21,-0.26 7.56,-1.7 5.42,-3.24 12.65,-17.97 12.65,-27.17 0,-8.66 10.1,-15.88 18.77,-15.88 18.22,0 28.87,13.71 28.87,31.05 0,3.6 -7.23,28.87 -7.23,32.48 0,3.59 -0.02,1.97 0.35,3.53 -0.35,4.46 -0.35,8.86 -0.9,11.55 0.51,1.25 4.88,48.42 4.88,52.04 0,24.71 -12.98,48.53 -12.98,74.33 0,10.65 1.93,38.63 11.68,47.83 19.66,18.58 64.45,41.66 100.18,41.66 3.61,0 26.03,-5.16 37.22,-10.39 3.44,-1.45 14.22,-10.15 19.24,-11.24 7.34,6.11 12.11,22.36 12.11,31.74 0,32.84 -41.86,57.92 -41.86,95.28 0,3.6 7.21,44.01 7.21,47.62 0,3.61 -1.27,11.11 -1.98,16.7 -3.98,28.33 -38.08,58.36 -61.53,58.36 -3.6,0 -61.35,-5.77 -64.95,-5.77 -35.74,0 -58.46,23.09 -97.44,23.09 -3.6,0 -39.2,-4.87 -57.78,-6.13 -79.4,-5.59 -119.04,-62.79 -119.04,-141.1 0,-3.61 2.01,-16.79 0.38,-23.63 -9.2,-36.46 -33.58,-62.07 -33.58,-94.74 l 4.34,-136.39 c -2.89,-40.92 -31.76,-19.14 -31.76,-57.75 0,-3.6 1.45,-21.96 3.26,-31.88 1.08,-5.95 4.82,-12.41 7.34,-15.65 1.45,-1.98 13.95,-8.05 17.54,-8.05 9.92,0 15.67,19.04 23.17,21.66 8.12,-2.32 2.2,-21.28 3.43,-31.06 2.53,-20.17 15.04,-59.61 16.37,-63.67 2.37,-7.25 5.08,-12 7.25,-17.41 3.42,-8.66 11.13,-21.38 11.13,-25 0,-0.63 4.02,-10.82 10.47,-26.61 0.41,1.27 1.01,1.57 0.82,2.18 h 3.61 c 8.46,-7.16 104.36,-101.91 141.54,-102.59 h 56.28 c 23.46,0 58.65,13.53 58.65,47.63 0,29.78 -33.21,34.64 -53.4,34.64 -3.61,0 -29.04,-5.36 -36.83,-5.76 -3.78,-0.2 -25.26,5.76 -25.26,14.42 0,12.46 32.13,14.45 39.71,14.45 3.61,0 42.57,-10.1 46.19,-10.1 13.53,0 33.92,8.11 33.92,28.86 0,11.36 -18.22,18.76 -28.86,18.76 -13.36,0 -27.85,-12.26 -43.54,-12.26 -3.61,0 -19.21,7.5 -22.81,7.5 -3.61,0 -27.25,-11.12 -33.73,-10.94 -5.71,0.17 -22.95,17.49 -26.56,17.49 -3.62,0 -14.84,-10.54 -18.44,-10.54 -3.62,0 -4.63,4.16 -7.17,5.24 1.08,2.56 2.93,24.55 17.36,24.55 3.62,0 16.51,-9.48 20.12,-9.48 20.39,0 18.22,17.31 35.37,17.31 20.2,0 21.84,-24.54 37.54,-24.54 12.8,0 17.13,23.11 35.35,23.11 14.81,0 29.4,-17.33 37.53,-17.33 8.3,0 16.96,11.54 31.75,11.54 3.61,0 8.89,-7.96 10.31,-12.48 1.27,-4.15 -0.03,-8.44 -0.03,-12.78 0,-4.33 1.66,-9.71 4.02,-12.05 1.97,-1.98 2.3,-4.55 5.91,-4.55 h 17.14 c 19.86,0 71.42,99.05 72.5,103.02 2.71,9.94 6.34,26.18 6.34,29.78 0,3.62 2.72,19.53 1.46,42.62 -1.26,26.35 12.98,45.8 12.98,72.15 m -314.12,13.77 c -1.61,1.02 -3.42,3.51 -3.42,3.51 6.05,9.98 17.32,23.49 17.32,31.79 0,5.77 -15.24,17.16 -19.34,16.61 -8.77,-2.87 -2.14,-15.26 -2.87,-21.03 -1.8,-12.99 -18.94,-30.95 -31.93,-30.95 -6.31,0 -22.54,7.1 -26.15,10.88 -15.14,16.05 -7.77,18.36 -7.77,32.43 0,3.6 -1.45,2.17 -1.23,4.54 -0.92,-0.2 -0.92,1.23 -4.54,1.23 -9.57,0 -18.78,-15.16 -18.78,-20.93 0,-11 7.2,-24.92 23.04,-28.55 -4.7,-10.01 -8.05,-11.13 -15.09,-11.13 -27.23,0 -23.99,36.07 -36.08,36.07 -3.61,0 -7.21,-2.89 -10.82,-2.89 -3.62,0 -10.57,6.67 -13.81,9.37 -5.96,4.88 -4.96,10.31 -4.96,13.73 0,49.99 40.74,78.85 97.44,82.28 11.64,-1.45 12.99,0 14.46,0 11.6,-1.45 25.91,-2.25 36.38,-7.66 18.05,-9.2 44.98,-25.97 60.3,-44.57 2.53,-3.06 7.93,-25.36 7.93,-32.21 0,-3.61 -10.13,-43.73 -10.1,-55.58 0.01,-8.52 7.22,-41.86 7.22,-45.47 0,-7.4 0.94,-19.73 -6.21,-29.53 -6.36,0.85 -28.45,36.21 -28.45,49.02 0,18.94 17.34,22.01 17.34,47.63 0,4.7 -0.9,8.67 -5.78,8.67 -3.61,0 -18.93,-17.33 -22.54,-17.29 0,0 -7.76,-2.39 -11.56,0.03 m 79.57,-445.01 c -26.78,0.17 -113.67,13.5 -139.96,30.2 31.79,-73.64 64.19,-145.33 69.23,-145.33 23.09,0 90.23,81.92 90.23,103.21 0,3.62 -1.62,6.22 -3.75,8.9 -6.17,1.9 -11.42,3.02 -15.75,3.02 m -139.96,30.2 c -21.74,50.36 -43.03,101.27 -55.26,131.19 -0.15,-0.45 -0.37,-0.57 -0.37,-1.53 0,-3.6 35.64,-116.69 55.31,-129.49 0.1,-0.06 0.24,-0.11 0.32,-0.17"
         style="fill:#ffffff;fill-opacity:1;fill-rule:nonzero;stroke:none"
         id="path86" />
      <path
         d="m 3572.87,1943.41 c 11.92,0.93 17.23,0.62 21.8,0 15.23,-3.62 45.37,-16.41 45.37,-36.08 0,-3.6 -0.71,-7.22 -4.32,-7.22 -3.61,0 -13.17,10.11 -16.78,10.13 h -9.68 c -1.18,-1.25 -0.98,0.69 -0.98,-2.91 0,-3.6 2.89,-3.6 2.89,-7.22 0,-3.6 -1.44,-3.6 -1.68,-5.59 -15.39,2 -23.42,-1.78 -41.35,-5.79 -0.27,4.89 -0.27,9.22 -0.21,13.28 -1.29,1.2 -0.78,0.99 -4.38,0.99 -11.56,0 -20.21,-21.66 -31.77,-21.66 -8.65,0 -12.98,7.95 -12.98,13 0,15.52 18.47,37.46 33.62,44.33 5.41,2.34 13.15,3.29 20.45,4.74"
         style="fill:#ffffff;fill-opacity:1;fill-rule:nonzero;stroke:none"
         id="path88" />
      <path
         d="m 3880.38,1933.32 c 3.6,0 6.92,-2.72 11.62,-3.25 12.27,-1.46 35.29,-13.36 35.29,-29.23 0,-3.62 -1.52,-10.43 -4.95,-16.59 -6.39,5.97 -13.56,14.59 -22,21.68 h -3.86 c -1.16,-1.27 -2.39,0.69 -2.39,-2.93 0,-3.61 1.36,-4.72 2.88,-8.05 -1.65,-1.85 -1.44,-3.5 -5.06,-3.5 -2.14,0 -17.3,7.23 -25.96,7.23 -15.17,0 -34.65,-11.55 -38.98,-11.55 -3.61,0 -6.49,4.32 -6.49,7.94 0,17.32 27.42,12.98 27.42,25.97 0,6.68 17.5,9.39 18.05,9.39 3.6,0 10.82,2.89 14.43,2.89"
         style="fill:#ffffff;fill-opacity:1;fill-rule:nonzero;stroke:none"
         id="path90" />
      <path
         d="m 3606.85,1887.13 c 9.73,0 10.1,-8.84 10.1,-11.56 0,-6.68 -5.06,-14.42 -10.84,-14.42 -10.45,0 -12.25,8.29 -12.25,12.99 0,8.65 4.51,12.99 12.99,12.99"
         style="fill:#ffffff;fill-opacity:1;fill-rule:nonzero;stroke:none"
         id="path92" />
      <path
         d="m 3865.95,1885.68 c 8.29,0 13.5,-7.94 13.7,-13.71 0.19,-5.73 -7.93,-12.27 -11.54,-12.27 -6.67,0 -11.39,8.57 -11.56,14.43 -0.08,2.89 4.15,11.55 9.4,11.55"
         style="fill:#ffffff;fill-opacity:1;fill-rule:nonzero;stroke:none"
         id="path94" />
      <path
         d="m 3813.26,1695.87 c 0,-11.56 -9.03,-20.93 -19.49,-20.93 -3.61,0 -3.73,-0.01 -5.06,1.55 -1.67,1.96 0.11,6.56 0.11,6.56 -0.1,3.62 5.71,9.93 5.67,13.53 -0.08,6.58 -1.44,10.75 -2.6,24.4 15.51,-6.04 21.37,-10.5 21.37,-25.11"
         style="fill:#ffffff;fill-opacity:1;fill-rule:nonzero;stroke:none"
         id="path96" />
      <path
         d="m 3978.61,1536.36 c 4.5,-1.59 6.04,-1.9 7.31,-7.79 6.37,-29.98 13.53,-89.65 13.53,-93.26 0,-16.59 -14.35,-46.38 -22.28,-59.73 -10.65,-17.68 -30.94,-46.05 -48.63,-59.3 -3.38,-2.52 -57.91,-39.24 -79.92,-41.18 -15.63,-1.39 -41.26,23.82 -47.83,33.44 -9.19,13.49 -15.97,27.91 -22.65,40.56 -4.68,8.84 -12.51,22.7 -12.51,26.32 0,5.41 6.19,9.9 9.27,10.45 1.43,0.17 35.37,5.73 47.46,10.95 55.03,23.82 127.35,65.95 147.18,128.94 1.26,4.13 4.08,7.61 9.07,10.6"
         style="fill:#ffffff;fill-opacity:1;fill-rule:nonzero;stroke:none"
         id="path98" />
      <path
         d="m 3996.41,1350.05 c 4.35,-0.15 3.39,-9.03 3.39,-11.94 0.47,-17.49 0.47,-8.28 -0.39,-20.16 -0.31,-19.78 -13.77,-44.67 -22.24,-59.28 -8.12,-14.07 -54.93,-86.07 -85.25,-86.07 -17.14,0 -39.69,26.7 -39.69,38.26 0,8.47 11.91,12.24 19.29,14.23 7.41,1.98 14.89,4.28 21.56,7.17 37.16,16.78 64.3,54.04 84.3,87.25 4.62,7.67 8.52,26.25 12.51,28.55 2.3,1.32 3.51,2.08 6.52,1.99"
         style="fill:#ffffff;fill-opacity:1;fill-rule:nonzero;stroke:none"
         id="path100" />
      <path
         d="m 3764.88,1324.17 c 11.1,-3.08 13.73,-25.62 13.73,-33.21 0,-12.45 -10.47,-52.66 -28.86,-52.66 -3.62,0 -8.66,3.59 -12.27,3.59 -8.66,0 -26.71,-18.04 -26.71,-23.83 0,-11.17 20.55,-13.01 35.43,-15.09 7.69,-1.07 19.91,-0.07 19.91,-0.07 14.59,11.4 10.18,33.84 24.82,47.21 2.85,1.3 5.67,1.94 11.29,3.28 h 4.87 c 0.55,-0.52 17.71,-27.03 17.71,-33.87 0,-31.41 -75.23,-48.36 -88.76,-48.36 -34.11,0 -51.25,56.66 -51.25,75.06 0,16.41 7.4,27.43 22.37,27.43 3.61,0 27.43,-8.66 31.04,-8.66 13.53,0 17.32,14.78 17.32,22.37 0,3.6 -3.08,15.16 -2.89,18.77 0.55,9.65 5.85,18.08 12.25,18.04"
         style="fill:#ffffff;fill-opacity:1;fill-rule:nonzero;stroke:none"
         id="path102" />
      <path
         d="m 3307.73,1814.85 c 4.01,0.12 9.03,0.46 13.74,-1.78 5.66,-7.79 0.03,-23.47 11.46,-30.82 2.75,-0.5 5.51,-1.93 9.12,-1.93 16.25,0 30.31,25.98 32.48,25.98 3.6,0 10.27,-4.35 16.52,-6.05 0,0 1.15,-2.74 0,-7.48 -1.03,-4.21 -31.19,-41.49 -36.42,-45.04 -2.34,-1.58 -7.07,-3.97 -11.58,-5.79 -5.4,-2.33 -13.27,-3.48 -16.88,-3.48 -17.31,0 -28.87,23.82 -28.87,34.64 0,12.45 4.94,29.9 10.43,41.75"
         style="fill:#ffffff;fill-opacity:1;fill-rule:nonzero;stroke:none"
         id="path104" />
      <path
         d="m 3512.4,1376.11 c 2.28,1.27 6.66,0.04 6.66,0.04 30.9,-40.57 60.04,-87.8 103.34,-108.55 8.3,-3.98 18.44,-8.27 24.76,-14.59 8.64,-8.83 29.61,-42.73 29.61,-55.72 0,-12.62 -14.07,-12.99 -18.04,-12.99 -7.76,0 -29.92,10.91 -36.42,14.15 -65.49,33.93 -94.54,111.4 -111.53,166.94 0,0 -2.07,8.65 1.62,10.72"
         style="fill:#ffffff;fill-opacity:1;fill-rule:nonzero;stroke:none"
         id="path106" />
      <path
         d="m 3429.94,1363.3 c 8.66,0 24.61,-29.57 28.22,-35.35 2.89,-4.69 31.41,-45.84 38.99,-58.83 16.05,-27.26 61.27,-84.99 61.23,-88.61 0,0 2.78,-7.39 -0.06,-10.13 -1.31,-1.26 -0.62,-1.95 -4.24,-1.95 -3.61,0 -13.92,-0.82 -22.75,7.87 -7.14,7.02 -108.62,161.2 -108.62,178.34 0,3.61 3.62,8.66 7.23,8.66"
         style="fill:#ffffff;fill-opacity:1;fill-rule:nonzero;stroke:none"
         id="path108" />
      <path
         d="m 3530.63,1575.38 c 0.25,-0.83 4.68,-22.98 4.68,-26.6 0,-3.6 7.87,-17.54 11.84,-25.66 8.85,-17.86 20.49,-37.58 33.11,-53.27 14.8,-18.59 44.22,-42.25 63.88,-55.06 26,-16.78 59.88,-25.69 86.78,-25.87 4.31,0 9.57,-1.11 15.72,-3.01 2.15,-2.68 3.74,-5.29 3.74,-8.9 0,-21.11 -67.12,-103.21 -90.2,-103.21 -12.46,0 -28.58,14.27 -39.47,21.35 -33.89,22.03 -68.87,60.56 -89.25,94.48 -10.83,18.22 -35.11,58.29 -35.11,77.59 0,3.62 1.44,13 1.44,16.6 0,3.62 12.99,46.92 12.99,50.53 0,3.61 14.43,38.97 14.43,42.58 l 5.42,-1.55"
         style="fill:#ffffff;fill-opacity:1;fill-rule:nonzero;stroke:none"
         id="path110" />
      <path
         d="m 4481.3,1079.93 c -0.01,0.83 -1.74,83.49 -60.63,134.65 -44.48,38.64 -171.1,94.6 -246.74,128.03 -33.07,14.61 -56.96,25.17 -66.67,30.82 -3.65,1.98 -12.18,6.63 -11.92,16.04 0.1,3.1 0.14,4.37 15.22,38.64 l 1.08,2.48 c 11.15,25.6 21.21,46.73 30.09,65.37 24.64,51.77 34.28,73.47 25.35,90.72 -10.57,20.43 -49.86,41.33 -118.42,76.51 l -7.44,3.83 0.77,8.32 c 0.77,8.44 7.73,20.62 25.63,44.94 l 5.81,7.89 8.25,-2.32 c 8.78,-2.47 16.99,-5.11 24.76,-7.61 43.02,-13.83 64.61,-20.76 97.45,24.05 19.29,26.36 20.47,68.12 13.06,97.81 -6.54,26.29 -10.29,29.4 -31.11,46.66 l -5.32,4.38 c -4.26,3.32 -12.19,9.49 -11.55,19.18 0.96,13.93 5.41,26.75 9.7,39.14 5.4,15.6 10.51,30.33 9.09,47.05 l -0.5,6.12 c -3.09,37.64 -11.3,137.64 -54.19,148.7 l -5.68,1.46 -7.34,15.81 2.4,5.21 c 22.29,48.16 -5.63,110.48 -45.51,142.9 -27.82,22.63 -56.46,27.23 -76.59,12.28 l -13.03,-9.67 -5.88,15.12 c -6.8,17.43 -15.11,27.8 -24.73,30.82 -9.98,3.12 -23.36,-0.89 -39.83,-11.94 l -10.82,-7.26 -12,20.01 c -23.04,30.89 -38.41,43.43 -72.14,41.34 -52.15,-3.25 -118.44,-10.14 -168.47,-34.84 l -6.94,-3.41 -6.11,4.72 c -41.06,31.73 -100.71,26.37 -177.3,-15.92 -29.57,-16.32 -35.13,-43.77 -38.81,-61.93 -2.23,-10.99 -3.99,-19.67 -11.82,-23.84 l -5.33,-2.82 c -45.67,-24.14 -88.8,-46.94 -88.16,-99.89 0.35,-27.41 -12.18,-36.52 -22.25,-43.85 -6.62,-4.81 -11.85,-8.61 -15.71,-18.33 -0.83,-2.35 -1.31,-11.61 -1,-19.39 -0.06,-20.52 3.36,-37.06 6.97,-54.57 2.13,-10.29 4.33,-20.93 5.91,-32.69 2,-14.87 -6.35,-24.49 -13.72,-32.99 -13.63,-15.72 -30.61,-35.27 6.76,-110.39 l 3.19,-6.42 -3.98,-5.97 c -24.03,-35.98 -36.57,-96.25 -15.94,-134.83 11.66,-21.8 32.5,-32.85 61.94,-32.85 24.23,0 45.53,14.1 59.63,23.44 9.63,6.38 15.56,10.19 22.21,9.86 l 6.43,-0.34 3.41,-5.48 c 7.06,-11.33 15.45,-22.39 23.56,-33.09 l 2.84,-3.75 -0.36,-4.68 c -0.71,-9.13 -8.27,-15.08 -34.43,-34.29 -28.62,-21.03 -81.9,-60.18 -81.02,-85.58 0.35,-10.11 23.84,-49.25 39.38,-75.15 20.9,-34.83 33.27,-55.88 35.38,-68.04 l 4.97,-13.46 -9.62,-5.06 c -48.71,-25.55 -95.78,-46.19 -141.3,-66.16 -142.62,-62.54 -245.66,-107.72 -245.09,-235.29 l -24.77,-0.11 c -0.63,143.83 114.35,194.24 259.92,258.08 42.29,18.55 85.95,37.69 130.72,60.73 -3.7,10.36 -19.55,36.76 -31.44,56.57 -26.34,43.88 -42.36,71.64 -42.9,87.03 -1.34,38.46 52.1,77.72 91.11,106.39 7.18,5.28 15.57,11.45 20.85,15.79 -4.31,5.75 -8.61,11.62 -12.73,17.66 -1.16,-0.76 -2.34,-1.54 -3.46,-2.28 -15.55,-10.3 -41.61,-27.54 -73.29,-27.54 -48.94,0 -72.57,24.98 -83.78,45.93 -24.7,46.22 -11.87,112.16 13.33,154.16 -37.32,78.23 -20.64,107.8 -0.22,131.34 6.09,7.03 8.35,10 7.89,13.46 -1.48,10.9 -3.58,21.11 -5.63,30.99 -3.71,17.98 -7.54,36.57 -7.48,59.12 -0.24,5.65 -0.47,20.93 2.75,29.02 6.52,16.36 16.72,23.77 24.16,29.19 8.41,6.11 12.23,8.9 12.05,23.51 -0.82,68.08 55.83,98.03 101.35,122.09 l 2.61,1.38 c 0.58,2.07 1.26,5.45 1.84,8.31 4.02,19.86 11.51,56.84 51.11,78.69 82.51,45.55 149.12,51.69 198.17,18.36 52.92,24.02 118.87,30.87 171.08,34.12 48.86,3.03 70.57,-20.43 93.72,-51.51 18.7,10.24 35.15,12.94 50.02,8.27 13.89,-4.35 25.43,-15.21 34.45,-32.34 27.87,12.61 61.98,5.43 94,-20.61 44.38,-36.11 77.52,-104.45 55.92,-163.88 51.63,-23.33 59.53,-119.74 63.44,-167.4 l 0.5,-6.05 c 1.86,-21.95 -4.64,-40.7 -10.37,-57.24 -3.52,-10.16 -6.85,-19.81 -8.05,-29.31 0.62,-0.51 1.28,-1.03 1.71,-1.36 l 5.93,-4.87 c 21.8,-18.08 30.82,-25.56 39.33,-59.74 8.15,-32.7 8.56,-83.34 -17.11,-118.42 -43.39,-59.23 -81.2,-47.07 -125.01,-32.99 -5.02,1.61 -10.23,3.29 -15.67,4.94 -6.67,-9.29 -10.67,-15.48 -13.08,-19.6 142.7,-73.61 146.17,-85.02 93.97,-194.69 -8.79,-18.47 -18.76,-39.4 -29.74,-64.62 l -1.13,-2.56 c -5.48,-12.46 -8.77,-20.13 -10.73,-24.84 10.33,-5.45 33.19,-15.55 61.46,-28.04 81.9,-36.2 205.67,-90.9 252.97,-131.99 67.47,-58.61 69.12,-149.25 69.15,-153.09 l -24.76,-0.25"
         style="fill:#ffffff;fill-opacity:1;fill-rule:nonzero;stroke:none"
         id="path112" />
    </g>
  </g>
</svg>
