<?xml version="1.0" encoding="utf-8"?>
<svg xmlns="http://www.w3.org/2000/svg" viewBox="0 0 500 500">
  <g id="preview" transform="matrix(9.996794, 0, 0, 9.996794, -3238.824219, -2206.378418)" style="">
    <path d="M 323.965 220.737 L 325.965 220.737 L 325.965 222.737 L 323.965 222.737 L 323.965 220.737 Z M 325.965 220.737 L 327.965 220.737 L 327.965 222.737 L 325.965 222.737 L 325.965 220.737 Z M 327.965 220.737 L 329.965 220.737 L 329.965 222.737 L 327.965 222.737 L 327.965 220.737 Z M 329.965 220.737 L 331.965 220.737 L 331.965 222.737 L 329.965 222.737 L 329.965 220.737 Z M 331.965 220.737 L 333.965 220.737 L 333.965 222.737 L 331.965 222.737 L 331.965 220.737 Z M 333.965 220.737 L 335.965 220.737 L 335.965 222.737 L 333.965 222.737 L 333.965 220.737 Z M 335.965 220.737 L 337.965 220.737 L 337.965 222.737 L 335.965 222.737 L 335.965 220.737 Z M 343.965 220.737 L 345.965 220.737 L 345.965 222.737 L 343.965 222.737 L 343.965 220.737 Z M 351.965 220.737 L 353.965 220.737 L 353.965 222.737 L 351.965 222.737 L 351.965 220.737 Z M 353.965 220.737 L 355.965 220.737 L 355.965 222.737 L 353.965 222.737 L 353.965 220.737 Z M 359.965 220.737 L 361.965 220.737 L 361.965 222.737 L 359.965 222.737 L 359.965 220.737 Z M 361.965 220.737 L 363.965 220.737 L 363.965 222.737 L 361.965 222.737 L 361.965 220.737 Z M 363.965 220.737 L 365.965 220.737 L 365.965 222.737 L 363.965 222.737 L 363.965 220.737 Z M 365.965 220.737 L 367.965 220.737 L 367.965 222.737 L 365.965 222.737 L 365.965 220.737 Z M 367.965 220.737 L 369.965 220.737 L 369.965 222.737 L 367.965 222.737 L 367.965 220.737 Z M 369.965 220.737 L 371.965 220.737 L 371.965 222.737 L 369.965 222.737 L 369.965 220.737 Z M 371.965 220.737 L 373.965 220.737 L 373.965 222.737 L 371.965 222.737 L 371.965 220.737 Z M 323.965 222.737 L 325.965 222.737 L 325.965 224.737 L 323.965 224.737 L 323.965 222.737 Z M 335.965 222.737 L 337.965 222.737 L 337.965 224.737 L 335.965 224.737 L 335.965 222.737 Z M 341.965 222.737 L 343.965 222.737 L 343.965 224.737 L 341.965 224.737 L 341.965 222.737 Z M 353.965 222.737 L 355.965 222.737 L 355.965 224.737 L 353.965 224.737 L 353.965 222.737 Z M 359.965 222.737 L 361.965 222.737 L 361.965 224.737 L 359.965 224.737 L 359.965 222.737 Z M 371.965 222.737 L 373.965 222.737 L 373.965 224.737 L 371.965 224.737 L 371.965 222.737 Z M 323.965 224.737 L 325.965 224.737 L 325.965 226.737 L 323.965 226.737 L 323.965 224.737 Z M 327.965 224.737 L 329.965 224.737 L 329.965 226.737 L 327.965 226.737 L 327.965 224.737 Z M 329.965 224.737 L 331.965 224.737 L 331.965 226.737 L 329.965 226.737 L 329.965 224.737 Z M 331.965 224.737 L 333.965 224.737 L 333.965 226.737 L 331.965 226.737 L 331.965 224.737 Z M 335.965 224.737 L 337.965 224.737 L 337.965 226.737 L 335.965 226.737 L 335.965 224.737 Z M 339.965 224.737 L 341.965 224.737 L 341.965 226.737 L 339.965 226.737 L 339.965 224.737 Z M 345.965 224.737 L 347.965 224.737 L 347.965 226.737 L 345.965 226.737 L 345.965 224.737 Z M 353.965 224.737 L 355.965 224.737 L 355.965 226.737 L 353.965 226.737 L 353.965 224.737 Z M 359.965 224.737 L 361.965 224.737 L 361.965 226.737 L 359.965 226.737 L 359.965 224.737 Z M 363.965 224.737 L 365.965 224.737 L 365.965 226.737 L 363.965 226.737 L 363.965 224.737 Z M 365.965 224.737 L 367.965 224.737 L 367.965 226.737 L 365.965 226.737 L 365.965 224.737 Z M 367.965 224.737 L 369.965 224.737 L 369.965 226.737 L 367.965 226.737 L 367.965 224.737 Z M 371.965 224.737 L 373.965 224.737 L 373.965 226.737 L 371.965 226.737 L 371.965 224.737 Z M 323.965 226.737 L 325.965 226.737 L 325.965 228.737 L 323.965 228.737 L 323.965 226.737 Z M 327.965 226.737 L 329.965 226.737 L 329.965 228.737 L 327.965 228.737 L 327.965 226.737 Z M 329.965 226.737 L 331.965 226.737 L 331.965 228.737 L 329.965 228.737 L 329.965 226.737 Z M 331.965 226.737 L 333.965 226.737 L 333.965 228.737 L 331.965 228.737 L 331.965 226.737 Z M 335.965 226.737 L 337.965 226.737 L 337.965 228.737 L 335.965 228.737 L 335.965 226.737 Z M 341.965 226.737 L 343.965 226.737 L 343.965 228.737 L 341.965 228.737 L 341.965 226.737 Z M 351.965 226.737 L 353.965 226.737 L 353.965 228.737 L 351.965 228.737 L 351.965 226.737 Z M 359.965 226.737 L 361.965 226.737 L 361.965 228.737 L 359.965 228.737 L 359.965 226.737 Z M 363.965 226.737 L 365.965 226.737 L 365.965 228.737 L 363.965 228.737 L 363.965 226.737 Z M 365.965 226.737 L 367.965 226.737 L 367.965 228.737 L 365.965 228.737 L 365.965 226.737 Z M 367.965 226.737 L 369.965 226.737 L 369.965 228.737 L 367.965 228.737 L 367.965 226.737 Z M 371.965 226.737 L 373.965 226.737 L 373.965 228.737 L 371.965 228.737 L 371.965 226.737 Z M 323.965 228.737 L 325.965 228.737 L 325.965 230.737 L 323.965 230.737 L 323.965 228.737 Z M 327.965 228.737 L 329.965 228.737 L 329.965 230.737 L 327.965 230.737 L 327.965 228.737 Z M 329.965 228.737 L 331.965 228.737 L 331.965 230.737 L 329.965 230.737 L 329.965 228.737 Z M 331.965 228.737 L 333.965 228.737 L 333.965 230.737 L 331.965 230.737 L 331.965 228.737 Z M 335.965 228.737 L 337.965 228.737 L 337.965 230.737 L 335.965 230.737 L 335.965 228.737 Z M 341.965 228.737 L 343.965 228.737 L 343.965 230.737 L 341.965 230.737 L 341.965 228.737 Z M 347.965 228.737 L 349.965 228.737 L 349.965 230.737 L 347.965 230.737 L 347.965 228.737 Z M 349.965 228.737 L 351.965 228.737 L 351.965 230.737 L 349.965 230.737 L 349.965 228.737 Z M 351.965 228.737 L 353.965 228.737 L 353.965 230.737 L 351.965 230.737 L 351.965 228.737 Z M 353.965 228.737 L 355.965 228.737 L 355.965 230.737 L 353.965 230.737 L 353.965 228.737 Z M 355.965 228.737 L 357.965 228.737 L 357.965 230.737 L 355.965 230.737 L 355.965 228.737 Z M 359.965 228.737 L 361.965 228.737 L 361.965 230.737 L 359.965 230.737 L 359.965 228.737 Z M 363.965 228.737 L 365.965 228.737 L 365.965 230.737 L 363.965 230.737 L 363.965 228.737 Z M 365.965 228.737 L 367.965 228.737 L 367.965 230.737 L 365.965 230.737 L 365.965 228.737 Z M 367.965 228.737 L 369.965 228.737 L 369.965 230.737 L 367.965 230.737 L 367.965 228.737 Z M 371.965 228.737 L 373.965 228.737 L 373.965 230.737 L 371.965 230.737 L 371.965 228.737 Z M 323.965 230.737 L 325.965 230.737 L 325.965 232.737 L 323.965 232.737 L 323.965 230.737 Z M 335.965 230.737 L 337.965 230.737 L 337.965 232.737 L 335.965 232.737 L 335.965 230.737 Z M 343.965 230.737 L 345.965 230.737 L 345.965 232.737 L 343.965 232.737 L 343.965 230.737 Z M 345.965 230.737 L 347.965 230.737 L 347.965 232.737 L 345.965 232.737 L 345.965 230.737 Z M 351.965 230.737 L 353.965 230.737 L 353.965 232.737 L 351.965 232.737 L 351.965 230.737 Z M 353.965 230.737 L 355.965 230.737 L 355.965 232.737 L 353.965 232.737 L 353.965 230.737 Z M 359.965 230.737 L 361.965 230.737 L 361.965 232.737 L 359.965 232.737 L 359.965 230.737 Z M 371.965 230.737 L 373.965 230.737 L 373.965 232.737 L 371.965 232.737 L 371.965 230.737 Z M 323.965 232.737 L 325.965 232.737 L 325.965 234.737 L 323.965 234.737 L 323.965 232.737 Z M 325.965 232.737 L 327.965 232.737 L 327.965 234.737 L 325.965 234.737 L 325.965 232.737 Z M 327.965 232.737 L 329.965 232.737 L 329.965 234.737 L 327.965 234.737 L 327.965 232.737 Z M 329.965 232.737 L 331.965 232.737 L 331.965 234.737 L 329.965 234.737 L 329.965 232.737 Z M 331.965 232.737 L 333.965 232.737 L 333.965 234.737 L 331.965 234.737 L 331.965 232.737 Z M 333.965 232.737 L 335.965 232.737 L 335.965 234.737 L 333.965 234.737 L 333.965 232.737 Z M 335.965 232.737 L 337.965 232.737 L 337.965 234.737 L 335.965 234.737 L 335.965 232.737 Z M 339.965 232.737 L 341.965 232.737 L 341.965 234.737 L 339.965 234.737 L 339.965 232.737 Z M 343.965 232.737 L 345.965 232.737 L 345.965 234.737 L 343.965 234.737 L 343.965 232.737 Z M 347.965 232.737 L 349.965 232.737 L 349.965 234.737 L 347.965 234.737 L 347.965 232.737 Z M 351.965 232.737 L 353.965 232.737 L 353.965 234.737 L 351.965 234.737 L 351.965 232.737 Z M 355.965 232.737 L 357.965 232.737 L 357.965 234.737 L 355.965 234.737 L 355.965 232.737 Z M 359.965 232.737 L 361.965 232.737 L 361.965 234.737 L 359.965 234.737 L 359.965 232.737 Z M 361.965 232.737 L 363.965 232.737 L 363.965 234.737 L 361.965 234.737 L 361.965 232.737 Z M 363.965 232.737 L 365.965 232.737 L 365.965 234.737 L 363.965 234.737 L 363.965 232.737 Z M 365.965 232.737 L 367.965 232.737 L 367.965 234.737 L 365.965 234.737 L 365.965 232.737 Z M 367.965 232.737 L 369.965 232.737 L 369.965 234.737 L 367.965 234.737 L 367.965 232.737 Z M 369.965 232.737 L 371.965 232.737 L 371.965 234.737 L 369.965 234.737 L 369.965 232.737 Z M 371.965 232.737 L 373.965 232.737 L 373.965 234.737 L 371.965 234.737 L 371.965 232.737 Z M 339.965 234.737 L 341.965 234.737 L 341.965 236.737 L 339.965 236.737 L 339.965 234.737 Z M 345.965 234.737 L 347.965 234.737 L 347.965 236.737 L 345.965 236.737 L 345.965 234.737 Z M 347.965 234.737 L 349.965 234.737 L 349.965 236.737 L 347.965 236.737 L 347.965 234.737 Z M 349.965 234.737 L 351.965 234.737 L 351.965 236.737 L 349.965 236.737 L 349.965 234.737 Z M 351.965 234.737 L 353.965 234.737 L 353.965 236.737 L 351.965 236.737 L 351.965 234.737 Z M 355.965 234.737 L 357.965 234.737 L 357.965 236.737 L 355.965 236.737 L 355.965 234.737 Z M 323.965 236.737 L 325.965 236.737 L 325.965 238.737 L 323.965 238.737 L 323.965 236.737 Z M 325.965 236.737 L 327.965 236.737 L 327.965 238.737 L 325.965 238.737 L 325.965 236.737 Z M 327.965 236.737 L 329.965 236.737 L 329.965 238.737 L 327.965 238.737 L 327.965 236.737 Z M 331.965 236.737 L 333.965 236.737 L 333.965 238.737 L 331.965 238.737 L 331.965 236.737 Z M 333.965 236.737 L 335.965 236.737 L 335.965 238.737 L 333.965 238.737 L 333.965 236.737 Z M 335.965 236.737 L 337.965 236.737 L 337.965 238.737 L 335.965 238.737 L 335.965 236.737 Z M 337.965 236.737 L 339.965 236.737 L 339.965 238.737 L 337.965 238.737 L 337.965 236.737 Z M 339.965 236.737 L 341.965 236.737 L 341.965 238.737 L 339.965 238.737 L 339.965 236.737 Z M 349.965 236.737 L 351.965 236.737 L 351.965 238.737 L 349.965 238.737 L 349.965 236.737 Z M 353.965 236.737 L 355.965 236.737 L 355.965 238.737 L 353.965 238.737 L 353.965 236.737 Z M 355.965 236.737 L 357.965 236.737 L 357.965 238.737 L 355.965 238.737 L 355.965 236.737 Z M 357.965 236.737 L 359.965 236.737 L 359.965 238.737 L 357.965 238.737 L 357.965 236.737 Z M 359.965 236.737 L 361.965 236.737 L 361.965 238.737 L 359.965 238.737 L 359.965 236.737 Z M 367.965 236.737 L 369.965 236.737 L 369.965 238.737 L 367.965 238.737 L 367.965 236.737 Z M 323.965 238.737 L 325.965 238.737 L 325.965 240.737 L 323.965 240.737 L 323.965 238.737 Z M 325.965 238.737 L 327.965 238.737 L 327.965 240.737 L 325.965 240.737 L 325.965 238.737 Z M 327.965 238.737 L 329.965 238.737 L 329.965 240.737 L 327.965 240.737 L 327.965 238.737 Z M 329.965 238.737 L 331.965 238.737 L 331.965 240.737 L 329.965 240.737 L 329.965 238.737 Z M 337.965 238.737 L 339.965 238.737 L 339.965 240.737 L 337.965 240.737 L 337.965 238.737 Z M 339.965 238.737 L 341.965 238.737 L 341.965 240.737 L 339.965 240.737 L 339.965 238.737 Z M 341.965 238.737 L 343.965 238.737 L 343.965 240.737 L 341.965 240.737 L 341.965 238.737 Z M 347.965 238.737 L 349.965 238.737 L 349.965 240.737 L 347.965 240.737 L 347.965 238.737 Z M 355.965 238.737 L 357.965 238.737 L 357.965 240.737 L 355.965 240.737 L 355.965 238.737 Z M 359.965 238.737 L 361.965 238.737 L 361.965 240.737 L 359.965 240.737 L 359.965 238.737 Z M 371.965 238.737 L 373.965 238.737 L 373.965 240.737 L 371.965 240.737 L 371.965 238.737 Z M 325.965 240.737 L 327.965 240.737 L 327.965 242.737 L 325.965 242.737 L 325.965 240.737 Z M 327.965 240.737 L 329.965 240.737 L 329.965 242.737 L 327.965 242.737 L 327.965 240.737 Z M 329.965 240.737 L 331.965 240.737 L 331.965 242.737 L 329.965 242.737 L 329.965 240.737 Z M 331.965 240.737 L 333.965 240.737 L 333.965 242.737 L 331.965 242.737 L 331.965 240.737 Z M 333.965 240.737 L 335.965 240.737 L 335.965 242.737 L 333.965 242.737 L 333.965 240.737 Z M 335.965 240.737 L 337.965 240.737 L 337.965 242.737 L 335.965 242.737 L 335.965 240.737 Z M 339.965 240.737 L 341.965 240.737 L 341.965 242.737 L 339.965 242.737 L 339.965 240.737 Z M 343.965 240.737 L 345.965 240.737 L 345.965 242.737 L 343.965 242.737 L 343.965 240.737 Z M 347.965 240.737 L 349.965 240.737 L 349.965 242.737 L 347.965 242.737 L 347.965 240.737 Z M 359.965 240.737 L 361.965 240.737 L 361.965 242.737 L 359.965 242.737 L 359.965 240.737 Z M 367.965 240.737 L 369.965 240.737 L 369.965 242.737 L 367.965 242.737 L 367.965 240.737 Z M 369.965 240.737 L 371.965 240.737 L 371.965 242.737 L 369.965 242.737 L 369.965 240.737 Z M 371.965 240.737 L 373.965 240.737 L 373.965 242.737 L 371.965 242.737 L 371.965 240.737 Z M 323.965 242.737 L 325.965 242.737 L 325.965 244.737 L 323.965 244.737 L 323.965 242.737 Z M 327.965 242.737 L 329.965 242.737 L 329.965 244.737 L 327.965 244.737 L 327.965 242.737 Z M 333.965 242.737 L 335.965 242.737 L 335.965 244.737 L 333.965 244.737 L 333.965 242.737 Z M 337.965 242.737 L 339.965 242.737 L 339.965 244.737 L 337.965 244.737 L 337.965 242.737 Z M 339.965 242.737 L 341.965 242.737 L 341.965 244.737 L 339.965 244.737 L 339.965 242.737 Z M 341.965 242.737 L 343.965 242.737 L 343.965 244.737 L 341.965 244.737 L 341.965 242.737 Z M 343.965 242.737 L 345.965 242.737 L 345.965 244.737 L 343.965 244.737 L 343.965 242.737 Z M 349.965 242.737 L 351.965 242.737 L 351.965 244.737 L 349.965 244.737 L 349.965 242.737 Z M 351.965 242.737 L 353.965 242.737 L 353.965 244.737 L 351.965 244.737 L 351.965 242.737 Z M 355.965 242.737 L 357.965 242.737 L 357.965 244.737 L 355.965 244.737 L 355.965 242.737 Z M 357.965 242.737 L 359.965 242.737 L 359.965 244.737 L 357.965 244.737 L 357.965 242.737 Z M 363.965 242.737 L 365.965 242.737 L 365.965 244.737 L 363.965 244.737 L 363.965 242.737 Z M 369.965 242.737 L 371.965 242.737 L 371.965 244.737 L 369.965 244.737 L 369.965 242.737 Z M 325.965 244.737 L 327.965 244.737 L 327.965 246.737 L 325.965 246.737 L 325.965 244.737 Z M 333.965 244.737 L 335.965 244.737 L 335.965 246.737 L 333.965 246.737 L 333.965 244.737 Z M 335.965 244.737 L 337.965 244.737 L 337.965 246.737 L 335.965 246.737 L 335.965 244.737 Z M 337.965 244.737 L 339.965 244.737 L 339.965 246.737 L 337.965 246.737 L 337.965 244.737 Z M 343.965 244.737 L 345.965 244.737 L 345.965 246.737 L 343.965 246.737 L 343.965 244.737 Z M 347.965 244.737 L 349.965 244.737 L 349.965 246.737 L 347.965 246.737 L 347.965 244.737 Z M 349.965 244.737 L 351.965 244.737 L 351.965 246.737 L 349.965 246.737 L 349.965 244.737 Z M 351.965 244.737 L 353.965 244.737 L 353.965 246.737 L 351.965 246.737 L 351.965 244.737 Z M 353.965 244.737 L 355.965 244.737 L 355.965 246.737 L 353.965 246.737 L 353.965 244.737 Z M 355.965 244.737 L 357.965 244.737 L 357.965 246.737 L 355.965 246.737 L 355.965 244.737 Z M 357.965 244.737 L 359.965 244.737 L 359.965 246.737 L 357.965 246.737 L 357.965 244.737 Z M 359.965 244.737 L 361.965 244.737 L 361.965 246.737 L 359.965 246.737 L 359.965 244.737 Z M 365.965 244.737 L 367.965 244.737 L 367.965 246.737 L 365.965 246.737 L 365.965 244.737 Z M 369.965 244.737 L 371.965 244.737 L 371.965 246.737 L 369.965 246.737 L 369.965 244.737 Z M 371.965 244.737 L 373.965 244.737 L 373.965 246.737 L 371.965 246.737 L 371.965 244.737 Z M 325.965 246.737 L 327.965 246.737 L 327.965 248.737 L 325.965 248.737 L 325.965 246.737 Z M 327.965 246.737 L 329.965 246.737 L 329.965 248.737 L 327.965 248.737 L 327.965 246.737 Z M 331.965 246.737 L 333.965 246.737 L 333.965 248.737 L 331.965 248.737 L 331.965 246.737 Z M 333.965 246.737 L 335.965 246.737 L 335.965 248.737 L 333.965 248.737 L 333.965 246.737 Z M 337.965 246.737 L 339.965 246.737 L 339.965 248.737 L 337.965 248.737 L 337.965 246.737 Z M 341.965 246.737 L 343.965 246.737 L 343.965 248.737 L 341.965 248.737 L 341.965 246.737 Z M 343.965 246.737 L 345.965 246.737 L 345.965 248.737 L 343.965 248.737 L 343.965 246.737 Z M 347.965 246.737 L 349.965 246.737 L 349.965 248.737 L 347.965 248.737 L 347.965 246.737 Z M 355.965 246.737 L 357.965 246.737 L 357.965 248.737 L 355.965 248.737 L 355.965 246.737 Z M 357.965 246.737 L 359.965 246.737 L 359.965 248.737 L 357.965 248.737 L 357.965 246.737 Z M 359.965 246.737 L 361.965 246.737 L 361.965 248.737 L 359.965 248.737 L 359.965 246.737 Z M 365.965 246.737 L 367.965 246.737 L 367.965 248.737 L 365.965 248.737 L 365.965 246.737 Z M 371.965 246.737 L 373.965 246.737 L 373.965 248.737 L 371.965 248.737 L 371.965 246.737 Z M 323.965 248.737 L 325.965 248.737 L 325.965 250.737 L 323.965 250.737 L 323.965 248.737 Z M 329.965 248.737 L 331.965 248.737 L 331.965 250.737 L 329.965 250.737 L 329.965 248.737 Z M 335.965 248.737 L 337.965 248.737 L 337.965 250.737 L 335.965 250.737 L 335.965 248.737 Z M 341.965 248.737 L 343.965 248.737 L 343.965 250.737 L 341.965 250.737 L 341.965 248.737 Z M 349.965 248.737 L 351.965 248.737 L 351.965 250.737 L 349.965 250.737 L 349.965 248.737 Z M 357.965 248.737 L 359.965 248.737 L 359.965 250.737 L 357.965 250.737 L 357.965 248.737 Z M 359.965 248.737 L 361.965 248.737 L 361.965 250.737 L 359.965 250.737 L 359.965 248.737 Z M 361.965 248.737 L 363.965 248.737 L 363.965 250.737 L 361.965 250.737 L 361.965 248.737 Z M 367.965 248.737 L 369.965 248.737 L 369.965 250.737 L 367.965 250.737 L 367.965 248.737 Z M 369.965 248.737 L 371.965 248.737 L 371.965 250.737 L 369.965 250.737 L 369.965 248.737 Z M 371.965 248.737 L 373.965 248.737 L 373.965 250.737 L 371.965 250.737 L 371.965 248.737 Z M 325.965 250.737 L 327.965 250.737 L 327.965 252.737 L 325.965 252.737 L 325.965 250.737 Z M 327.965 250.737 L 329.965 250.737 L 329.965 252.737 L 327.965 252.737 L 327.965 250.737 Z M 333.965 250.737 L 335.965 250.737 L 335.965 252.737 L 333.965 252.737 L 333.965 250.737 Z M 343.965 250.737 L 345.965 250.737 L 345.965 252.737 L 343.965 252.737 L 343.965 250.737 Z M 345.965 250.737 L 347.965 250.737 L 347.965 252.737 L 345.965 252.737 L 345.965 250.737 Z M 347.965 250.737 L 349.965 250.737 L 349.965 252.737 L 347.965 252.737 L 347.965 250.737 Z M 349.965 250.737 L 351.965 250.737 L 351.965 252.737 L 349.965 252.737 L 349.965 250.737 Z M 351.965 250.737 L 353.965 250.737 L 353.965 252.737 L 351.965 252.737 L 351.965 250.737 Z M 359.965 250.737 L 361.965 250.737 L 361.965 252.737 L 359.965 252.737 L 359.965 250.737 Z M 363.965 250.737 L 365.965 250.737 L 365.965 252.737 L 363.965 252.737 L 363.965 250.737 Z M 369.965 250.737 L 371.965 250.737 L 371.965 252.737 L 369.965 252.737 L 369.965 250.737 Z M 323.965 252.737 L 325.965 252.737 L 325.965 254.737 L 323.965 254.737 L 323.965 252.737 Z M 329.965 252.737 L 331.965 252.737 L 331.965 254.737 L 329.965 254.737 L 329.965 252.737 Z M 335.965 252.737 L 337.965 252.737 L 337.965 254.737 L 335.965 254.737 L 335.965 252.737 Z M 337.965 252.737 L 339.965 252.737 L 339.965 254.737 L 337.965 254.737 L 337.965 252.737 Z M 341.965 252.737 L 343.965 252.737 L 343.965 254.737 L 341.965 254.737 L 341.965 252.737 Z M 343.965 252.737 L 345.965 252.737 L 345.965 254.737 L 343.965 254.737 L 343.965 252.737 Z M 349.965 252.737 L 351.965 252.737 L 351.965 254.737 L 349.965 254.737 L 349.965 252.737 Z M 355.965 252.737 L 357.965 252.737 L 357.965 254.737 L 355.965 254.737 L 355.965 252.737 Z M 357.965 252.737 L 359.965 252.737 L 359.965 254.737 L 357.965 254.737 L 357.965 252.737 Z M 359.965 252.737 L 361.965 252.737 L 361.965 254.737 L 359.965 254.737 L 359.965 252.737 Z M 361.965 252.737 L 363.965 252.737 L 363.965 254.737 L 361.965 254.737 L 361.965 252.737 Z M 363.965 252.737 L 365.965 252.737 L 365.965 254.737 L 363.965 254.737 L 363.965 252.737 Z M 365.965 252.737 L 367.965 252.737 L 367.965 254.737 L 365.965 254.737 L 365.965 252.737 Z M 339.965 254.737 L 341.965 254.737 L 341.965 256.737 L 339.965 256.737 L 339.965 254.737 Z M 341.965 254.737 L 343.965 254.737 L 343.965 256.737 L 341.965 256.737 L 341.965 254.737 Z M 347.965 254.737 L 349.965 254.737 L 349.965 256.737 L 347.965 256.737 L 347.965 254.737 Z M 349.965 254.737 L 351.965 254.737 L 351.965 256.737 L 349.965 256.737 L 349.965 254.737 Z M 351.965 254.737 L 353.965 254.737 L 353.965 256.737 L 351.965 256.737 L 351.965 254.737 Z M 355.965 254.737 L 357.965 254.737 L 357.965 256.737 L 355.965 256.737 L 355.965 254.737 Z M 363.965 254.737 L 365.965 254.737 L 365.965 256.737 L 363.965 256.737 L 363.965 254.737 Z M 365.965 254.737 L 367.965 254.737 L 367.965 256.737 L 365.965 256.737 L 365.965 254.737 Z M 369.965 254.737 L 371.965 254.737 L 371.965 256.737 L 369.965 256.737 L 369.965 254.737 Z M 371.965 254.737 L 373.965 254.737 L 373.965 256.737 L 371.965 256.737 L 371.965 254.737 Z M 323.965 256.737 L 325.965 256.737 L 325.965 258.737 L 323.965 258.737 L 323.965 256.737 Z M 325.965 256.737 L 327.965 256.737 L 327.965 258.737 L 325.965 258.737 L 325.965 256.737 Z M 327.965 256.737 L 329.965 256.737 L 329.965 258.737 L 327.965 258.737 L 327.965 256.737 Z M 329.965 256.737 L 331.965 256.737 L 331.965 258.737 L 329.965 258.737 L 329.965 256.737 Z M 331.965 256.737 L 333.965 256.737 L 333.965 258.737 L 331.965 258.737 L 331.965 256.737 Z M 333.965 256.737 L 335.965 256.737 L 335.965 258.737 L 333.965 258.737 L 333.965 256.737 Z M 335.965 256.737 L 337.965 256.737 L 337.965 258.737 L 335.965 258.737 L 335.965 256.737 Z M 339.965 256.737 L 341.965 256.737 L 341.965 258.737 L 339.965 258.737 L 339.965 256.737 Z M 341.965 256.737 L 343.965 256.737 L 343.965 258.737 L 341.965 258.737 L 341.965 256.737 Z M 343.965 256.737 L 345.965 256.737 L 345.965 258.737 L 343.965 258.737 L 343.965 256.737 Z M 349.965 256.737 L 351.965 256.737 L 351.965 258.737 L 349.965 258.737 L 349.965 256.737 Z M 351.965 256.737 L 353.965 256.737 L 353.965 258.737 L 351.965 258.737 L 351.965 256.737 Z M 353.965 256.737 L 355.965 256.737 L 355.965 258.737 L 353.965 258.737 L 353.965 256.737 Z M 355.965 256.737 L 357.965 256.737 L 357.965 258.737 L 355.965 258.737 L 355.965 256.737 Z M 359.965 256.737 L 361.965 256.737 L 361.965 258.737 L 359.965 258.737 L 359.965 256.737 Z M 363.965 256.737 L 365.965 256.737 L 365.965 258.737 L 363.965 258.737 L 363.965 256.737 Z M 365.965 256.737 L 367.965 256.737 L 367.965 258.737 L 365.965 258.737 L 365.965 256.737 Z M 369.965 256.737 L 371.965 256.737 L 371.965 258.737 L 369.965 258.737 L 369.965 256.737 Z M 371.965 256.737 L 373.965 256.737 L 373.965 258.737 L 371.965 258.737 L 371.965 256.737 Z M 323.965 258.737 L 325.965 258.737 L 325.965 260.737 L 323.965 260.737 L 323.965 258.737 Z M 335.965 258.737 L 337.965 258.737 L 337.965 260.737 L 335.965 260.737 L 335.965 258.737 Z M 339.965 258.737 L 341.965 258.737 L 341.965 260.737 L 339.965 260.737 L 339.965 258.737 Z M 341.965 258.737 L 343.965 258.737 L 343.965 260.737 L 341.965 260.737 L 341.965 258.737 Z M 343.965 258.737 L 345.965 258.737 L 345.965 260.737 L 343.965 260.737 L 343.965 258.737 Z M 347.965 258.737 L 349.965 258.737 L 349.965 260.737 L 347.965 260.737 L 347.965 258.737 Z M 349.965 258.737 L 351.965 258.737 L 351.965 260.737 L 349.965 260.737 L 349.965 258.737 Z M 351.965 258.737 L 353.965 258.737 L 353.965 260.737 L 351.965 260.737 L 351.965 258.737 Z M 355.965 258.737 L 357.965 258.737 L 357.965 260.737 L 355.965 260.737 L 355.965 258.737 Z M 363.965 258.737 L 365.965 258.737 L 365.965 260.737 L 363.965 260.737 L 363.965 258.737 Z M 365.965 258.737 L 367.965 258.737 L 367.965 260.737 L 365.965 260.737 L 365.965 258.737 Z M 369.965 258.737 L 371.965 258.737 L 371.965 260.737 L 369.965 260.737 L 369.965 258.737 Z M 323.965 260.737 L 325.965 260.737 L 325.965 262.737 L 323.965 262.737 L 323.965 260.737 Z M 327.965 260.737 L 329.965 260.737 L 329.965 262.737 L 327.965 262.737 L 327.965 260.737 Z M 329.965 260.737 L 331.965 260.737 L 331.965 262.737 L 329.965 262.737 L 329.965 260.737 Z M 331.965 260.737 L 333.965 260.737 L 333.965 262.737 L 331.965 262.737 L 331.965 260.737 Z M 335.965 260.737 L 337.965 260.737 L 337.965 262.737 L 335.965 262.737 L 335.965 260.737 Z M 339.965 260.737 L 341.965 260.737 L 341.965 262.737 L 339.965 262.737 L 339.965 260.737 Z M 343.965 260.737 L 345.965 260.737 L 345.965 262.737 L 343.965 262.737 L 343.965 260.737 Z M 345.965 260.737 L 347.965 260.737 L 347.965 262.737 L 345.965 262.737 L 345.965 260.737 Z M 347.965 260.737 L 349.965 260.737 L 349.965 262.737 L 347.965 262.737 L 347.965 260.737 Z M 349.965 260.737 L 351.965 260.737 L 351.965 262.737 L 349.965 262.737 L 349.965 260.737 Z M 351.965 260.737 L 353.965 260.737 L 353.965 262.737 L 351.965 262.737 L 351.965 260.737 Z M 355.965 260.737 L 357.965 260.737 L 357.965 262.737 L 355.965 262.737 L 355.965 260.737 Z M 357.965 260.737 L 359.965 260.737 L 359.965 262.737 L 357.965 262.737 L 357.965 260.737 Z M 359.965 260.737 L 361.965 260.737 L 361.965 262.737 L 359.965 262.737 L 359.965 260.737 Z M 361.965 260.737 L 363.965 260.737 L 363.965 262.737 L 361.965 262.737 L 361.965 260.737 Z M 363.965 260.737 L 365.965 260.737 L 365.965 262.737 L 363.965 262.737 L 363.965 260.737 Z M 365.965 260.737 L 367.965 260.737 L 367.965 262.737 L 365.965 262.737 L 365.965 260.737 Z M 369.965 260.737 L 371.965 260.737 L 371.965 262.737 L 369.965 262.737 L 369.965 260.737 Z M 323.965 262.737 L 325.965 262.737 L 325.965 264.737 L 323.965 264.737 L 323.965 262.737 Z M 327.965 262.737 L 329.965 262.737 L 329.965 264.737 L 327.965 264.737 L 327.965 262.737 Z M 329.965 262.737 L 331.965 262.737 L 331.965 264.737 L 329.965 264.737 L 329.965 262.737 Z M 331.965 262.737 L 333.965 262.737 L 333.965 264.737 L 331.965 264.737 L 331.965 262.737 Z M 335.965 262.737 L 337.965 262.737 L 337.965 264.737 L 335.965 264.737 L 335.965 262.737 Z M 343.965 262.737 L 345.965 262.737 L 345.965 264.737 L 343.965 264.737 L 343.965 262.737 Z M 347.965 262.737 L 349.965 262.737 L 349.965 264.737 L 347.965 264.737 L 347.965 262.737 Z M 353.965 262.737 L 355.965 262.737 L 355.965 264.737 L 353.965 264.737 L 353.965 262.737 Z M 355.965 262.737 L 357.965 262.737 L 357.965 264.737 L 355.965 264.737 L 355.965 262.737 Z M 361.965 262.737 L 363.965 262.737 L 363.965 264.737 L 361.965 264.737 L 361.965 262.737 Z M 363.965 262.737 L 365.965 262.737 L 365.965 264.737 L 363.965 264.737 L 363.965 262.737 Z M 365.965 262.737 L 367.965 262.737 L 367.965 264.737 L 365.965 264.737 L 365.965 262.737 Z M 367.965 262.737 L 369.965 262.737 L 369.965 264.737 L 367.965 264.737 L 367.965 262.737 Z M 323.965 264.737 L 325.965 264.737 L 325.965 266.737 L 323.965 266.737 L 323.965 264.737 Z M 327.965 264.737 L 329.965 264.737 L 329.965 266.737 L 327.965 266.737 L 327.965 264.737 Z M 329.965 264.737 L 331.965 264.737 L 331.965 266.737 L 329.965 266.737 L 329.965 264.737 Z M 331.965 264.737 L 333.965 264.737 L 333.965 266.737 L 331.965 266.737 L 331.965 264.737 Z M 335.965 264.737 L 337.965 264.737 L 337.965 266.737 L 335.965 266.737 L 335.965 264.737 Z M 339.965 264.737 L 341.965 264.737 L 341.965 266.737 L 339.965 266.737 L 339.965 264.737 Z M 341.965 264.737 L 343.965 264.737 L 343.965 266.737 L 341.965 266.737 L 341.965 264.737 Z M 347.965 264.737 L 349.965 264.737 L 349.965 266.737 L 347.965 266.737 L 347.965 264.737 Z M 349.965 264.737 L 351.965 264.737 L 351.965 266.737 L 349.965 266.737 L 349.965 264.737 Z M 355.965 264.737 L 357.965 264.737 L 357.965 266.737 L 355.965 266.737 L 355.965 264.737 Z M 363.965 264.737 L 365.965 264.737 L 365.965 266.737 L 363.965 266.737 L 363.965 264.737 Z M 371.965 264.737 L 373.965 264.737 L 373.965 266.737 L 371.965 266.737 L 371.965 264.737 Z M 323.965 266.737 L 325.965 266.737 L 325.965 268.737 L 323.965 268.737 L 323.965 266.737 Z M 335.965 266.737 L 337.965 266.737 L 337.965 268.737 L 335.965 268.737 L 335.965 266.737 Z M 339.965 266.737 L 341.965 266.737 L 341.965 268.737 L 339.965 268.737 L 339.965 266.737 Z M 343.965 266.737 L 345.965 266.737 L 345.965 268.737 L 343.965 268.737 L 343.965 266.737 Z M 345.965 266.737 L 347.965 266.737 L 347.965 268.737 L 345.965 268.737 L 345.965 266.737 Z M 347.965 266.737 L 349.965 266.737 L 349.965 268.737 L 347.965 268.737 L 347.965 266.737 Z M 349.965 266.737 L 351.965 266.737 L 351.965 268.737 L 349.965 268.737 L 349.965 266.737 Z M 351.965 266.737 L 353.965 266.737 L 353.965 268.737 L 351.965 268.737 L 351.965 266.737 Z M 353.965 266.737 L 355.965 266.737 L 355.965 268.737 L 353.965 268.737 L 353.965 266.737 Z M 355.965 266.737 L 357.965 266.737 L 357.965 268.737 L 355.965 268.737 L 355.965 266.737 Z M 357.965 266.737 L 359.965 266.737 L 359.965 268.737 L 357.965 268.737 L 357.965 266.737 Z M 359.965 266.737 L 361.965 266.737 L 361.965 268.737 L 359.965 268.737 L 359.965 266.737 Z M 363.965 266.737 L 365.965 266.737 L 365.965 268.737 L 363.965 268.737 L 363.965 266.737 Z M 365.965 266.737 L 367.965 266.737 L 367.965 268.737 L 365.965 268.737 L 365.965 266.737 Z M 369.965 266.737 L 371.965 266.737 L 371.965 268.737 L 369.965 268.737 L 369.965 266.737 Z M 323.965 268.737 L 325.965 268.737 L 325.965 270.737 L 323.965 270.737 L 323.965 268.737 Z M 325.965 268.737 L 327.965 268.737 L 327.965 270.737 L 325.965 270.737 L 325.965 268.737 Z M 327.965 268.737 L 329.965 268.737 L 329.965 270.737 L 327.965 270.737 L 327.965 268.737 Z M 329.965 268.737 L 331.965 268.737 L 331.965 270.737 L 329.965 270.737 L 329.965 268.737 Z M 331.965 268.737 L 333.965 268.737 L 333.965 270.737 L 331.965 270.737 L 331.965 268.737 Z M 333.965 268.737 L 335.965 268.737 L 335.965 270.737 L 333.965 270.737 L 333.965 268.737 Z M 335.965 268.737 L 337.965 268.737 L 337.965 270.737 L 335.965 270.737 L 335.965 268.737 Z M 339.965 268.737 L 341.965 268.737 L 341.965 270.737 L 339.965 270.737 L 339.965 268.737 Z M 343.965 268.737 L 345.965 268.737 L 345.965 270.737 L 343.965 270.737 L 343.965 268.737 Z M 347.965 268.737 L 349.965 268.737 L 349.965 270.737 L 347.965 270.737 L 347.965 268.737 Z M 349.965 268.737 L 351.965 268.737 L 351.965 270.737 L 349.965 270.737 L 349.965 268.737 Z M 353.965 268.737 L 355.965 268.737 L 355.965 270.737 L 353.965 270.737 L 353.965 268.737 Z M 355.965 268.737 L 357.965 268.737 L 357.965 270.737 L 355.965 270.737 L 355.965 268.737 Z M 357.965 268.737 L 359.965 268.737 L 359.965 270.737 L 357.965 270.737 L 357.965 268.737 Z M 359.965 268.737 L 361.965 268.737 L 361.965 270.737 L 359.965 270.737 L 359.965 268.737 Z M 361.965 268.737 L 363.965 268.737 L 363.965 270.737 L 361.965 270.737 L 361.965 268.737 Z M 369.965 268.737 L 371.965 268.737 L 371.965 270.737 L 369.965 270.737 L 369.965 268.737 Z M 371.965 268.737 L 373.965 268.737 L 373.965 270.737 L 371.965 270.737 L 371.965 268.737 Z" stroke="transparent" style="stroke-width: 1; fill: rgb(30, 76, 119);"/>
  </g>
</svg>