<?xml version="1.0" encoding="utf-8"?>
<svg xmlns="http://www.w3.org/2000/svg" viewBox="0 0 500 500">
  <g id="preview" transform="matrix(8.593637, 0, 0, 8.593637, -2854.435791, -1860.925537)" style="">
    <path d="M 332.286 216.586 L 334.286 216.586 L 334.286 218.586 L 332.286 218.586 L 332.286 216.586 Z M 334.286 216.586 L 336.286 216.586 L 336.286 218.586 L 334.286 218.586 L 334.286 216.586 Z M 336.286 216.586 L 338.286 216.586 L 338.286 218.586 L 336.286 218.586 L 336.286 216.586 Z M 338.286 216.586 L 340.286 216.586 L 340.286 218.586 L 338.286 218.586 L 338.286 216.586 Z M 340.286 216.586 L 342.286 216.586 L 342.286 218.586 L 340.286 218.586 L 340.286 216.586 Z M 342.286 216.586 L 344.286 216.586 L 344.286 218.586 L 342.286 218.586 L 342.286 216.586 Z M 344.286 216.586 L 346.286 216.586 L 346.286 218.586 L 344.286 218.586 L 344.286 216.586 Z M 352.286 216.586 L 354.286 216.586 L 354.286 218.586 L 352.286 218.586 L 352.286 216.586 Z M 358.286 216.586 L 360.286 216.586 L 360.286 218.586 L 358.286 218.586 L 358.286 216.586 Z M 360.286 216.586 L 362.286 216.586 L 362.286 218.586 L 360.286 218.586 L 360.286 216.586 Z M 362.286 216.586 L 364.286 216.586 L 364.286 218.586 L 362.286 218.586 L 362.286 216.586 Z M 364.286 216.586 L 366.286 216.586 L 366.286 218.586 L 364.286 218.586 L 364.286 216.586 Z M 366.286 216.586 L 368.286 216.586 L 368.286 218.586 L 366.286 218.586 L 366.286 216.586 Z M 368.286 216.586 L 370.286 216.586 L 370.286 218.586 L 368.286 218.586 L 368.286 216.586 Z M 370.286 216.586 L 372.286 216.586 L 372.286 218.586 L 370.286 218.586 L 370.286 216.586 Z M 372.286 216.586 L 374.286 216.586 L 374.286 218.586 L 372.286 218.586 L 372.286 216.586 Z M 376.286 216.586 L 378.286 216.586 L 378.286 218.586 L 376.286 218.586 L 376.286 216.586 Z M 378.286 216.586 L 380.286 216.586 L 380.286 218.586 L 378.286 218.586 L 378.286 216.586 Z M 380.286 216.586 L 382.286 216.586 L 382.286 218.586 L 380.286 218.586 L 380.286 216.586 Z M 382.286 216.586 L 384.286 216.586 L 384.286 218.586 L 382.286 218.586 L 382.286 216.586 Z M 384.286 216.586 L 386.286 216.586 L 386.286 218.586 L 384.286 218.586 L 384.286 216.586 Z M 386.286 216.586 L 388.286 216.586 L 388.286 218.586 L 386.286 218.586 L 386.286 216.586 Z M 388.286 216.586 L 390.286 216.586 L 390.286 218.586 L 388.286 218.586 L 388.286 216.586 Z M 332.286 218.586 L 334.286 218.586 L 334.286 220.586 L 332.286 220.586 L 332.286 218.586 Z M 344.286 218.586 L 346.286 218.586 L 346.286 220.586 L 344.286 220.586 L 344.286 218.586 Z M 350.286 218.586 L 352.286 218.586 L 352.286 220.586 L 350.286 220.586 L 350.286 218.586 Z M 360.286 218.586 L 362.286 218.586 L 362.286 220.586 L 360.286 220.586 L 360.286 218.586 Z M 362.286 218.586 L 364.286 218.586 L 364.286 220.586 L 362.286 220.586 L 362.286 218.586 Z M 368.286 218.586 L 370.286 218.586 L 370.286 220.586 L 368.286 220.586 L 368.286 218.586 Z M 370.286 218.586 L 372.286 218.586 L 372.286 220.586 L 370.286 220.586 L 370.286 218.586 Z M 372.286 218.586 L 374.286 218.586 L 374.286 220.586 L 372.286 220.586 L 372.286 218.586 Z M 376.286 218.586 L 378.286 218.586 L 378.286 220.586 L 376.286 220.586 L 376.286 218.586 Z M 388.286 218.586 L 390.286 218.586 L 390.286 220.586 L 388.286 220.586 L 388.286 218.586 Z M 332.286 220.586 L 334.286 220.586 L 334.286 222.586 L 332.286 222.586 L 332.286 220.586 Z M 336.286 220.586 L 338.286 220.586 L 338.286 222.586 L 336.286 222.586 L 336.286 220.586 Z M 338.286 220.586 L 340.286 220.586 L 340.286 222.586 L 338.286 222.586 L 338.286 220.586 Z M 340.286 220.586 L 342.286 220.586 L 342.286 222.586 L 340.286 222.586 L 340.286 220.586 Z M 344.286 220.586 L 346.286 220.586 L 346.286 222.586 L 344.286 222.586 L 344.286 220.586 Z M 348.286 220.586 L 350.286 220.586 L 350.286 222.586 L 348.286 222.586 L 348.286 220.586 Z M 354.286 220.586 L 356.286 220.586 L 356.286 222.586 L 354.286 222.586 L 354.286 220.586 Z M 360.286 220.586 L 362.286 220.586 L 362.286 222.586 L 360.286 222.586 L 360.286 220.586 Z M 370.286 220.586 L 372.286 220.586 L 372.286 222.586 L 370.286 222.586 L 370.286 220.586 Z M 372.286 220.586 L 374.286 220.586 L 374.286 222.586 L 372.286 222.586 L 372.286 220.586 Z M 376.286 220.586 L 378.286 220.586 L 378.286 222.586 L 376.286 222.586 L 376.286 220.586 Z M 380.286 220.586 L 382.286 220.586 L 382.286 222.586 L 380.286 222.586 L 380.286 220.586 Z M 382.286 220.586 L 384.286 220.586 L 384.286 222.586 L 382.286 222.586 L 382.286 220.586 Z M 384.286 220.586 L 386.286 220.586 L 386.286 222.586 L 384.286 222.586 L 384.286 220.586 Z M 388.286 220.586 L 390.286 220.586 L 390.286 222.586 L 388.286 222.586 L 388.286 220.586 Z M 332.286 222.586 L 334.286 222.586 L 334.286 224.586 L 332.286 224.586 L 332.286 222.586 Z M 336.286 222.586 L 338.286 222.586 L 338.286 224.586 L 336.286 224.586 L 336.286 222.586 Z M 338.286 222.586 L 340.286 222.586 L 340.286 224.586 L 338.286 224.586 L 338.286 222.586 Z M 340.286 222.586 L 342.286 222.586 L 342.286 224.586 L 340.286 224.586 L 340.286 222.586 Z M 344.286 222.586 L 346.286 222.586 L 346.286 224.586 L 344.286 224.586 L 344.286 222.586 Z M 350.286 222.586 L 352.286 222.586 L 352.286 224.586 L 350.286 224.586 L 350.286 222.586 Z M 356.286 222.586 L 358.286 222.586 L 358.286 224.586 L 356.286 224.586 L 356.286 222.586 Z M 360.286 222.586 L 362.286 222.586 L 362.286 224.586 L 360.286 224.586 L 360.286 222.586 Z M 368.286 222.586 L 370.286 222.586 L 370.286 224.586 L 368.286 224.586 L 368.286 222.586 Z M 370.286 222.586 L 372.286 222.586 L 372.286 224.586 L 370.286 224.586 L 370.286 222.586 Z M 372.286 222.586 L 374.286 222.586 L 374.286 224.586 L 372.286 224.586 L 372.286 222.586 Z M 376.286 222.586 L 378.286 222.586 L 378.286 224.586 L 376.286 224.586 L 376.286 222.586 Z M 380.286 222.586 L 382.286 222.586 L 382.286 224.586 L 380.286 224.586 L 380.286 222.586 Z M 382.286 222.586 L 384.286 222.586 L 384.286 224.586 L 382.286 224.586 L 382.286 222.586 Z M 384.286 222.586 L 386.286 222.586 L 386.286 224.586 L 384.286 224.586 L 384.286 222.586 Z M 388.286 222.586 L 390.286 222.586 L 390.286 224.586 L 388.286 224.586 L 388.286 222.586 Z M 332.286 224.586 L 334.286 224.586 L 334.286 226.586 L 332.286 226.586 L 332.286 224.586 Z M 336.286 224.586 L 338.286 224.586 L 338.286 226.586 L 336.286 226.586 L 336.286 224.586 Z M 338.286 224.586 L 340.286 224.586 L 340.286 226.586 L 338.286 226.586 L 338.286 224.586 Z M 340.286 224.586 L 342.286 224.586 L 342.286 226.586 L 340.286 226.586 L 340.286 224.586 Z M 344.286 224.586 L 346.286 224.586 L 346.286 226.586 L 344.286 226.586 L 344.286 224.586 Z M 350.286 224.586 L 352.286 224.586 L 352.286 226.586 L 350.286 226.586 L 350.286 224.586 Z M 356.286 224.586 L 358.286 224.586 L 358.286 226.586 L 356.286 226.586 L 356.286 224.586 Z M 360.286 224.586 L 362.286 224.586 L 362.286 226.586 L 360.286 226.586 L 360.286 224.586 Z M 362.286 224.586 L 364.286 224.586 L 364.286 226.586 L 362.286 226.586 L 362.286 224.586 Z M 368.286 224.586 L 370.286 224.586 L 370.286 226.586 L 368.286 226.586 L 368.286 224.586 Z M 370.286 224.586 L 372.286 224.586 L 372.286 226.586 L 370.286 226.586 L 370.286 224.586 Z M 376.286 224.586 L 378.286 224.586 L 378.286 226.586 L 376.286 226.586 L 376.286 224.586 Z M 380.286 224.586 L 382.286 224.586 L 382.286 226.586 L 380.286 226.586 L 380.286 224.586 Z M 382.286 224.586 L 384.286 224.586 L 384.286 226.586 L 382.286 226.586 L 382.286 224.586 Z M 384.286 224.586 L 386.286 224.586 L 386.286 226.586 L 384.286 226.586 L 384.286 224.586 Z M 388.286 224.586 L 390.286 224.586 L 390.286 226.586 L 388.286 226.586 L 388.286 224.586 Z M 332.286 226.586 L 334.286 226.586 L 334.286 228.586 L 332.286 228.586 L 332.286 226.586 Z M 344.286 226.586 L 346.286 226.586 L 346.286 228.586 L 344.286 228.586 L 344.286 226.586 Z M 352.286 226.586 L 354.286 226.586 L 354.286 228.586 L 352.286 228.586 L 352.286 226.586 Z M 354.286 226.586 L 356.286 226.586 L 356.286 228.586 L 354.286 228.586 L 354.286 226.586 Z M 356.286 226.586 L 358.286 226.586 L 358.286 228.586 L 356.286 228.586 L 356.286 226.586 Z M 358.286 226.586 L 360.286 226.586 L 360.286 228.586 L 358.286 228.586 L 358.286 226.586 Z M 360.286 226.586 L 362.286 226.586 L 362.286 228.586 L 360.286 228.586 L 360.286 226.586 Z M 362.286 226.586 L 364.286 226.586 L 364.286 228.586 L 362.286 228.586 L 362.286 226.586 Z M 364.286 226.586 L 366.286 226.586 L 366.286 228.586 L 364.286 228.586 L 364.286 226.586 Z M 366.286 226.586 L 368.286 226.586 L 368.286 228.586 L 366.286 228.586 L 366.286 226.586 Z M 368.286 226.586 L 370.286 226.586 L 370.286 228.586 L 368.286 228.586 L 368.286 226.586 Z M 370.286 226.586 L 372.286 226.586 L 372.286 228.586 L 370.286 228.586 L 370.286 226.586 Z M 372.286 226.586 L 374.286 226.586 L 374.286 228.586 L 372.286 228.586 L 372.286 226.586 Z M 376.286 226.586 L 378.286 226.586 L 378.286 228.586 L 376.286 228.586 L 376.286 226.586 Z M 388.286 226.586 L 390.286 226.586 L 390.286 228.586 L 388.286 228.586 L 388.286 226.586 Z M 332.286 228.586 L 334.286 228.586 L 334.286 230.586 L 332.286 230.586 L 332.286 228.586 Z M 334.286 228.586 L 336.286 228.586 L 336.286 230.586 L 334.286 230.586 L 334.286 228.586 Z M 336.286 228.586 L 338.286 228.586 L 338.286 230.586 L 336.286 230.586 L 336.286 228.586 Z M 338.286 228.586 L 340.286 228.586 L 340.286 230.586 L 338.286 230.586 L 338.286 228.586 Z M 340.286 228.586 L 342.286 228.586 L 342.286 230.586 L 340.286 230.586 L 340.286 228.586 Z M 342.286 228.586 L 344.286 228.586 L 344.286 230.586 L 342.286 230.586 L 342.286 228.586 Z M 344.286 228.586 L 346.286 228.586 L 346.286 230.586 L 344.286 230.586 L 344.286 228.586 Z M 348.286 228.586 L 350.286 228.586 L 350.286 230.586 L 348.286 230.586 L 348.286 228.586 Z M 352.286 228.586 L 354.286 228.586 L 354.286 230.586 L 352.286 230.586 L 352.286 228.586 Z M 356.286 228.586 L 358.286 228.586 L 358.286 230.586 L 356.286 230.586 L 356.286 228.586 Z M 360.286 228.586 L 362.286 228.586 L 362.286 230.586 L 360.286 230.586 L 360.286 228.586 Z M 364.286 228.586 L 366.286 228.586 L 366.286 230.586 L 364.286 230.586 L 364.286 228.586 Z M 368.286 228.586 L 370.286 228.586 L 370.286 230.586 L 368.286 230.586 L 368.286 228.586 Z M 372.286 228.586 L 374.286 228.586 L 374.286 230.586 L 372.286 230.586 L 372.286 228.586 Z M 376.286 228.586 L 378.286 228.586 L 378.286 230.586 L 376.286 230.586 L 376.286 228.586 Z M 378.286 228.586 L 380.286 228.586 L 380.286 230.586 L 378.286 230.586 L 378.286 228.586 Z M 380.286 228.586 L 382.286 228.586 L 382.286 230.586 L 380.286 230.586 L 380.286 228.586 Z M 382.286 228.586 L 384.286 228.586 L 384.286 230.586 L 382.286 230.586 L 382.286 228.586 Z M 384.286 228.586 L 386.286 228.586 L 386.286 230.586 L 384.286 230.586 L 384.286 228.586 Z M 386.286 228.586 L 388.286 228.586 L 388.286 230.586 L 386.286 230.586 L 386.286 228.586 Z M 388.286 228.586 L 390.286 228.586 L 390.286 230.586 L 388.286 230.586 L 388.286 228.586 Z M 348.286 230.586 L 350.286 230.586 L 350.286 232.586 L 348.286 232.586 L 348.286 230.586 Z M 354.286 230.586 L 356.286 230.586 L 356.286 232.586 L 354.286 232.586 L 354.286 230.586 Z M 358.286 230.586 L 360.286 230.586 L 360.286 232.586 L 358.286 232.586 L 358.286 230.586 Z M 362.286 230.586 L 364.286 230.586 L 364.286 232.586 L 362.286 232.586 L 362.286 230.586 Z M 366.286 230.586 L 368.286 230.586 L 368.286 232.586 L 366.286 232.586 L 366.286 230.586 Z M 372.286 230.586 L 374.286 230.586 L 374.286 232.586 L 372.286 232.586 L 372.286 230.586 Z M 332.286 232.586 L 334.286 232.586 L 334.286 234.586 L 332.286 234.586 L 332.286 232.586 Z M 334.286 232.586 L 336.286 232.586 L 336.286 234.586 L 334.286 234.586 L 334.286 232.586 Z M 336.286 232.586 L 338.286 232.586 L 338.286 234.586 L 336.286 234.586 L 336.286 232.586 Z M 340.286 232.586 L 342.286 232.586 L 342.286 234.586 L 340.286 234.586 L 340.286 232.586 Z M 342.286 232.586 L 344.286 232.586 L 344.286 234.586 L 342.286 234.586 L 342.286 232.586 Z M 344.286 232.586 L 346.286 232.586 L 346.286 234.586 L 344.286 234.586 L 344.286 232.586 Z M 346.286 232.586 L 348.286 232.586 L 348.286 234.586 L 346.286 234.586 L 346.286 232.586 Z M 348.286 232.586 L 350.286 232.586 L 350.286 234.586 L 348.286 234.586 L 348.286 232.586 Z M 356.286 232.586 L 358.286 232.586 L 358.286 234.586 L 356.286 234.586 L 356.286 232.586 Z M 358.286 232.586 L 360.286 232.586 L 360.286 234.586 L 358.286 234.586 L 358.286 232.586 Z M 364.286 232.586 L 366.286 232.586 L 366.286 234.586 L 364.286 234.586 L 364.286 232.586 Z M 366.286 232.586 L 368.286 232.586 L 368.286 234.586 L 366.286 234.586 L 366.286 232.586 Z M 370.286 232.586 L 372.286 232.586 L 372.286 234.586 L 370.286 234.586 L 370.286 232.586 Z M 372.286 232.586 L 374.286 232.586 L 374.286 234.586 L 372.286 234.586 L 372.286 232.586 Z M 374.286 232.586 L 376.286 232.586 L 376.286 234.586 L 374.286 234.586 L 374.286 232.586 Z M 376.286 232.586 L 378.286 232.586 L 378.286 234.586 L 376.286 234.586 L 376.286 232.586 Z M 384.286 232.586 L 386.286 232.586 L 386.286 234.586 L 384.286 234.586 L 384.286 232.586 Z M 336.286 234.586 L 338.286 234.586 L 338.286 236.586 L 336.286 236.586 L 336.286 234.586 Z M 338.286 234.586 L 340.286 234.586 L 340.286 236.586 L 338.286 236.586 L 338.286 234.586 Z M 342.286 234.586 L 344.286 234.586 L 344.286 236.586 L 342.286 236.586 L 342.286 234.586 Z M 348.286 234.586 L 350.286 234.586 L 350.286 236.586 L 348.286 236.586 L 348.286 234.586 Z M 350.286 234.586 L 352.286 234.586 L 352.286 236.586 L 350.286 236.586 L 350.286 234.586 Z M 354.286 234.586 L 356.286 234.586 L 356.286 236.586 L 354.286 236.586 L 354.286 234.586 Z M 356.286 234.586 L 358.286 234.586 L 358.286 236.586 L 356.286 236.586 L 356.286 234.586 Z M 364.286 234.586 L 366.286 234.586 L 366.286 236.586 L 364.286 236.586 L 364.286 234.586 Z M 374.286 234.586 L 376.286 234.586 L 376.286 236.586 L 374.286 236.586 L 374.286 234.586 Z M 376.286 234.586 L 378.286 234.586 L 378.286 236.586 L 376.286 236.586 L 376.286 234.586 Z M 382.286 234.586 L 384.286 234.586 L 384.286 236.586 L 382.286 236.586 L 382.286 234.586 Z M 388.286 234.586 L 390.286 234.586 L 390.286 236.586 L 388.286 236.586 L 388.286 234.586 Z M 332.286 236.586 L 334.286 236.586 L 334.286 238.586 L 332.286 238.586 L 332.286 236.586 Z M 334.286 236.586 L 336.286 236.586 L 336.286 238.586 L 334.286 238.586 L 334.286 236.586 Z M 336.286 236.586 L 338.286 236.586 L 338.286 238.586 L 336.286 238.586 L 336.286 236.586 Z M 338.286 236.586 L 340.286 236.586 L 340.286 238.586 L 338.286 238.586 L 338.286 236.586 Z M 340.286 236.586 L 342.286 236.586 L 342.286 238.586 L 340.286 238.586 L 340.286 236.586 Z M 344.286 236.586 L 346.286 236.586 L 346.286 238.586 L 344.286 238.586 L 344.286 236.586 Z M 352.286 236.586 L 354.286 236.586 L 354.286 238.586 L 352.286 238.586 L 352.286 236.586 Z M 354.286 236.586 L 356.286 236.586 L 356.286 238.586 L 354.286 238.586 L 354.286 236.586 Z M 356.286 236.586 L 358.286 236.586 L 358.286 238.586 L 356.286 238.586 L 356.286 236.586 Z M 358.286 236.586 L 360.286 236.586 L 360.286 238.586 L 358.286 238.586 L 358.286 236.586 Z M 364.286 236.586 L 366.286 236.586 L 366.286 238.586 L 364.286 238.586 L 364.286 236.586 Z M 366.286 236.586 L 368.286 236.586 L 368.286 238.586 L 366.286 238.586 L 366.286 236.586 Z M 376.286 236.586 L 378.286 236.586 L 378.286 238.586 L 376.286 238.586 L 376.286 236.586 Z M 378.286 236.586 L 380.286 236.586 L 380.286 238.586 L 378.286 238.586 L 378.286 236.586 Z M 380.286 236.586 L 382.286 236.586 L 382.286 238.586 L 380.286 238.586 L 380.286 236.586 Z M 384.286 236.586 L 386.286 236.586 L 386.286 238.586 L 384.286 238.586 L 384.286 236.586 Z M 386.286 236.586 L 388.286 236.586 L 388.286 238.586 L 386.286 238.586 L 386.286 236.586 Z M 388.286 236.586 L 390.286 236.586 L 390.286 238.586 L 388.286 238.586 L 388.286 236.586 Z M 332.286 238.586 L 334.286 238.586 L 334.286 240.586 L 332.286 240.586 L 332.286 238.586 Z M 338.286 238.586 L 340.286 238.586 L 340.286 240.586 L 338.286 240.586 L 338.286 238.586 Z M 340.286 238.586 L 342.286 238.586 L 342.286 240.586 L 340.286 240.586 L 340.286 238.586 Z M 342.286 238.586 L 344.286 238.586 L 344.286 240.586 L 342.286 240.586 L 342.286 238.586 Z M 346.286 238.586 L 348.286 238.586 L 348.286 240.586 L 346.286 240.586 L 346.286 238.586 Z M 350.286 238.586 L 352.286 238.586 L 352.286 240.586 L 350.286 240.586 L 350.286 238.586 Z M 352.286 238.586 L 354.286 238.586 L 354.286 240.586 L 352.286 240.586 L 352.286 238.586 Z M 356.286 238.586 L 358.286 238.586 L 358.286 240.586 L 356.286 240.586 L 356.286 238.586 Z M 358.286 238.586 L 360.286 238.586 L 360.286 240.586 L 358.286 240.586 L 358.286 238.586 Z M 360.286 238.586 L 362.286 238.586 L 362.286 240.586 L 360.286 240.586 L 360.286 238.586 Z M 364.286 238.586 L 366.286 238.586 L 366.286 240.586 L 364.286 240.586 L 364.286 238.586 Z M 366.286 238.586 L 368.286 238.586 L 368.286 240.586 L 366.286 240.586 L 366.286 238.586 Z M 368.286 238.586 L 370.286 238.586 L 370.286 240.586 L 368.286 240.586 L 368.286 238.586 Z M 370.286 238.586 L 372.286 238.586 L 372.286 240.586 L 370.286 240.586 L 370.286 238.586 Z M 372.286 238.586 L 374.286 238.586 L 374.286 240.586 L 372.286 240.586 L 372.286 238.586 Z M 374.286 238.586 L 376.286 238.586 L 376.286 240.586 L 374.286 240.586 L 374.286 238.586 Z M 376.286 238.586 L 378.286 238.586 L 378.286 240.586 L 376.286 240.586 L 376.286 238.586 Z M 378.286 238.586 L 380.286 238.586 L 380.286 240.586 L 378.286 240.586 L 378.286 238.586 Z M 380.286 238.586 L 382.286 238.586 L 382.286 240.586 L 380.286 240.586 L 380.286 238.586 Z M 386.286 238.586 L 388.286 238.586 L 388.286 240.586 L 386.286 240.586 L 386.286 238.586 Z M 334.286 240.586 L 336.286 240.586 L 336.286 242.586 L 334.286 242.586 L 334.286 240.586 Z M 336.286 240.586 L 338.286 240.586 L 338.286 242.586 L 336.286 242.586 L 336.286 240.586 Z M 340.286 240.586 L 342.286 240.586 L 342.286 242.586 L 340.286 242.586 L 340.286 240.586 Z M 342.286 240.586 L 344.286 240.586 L 344.286 242.586 L 342.286 242.586 L 342.286 240.586 Z M 344.286 240.586 L 346.286 240.586 L 346.286 242.586 L 344.286 242.586 L 344.286 240.586 Z M 346.286 240.586 L 348.286 240.586 L 348.286 242.586 L 346.286 242.586 L 346.286 240.586 Z M 348.286 240.586 L 350.286 240.586 L 350.286 242.586 L 348.286 242.586 L 348.286 240.586 Z M 352.286 240.586 L 354.286 240.586 L 354.286 242.586 L 352.286 242.586 L 352.286 240.586 Z M 354.286 240.586 L 356.286 240.586 L 356.286 242.586 L 354.286 242.586 L 354.286 240.586 Z M 358.286 240.586 L 360.286 240.586 L 360.286 242.586 L 358.286 242.586 L 358.286 240.586 Z M 362.286 240.586 L 364.286 240.586 L 364.286 242.586 L 362.286 242.586 L 362.286 240.586 Z M 364.286 240.586 L 366.286 240.586 L 366.286 242.586 L 364.286 242.586 L 364.286 240.586 Z M 366.286 240.586 L 368.286 240.586 L 368.286 242.586 L 366.286 242.586 L 366.286 240.586 Z M 370.286 240.586 L 372.286 240.586 L 372.286 242.586 L 370.286 242.586 L 370.286 240.586 Z M 372.286 240.586 L 374.286 240.586 L 374.286 242.586 L 372.286 242.586 L 372.286 240.586 Z M 374.286 240.586 L 376.286 240.586 L 376.286 242.586 L 374.286 242.586 L 374.286 240.586 Z M 376.286 240.586 L 378.286 240.586 L 378.286 242.586 L 376.286 242.586 L 376.286 240.586 Z M 382.286 240.586 L 384.286 240.586 L 384.286 242.586 L 382.286 242.586 L 382.286 240.586 Z M 386.286 240.586 L 388.286 240.586 L 388.286 242.586 L 386.286 242.586 L 386.286 240.586 Z M 388.286 240.586 L 390.286 240.586 L 390.286 242.586 L 388.286 242.586 L 388.286 240.586 Z M 336.286 242.586 L 338.286 242.586 L 338.286 244.586 L 336.286 244.586 L 336.286 242.586 Z M 338.286 242.586 L 340.286 242.586 L 340.286 244.586 L 338.286 244.586 L 338.286 242.586 Z M 342.286 242.586 L 344.286 242.586 L 344.286 244.586 L 342.286 244.586 L 342.286 242.586 Z M 350.286 242.586 L 352.286 242.586 L 352.286 244.586 L 350.286 244.586 L 350.286 242.586 Z M 352.286 242.586 L 354.286 242.586 L 354.286 244.586 L 352.286 244.586 L 352.286 242.586 Z M 354.286 242.586 L 356.286 242.586 L 356.286 244.586 L 354.286 244.586 L 354.286 242.586 Z M 358.286 242.586 L 360.286 242.586 L 360.286 244.586 L 358.286 244.586 L 358.286 242.586 Z M 364.286 242.586 L 366.286 242.586 L 366.286 244.586 L 364.286 244.586 L 364.286 242.586 Z M 366.286 242.586 L 368.286 242.586 L 368.286 244.586 L 366.286 244.586 L 366.286 242.586 Z M 368.286 242.586 L 370.286 242.586 L 370.286 244.586 L 368.286 244.586 L 368.286 242.586 Z M 372.286 242.586 L 374.286 242.586 L 374.286 244.586 L 372.286 244.586 L 372.286 242.586 Z M 376.286 242.586 L 378.286 242.586 L 378.286 244.586 L 376.286 244.586 L 376.286 242.586 Z M 382.286 242.586 L 384.286 242.586 L 384.286 244.586 L 382.286 244.586 L 382.286 242.586 Z M 388.286 242.586 L 390.286 242.586 L 390.286 244.586 L 388.286 244.586 L 388.286 242.586 Z M 332.286 244.586 L 334.286 244.586 L 334.286 246.586 L 332.286 246.586 L 332.286 244.586 Z M 334.286 244.586 L 336.286 244.586 L 336.286 246.586 L 334.286 246.586 L 334.286 244.586 Z M 336.286 244.586 L 338.286 244.586 L 338.286 246.586 L 336.286 246.586 L 336.286 244.586 Z M 342.286 244.586 L 344.286 244.586 L 344.286 246.586 L 342.286 246.586 L 342.286 244.586 Z M 344.286 244.586 L 346.286 244.586 L 346.286 246.586 L 344.286 246.586 L 344.286 244.586 Z M 346.286 244.586 L 348.286 244.586 L 348.286 246.586 L 346.286 246.586 L 346.286 244.586 Z M 350.286 244.586 L 352.286 244.586 L 352.286 246.586 L 350.286 246.586 L 350.286 244.586 Z M 358.286 244.586 L 360.286 244.586 L 360.286 246.586 L 358.286 246.586 L 358.286 244.586 Z M 360.286 244.586 L 362.286 244.586 L 362.286 246.586 L 360.286 246.586 L 360.286 244.586 Z M 364.286 244.586 L 366.286 244.586 L 366.286 246.586 L 364.286 246.586 L 364.286 244.586 Z M 376.286 244.586 L 378.286 244.586 L 378.286 246.586 L 376.286 246.586 L 376.286 244.586 Z M 378.286 244.586 L 380.286 244.586 L 380.286 246.586 L 378.286 246.586 L 378.286 244.586 Z M 382.286 244.586 L 384.286 244.586 L 384.286 246.586 L 382.286 246.586 L 382.286 244.586 Z M 386.286 244.586 L 388.286 244.586 L 388.286 246.586 L 386.286 246.586 L 386.286 244.586 Z M 388.286 244.586 L 390.286 244.586 L 390.286 246.586 L 388.286 246.586 L 388.286 244.586 Z M 334.286 246.586 L 336.286 246.586 L 336.286 248.586 L 334.286 248.586 L 334.286 246.586 Z M 336.286 246.586 L 338.286 246.586 L 338.286 248.586 L 336.286 248.586 L 336.286 246.586 Z M 340.286 246.586 L 342.286 246.586 L 342.286 248.586 L 340.286 248.586 L 340.286 246.586 Z M 346.286 246.586 L 348.286 246.586 L 348.286 248.586 L 346.286 248.586 L 346.286 246.586 Z M 348.286 246.586 L 350.286 246.586 L 350.286 248.586 L 348.286 248.586 L 348.286 246.586 Z M 354.286 246.586 L 356.286 246.586 L 356.286 248.586 L 354.286 248.586 L 354.286 246.586 Z M 358.286 246.586 L 360.286 246.586 L 360.286 248.586 L 358.286 248.586 L 358.286 246.586 Z M 360.286 246.586 L 362.286 246.586 L 362.286 248.586 L 360.286 248.586 L 360.286 246.586 Z M 366.286 246.586 L 368.286 246.586 L 368.286 248.586 L 366.286 248.586 L 366.286 246.586 Z M 368.286 246.586 L 370.286 246.586 L 370.286 248.586 L 368.286 248.586 L 368.286 246.586 Z M 372.286 246.586 L 374.286 246.586 L 374.286 248.586 L 372.286 248.586 L 372.286 246.586 Z M 376.286 246.586 L 378.286 246.586 L 378.286 248.586 L 376.286 248.586 L 376.286 246.586 Z M 382.286 246.586 L 384.286 246.586 L 384.286 248.586 L 382.286 248.586 L 382.286 246.586 Z M 386.286 246.586 L 388.286 246.586 L 388.286 248.586 L 386.286 248.586 L 386.286 246.586 Z M 332.286 248.586 L 334.286 248.586 L 334.286 250.586 L 332.286 250.586 L 332.286 248.586 Z M 334.286 248.586 L 336.286 248.586 L 336.286 250.586 L 334.286 250.586 L 334.286 248.586 Z M 342.286 248.586 L 344.286 248.586 L 344.286 250.586 L 342.286 250.586 L 342.286 248.586 Z M 344.286 248.586 L 346.286 248.586 L 346.286 250.586 L 344.286 250.586 L 344.286 248.586 Z M 346.286 248.586 L 348.286 248.586 L 348.286 250.586 L 346.286 250.586 L 346.286 248.586 Z M 348.286 248.586 L 350.286 248.586 L 350.286 250.586 L 348.286 250.586 L 348.286 248.586 Z M 352.286 248.586 L 354.286 248.586 L 354.286 250.586 L 352.286 250.586 L 352.286 248.586 Z M 356.286 248.586 L 358.286 248.586 L 358.286 250.586 L 356.286 250.586 L 356.286 248.586 Z M 358.286 248.586 L 360.286 248.586 L 360.286 250.586 L 358.286 250.586 L 358.286 248.586 Z M 366.286 248.586 L 368.286 248.586 L 368.286 250.586 L 366.286 250.586 L 366.286 248.586 Z M 370.286 248.586 L 372.286 248.586 L 372.286 250.586 L 370.286 250.586 L 370.286 248.586 Z M 372.286 248.586 L 374.286 248.586 L 374.286 250.586 L 372.286 250.586 L 372.286 248.586 Z M 374.286 248.586 L 376.286 248.586 L 376.286 250.586 L 374.286 250.586 L 374.286 248.586 Z M 376.286 248.586 L 378.286 248.586 L 378.286 250.586 L 376.286 250.586 L 376.286 248.586 Z M 382.286 248.586 L 384.286 248.586 L 384.286 250.586 L 382.286 250.586 L 382.286 248.586 Z M 386.286 248.586 L 388.286 248.586 L 388.286 250.586 L 386.286 250.586 L 386.286 248.586 Z M 388.286 248.586 L 390.286 248.586 L 390.286 250.586 L 388.286 250.586 L 388.286 248.586 Z M 334.286 250.586 L 336.286 250.586 L 336.286 252.586 L 334.286 252.586 L 334.286 250.586 Z M 338.286 250.586 L 340.286 250.586 L 340.286 252.586 L 338.286 252.586 L 338.286 250.586 Z M 348.286 250.586 L 350.286 250.586 L 350.286 252.586 L 348.286 252.586 L 348.286 250.586 Z M 354.286 250.586 L 356.286 250.586 L 356.286 252.586 L 354.286 252.586 L 354.286 250.586 Z M 356.286 250.586 L 358.286 250.586 L 358.286 252.586 L 356.286 252.586 L 356.286 250.586 Z M 360.286 250.586 L 362.286 250.586 L 362.286 252.586 L 360.286 252.586 L 360.286 250.586 Z M 364.286 250.586 L 366.286 250.586 L 366.286 252.586 L 364.286 252.586 L 364.286 250.586 Z M 366.286 250.586 L 368.286 250.586 L 368.286 252.586 L 366.286 252.586 L 366.286 250.586 Z M 372.286 250.586 L 374.286 250.586 L 374.286 252.586 L 372.286 252.586 L 372.286 250.586 Z M 374.286 250.586 L 376.286 250.586 L 376.286 252.586 L 374.286 252.586 L 374.286 250.586 Z M 376.286 250.586 L 378.286 250.586 L 378.286 252.586 L 376.286 252.586 L 376.286 250.586 Z M 382.286 250.586 L 384.286 250.586 L 384.286 252.586 L 382.286 252.586 L 382.286 250.586 Z M 384.286 250.586 L 386.286 250.586 L 386.286 252.586 L 384.286 252.586 L 384.286 250.586 Z M 388.286 250.586 L 390.286 250.586 L 390.286 252.586 L 388.286 252.586 L 388.286 250.586 Z M 332.286 252.586 L 334.286 252.586 L 334.286 254.586 L 332.286 254.586 L 332.286 252.586 Z M 336.286 252.586 L 338.286 252.586 L 338.286 254.586 L 336.286 254.586 L 336.286 252.586 Z M 340.286 252.586 L 342.286 252.586 L 342.286 254.586 L 340.286 254.586 L 340.286 252.586 Z M 344.286 252.586 L 346.286 252.586 L 346.286 254.586 L 344.286 254.586 L 344.286 252.586 Z M 348.286 252.586 L 350.286 252.586 L 350.286 254.586 L 348.286 254.586 L 348.286 252.586 Z M 354.286 252.586 L 356.286 252.586 L 356.286 254.586 L 354.286 254.586 L 354.286 252.586 Z M 356.286 252.586 L 358.286 252.586 L 358.286 254.586 L 356.286 254.586 L 356.286 252.586 Z M 360.286 252.586 L 362.286 252.586 L 362.286 254.586 L 360.286 254.586 L 360.286 252.586 Z M 366.286 252.586 L 368.286 252.586 L 368.286 254.586 L 366.286 254.586 L 366.286 252.586 Z M 368.286 252.586 L 370.286 252.586 L 370.286 254.586 L 368.286 254.586 L 368.286 252.586 Z M 374.286 252.586 L 376.286 252.586 L 376.286 254.586 L 374.286 254.586 L 374.286 252.586 Z M 380.286 252.586 L 382.286 252.586 L 382.286 254.586 L 380.286 254.586 L 380.286 252.586 Z M 386.286 252.586 L 388.286 252.586 L 388.286 254.586 L 386.286 254.586 L 386.286 252.586 Z M 388.286 252.586 L 390.286 252.586 L 390.286 254.586 L 388.286 254.586 L 388.286 252.586 Z M 334.286 254.586 L 336.286 254.586 L 336.286 256.586 L 334.286 256.586 L 334.286 254.586 Z M 338.286 254.586 L 340.286 254.586 L 340.286 256.586 L 338.286 256.586 L 338.286 254.586 Z M 348.286 254.586 L 350.286 254.586 L 350.286 256.586 L 348.286 256.586 L 348.286 254.586 Z M 350.286 254.586 L 352.286 254.586 L 352.286 256.586 L 350.286 256.586 L 350.286 254.586 Z M 356.286 254.586 L 358.286 254.586 L 358.286 256.586 L 356.286 256.586 L 356.286 254.586 Z M 358.286 254.586 L 360.286 254.586 L 360.286 256.586 L 358.286 256.586 L 358.286 254.586 Z M 362.286 254.586 L 364.286 254.586 L 364.286 256.586 L 362.286 256.586 L 362.286 254.586 Z M 364.286 254.586 L 366.286 254.586 L 366.286 256.586 L 364.286 256.586 L 364.286 254.586 Z M 366.286 254.586 L 368.286 254.586 L 368.286 256.586 L 366.286 256.586 L 366.286 254.586 Z M 376.286 254.586 L 378.286 254.586 L 378.286 256.586 L 376.286 256.586 L 376.286 254.586 Z M 378.286 254.586 L 380.286 254.586 L 380.286 256.586 L 378.286 256.586 L 378.286 254.586 Z M 382.286 254.586 L 384.286 254.586 L 384.286 256.586 L 382.286 256.586 L 382.286 254.586 Z M 386.286 254.586 L 388.286 254.586 L 388.286 256.586 L 386.286 256.586 L 386.286 254.586 Z M 332.286 256.586 L 334.286 256.586 L 334.286 258.586 L 332.286 258.586 L 332.286 256.586 Z M 336.286 256.586 L 338.286 256.586 L 338.286 258.586 L 336.286 258.586 L 336.286 256.586 Z M 338.286 256.586 L 340.286 256.586 L 340.286 258.586 L 338.286 258.586 L 338.286 256.586 Z M 344.286 256.586 L 346.286 256.586 L 346.286 258.586 L 344.286 258.586 L 344.286 256.586 Z M 348.286 256.586 L 350.286 256.586 L 350.286 258.586 L 348.286 258.586 L 348.286 256.586 Z M 350.286 256.586 L 352.286 256.586 L 352.286 258.586 L 350.286 258.586 L 350.286 256.586 Z M 352.286 256.586 L 354.286 256.586 L 354.286 258.586 L 352.286 258.586 L 352.286 256.586 Z M 354.286 256.586 L 356.286 256.586 L 356.286 258.586 L 354.286 258.586 L 354.286 256.586 Z M 360.286 256.586 L 362.286 256.586 L 362.286 258.586 L 360.286 258.586 L 360.286 256.586 Z M 366.286 256.586 L 368.286 256.586 L 368.286 258.586 L 366.286 258.586 L 366.286 256.586 Z M 372.286 256.586 L 374.286 256.586 L 374.286 258.586 L 372.286 258.586 L 372.286 256.586 Z M 374.286 256.586 L 376.286 256.586 L 376.286 258.586 L 374.286 258.586 L 374.286 256.586 Z M 376.286 256.586 L 378.286 256.586 L 378.286 258.586 L 376.286 258.586 L 376.286 256.586 Z M 378.286 256.586 L 380.286 256.586 L 380.286 258.586 L 378.286 258.586 L 378.286 256.586 Z M 380.286 256.586 L 382.286 256.586 L 382.286 258.586 L 380.286 258.586 L 380.286 256.586 Z M 348.286 258.586 L 350.286 258.586 L 350.286 260.586 L 348.286 260.586 L 348.286 258.586 Z M 350.286 258.586 L 352.286 258.586 L 352.286 260.586 L 350.286 260.586 L 350.286 258.586 Z M 354.286 258.586 L 356.286 258.586 L 356.286 260.586 L 354.286 260.586 L 354.286 258.586 Z M 364.286 258.586 L 366.286 258.586 L 366.286 260.586 L 364.286 260.586 L 364.286 258.586 Z M 366.286 258.586 L 368.286 258.586 L 368.286 260.586 L 366.286 260.586 L 366.286 258.586 Z M 368.286 258.586 L 370.286 258.586 L 370.286 260.586 L 368.286 260.586 L 368.286 258.586 Z M 370.286 258.586 L 372.286 258.586 L 372.286 260.586 L 370.286 260.586 L 370.286 258.586 Z M 372.286 258.586 L 374.286 258.586 L 374.286 260.586 L 372.286 260.586 L 372.286 258.586 Z M 380.286 258.586 L 382.286 258.586 L 382.286 260.586 L 380.286 260.586 L 380.286 258.586 Z M 384.286 258.586 L 386.286 258.586 L 386.286 260.586 L 384.286 260.586 L 384.286 258.586 Z M 386.286 258.586 L 388.286 258.586 L 388.286 260.586 L 386.286 260.586 L 386.286 258.586 Z M 388.286 258.586 L 390.286 258.586 L 390.286 260.586 L 388.286 260.586 L 388.286 258.586 Z M 332.286 260.586 L 334.286 260.586 L 334.286 262.586 L 332.286 262.586 L 332.286 260.586 Z M 334.286 260.586 L 336.286 260.586 L 336.286 262.586 L 334.286 262.586 L 334.286 260.586 Z M 336.286 260.586 L 338.286 260.586 L 338.286 262.586 L 336.286 262.586 L 336.286 260.586 Z M 338.286 260.586 L 340.286 260.586 L 340.286 262.586 L 338.286 262.586 L 338.286 260.586 Z M 340.286 260.586 L 342.286 260.586 L 342.286 262.586 L 340.286 262.586 L 340.286 260.586 Z M 342.286 260.586 L 344.286 260.586 L 344.286 262.586 L 342.286 262.586 L 342.286 260.586 Z M 344.286 260.586 L 346.286 260.586 L 346.286 262.586 L 344.286 262.586 L 344.286 260.586 Z M 348.286 260.586 L 350.286 260.586 L 350.286 262.586 L 348.286 262.586 L 348.286 260.586 Z M 352.286 260.586 L 354.286 260.586 L 354.286 262.586 L 352.286 262.586 L 352.286 260.586 Z M 358.286 260.586 L 360.286 260.586 L 360.286 262.586 L 358.286 262.586 L 358.286 260.586 Z M 370.286 260.586 L 372.286 260.586 L 372.286 262.586 L 370.286 262.586 L 370.286 260.586 Z M 372.286 260.586 L 374.286 260.586 L 374.286 262.586 L 372.286 262.586 L 372.286 260.586 Z M 376.286 260.586 L 378.286 260.586 L 378.286 262.586 L 376.286 262.586 L 376.286 260.586 Z M 380.286 260.586 L 382.286 260.586 L 382.286 262.586 L 380.286 262.586 L 380.286 260.586 Z M 382.286 260.586 L 384.286 260.586 L 384.286 262.586 L 382.286 262.586 L 382.286 260.586 Z M 386.286 260.586 L 388.286 260.586 L 388.286 262.586 L 386.286 262.586 L 386.286 260.586 Z M 388.286 260.586 L 390.286 260.586 L 390.286 262.586 L 388.286 262.586 L 388.286 260.586 Z M 332.286 262.586 L 334.286 262.586 L 334.286 264.586 L 332.286 264.586 L 332.286 262.586 Z M 344.286 262.586 L 346.286 262.586 L 346.286 264.586 L 344.286 264.586 L 344.286 262.586 Z M 348.286 262.586 L 350.286 262.586 L 350.286 264.586 L 348.286 264.586 L 348.286 262.586 Z M 354.286 262.586 L 356.286 262.586 L 356.286 264.586 L 354.286 264.586 L 354.286 262.586 Z M 364.286 262.586 L 366.286 262.586 L 366.286 264.586 L 364.286 264.586 L 364.286 262.586 Z M 366.286 262.586 L 368.286 262.586 L 368.286 264.586 L 366.286 264.586 L 366.286 262.586 Z M 372.286 262.586 L 374.286 262.586 L 374.286 264.586 L 372.286 264.586 L 372.286 262.586 Z M 380.286 262.586 L 382.286 262.586 L 382.286 264.586 L 380.286 264.586 L 380.286 262.586 Z M 382.286 262.586 L 384.286 262.586 L 384.286 264.586 L 382.286 264.586 L 382.286 262.586 Z M 332.286 264.586 L 334.286 264.586 L 334.286 266.586 L 332.286 266.586 L 332.286 264.586 Z M 336.286 264.586 L 338.286 264.586 L 338.286 266.586 L 336.286 266.586 L 336.286 264.586 Z M 338.286 264.586 L 340.286 264.586 L 340.286 266.586 L 338.286 266.586 L 338.286 264.586 Z M 340.286 264.586 L 342.286 264.586 L 342.286 266.586 L 340.286 266.586 L 340.286 264.586 Z M 344.286 264.586 L 346.286 264.586 L 346.286 266.586 L 344.286 266.586 L 344.286 264.586 Z M 348.286 264.586 L 350.286 264.586 L 350.286 266.586 L 348.286 266.586 L 348.286 264.586 Z M 350.286 264.586 L 352.286 264.586 L 352.286 266.586 L 350.286 266.586 L 350.286 264.586 Z M 356.286 264.586 L 358.286 264.586 L 358.286 266.586 L 356.286 266.586 L 356.286 264.586 Z M 362.286 264.586 L 364.286 264.586 L 364.286 266.586 L 362.286 266.586 L 362.286 264.586 Z M 364.286 264.586 L 366.286 264.586 L 366.286 266.586 L 364.286 266.586 L 364.286 264.586 Z M 366.286 264.586 L 368.286 264.586 L 368.286 266.586 L 366.286 266.586 L 366.286 264.586 Z M 368.286 264.586 L 370.286 264.586 L 370.286 266.586 L 368.286 266.586 L 368.286 264.586 Z M 372.286 264.586 L 374.286 264.586 L 374.286 266.586 L 372.286 266.586 L 372.286 264.586 Z M 374.286 264.586 L 376.286 264.586 L 376.286 266.586 L 374.286 266.586 L 374.286 264.586 Z M 376.286 264.586 L 378.286 264.586 L 378.286 266.586 L 376.286 266.586 L 376.286 264.586 Z M 378.286 264.586 L 380.286 264.586 L 380.286 266.586 L 378.286 266.586 L 378.286 264.586 Z M 380.286 264.586 L 382.286 264.586 L 382.286 266.586 L 380.286 266.586 L 380.286 264.586 Z M 332.286 266.586 L 334.286 266.586 L 334.286 268.586 L 332.286 268.586 L 332.286 266.586 Z M 336.286 266.586 L 338.286 266.586 L 338.286 268.586 L 336.286 268.586 L 336.286 266.586 Z M 338.286 266.586 L 340.286 266.586 L 340.286 268.586 L 338.286 268.586 L 338.286 266.586 Z M 340.286 266.586 L 342.286 266.586 L 342.286 268.586 L 340.286 268.586 L 340.286 266.586 Z M 344.286 266.586 L 346.286 266.586 L 346.286 268.586 L 344.286 268.586 L 344.286 266.586 Z M 352.286 266.586 L 354.286 266.586 L 354.286 268.586 L 352.286 268.586 L 352.286 266.586 Z M 354.286 266.586 L 356.286 266.586 L 356.286 268.586 L 354.286 268.586 L 354.286 266.586 Z M 356.286 266.586 L 358.286 266.586 L 358.286 268.586 L 356.286 268.586 L 356.286 266.586 Z M 358.286 266.586 L 360.286 266.586 L 360.286 268.586 L 358.286 268.586 L 358.286 266.586 Z M 364.286 266.586 L 366.286 266.586 L 366.286 268.586 L 364.286 268.586 L 364.286 266.586 Z M 370.286 266.586 L 372.286 266.586 L 372.286 268.586 L 370.286 268.586 L 370.286 266.586 Z M 372.286 266.586 L 374.286 266.586 L 374.286 268.586 L 372.286 268.586 L 372.286 266.586 Z M 380.286 266.586 L 382.286 266.586 L 382.286 268.586 L 380.286 268.586 L 380.286 266.586 Z M 384.286 266.586 L 386.286 266.586 L 386.286 268.586 L 384.286 268.586 L 384.286 266.586 Z M 386.286 266.586 L 388.286 266.586 L 388.286 268.586 L 386.286 268.586 L 386.286 266.586 Z M 388.286 266.586 L 390.286 266.586 L 390.286 268.586 L 388.286 268.586 L 388.286 266.586 Z M 332.286 268.586 L 334.286 268.586 L 334.286 270.586 L 332.286 270.586 L 332.286 268.586 Z M 336.286 268.586 L 338.286 268.586 L 338.286 270.586 L 336.286 270.586 L 336.286 268.586 Z M 338.286 268.586 L 340.286 268.586 L 340.286 270.586 L 338.286 270.586 L 338.286 268.586 Z M 340.286 268.586 L 342.286 268.586 L 342.286 270.586 L 340.286 270.586 L 340.286 268.586 Z M 344.286 268.586 L 346.286 268.586 L 346.286 270.586 L 344.286 270.586 L 344.286 268.586 Z M 348.286 268.586 L 350.286 268.586 L 350.286 270.586 L 348.286 270.586 L 348.286 268.586 Z M 350.286 268.586 L 352.286 268.586 L 352.286 270.586 L 350.286 270.586 L 350.286 268.586 Z M 352.286 268.586 L 354.286 268.586 L 354.286 270.586 L 352.286 270.586 L 352.286 268.586 Z M 354.286 268.586 L 356.286 268.586 L 356.286 270.586 L 354.286 270.586 L 354.286 268.586 Z M 356.286 268.586 L 358.286 268.586 L 358.286 270.586 L 356.286 270.586 L 356.286 268.586 Z M 360.286 268.586 L 362.286 268.586 L 362.286 270.586 L 360.286 270.586 L 360.286 268.586 Z M 364.286 268.586 L 366.286 268.586 L 366.286 270.586 L 364.286 270.586 L 364.286 268.586 Z M 370.286 268.586 L 372.286 268.586 L 372.286 270.586 L 370.286 270.586 L 370.286 268.586 Z M 378.286 268.586 L 380.286 268.586 L 380.286 270.586 L 378.286 270.586 L 378.286 268.586 Z M 380.286 268.586 L 382.286 268.586 L 382.286 270.586 L 380.286 270.586 L 380.286 268.586 Z M 382.286 268.586 L 384.286 268.586 L 384.286 270.586 L 382.286 270.586 L 382.286 268.586 Z M 388.286 268.586 L 390.286 268.586 L 390.286 270.586 L 388.286 270.586 L 388.286 268.586 Z M 332.286 270.586 L 334.286 270.586 L 334.286 272.586 L 332.286 272.586 L 332.286 270.586 Z M 344.286 270.586 L 346.286 270.586 L 346.286 272.586 L 344.286 272.586 L 344.286 270.586 Z M 348.286 270.586 L 350.286 270.586 L 350.286 272.586 L 348.286 272.586 L 348.286 270.586 Z M 350.286 270.586 L 352.286 270.586 L 352.286 272.586 L 350.286 272.586 L 350.286 270.586 Z M 356.286 270.586 L 358.286 270.586 L 358.286 272.586 L 356.286 272.586 L 356.286 270.586 Z M 358.286 270.586 L 360.286 270.586 L 360.286 272.586 L 358.286 272.586 L 358.286 270.586 Z M 360.286 270.586 L 362.286 270.586 L 362.286 272.586 L 360.286 272.586 L 360.286 270.586 Z M 366.286 270.586 L 368.286 270.586 L 368.286 272.586 L 366.286 272.586 L 366.286 270.586 Z M 368.286 270.586 L 370.286 270.586 L 370.286 272.586 L 368.286 272.586 L 368.286 270.586 Z M 370.286 270.586 L 372.286 270.586 L 372.286 272.586 L 370.286 272.586 L 370.286 270.586 Z M 372.286 270.586 L 374.286 270.586 L 374.286 272.586 L 372.286 272.586 L 372.286 270.586 Z M 376.286 270.586 L 378.286 270.586 L 378.286 272.586 L 376.286 272.586 L 376.286 270.586 Z M 378.286 270.586 L 380.286 270.586 L 380.286 272.586 L 378.286 272.586 L 378.286 270.586 Z M 380.286 270.586 L 382.286 270.586 L 382.286 272.586 L 380.286 272.586 L 380.286 270.586 Z M 386.286 270.586 L 388.286 270.586 L 388.286 272.586 L 386.286 272.586 L 386.286 270.586 Z M 332.286 272.586 L 334.286 272.586 L 334.286 274.586 L 332.286 274.586 L 332.286 272.586 Z M 334.286 272.586 L 336.286 272.586 L 336.286 274.586 L 334.286 274.586 L 334.286 272.586 Z M 336.286 272.586 L 338.286 272.586 L 338.286 274.586 L 336.286 274.586 L 336.286 272.586 Z M 338.286 272.586 L 340.286 272.586 L 340.286 274.586 L 338.286 274.586 L 338.286 272.586 Z M 340.286 272.586 L 342.286 272.586 L 342.286 274.586 L 340.286 274.586 L 340.286 272.586 Z M 342.286 272.586 L 344.286 272.586 L 344.286 274.586 L 342.286 274.586 L 342.286 272.586 Z M 344.286 272.586 L 346.286 272.586 L 346.286 274.586 L 344.286 274.586 L 344.286 272.586 Z M 348.286 272.586 L 350.286 272.586 L 350.286 274.586 L 348.286 274.586 L 348.286 272.586 Z M 352.286 272.586 L 354.286 272.586 L 354.286 274.586 L 352.286 274.586 L 352.286 272.586 Z M 354.286 272.586 L 356.286 272.586 L 356.286 274.586 L 354.286 274.586 L 354.286 272.586 Z M 360.286 272.586 L 362.286 272.586 L 362.286 274.586 L 360.286 274.586 L 360.286 272.586 Z M 362.286 272.586 L 364.286 272.586 L 364.286 274.586 L 362.286 274.586 L 362.286 272.586 Z M 364.286 272.586 L 366.286 272.586 L 366.286 274.586 L 364.286 274.586 L 364.286 272.586 Z M 366.286 272.586 L 368.286 272.586 L 368.286 274.586 L 366.286 274.586 L 366.286 272.586 Z M 372.286 272.586 L 374.286 272.586 L 374.286 274.586 L 372.286 274.586 L 372.286 272.586 Z M 378.286 272.586 L 380.286 272.586 L 380.286 274.586 L 378.286 274.586 L 378.286 272.586 Z M 386.286 272.586 L 388.286 272.586 L 388.286 274.586 L 386.286 274.586 L 386.286 272.586 Z M 388.286 272.586 L 390.286 272.586 L 390.286 274.586 L 388.286 274.586 L 388.286 272.586 Z" stroke="transparent" style="stroke-width: 1; fill: rgb(51, 51, 51);"/>
  </g>
</svg>