<?xml version="1.0"?>
 <svg viewBox="0 0 500 500" xmlns="http://www.w3.org/2000/svg" width="500" height="500"> <path d="M 0 0 L 17.241 0 L 17.241 17.241 L 0 17.241 L 0 0 Z M 17.241 0 L 34.483 0 L 34.483 17.241 L 17.241 17.241 L 17.241 0 Z M 34.483 0 L 51.724 0 L 51.724 17.241 L 34.483 17.241 L 34.483 0 Z M 51.724 0 L 68.966 0 L 68.966 17.241 L 51.724 17.241 L 51.724 0 Z M 68.966 0 L 86.207 0 L 86.207 17.241 L 68.966 17.241 L 68.966 0 Z M 86.207 0 L 103.448 0 L 103.448 17.241 L 86.207 17.241 L 86.207 0 Z M 103.448 0 L 120.69 0 L 120.69 17.241 L 103.448 17.241 L 103.448 0 Z M 172.414 0 L 189.655 0 L 189.655 17.241 L 172.414 17.241 L 172.414 0 Z M 241.379 0 L 258.621 0 L 258.621 17.241 L 241.379 17.241 L 241.379 0 Z M 293.103 0 L 310.345 0 L 310.345 17.241 L 293.103 17.241 L 293.103 0 Z M 310.345 0 L 327.586 0 L 327.586 17.241 L 310.345 17.241 L 310.345 0 Z M 327.586 0 L 344.828 0 L 344.828 17.241 L 327.586 17.241 L 327.586 0 Z M 344.828 0 L 362.069 0 L 362.069 17.241 L 344.828 17.241 L 344.828 0 Z M 379.31 0 L 396.552 0 L 396.552 17.241 L 379.31 17.241 L 379.31 0 Z M 396.552 0 L 413.793 0 L 413.793 17.241 L 396.552 17.241 L 396.552 0 Z M 413.793 0 L 431.034 0 L 431.034 17.241 L 413.793 17.241 L 413.793 0 Z M 431.034 0 L 448.276 0 L 448.276 17.241 L 431.034 17.241 L 431.034 0 Z M 448.276 0 L 465.517 0 L 465.517 17.241 L 448.276 17.241 L 448.276 0 Z M 465.517 0 L 482.759 0 L 482.759 17.241 L 465.517 17.241 L 465.517 0 Z M 482.759 0 L 500 0 L 500 17.241 L 482.759 17.241 L 482.759 0 Z M 0 17.241 L 17.241 17.241 L 17.241 34.483 L 0 34.483 L 0 17.241 Z M 103.448 17.241 L 120.69 17.241 L 120.69 34.483 L 103.448 34.483 L 103.448 17.241 Z M 155.172 17.241 L 172.414 17.241 L 172.414 34.483 L 155.172 34.483 L 155.172 17.241 Z M 224.138 17.241 L 241.379 17.241 L 241.379 34.483 L 224.138 34.483 L 224.138 17.241 Z M 310.345 17.241 L 327.586 17.241 L 327.586 34.483 L 310.345 34.483 L 310.345 17.241 Z M 327.586 17.241 L 344.828 17.241 L 344.828 34.483 L 327.586 34.483 L 327.586 17.241 Z M 344.828 17.241 L 362.069 17.241 L 362.069 34.483 L 344.828 34.483 L 344.828 17.241 Z M 379.31 17.241 L 396.552 17.241 L 396.552 34.483 L 379.31 34.483 L 379.31 17.241 Z M 482.759 17.241 L 500 17.241 L 500 34.483 L 482.759 34.483 L 482.759 17.241 Z M 0 34.483 L 17.241 34.483 L 17.241 51.724 L 0 51.724 L 0 34.483 Z M 34.483 34.483 L 51.724 34.483 L 51.724 51.724 L 34.483 51.724 L 34.483 34.483 Z M 51.724 34.483 L 68.966 34.483 L 68.966 51.724 L 51.724 51.724 L 51.724 34.483 Z M 68.966 34.483 L 86.207 34.483 L 86.207 51.724 L 68.966 51.724 L 68.966 34.483 Z M 103.448 34.483 L 120.69 34.483 L 120.69 51.724 L 103.448 51.724 L 103.448 34.483 Z M 137.931 34.483 L 155.172 34.483 L 155.172 51.724 L 137.931 51.724 L 137.931 34.483 Z M 189.655 34.483 L 206.897 34.483 L 206.897 51.724 L 189.655 51.724 L 189.655 34.483 Z M 258.621 34.483 L 275.862 34.483 L 275.862 51.724 L 258.621 51.724 L 258.621 34.483 Z M 327.586 34.483 L 344.828 34.483 L 344.828 51.724 L 327.586 51.724 L 327.586 34.483 Z M 344.828 34.483 L 362.069 34.483 L 362.069 51.724 L 344.828 51.724 L 344.828 34.483 Z M 379.31 34.483 L 396.552 34.483 L 396.552 51.724 L 379.31 51.724 L 379.31 34.483 Z M 413.793 34.483 L 431.034 34.483 L 431.034 51.724 L 413.793 51.724 L 413.793 34.483 Z M 431.034 34.483 L 448.276 34.483 L 448.276 51.724 L 431.034 51.724 L 431.034 34.483 Z M 448.276 34.483 L 465.517 34.483 L 465.517 51.724 L 448.276 51.724 L 448.276 34.483 Z M 482.759 34.483 L 500 34.483 L 500 51.724 L 482.759 51.724 L 482.759 34.483 Z M 0 51.724 L 17.241 51.724 L 17.241 68.966 L 0 68.966 L 0 51.724 Z M 34.483 51.724 L 51.724 51.724 L 51.724 68.966 L 34.483 68.966 L 34.483 51.724 Z M 51.724 51.724 L 68.966 51.724 L 68.966 68.966 L 51.724 68.966 L 51.724 51.724 Z M 68.966 51.724 L 86.207 51.724 L 86.207 68.966 L 68.966 68.966 L 68.966 51.724 Z M 103.448 51.724 L 120.69 51.724 L 120.69 68.966 L 103.448 68.966 L 103.448 51.724 Z M 155.172 51.724 L 172.414 51.724 L 172.414 68.966 L 155.172 68.966 L 155.172 51.724 Z M 206.897 51.724 L 224.138 51.724 L 224.138 68.966 L 206.897 68.966 L 206.897 51.724 Z M 224.138 51.724 L 241.379 51.724 L 241.379 68.966 L 224.138 68.966 L 224.138 51.724 Z M 310.345 51.724 L 327.586 51.724 L 327.586 68.966 L 310.345 68.966 L 310.345 51.724 Z M 327.586 51.724 L 344.828 51.724 L 344.828 68.966 L 327.586 68.966 L 327.586 51.724 Z M 344.828 51.724 L 362.069 51.724 L 362.069 68.966 L 344.828 68.966 L 344.828 51.724 Z M 379.31 51.724 L 396.552 51.724 L 396.552 68.966 L 379.31 68.966 L 379.31 51.724 Z M 413.793 51.724 L 431.034 51.724 L 431.034 68.966 L 413.793 68.966 L 413.793 51.724 Z M 431.034 51.724 L 448.276 51.724 L 448.276 68.966 L 431.034 68.966 L 431.034 51.724 Z M 448.276 51.724 L 465.517 51.724 L 465.517 68.966 L 448.276 68.966 L 448.276 51.724 Z M 482.759 51.724 L 500 51.724 L 500 68.966 L 482.759 68.966 L 482.759 51.724 Z M 0 68.966 L 17.241 68.966 L 17.241 86.207 L 0 86.207 L 0 68.966 Z M 34.483 68.966 L 51.724 68.966 L 51.724 86.207 L 34.483 86.207 L 34.483 68.966 Z M 51.724 68.966 L 68.966 68.966 L 68.966 86.207 L 51.724 86.207 L 51.724 68.966 Z M 68.966 68.966 L 86.207 68.966 L 86.207 86.207 L 68.966 86.207 L 68.966 68.966 Z M 103.448 68.966 L 120.69 68.966 L 120.69 86.207 L 103.448 86.207 L 103.448 68.966 Z M 155.172 68.966 L 172.414 68.966 L 172.414 86.207 L 155.172 86.207 L 155.172 68.966 Z M 206.897 68.966 L 224.138 68.966 L 224.138 86.207 L 206.897 86.207 L 206.897 68.966 Z M 224.138 68.966 L 241.379 68.966 L 241.379 86.207 L 224.138 86.207 L 224.138 68.966 Z M 275.862 68.966 L 293.103 68.966 L 293.103 86.207 L 275.862 86.207 L 275.862 68.966 Z M 327.586 68.966 L 344.828 68.966 L 344.828 86.207 L 327.586 86.207 L 327.586 68.966 Z M 379.31 68.966 L 396.552 68.966 L 396.552 86.207 L 379.31 86.207 L 379.31 68.966 Z M 413.793 68.966 L 431.034 68.966 L 431.034 86.207 L 413.793 86.207 L 413.793 68.966 Z M 431.034 68.966 L 448.276 68.966 L 448.276 86.207 L 431.034 86.207 L 431.034 68.966 Z M 448.276 68.966 L 465.517 68.966 L 465.517 86.207 L 448.276 86.207 L 448.276 68.966 Z M 482.759 68.966 L 500 68.966 L 500 86.207 L 482.759 86.207 L 482.759 68.966 Z M 0 86.207 L 17.241 86.207 L 17.241 103.448 L 0 103.448 L 0 86.207 Z M 103.448 86.207 L 120.69 86.207 L 120.69 103.448 L 103.448 103.448 L 103.448 86.207 Z M 172.414 86.207 L 189.655 86.207 L 189.655 103.448 L 172.414 103.448 L 172.414 86.207 Z M 189.655 86.207 L 206.897 86.207 L 206.897 103.448 L 189.655 103.448 L 189.655 86.207 Z M 206.897 86.207 L 224.138 86.207 L 224.138 103.448 L 206.897 103.448 L 206.897 86.207 Z M 241.379 86.207 L 258.621 86.207 L 258.621 103.448 L 241.379 103.448 L 241.379 86.207 Z M 258.621 86.207 L 275.862 86.207 L 275.862 103.448 L 258.621 103.448 L 258.621 86.207 Z M 275.862 86.207 L 293.103 86.207 L 293.103 103.448 L 275.862 103.448 L 275.862 86.207 Z M 327.586 86.207 L 344.828 86.207 L 344.828 103.448 L 327.586 103.448 L 327.586 86.207 Z M 344.828 86.207 L 362.069 86.207 L 362.069 103.448 L 344.828 103.448 L 344.828 86.207 Z M 379.31 86.207 L 396.552 86.207 L 396.552 103.448 L 379.31 103.448 L 379.31 86.207 Z M 482.759 86.207 L 500 86.207 L 500 103.448 L 482.759 103.448 L 482.759 86.207 Z M 0 103.448 L 17.241 103.448 L 17.241 120.69 L 0 120.69 L 0 103.448 Z M 17.241 103.448 L 34.483 103.448 L 34.483 120.69 L 17.241 120.69 L 17.241 103.448 Z M 34.483 103.448 L 51.724 103.448 L 51.724 120.69 L 34.483 120.69 L 34.483 103.448 Z M 51.724 103.448 L 68.966 103.448 L 68.966 120.69 L 51.724 120.69 L 51.724 103.448 Z M 68.966 103.448 L 86.207 103.448 L 86.207 120.69 L 68.966 120.69 L 68.966 103.448 Z M 86.207 103.448 L 103.448 103.448 L 103.448 120.69 L 86.207 120.69 L 86.207 103.448 Z M 103.448 103.448 L 120.69 103.448 L 120.69 120.69 L 103.448 120.69 L 103.448 103.448 Z M 137.931 103.448 L 155.172 103.448 L 155.172 120.69 L 137.931 120.69 L 137.931 103.448 Z M 172.414 103.448 L 189.655 103.448 L 189.655 120.69 L 172.414 120.69 L 172.414 103.448 Z M 206.897 103.448 L 224.138 103.448 L 224.138 120.69 L 206.897 120.69 L 206.897 103.448 Z M 241.379 103.448 L 258.621 103.448 L 258.621 120.69 L 241.379 120.69 L 241.379 103.448 Z M 275.862 103.448 L 293.103 103.448 L 293.103 120.69 L 275.862 120.69 L 275.862 103.448 Z M 310.345 103.448 L 327.586 103.448 L 327.586 120.69 L 310.345 120.69 L 310.345 103.448 Z M 344.828 103.448 L 362.069 103.448 L 362.069 120.69 L 344.828 120.69 L 344.828 103.448 Z M 379.31 103.448 L 396.552 103.448 L 396.552 120.69 L 379.31 120.69 L 379.31 103.448 Z M 396.552 103.448 L 413.793 103.448 L 413.793 120.69 L 396.552 120.69 L 396.552 103.448 Z M 413.793 103.448 L 431.034 103.448 L 431.034 120.69 L 413.793 120.69 L 413.793 103.448 Z M 431.034 103.448 L 448.276 103.448 L 448.276 120.69 L 431.034 120.69 L 431.034 103.448 Z M 448.276 103.448 L 465.517 103.448 L 465.517 120.69 L 448.276 120.69 L 448.276 103.448 Z M 465.517 103.448 L 482.759 103.448 L 482.759 120.69 L 465.517 120.69 L 465.517 103.448 Z M 482.759 103.448 L 500 103.448 L 500 120.69 L 482.759 120.69 L 482.759 103.448 Z M 137.931 120.69 L 155.172 120.69 L 155.172 137.931 L 137.931 137.931 L 137.931 120.69 Z M 189.655 120.69 L 206.897 120.69 L 206.897 137.931 L 189.655 137.931 L 189.655 120.69 Z M 293.103 120.69 L 310.345 120.69 L 310.345 137.931 L 293.103 137.931 L 293.103 120.69 Z M 310.345 120.69 L 327.586 120.69 L 327.586 137.931 L 310.345 137.931 L 310.345 120.69 Z M 344.828 120.69 L 362.069 120.69 L 362.069 137.931 L 344.828 137.931 L 344.828 120.69 Z M 0 137.931 L 17.241 137.931 L 17.241 155.172 L 0 155.172 L 0 137.931 Z M 17.241 137.931 L 34.483 137.931 L 34.483 155.172 L 17.241 155.172 L 17.241 137.931 Z M 34.483 137.931 L 51.724 137.931 L 51.724 155.172 L 34.483 155.172 L 34.483 137.931 Z M 68.966 137.931 L 86.207 137.931 L 86.207 155.172 L 68.966 155.172 L 68.966 137.931 Z M 86.207 137.931 L 103.448 137.931 L 103.448 155.172 L 86.207 155.172 L 86.207 137.931 Z M 103.448 137.931 L 120.69 137.931 L 120.69 155.172 L 103.448 155.172 L 103.448 137.931 Z M 120.69 137.931 L 137.931 137.931 L 137.931 155.172 L 120.69 155.172 L 120.69 137.931 Z M 137.931 137.931 L 155.172 137.931 L 155.172 155.172 L 137.931 155.172 L 137.931 137.931 Z M 206.897 137.931 L 224.138 137.931 L 224.138 155.172 L 206.897 155.172 L 206.897 137.931 Z M 293.103 137.931 L 310.345 137.931 L 310.345 155.172 L 293.103 155.172 L 293.103 137.931 Z M 327.586 137.931 L 344.828 137.931 L 344.828 155.172 L 327.586 155.172 L 327.586 137.931 Z M 344.828 137.931 L 362.069 137.931 L 362.069 155.172 L 344.828 155.172 L 344.828 137.931 Z M 362.069 137.931 L 379.31 137.931 L 379.31 155.172 L 362.069 155.172 L 362.069 137.931 Z M 379.31 137.931 L 396.552 137.931 L 396.552 155.172 L 379.31 155.172 L 379.31 137.931 Z M 448.276 137.931 L 465.517 137.931 L 465.517 155.172 L 448.276 155.172 L 448.276 137.931 Z M 0 155.172 L 17.241 155.172 L 17.241 172.414 L 0 172.414 L 0 155.172 Z M 17.241 155.172 L 34.483 155.172 L 34.483 172.414 L 17.241 172.414 L 17.241 155.172 Z M 34.483 155.172 L 51.724 155.172 L 51.724 172.414 L 34.483 172.414 L 34.483 155.172 Z M 86.207 155.172 L 103.448 155.172 L 103.448 172.414 L 86.207 172.414 L 86.207 155.172 Z M 137.931 155.172 L 155.172 155.172 L 155.172 172.414 L 137.931 172.414 L 137.931 155.172 Z M 155.172 155.172 L 172.414 155.172 L 172.414 172.414 L 155.172 172.414 L 155.172 155.172 Z M 189.655 155.172 L 206.897 155.172 L 206.897 172.414 L 189.655 172.414 L 189.655 155.172 Z M 206.897 155.172 L 224.138 155.172 L 224.138 172.414 L 206.897 172.414 L 206.897 155.172 Z M 224.138 155.172 L 241.379 155.172 L 241.379 172.414 L 224.138 172.414 L 224.138 155.172 Z M 275.862 155.172 L 293.103 155.172 L 293.103 172.414 L 275.862 172.414 L 275.862 155.172 Z M 362.069 155.172 L 379.31 155.172 L 379.31 172.414 L 362.069 172.414 L 362.069 155.172 Z M 379.31 155.172 L 396.552 155.172 L 396.552 172.414 L 379.31 172.414 L 379.31 155.172 Z M 431.034 155.172 L 448.276 155.172 L 448.276 172.414 L 431.034 172.414 L 431.034 155.172 Z M 482.759 155.172 L 500 155.172 L 500 172.414 L 482.759 172.414 L 482.759 155.172 Z M 0 172.414 L 17.241 172.414 L 17.241 189.655 L 0 189.655 L 0 172.414 Z M 17.241 172.414 L 34.483 172.414 L 34.483 189.655 L 17.241 189.655 L 17.241 172.414 Z M 51.724 172.414 L 68.966 172.414 L 68.966 189.655 L 51.724 189.655 L 51.724 172.414 Z M 103.448 172.414 L 120.69 172.414 L 120.69 189.655 L 103.448 189.655 L 103.448 172.414 Z M 120.69 172.414 L 137.931 172.414 L 137.931 189.655 L 120.69 189.655 L 120.69 172.414 Z M 172.414 172.414 L 189.655 172.414 L 189.655 189.655 L 172.414 189.655 L 172.414 172.414 Z M 189.655 172.414 L 206.897 172.414 L 206.897 189.655 L 189.655 189.655 L 189.655 172.414 Z M 206.897 172.414 L 224.138 172.414 L 224.138 189.655 L 206.897 189.655 L 206.897 172.414 Z M 241.379 172.414 L 258.621 172.414 L 258.621 189.655 L 241.379 189.655 L 241.379 172.414 Z M 293.103 172.414 L 310.345 172.414 L 310.345 189.655 L 293.103 189.655 L 293.103 172.414 Z M 379.31 172.414 L 396.552 172.414 L 396.552 189.655 L 379.31 189.655 L 379.31 172.414 Z M 396.552 172.414 L 413.793 172.414 L 413.793 189.655 L 396.552 189.655 L 396.552 172.414 Z M 413.793 172.414 L 431.034 172.414 L 431.034 189.655 L 413.793 189.655 L 413.793 172.414 Z M 448.276 172.414 L 465.517 172.414 L 465.517 189.655 L 448.276 189.655 L 448.276 172.414 Z M 465.517 172.414 L 482.759 172.414 L 482.759 189.655 L 465.517 189.655 L 465.517 172.414 Z M 482.759 172.414 L 500 172.414 L 500 189.655 L 482.759 189.655 L 482.759 172.414 Z M 0 189.655 L 17.241 189.655 L 17.241 206.897 L 0 206.897 L 0 189.655 Z M 17.241 189.655 L 34.483 189.655 L 34.483 206.897 L 17.241 206.897 L 17.241 189.655 Z M 51.724 189.655 L 68.966 189.655 L 68.966 206.897 L 51.724 206.897 L 51.724 189.655 Z M 137.931 189.655 L 155.172 189.655 L 155.172 206.897 L 137.931 206.897 L 137.931 189.655 Z M 155.172 189.655 L 172.414 189.655 L 172.414 206.897 L 155.172 206.897 L 155.172 189.655 Z M 172.414 189.655 L 189.655 189.655 L 189.655 206.897 L 172.414 206.897 L 172.414 189.655 Z M 206.897 189.655 L 224.138 189.655 L 224.138 206.897 L 206.897 206.897 L 206.897 189.655 Z M 224.138 189.655 L 241.379 189.655 L 241.379 206.897 L 224.138 206.897 L 224.138 189.655 Z M 241.379 189.655 L 258.621 189.655 L 258.621 206.897 L 241.379 206.897 L 241.379 189.655 Z M 258.621 189.655 L 275.862 189.655 L 275.862 206.897 L 258.621 206.897 L 258.621 189.655 Z M 275.862 189.655 L 293.103 189.655 L 293.103 206.897 L 275.862 206.897 L 275.862 189.655 Z M 293.103 189.655 L 310.345 189.655 L 310.345 206.897 L 293.103 206.897 L 293.103 189.655 Z M 310.345 189.655 L 327.586 189.655 L 327.586 206.897 L 310.345 206.897 L 310.345 189.655 Z M 327.586 189.655 L 344.828 189.655 L 344.828 206.897 L 327.586 206.897 L 327.586 189.655 Z M 344.828 189.655 L 362.069 189.655 L 362.069 206.897 L 344.828 206.897 L 344.828 189.655 Z M 362.069 189.655 L 379.31 189.655 L 379.31 206.897 L 362.069 206.897 L 362.069 189.655 Z M 379.31 189.655 L 396.552 189.655 L 396.552 206.897 L 379.31 206.897 L 379.31 189.655 Z M 396.552 189.655 L 413.793 189.655 L 413.793 206.897 L 396.552 206.897 L 396.552 189.655 Z M 413.793 189.655 L 431.034 189.655 L 431.034 206.897 L 413.793 206.897 L 413.793 189.655 Z M 465.517 189.655 L 482.759 189.655 L 482.759 206.897 L 465.517 206.897 L 465.517 189.655 Z M 0 206.897 L 17.241 206.897 L 17.241 224.138 L 0 224.138 L 0 206.897 Z M 34.483 206.897 L 51.724 206.897 L 51.724 224.138 L 34.483 224.138 L 34.483 206.897 Z M 68.966 206.897 L 86.207 206.897 L 86.207 224.138 L 68.966 224.138 L 68.966 206.897 Z M 103.448 206.897 L 120.69 206.897 L 120.69 224.138 L 103.448 224.138 L 103.448 206.897 Z M 120.69 206.897 L 137.931 206.897 L 137.931 224.138 L 120.69 224.138 L 120.69 206.897 Z M 137.931 206.897 L 155.172 206.897 L 155.172 224.138 L 137.931 224.138 L 137.931 206.897 Z M 172.414 206.897 L 189.655 206.897 L 189.655 224.138 L 172.414 224.138 L 172.414 206.897 Z M 189.655 206.897 L 206.897 206.897 L 206.897 224.138 L 189.655 224.138 L 189.655 206.897 Z M 241.379 206.897 L 258.621 206.897 L 258.621 224.138 L 241.379 224.138 L 241.379 206.897 Z M 275.862 206.897 L 293.103 206.897 L 293.103 224.138 L 275.862 224.138 L 275.862 206.897 Z M 293.103 206.897 L 310.345 206.897 L 310.345 224.138 L 293.103 224.138 L 293.103 206.897 Z M 327.586 206.897 L 344.828 206.897 L 344.828 224.138 L 327.586 224.138 L 327.586 206.897 Z M 344.828 206.897 L 362.069 206.897 L 362.069 224.138 L 344.828 224.138 L 344.828 206.897 Z M 362.069 206.897 L 379.31 206.897 L 379.31 224.138 L 362.069 224.138 L 362.069 206.897 Z M 379.31 206.897 L 396.552 206.897 L 396.552 224.138 L 379.31 224.138 L 379.31 206.897 Z M 431.034 206.897 L 448.276 206.897 L 448.276 224.138 L 431.034 224.138 L 431.034 206.897 Z M 465.517 206.897 L 482.759 206.897 L 482.759 224.138 L 465.517 224.138 L 465.517 206.897 Z M 482.759 206.897 L 500 206.897 L 500 224.138 L 482.759 224.138 L 482.759 206.897 Z M 0 224.138 L 17.241 224.138 L 17.241 241.379 L 0 241.379 L 0 224.138 Z M 34.483 224.138 L 51.724 224.138 L 51.724 241.379 L 34.483 241.379 L 34.483 224.138 Z M 51.724 224.138 L 68.966 224.138 L 68.966 241.379 L 51.724 241.379 L 51.724 224.138 Z M 68.966 224.138 L 86.207 224.138 L 86.207 241.379 L 68.966 241.379 L 68.966 224.138 Z M 86.207 224.138 L 103.448 224.138 L 103.448 241.379 L 86.207 241.379 L 86.207 224.138 Z M 137.931 224.138 L 155.172 224.138 L 155.172 241.379 L 137.931 241.379 L 137.931 224.138 Z M 172.414 224.138 L 189.655 224.138 L 189.655 241.379 L 172.414 241.379 L 172.414 224.138 Z M 189.655 224.138 L 206.897 224.138 L 206.897 241.379 L 189.655 241.379 L 189.655 224.138 Z M 241.379 224.138 L 258.621 224.138 L 258.621 241.379 L 241.379 241.379 L 241.379 224.138 Z M 275.862 224.138 L 293.103 224.138 L 293.103 241.379 L 275.862 241.379 L 275.862 224.138 Z M 293.103 224.138 L 310.345 224.138 L 310.345 241.379 L 293.103 241.379 L 293.103 224.138 Z M 344.828 224.138 L 362.069 224.138 L 362.069 241.379 L 344.828 241.379 L 344.828 224.138 Z M 379.31 224.138 L 396.552 224.138 L 396.552 241.379 L 379.31 241.379 L 379.31 224.138 Z M 431.034 224.138 L 448.276 224.138 L 448.276 241.379 L 431.034 241.379 L 431.034 224.138 Z M 482.759 224.138 L 500 224.138 L 500 241.379 L 482.759 241.379 L 482.759 224.138 Z M 34.483 241.379 L 51.724 241.379 L 51.724 258.621 L 34.483 258.621 L 34.483 241.379 Z M 68.966 241.379 L 86.207 241.379 L 86.207 258.621 L 68.966 258.621 L 68.966 241.379 Z M 103.448 241.379 L 120.69 241.379 L 120.69 258.621 L 103.448 258.621 L 103.448 241.379 Z M 172.414 241.379 L 189.655 241.379 L 189.655 258.621 L 172.414 258.621 L 172.414 241.379 Z M 224.138 241.379 L 241.379 241.379 L 241.379 258.621 L 224.138 258.621 L 224.138 241.379 Z M 275.862 241.379 L 293.103 241.379 L 293.103 258.621 L 275.862 258.621 L 275.862 241.379 Z M 293.103 241.379 L 310.345 241.379 L 310.345 258.621 L 293.103 258.621 L 293.103 241.379 Z M 310.345 241.379 L 327.586 241.379 L 327.586 258.621 L 310.345 258.621 L 310.345 241.379 Z M 379.31 241.379 L 396.552 241.379 L 396.552 258.621 L 379.31 258.621 L 379.31 241.379 Z M 396.552 241.379 L 413.793 241.379 L 413.793 258.621 L 396.552 258.621 L 396.552 241.379 Z M 431.034 241.379 L 448.276 241.379 L 448.276 258.621 L 431.034 258.621 L 431.034 241.379 Z M 465.517 241.379 L 482.759 241.379 L 482.759 258.621 L 465.517 258.621 L 465.517 241.379 Z M 482.759 241.379 L 500 241.379 L 500 258.621 L 482.759 258.621 L 482.759 241.379 Z M 0 258.621 L 17.241 258.621 L 17.241 275.862 L 0 275.862 L 0 258.621 Z M 34.483 258.621 L 51.724 258.621 L 51.724 275.862 L 34.483 275.862 L 34.483 258.621 Z M 68.966 258.621 L 86.207 258.621 L 86.207 275.862 L 68.966 275.862 L 68.966 258.621 Z M 86.207 258.621 L 103.448 258.621 L 103.448 275.862 L 86.207 275.862 L 86.207 258.621 Z M 137.931 258.621 L 155.172 258.621 L 155.172 275.862 L 137.931 275.862 L 137.931 258.621 Z M 172.414 258.621 L 189.655 258.621 L 189.655 275.862 L 172.414 275.862 L 172.414 258.621 Z M 189.655 258.621 L 206.897 258.621 L 206.897 275.862 L 189.655 275.862 L 189.655 258.621 Z M 275.862 258.621 L 293.103 258.621 L 293.103 275.862 L 275.862 275.862 L 275.862 258.621 Z M 293.103 258.621 L 310.345 258.621 L 310.345 275.862 L 293.103 275.862 L 293.103 258.621 Z M 310.345 258.621 L 327.586 258.621 L 327.586 275.862 L 310.345 275.862 L 310.345 258.621 Z M 344.828 258.621 L 362.069 258.621 L 362.069 275.862 L 344.828 275.862 L 344.828 258.621 Z M 379.31 258.621 L 396.552 258.621 L 396.552 275.862 L 379.31 275.862 L 379.31 258.621 Z M 431.034 258.621 L 448.276 258.621 L 448.276 275.862 L 431.034 275.862 L 431.034 258.621 Z M 465.517 258.621 L 482.759 258.621 L 482.759 275.862 L 465.517 275.862 L 465.517 258.621 Z M 17.241 275.862 L 34.483 275.862 L 34.483 293.103 L 17.241 293.103 L 17.241 275.862 Z M 51.724 275.862 L 68.966 275.862 L 68.966 293.103 L 51.724 293.103 L 51.724 275.862 Z M 103.448 275.862 L 120.69 275.862 L 120.69 293.103 L 103.448 293.103 L 103.448 275.862 Z M 120.69 275.862 L 137.931 275.862 L 137.931 293.103 L 120.69 293.103 L 120.69 275.862 Z M 155.172 275.862 L 172.414 275.862 L 172.414 293.103 L 155.172 293.103 L 155.172 275.862 Z M 172.414 275.862 L 189.655 275.862 L 189.655 293.103 L 172.414 293.103 L 172.414 275.862 Z M 206.897 275.862 L 224.138 275.862 L 224.138 293.103 L 206.897 293.103 L 206.897 275.862 Z M 293.103 275.862 L 310.345 275.862 L 310.345 293.103 L 293.103 293.103 L 293.103 275.862 Z M 327.586 275.862 L 344.828 275.862 L 344.828 293.103 L 327.586 293.103 L 327.586 275.862 Z M 344.828 275.862 L 362.069 275.862 L 362.069 293.103 L 344.828 293.103 L 344.828 275.862 Z M 362.069 275.862 L 379.31 275.862 L 379.31 293.103 L 362.069 293.103 L 362.069 275.862 Z M 379.31 275.862 L 396.552 275.862 L 396.552 293.103 L 379.31 293.103 L 379.31 275.862 Z M 431.034 275.862 L 448.276 275.862 L 448.276 293.103 L 431.034 293.103 L 431.034 275.862 Z M 465.517 275.862 L 482.759 275.862 L 482.759 293.103 L 465.517 293.103 L 465.517 275.862 Z M 482.759 275.862 L 500 275.862 L 500 293.103 L 482.759 293.103 L 482.759 275.862 Z M 17.241 293.103 L 34.483 293.103 L 34.483 310.345 L 17.241 310.345 L 17.241 293.103 Z M 86.207 293.103 L 103.448 293.103 L 103.448 310.345 L 86.207 310.345 L 86.207 293.103 Z M 120.69 293.103 L 137.931 293.103 L 137.931 310.345 L 120.69 310.345 L 120.69 293.103 Z M 189.655 293.103 L 206.897 293.103 L 206.897 310.345 L 189.655 310.345 L 189.655 293.103 Z M 206.897 293.103 L 224.138 293.103 L 224.138 310.345 L 206.897 310.345 L 206.897 293.103 Z M 224.138 293.103 L 241.379 293.103 L 241.379 310.345 L 224.138 310.345 L 224.138 293.103 Z M 275.862 293.103 L 293.103 293.103 L 293.103 310.345 L 275.862 310.345 L 275.862 293.103 Z M 344.828 293.103 L 362.069 293.103 L 362.069 310.345 L 344.828 310.345 L 344.828 293.103 Z M 362.069 293.103 L 379.31 293.103 L 379.31 310.345 L 362.069 310.345 L 362.069 293.103 Z M 379.31 293.103 L 396.552 293.103 L 396.552 310.345 L 379.31 310.345 L 379.31 293.103 Z M 431.034 293.103 L 448.276 293.103 L 448.276 310.345 L 431.034 310.345 L 431.034 293.103 Z M 448.276 293.103 L 465.517 293.103 L 465.517 310.345 L 448.276 310.345 L 448.276 293.103 Z M 482.759 293.103 L 500 293.103 L 500 310.345 L 482.759 310.345 L 482.759 293.103 Z M 0 310.345 L 17.241 310.345 L 17.241 327.586 L 0 327.586 L 0 310.345 Z M 51.724 310.345 L 68.966 310.345 L 68.966 327.586 L 51.724 327.586 L 51.724 310.345 Z M 68.966 310.345 L 86.207 310.345 L 86.207 327.586 L 68.966 327.586 L 68.966 310.345 Z M 86.207 310.345 L 103.448 310.345 L 103.448 327.586 L 86.207 327.586 L 86.207 310.345 Z M 103.448 310.345 L 120.69 310.345 L 120.69 327.586 L 103.448 327.586 L 103.448 310.345 Z M 120.69 310.345 L 137.931 310.345 L 137.931 327.586 L 120.69 327.586 L 120.69 310.345 Z M 137.931 310.345 L 155.172 310.345 L 155.172 327.586 L 137.931 327.586 L 137.931 310.345 Z M 155.172 310.345 L 172.414 310.345 L 172.414 327.586 L 155.172 327.586 L 155.172 310.345 Z M 189.655 310.345 L 206.897 310.345 L 206.897 327.586 L 189.655 327.586 L 189.655 310.345 Z M 206.897 310.345 L 224.138 310.345 L 224.138 327.586 L 206.897 327.586 L 206.897 310.345 Z M 241.379 310.345 L 258.621 310.345 L 258.621 327.586 L 241.379 327.586 L 241.379 310.345 Z M 310.345 310.345 L 327.586 310.345 L 327.586 327.586 L 310.345 327.586 L 310.345 310.345 Z M 362.069 310.345 L 379.31 310.345 L 379.31 327.586 L 362.069 327.586 L 362.069 310.345 Z M 413.793 310.345 L 431.034 310.345 L 431.034 327.586 L 413.793 327.586 L 413.793 310.345 Z M 465.517 310.345 L 482.759 310.345 L 482.759 327.586 L 465.517 327.586 L 465.517 310.345 Z M 482.759 310.345 L 500 310.345 L 500 327.586 L 482.759 327.586 L 482.759 310.345 Z M 17.241 327.586 L 34.483 327.586 L 34.483 344.828 L 17.241 344.828 L 17.241 327.586 Z M 68.966 327.586 L 86.207 327.586 L 86.207 344.828 L 68.966 344.828 L 68.966 327.586 Z M 120.69 327.586 L 137.931 327.586 L 137.931 344.828 L 120.69 344.828 L 120.69 327.586 Z M 172.414 327.586 L 189.655 327.586 L 189.655 344.828 L 172.414 344.828 L 172.414 327.586 Z M 206.897 327.586 L 224.138 327.586 L 224.138 344.828 L 206.897 344.828 L 206.897 327.586 Z M 224.138 327.586 L 241.379 327.586 L 241.379 344.828 L 224.138 344.828 L 224.138 327.586 Z M 241.379 327.586 L 258.621 327.586 L 258.621 344.828 L 241.379 344.828 L 241.379 327.586 Z M 258.621 327.586 L 275.862 327.586 L 275.862 344.828 L 258.621 344.828 L 258.621 327.586 Z M 293.103 327.586 L 310.345 327.586 L 310.345 344.828 L 293.103 344.828 L 293.103 327.586 Z M 310.345 327.586 L 327.586 327.586 L 327.586 344.828 L 310.345 344.828 L 310.345 327.586 Z M 379.31 327.586 L 396.552 327.586 L 396.552 344.828 L 379.31 344.828 L 379.31 327.586 Z M 396.552 327.586 L 413.793 327.586 L 413.793 344.828 L 396.552 344.828 L 396.552 327.586 Z M 431.034 327.586 L 448.276 327.586 L 448.276 344.828 L 431.034 344.828 L 431.034 327.586 Z M 465.517 327.586 L 482.759 327.586 L 482.759 344.828 L 465.517 344.828 L 465.517 327.586 Z M 0 344.828 L 17.241 344.828 L 17.241 362.069 L 0 362.069 L 0 344.828 Z M 34.483 344.828 L 51.724 344.828 L 51.724 362.069 L 34.483 362.069 L 34.483 344.828 Z M 68.966 344.828 L 86.207 344.828 L 86.207 362.069 L 68.966 362.069 L 68.966 344.828 Z M 103.448 344.828 L 120.69 344.828 L 120.69 362.069 L 103.448 362.069 L 103.448 344.828 Z M 120.69 344.828 L 137.931 344.828 L 137.931 362.069 L 120.69 362.069 L 120.69 344.828 Z M 137.931 344.828 L 155.172 344.828 L 155.172 362.069 L 137.931 362.069 L 137.931 344.828 Z M 155.172 344.828 L 172.414 344.828 L 172.414 362.069 L 155.172 362.069 L 155.172 344.828 Z M 189.655 344.828 L 206.897 344.828 L 206.897 362.069 L 189.655 362.069 L 189.655 344.828 Z M 241.379 344.828 L 258.621 344.828 L 258.621 362.069 L 241.379 362.069 L 241.379 344.828 Z M 258.621 344.828 L 275.862 344.828 L 275.862 362.069 L 258.621 362.069 L 258.621 344.828 Z M 275.862 344.828 L 293.103 344.828 L 293.103 362.069 L 275.862 362.069 L 275.862 344.828 Z M 293.103 344.828 L 310.345 344.828 L 310.345 362.069 L 293.103 362.069 L 293.103 344.828 Z M 344.828 344.828 L 362.069 344.828 L 362.069 362.069 L 344.828 362.069 L 344.828 344.828 Z M 362.069 344.828 L 379.31 344.828 L 379.31 362.069 L 362.069 362.069 L 362.069 344.828 Z M 379.31 344.828 L 396.552 344.828 L 396.552 362.069 L 379.31 362.069 L 379.31 344.828 Z M 396.552 344.828 L 413.793 344.828 L 413.793 362.069 L 396.552 362.069 L 396.552 344.828 Z M 413.793 344.828 L 431.034 344.828 L 431.034 362.069 L 413.793 362.069 L 413.793 344.828 Z M 137.931 362.069 L 155.172 362.069 L 155.172 379.31 L 137.931 379.31 L 137.931 362.069 Z M 172.414 362.069 L 189.655 362.069 L 189.655 379.31 L 172.414 379.31 L 172.414 362.069 Z M 189.655 362.069 L 206.897 362.069 L 206.897 379.31 L 189.655 379.31 L 189.655 362.069 Z M 241.379 362.069 L 258.621 362.069 L 258.621 379.31 L 241.379 379.31 L 241.379 362.069 Z M 275.862 362.069 L 293.103 362.069 L 293.103 379.31 L 275.862 379.31 L 275.862 362.069 Z M 293.103 362.069 L 310.345 362.069 L 310.345 379.31 L 293.103 379.31 L 293.103 362.069 Z M 327.586 362.069 L 344.828 362.069 L 344.828 379.31 L 327.586 379.31 L 327.586 362.069 Z M 344.828 362.069 L 362.069 362.069 L 362.069 379.31 L 344.828 379.31 L 344.828 362.069 Z M 413.793 362.069 L 431.034 362.069 L 431.034 379.31 L 413.793 379.31 L 413.793 362.069 Z M 448.276 362.069 L 465.517 362.069 L 465.517 379.31 L 448.276 379.31 L 448.276 362.069 Z M 465.517 362.069 L 482.759 362.069 L 482.759 379.31 L 465.517 379.31 L 465.517 362.069 Z M 482.759 362.069 L 500 362.069 L 500 379.31 L 482.759 379.31 L 482.759 362.069 Z M 0 379.31 L 17.241 379.31 L 17.241 396.552 L 0 396.552 L 0 379.31 Z M 17.241 379.31 L 34.483 379.31 L 34.483 396.552 L 17.241 396.552 L 17.241 379.31 Z M 34.483 379.31 L 51.724 379.31 L 51.724 396.552 L 34.483 396.552 L 34.483 379.31 Z M 51.724 379.31 L 68.966 379.31 L 68.966 396.552 L 51.724 396.552 L 51.724 379.31 Z M 68.966 379.31 L 86.207 379.31 L 86.207 396.552 L 68.966 396.552 L 68.966 379.31 Z M 86.207 379.31 L 103.448 379.31 L 103.448 396.552 L 86.207 396.552 L 86.207 379.31 Z M 103.448 379.31 L 120.69 379.31 L 120.69 396.552 L 103.448 396.552 L 103.448 379.31 Z M 137.931 379.31 L 155.172 379.31 L 155.172 396.552 L 137.931 396.552 L 137.931 379.31 Z M 155.172 379.31 L 172.414 379.31 L 172.414 396.552 L 155.172 396.552 L 155.172 379.31 Z M 224.138 379.31 L 241.379 379.31 L 241.379 396.552 L 224.138 396.552 L 224.138 379.31 Z M 275.862 379.31 L 293.103 379.31 L 293.103 396.552 L 275.862 396.552 L 275.862 379.31 Z M 310.345 379.31 L 327.586 379.31 L 327.586 396.552 L 310.345 396.552 L 310.345 379.31 Z M 327.586 379.31 L 344.828 379.31 L 344.828 396.552 L 327.586 396.552 L 327.586 379.31 Z M 344.828 379.31 L 362.069 379.31 L 362.069 396.552 L 344.828 396.552 L 344.828 379.31 Z M 379.31 379.31 L 396.552 379.31 L 396.552 396.552 L 379.31 396.552 L 379.31 379.31 Z M 413.793 379.31 L 431.034 379.31 L 431.034 396.552 L 413.793 396.552 L 413.793 379.31 Z M 431.034 379.31 L 448.276 379.31 L 448.276 396.552 L 431.034 396.552 L 431.034 379.31 Z M 465.517 379.31 L 482.759 379.31 L 482.759 396.552 L 465.517 396.552 L 465.517 379.31 Z M 482.759 379.31 L 500 379.31 L 500 396.552 L 482.759 396.552 L 482.759 379.31 Z M 0 396.552 L 17.241 396.552 L 17.241 413.793 L 0 413.793 L 0 396.552 Z M 103.448 396.552 L 120.69 396.552 L 120.69 413.793 L 103.448 413.793 L 103.448 396.552 Z M 137.931 396.552 L 155.172 396.552 L 155.172 413.793 L 137.931 413.793 L 137.931 396.552 Z M 172.414 396.552 L 189.655 396.552 L 189.655 413.793 L 172.414 413.793 L 172.414 396.552 Z M 189.655 396.552 L 206.897 396.552 L 206.897 413.793 L 189.655 413.793 L 189.655 396.552 Z M 258.621 396.552 L 275.862 396.552 L 275.862 413.793 L 258.621 413.793 L 258.621 396.552 Z M 275.862 396.552 L 293.103 396.552 L 293.103 413.793 L 275.862 413.793 L 275.862 396.552 Z M 293.103 396.552 L 310.345 396.552 L 310.345 413.793 L 293.103 413.793 L 293.103 396.552 Z M 310.345 396.552 L 327.586 396.552 L 327.586 413.793 L 310.345 413.793 L 310.345 396.552 Z M 344.828 396.552 L 362.069 396.552 L 362.069 413.793 L 344.828 413.793 L 344.828 396.552 Z M 413.793 396.552 L 431.034 396.552 L 431.034 413.793 L 413.793 413.793 L 413.793 396.552 Z M 431.034 396.552 L 448.276 396.552 L 448.276 413.793 L 431.034 413.793 L 431.034 396.552 Z M 482.759 396.552 L 500 396.552 L 500 413.793 L 482.759 413.793 L 482.759 396.552 Z M 0 413.793 L 17.241 413.793 L 17.241 431.034 L 0 431.034 L 0 413.793 Z M 34.483 413.793 L 51.724 413.793 L 51.724 431.034 L 34.483 431.034 L 34.483 413.793 Z M 51.724 413.793 L 68.966 413.793 L 68.966 431.034 L 51.724 431.034 L 51.724 413.793 Z M 68.966 413.793 L 86.207 413.793 L 86.207 431.034 L 68.966 431.034 L 68.966 413.793 Z M 103.448 413.793 L 120.69 413.793 L 120.69 431.034 L 103.448 431.034 L 103.448 413.793 Z M 137.931 413.793 L 155.172 413.793 L 155.172 431.034 L 137.931 431.034 L 137.931 413.793 Z M 155.172 413.793 L 172.414 413.793 L 172.414 431.034 L 155.172 431.034 L 155.172 413.793 Z M 206.897 413.793 L 224.138 413.793 L 224.138 431.034 L 206.897 431.034 L 206.897 413.793 Z M 258.621 413.793 L 275.862 413.793 L 275.862 431.034 L 258.621 431.034 L 258.621 413.793 Z M 275.862 413.793 L 293.103 413.793 L 293.103 431.034 L 275.862 431.034 L 275.862 413.793 Z M 293.103 413.793 L 310.345 413.793 L 310.345 431.034 L 293.103 431.034 L 293.103 413.793 Z M 344.828 413.793 L 362.069 413.793 L 362.069 431.034 L 344.828 431.034 L 344.828 413.793 Z M 362.069 413.793 L 379.31 413.793 L 379.31 431.034 L 362.069 431.034 L 362.069 413.793 Z M 379.31 413.793 L 396.552 413.793 L 396.552 431.034 L 379.31 431.034 L 379.31 413.793 Z M 396.552 413.793 L 413.793 413.793 L 413.793 431.034 L 396.552 431.034 L 396.552 413.793 Z M 413.793 413.793 L 431.034 413.793 L 431.034 431.034 L 413.793 431.034 L 413.793 413.793 Z M 482.759 413.793 L 500 413.793 L 500 431.034 L 482.759 431.034 L 482.759 413.793 Z M 0 431.034 L 17.241 431.034 L 17.241 448.276 L 0 448.276 L 0 431.034 Z M 34.483 431.034 L 51.724 431.034 L 51.724 448.276 L 34.483 448.276 L 34.483 431.034 Z M 51.724 431.034 L 68.966 431.034 L 68.966 448.276 L 51.724 448.276 L 51.724 431.034 Z M 68.966 431.034 L 86.207 431.034 L 86.207 448.276 L 68.966 448.276 L 68.966 431.034 Z M 103.448 431.034 L 120.69 431.034 L 120.69 448.276 L 103.448 448.276 L 103.448 431.034 Z M 155.172 431.034 L 172.414 431.034 L 172.414 448.276 L 155.172 448.276 L 155.172 431.034 Z M 189.655 431.034 L 206.897 431.034 L 206.897 448.276 L 189.655 448.276 L 189.655 431.034 Z M 206.897 431.034 L 224.138 431.034 L 224.138 448.276 L 206.897 448.276 L 206.897 431.034 Z M 224.138 431.034 L 241.379 431.034 L 241.379 448.276 L 224.138 448.276 L 224.138 431.034 Z M 275.862 431.034 L 293.103 431.034 L 293.103 448.276 L 275.862 448.276 L 275.862 431.034 Z M 327.586 431.034 L 344.828 431.034 L 344.828 448.276 L 327.586 448.276 L 327.586 431.034 Z M 344.828 431.034 L 362.069 431.034 L 362.069 448.276 L 344.828 448.276 L 344.828 431.034 Z M 413.793 431.034 L 431.034 431.034 L 431.034 448.276 L 413.793 448.276 L 413.793 431.034 Z M 448.276 431.034 L 465.517 431.034 L 465.517 448.276 L 448.276 448.276 L 448.276 431.034 Z M 465.517 431.034 L 482.759 431.034 L 482.759 448.276 L 465.517 448.276 L 465.517 431.034 Z M 482.759 431.034 L 500 431.034 L 500 448.276 L 482.759 448.276 L 482.759 431.034 Z M 0 448.276 L 17.241 448.276 L 17.241 465.517 L 0 465.517 L 0 448.276 Z M 34.483 448.276 L 51.724 448.276 L 51.724 465.517 L 34.483 465.517 L 34.483 448.276 Z M 51.724 448.276 L 68.966 448.276 L 68.966 465.517 L 51.724 465.517 L 51.724 448.276 Z M 68.966 448.276 L 86.207 448.276 L 86.207 465.517 L 68.966 465.517 L 68.966 448.276 Z M 103.448 448.276 L 120.69 448.276 L 120.69 465.517 L 103.448 465.517 L 103.448 448.276 Z M 137.931 448.276 L 155.172 448.276 L 155.172 465.517 L 137.931 465.517 L 137.931 448.276 Z M 189.655 448.276 L 206.897 448.276 L 206.897 465.517 L 189.655 465.517 L 189.655 448.276 Z M 206.897 448.276 L 224.138 448.276 L 224.138 465.517 L 206.897 465.517 L 206.897 448.276 Z M 241.379 448.276 L 258.621 448.276 L 258.621 465.517 L 241.379 465.517 L 241.379 448.276 Z M 327.586 448.276 L 344.828 448.276 L 344.828 465.517 L 327.586 465.517 L 327.586 448.276 Z M 396.552 448.276 L 413.793 448.276 L 413.793 465.517 L 396.552 465.517 L 396.552 448.276 Z M 413.793 448.276 L 431.034 448.276 L 431.034 465.517 L 413.793 465.517 L 413.793 448.276 Z M 431.034 448.276 L 448.276 448.276 L 448.276 465.517 L 431.034 465.517 L 431.034 448.276 Z M 482.759 448.276 L 500 448.276 L 500 465.517 L 482.759 465.517 L 482.759 448.276 Z M 0 465.517 L 17.241 465.517 L 17.241 482.759 L 0 482.759 L 0 465.517 Z M 103.448 465.517 L 120.69 465.517 L 120.69 482.759 L 103.448 482.759 L 103.448 465.517 Z M 137.931 465.517 L 155.172 465.517 L 155.172 482.759 L 137.931 482.759 L 137.931 465.517 Z M 155.172 465.517 L 172.414 465.517 L 172.414 482.759 L 155.172 482.759 L 155.172 465.517 Z M 206.897 465.517 L 224.138 465.517 L 224.138 482.759 L 206.897 482.759 L 206.897 465.517 Z M 224.138 465.517 L 241.379 465.517 L 241.379 482.759 L 224.138 482.759 L 224.138 465.517 Z M 241.379 465.517 L 258.621 465.517 L 258.621 482.759 L 241.379 482.759 L 241.379 465.517 Z M 258.621 465.517 L 275.862 465.517 L 275.862 482.759 L 258.621 482.759 L 258.621 465.517 Z M 275.862 465.517 L 293.103 465.517 L 293.103 482.759 L 275.862 482.759 L 275.862 465.517 Z M 293.103 465.517 L 310.345 465.517 L 310.345 482.759 L 293.103 482.759 L 293.103 465.517 Z M 327.586 465.517 L 344.828 465.517 L 344.828 482.759 L 327.586 482.759 L 327.586 465.517 Z M 344.828 465.517 L 362.069 465.517 L 362.069 482.759 L 344.828 482.759 L 344.828 465.517 Z M 379.31 465.517 L 396.552 465.517 L 396.552 482.759 L 379.31 482.759 L 379.31 465.517 Z M 396.552 465.517 L 413.793 465.517 L 413.793 482.759 L 396.552 482.759 L 396.552 465.517 Z M 413.793 465.517 L 431.034 465.517 L 431.034 482.759 L 413.793 482.759 L 413.793 465.517 Z M 465.517 465.517 L 482.759 465.517 L 482.759 482.759 L 465.517 482.759 L 465.517 465.517 Z M 0 482.759 L 17.241 482.759 L 17.241 500 L 0 500 L 0 482.759 Z M 17.241 482.759 L 34.483 482.759 L 34.483 500 L 17.241 500 L 17.241 482.759 Z M 34.483 482.759 L 51.724 482.759 L 51.724 500 L 34.483 500 L 34.483 482.759 Z M 51.724 482.759 L 68.966 482.759 L 68.966 500 L 51.724 500 L 51.724 482.759 Z M 68.966 482.759 L 86.207 482.759 L 86.207 500 L 68.966 500 L 68.966 482.759 Z M 86.207 482.759 L 103.448 482.759 L 103.448 500 L 86.207 500 L 86.207 482.759 Z M 103.448 482.759 L 120.69 482.759 L 120.69 500 L 103.448 500 L 103.448 482.759 Z M 137.931 482.759 L 155.172 482.759 L 155.172 500 L 137.931 500 L 137.931 482.759 Z M 155.172 482.759 L 172.414 482.759 L 172.414 500 L 155.172 500 L 155.172 482.759 Z M 172.414 482.759 L 189.655 482.759 L 189.655 500 L 172.414 500 L 172.414 482.759 Z M 189.655 482.759 L 206.897 482.759 L 206.897 500 L 189.655 500 L 189.655 482.759 Z M 241.379 482.759 L 258.621 482.759 L 258.621 500 L 241.379 500 L 241.379 482.759 Z M 258.621 482.759 L 275.862 482.759 L 275.862 500 L 258.621 500 L 258.621 482.759 Z M 275.862 482.759 L 293.103 482.759 L 293.103 500 L 275.862 500 L 275.862 482.759 Z M 293.103 482.759 L 310.345 482.759 L 310.345 500 L 293.103 500 L 293.103 482.759 Z M 310.345 482.759 L 327.586 482.759 L 327.586 500 L 310.345 500 L 310.345 482.759 Z M 344.828 482.759 L 362.069 482.759 L 362.069 500 L 344.828 500 L 344.828 482.759 Z M 396.552 482.759 L 413.793 482.759 L 413.793 500 L 396.552 500 L 396.552 482.759 Z M 465.517 482.759 L 482.759 482.759 L 482.759 500 L 465.517 500 L 465.517 482.759 Z M 482.759 482.759 L 500 482.759 L 500 500 L 482.759 500 L 482.759 482.759 Z" stroke="transparent" style="fill: rgb(92, 147, 236);"></path> </svg>