<?xml version="1.0"?>
 <svg version="1.1" viewBox="0 0 358 358" fill="none" stroke="none" stroke-linecap="square" stroke-miterlimit="10" xmlns="http://www.w3.org/2000/svg" width="358" height="358"> <path d="M 0 0 L 12.345 0 L 12.345 12.345 L 0 12.345 L 0 0 Z M 12.345 0 L 24.69 0 L 24.69 12.345 L 12.345 12.345 L 12.345 0 Z M 24.69 0 L 37.034 0 L 37.034 12.345 L 24.69 12.345 L 24.69 0 Z M 37.034 0 L 49.379 0 L 49.379 12.345 L 37.034 12.345 L 37.034 0 Z M 49.379 0 L 61.724 0 L 61.724 12.345 L 49.379 12.345 L 49.379 0 Z M 61.724 0 L 74.069 0 L 74.069 12.345 L 61.724 12.345 L 61.724 0 Z M 74.069 0 L 86.414 0 L 86.414 12.345 L 74.069 12.345 L 74.069 0 Z M 98.759 0 L 111.103 0 L 111.103 12.345 L 98.759 12.345 L 98.759 0 Z M 123.448 0 L 135.793 0 L 135.793 12.345 L 123.448 12.345 L 123.448 0 Z M 148.138 0 L 160.483 0 L 160.483 12.345 L 148.138 12.345 L 148.138 0 Z M 160.483 0 L 172.828 0 L 172.828 12.345 L 160.483 12.345 L 160.483 0 Z M 197.517 0 L 209.862 0 L 209.862 12.345 L 197.517 12.345 L 197.517 0 Z M 222.207 0 L 234.552 0 L 234.552 12.345 L 222.207 12.345 L 222.207 0 Z M 234.552 0 L 246.897 0 L 246.897 12.345 L 234.552 12.345 L 234.552 0 Z M 246.897 0 L 259.241 0 L 259.241 12.345 L 246.897 12.345 L 246.897 0 Z M 271.586 0 L 283.931 0 L 283.931 12.345 L 271.586 12.345 L 271.586 0 Z M 283.931 0 L 296.276 0 L 296.276 12.345 L 283.931 12.345 L 283.931 0 Z M 296.276 0 L 308.621 0 L 308.621 12.345 L 296.276 12.345 L 296.276 0 Z M 308.621 0 L 320.966 0 L 320.966 12.345 L 308.621 12.345 L 308.621 0 Z M 320.966 0 L 333.31 0 L 333.31 12.345 L 320.966 12.345 L 320.966 0 Z M 333.31 0 L 345.655 0 L 345.655 12.345 L 333.31 12.345 L 333.31 0 Z M 345.655 0 L 358 0 L 358 12.345 L 345.655 12.345 L 345.655 0 Z M 0 12.345 L 12.345 12.345 L 12.345 24.69 L 0 24.69 L 0 12.345 Z M 74.069 12.345 L 86.414 12.345 L 86.414 24.69 L 74.069 24.69 L 74.069 12.345 Z M 111.103 12.345 L 123.448 12.345 L 123.448 24.69 L 111.103 24.69 L 111.103 12.345 Z M 123.448 12.345 L 135.793 12.345 L 135.793 24.69 L 123.448 24.69 L 123.448 12.345 Z M 135.793 12.345 L 148.138 12.345 L 148.138 24.69 L 135.793 24.69 L 135.793 12.345 Z M 148.138 12.345 L 160.483 12.345 L 160.483 24.69 L 148.138 24.69 L 148.138 12.345 Z M 160.483 12.345 L 172.828 12.345 L 172.828 24.69 L 160.483 24.69 L 160.483 12.345 Z M 197.517 12.345 L 209.862 12.345 L 209.862 24.69 L 197.517 24.69 L 197.517 12.345 Z M 271.586 12.345 L 283.931 12.345 L 283.931 24.69 L 271.586 24.69 L 271.586 12.345 Z M 345.655 12.345 L 358 12.345 L 358 24.69 L 345.655 24.69 L 345.655 12.345 Z M 0 24.69 L 12.345 24.69 L 12.345 37.034 L 0 37.034 L 0 24.69 Z M 24.69 24.69 L 37.034 24.69 L 37.034 37.034 L 24.69 37.034 L 24.69 24.69 Z M 37.034 24.69 L 49.379 24.69 L 49.379 37.034 L 37.034 37.034 L 37.034 24.69 Z M 49.379 24.69 L 61.724 24.69 L 61.724 37.034 L 49.379 37.034 L 49.379 24.69 Z M 74.069 24.69 L 86.414 24.69 L 86.414 37.034 L 74.069 37.034 L 74.069 24.69 Z M 98.759 24.69 L 111.103 24.69 L 111.103 37.034 L 98.759 37.034 L 98.759 24.69 Z M 111.103 24.69 L 123.448 24.69 L 123.448 37.034 L 111.103 37.034 L 111.103 24.69 Z M 123.448 24.69 L 135.793 24.69 L 135.793 37.034 L 123.448 37.034 L 123.448 24.69 Z M 160.483 24.69 L 172.828 24.69 L 172.828 37.034 L 160.483 37.034 L 160.483 24.69 Z M 197.517 24.69 L 209.862 24.69 L 209.862 37.034 L 197.517 37.034 L 197.517 24.69 Z M 222.207 24.69 L 234.552 24.69 L 234.552 37.034 L 222.207 37.034 L 222.207 24.69 Z M 246.897 24.69 L 259.241 24.69 L 259.241 37.034 L 246.897 37.034 L 246.897 24.69 Z M 271.586 24.69 L 283.931 24.69 L 283.931 37.034 L 271.586 37.034 L 271.586 24.69 Z M 296.276 24.69 L 308.621 24.69 L 308.621 37.034 L 296.276 37.034 L 296.276 24.69 Z M 308.621 24.69 L 320.966 24.69 L 320.966 37.034 L 308.621 37.034 L 308.621 24.69 Z M 320.966 24.69 L 333.31 24.69 L 333.31 37.034 L 320.966 37.034 L 320.966 24.69 Z M 345.655 24.69 L 358 24.69 L 358 37.034 L 345.655 37.034 L 345.655 24.69 Z M 0 37.034 L 12.345 37.034 L 12.345 49.379 L 0 49.379 L 0 37.034 Z M 24.69 37.034 L 37.034 37.034 L 37.034 49.379 L 24.69 49.379 L 24.69 37.034 Z M 37.034 37.034 L 49.379 37.034 L 49.379 49.379 L 37.034 49.379 L 37.034 37.034 Z M 49.379 37.034 L 61.724 37.034 L 61.724 49.379 L 49.379 49.379 L 49.379 37.034 Z M 74.069 37.034 L 86.414 37.034 L 86.414 49.379 L 74.069 49.379 L 74.069 37.034 Z M 98.759 37.034 L 111.103 37.034 L 111.103 49.379 L 98.759 49.379 L 98.759 37.034 Z M 111.103 37.034 L 123.448 37.034 L 123.448 49.379 L 111.103 49.379 L 111.103 37.034 Z M 123.448 37.034 L 135.793 37.034 L 135.793 49.379 L 123.448 49.379 L 123.448 37.034 Z M 148.138 37.034 L 160.483 37.034 L 160.483 49.379 L 148.138 49.379 L 148.138 37.034 Z M 160.483 37.034 L 172.828 37.034 L 172.828 49.379 L 160.483 49.379 L 160.483 37.034 Z M 172.828 37.034 L 185.172 37.034 L 185.172 49.379 L 172.828 49.379 L 172.828 37.034 Z M 209.862 37.034 L 222.207 37.034 L 222.207 49.379 L 209.862 49.379 L 209.862 37.034 Z M 234.552 37.034 L 246.897 37.034 L 246.897 49.379 L 234.552 49.379 L 234.552 37.034 Z M 271.586 37.034 L 283.931 37.034 L 283.931 49.379 L 271.586 49.379 L 271.586 37.034 Z M 296.276 37.034 L 308.621 37.034 L 308.621 49.379 L 296.276 49.379 L 296.276 37.034 Z M 308.621 37.034 L 320.966 37.034 L 320.966 49.379 L 308.621 49.379 L 308.621 37.034 Z M 320.966 37.034 L 333.31 37.034 L 333.31 49.379 L 320.966 49.379 L 320.966 37.034 Z M 345.655 37.034 L 358 37.034 L 358 49.379 L 345.655 49.379 L 345.655 37.034 Z M 0 49.379 L 12.345 49.379 L 12.345 61.724 L 0 61.724 L 0 49.379 Z M 24.69 49.379 L 37.034 49.379 L 37.034 61.724 L 24.69 61.724 L 24.69 49.379 Z M 37.034 49.379 L 49.379 49.379 L 49.379 61.724 L 37.034 61.724 L 37.034 49.379 Z M 49.379 49.379 L 61.724 49.379 L 61.724 61.724 L 49.379 61.724 L 49.379 49.379 Z M 74.069 49.379 L 86.414 49.379 L 86.414 61.724 L 74.069 61.724 L 74.069 49.379 Z M 98.759 49.379 L 111.103 49.379 L 111.103 61.724 L 98.759 61.724 L 98.759 49.379 Z M 135.793 49.379 L 148.138 49.379 L 148.138 61.724 L 135.793 61.724 L 135.793 49.379 Z M 148.138 49.379 L 160.483 49.379 L 160.483 61.724 L 148.138 61.724 L 148.138 49.379 Z M 172.828 49.379 L 185.172 49.379 L 185.172 61.724 L 172.828 61.724 L 172.828 49.379 Z M 185.172 49.379 L 197.517 49.379 L 197.517 61.724 L 185.172 61.724 L 185.172 49.379 Z M 197.517 49.379 L 209.862 49.379 L 209.862 61.724 L 197.517 61.724 L 197.517 49.379 Z M 234.552 49.379 L 246.897 49.379 L 246.897 61.724 L 234.552 61.724 L 234.552 49.379 Z M 246.897 49.379 L 259.241 49.379 L 259.241 61.724 L 246.897 61.724 L 246.897 49.379 Z M 271.586 49.379 L 283.931 49.379 L 283.931 61.724 L 271.586 61.724 L 271.586 49.379 Z M 296.276 49.379 L 308.621 49.379 L 308.621 61.724 L 296.276 61.724 L 296.276 49.379 Z M 308.621 49.379 L 320.966 49.379 L 320.966 61.724 L 308.621 61.724 L 308.621 49.379 Z M 320.966 49.379 L 333.31 49.379 L 333.31 61.724 L 320.966 61.724 L 320.966 49.379 Z M 345.655 49.379 L 358 49.379 L 358 61.724 L 345.655 61.724 L 345.655 49.379 Z M 0 61.724 L 12.345 61.724 L 12.345 74.069 L 0 74.069 L 0 61.724 Z M 74.069 61.724 L 86.414 61.724 L 86.414 74.069 L 74.069 74.069 L 74.069 61.724 Z M 123.448 61.724 L 135.793 61.724 L 135.793 74.069 L 123.448 74.069 L 123.448 61.724 Z M 135.793 61.724 L 148.138 61.724 L 148.138 74.069 L 135.793 74.069 L 135.793 61.724 Z M 172.828 61.724 L 185.172 61.724 L 185.172 74.069 L 172.828 74.069 L 172.828 61.724 Z M 197.517 61.724 L 209.862 61.724 L 209.862 74.069 L 197.517 74.069 L 197.517 61.724 Z M 234.552 61.724 L 246.897 61.724 L 246.897 74.069 L 234.552 74.069 L 234.552 61.724 Z M 246.897 61.724 L 259.241 61.724 L 259.241 74.069 L 246.897 74.069 L 246.897 61.724 Z M 271.586 61.724 L 283.931 61.724 L 283.931 74.069 L 271.586 74.069 L 271.586 61.724 Z M 345.655 61.724 L 358 61.724 L 358 74.069 L 345.655 74.069 L 345.655 61.724 Z M 0 74.069 L 12.345 74.069 L 12.345 86.414 L 0 86.414 L 0 74.069 Z M 12.345 74.069 L 24.69 74.069 L 24.69 86.414 L 12.345 86.414 L 12.345 74.069 Z M 24.69 74.069 L 37.034 74.069 L 37.034 86.414 L 24.69 86.414 L 24.69 74.069 Z M 37.034 74.069 L 49.379 74.069 L 49.379 86.414 L 37.034 86.414 L 37.034 74.069 Z M 49.379 74.069 L 61.724 74.069 L 61.724 86.414 L 49.379 86.414 L 49.379 74.069 Z M 61.724 74.069 L 74.069 74.069 L 74.069 86.414 L 61.724 86.414 L 61.724 74.069 Z M 74.069 74.069 L 86.414 74.069 L 86.414 86.414 L 74.069 86.414 L 74.069 74.069 Z M 98.759 74.069 L 111.103 74.069 L 111.103 86.414 L 98.759 86.414 L 98.759 74.069 Z M 123.448 74.069 L 135.793 74.069 L 135.793 86.414 L 123.448 86.414 L 123.448 74.069 Z M 148.138 74.069 L 160.483 74.069 L 160.483 86.414 L 148.138 86.414 L 148.138 74.069 Z M 172.828 74.069 L 185.172 74.069 L 185.172 86.414 L 172.828 86.414 L 172.828 74.069 Z M 197.517 74.069 L 209.862 74.069 L 209.862 86.414 L 197.517 86.414 L 197.517 74.069 Z M 222.207 74.069 L 234.552 74.069 L 234.552 86.414 L 222.207 86.414 L 222.207 74.069 Z M 246.897 74.069 L 259.241 74.069 L 259.241 86.414 L 246.897 86.414 L 246.897 74.069 Z M 271.586 74.069 L 283.931 74.069 L 283.931 86.414 L 271.586 86.414 L 271.586 74.069 Z M 283.931 74.069 L 296.276 74.069 L 296.276 86.414 L 283.931 86.414 L 283.931 74.069 Z M 296.276 74.069 L 308.621 74.069 L 308.621 86.414 L 296.276 86.414 L 296.276 74.069 Z M 308.621 74.069 L 320.966 74.069 L 320.966 86.414 L 308.621 86.414 L 308.621 74.069 Z M 320.966 74.069 L 333.31 74.069 L 333.31 86.414 L 320.966 86.414 L 320.966 74.069 Z M 333.31 74.069 L 345.655 74.069 L 345.655 86.414 L 333.31 86.414 L 333.31 74.069 Z M 345.655 74.069 L 358 74.069 L 358 86.414 L 345.655 86.414 L 345.655 74.069 Z M 123.448 86.414 L 135.793 86.414 L 135.793 98.759 L 123.448 98.759 L 123.448 86.414 Z M 148.138 86.414 L 160.483 86.414 L 160.483 98.759 L 148.138 98.759 L 148.138 86.414 Z M 197.517 86.414 L 209.862 86.414 L 209.862 98.759 L 197.517 98.759 L 197.517 86.414 Z M 209.862 86.414 L 222.207 86.414 L 222.207 98.759 L 209.862 98.759 L 209.862 86.414 Z M 222.207 86.414 L 234.552 86.414 L 234.552 98.759 L 222.207 98.759 L 222.207 86.414 Z M 234.552 86.414 L 246.897 86.414 L 246.897 98.759 L 234.552 98.759 L 234.552 86.414 Z M 246.897 86.414 L 259.241 86.414 L 259.241 98.759 L 246.897 98.759 L 246.897 86.414 Z M 0 98.759 L 12.345 98.759 L 12.345 111.103 L 0 111.103 L 0 98.759 Z M 12.345 98.759 L 24.69 98.759 L 24.69 111.103 L 12.345 111.103 L 12.345 98.759 Z M 24.69 98.759 L 37.034 98.759 L 37.034 111.103 L 24.69 111.103 L 24.69 98.759 Z M 37.034 98.759 L 49.379 98.759 L 49.379 111.103 L 37.034 111.103 L 37.034 98.759 Z M 74.069 98.759 L 86.414 98.759 L 86.414 111.103 L 74.069 111.103 L 74.069 98.759 Z M 98.759 98.759 L 111.103 98.759 L 111.103 111.103 L 98.759 111.103 L 98.759 98.759 Z M 123.448 98.759 L 135.793 98.759 L 135.793 111.103 L 123.448 111.103 L 123.448 98.759 Z M 135.793 98.759 L 148.138 98.759 L 148.138 111.103 L 135.793 111.103 L 135.793 98.759 Z M 148.138 98.759 L 160.483 98.759 L 160.483 111.103 L 148.138 111.103 L 148.138 98.759 Z M 160.483 98.759 L 172.828 98.759 L 172.828 111.103 L 160.483 111.103 L 160.483 98.759 Z M 209.862 98.759 L 222.207 98.759 L 222.207 111.103 L 209.862 111.103 L 209.862 98.759 Z M 222.207 98.759 L 234.552 98.759 L 234.552 111.103 L 222.207 111.103 L 222.207 98.759 Z M 234.552 98.759 L 246.897 98.759 L 246.897 111.103 L 234.552 111.103 L 234.552 98.759 Z M 246.897 98.759 L 259.241 98.759 L 259.241 111.103 L 246.897 111.103 L 246.897 98.759 Z M 259.241 98.759 L 271.586 98.759 L 271.586 111.103 L 259.241 111.103 L 259.241 98.759 Z M 296.276 98.759 L 308.621 98.759 L 308.621 111.103 L 296.276 111.103 L 296.276 98.759 Z M 308.621 98.759 L 320.966 98.759 L 320.966 111.103 L 308.621 111.103 L 308.621 98.759 Z M 320.966 98.759 L 333.31 98.759 L 333.31 111.103 L 320.966 111.103 L 320.966 98.759 Z M 345.655 98.759 L 358 98.759 L 358 111.103 L 345.655 111.103 L 345.655 98.759 Z M 0 111.103 L 12.345 111.103 L 12.345 123.448 L 0 123.448 L 0 111.103 Z M 24.69 111.103 L 37.034 111.103 L 37.034 123.448 L 24.69 123.448 L 24.69 111.103 Z M 49.379 111.103 L 61.724 111.103 L 61.724 123.448 L 49.379 123.448 L 49.379 111.103 Z M 61.724 111.103 L 74.069 111.103 L 74.069 123.448 L 61.724 123.448 L 61.724 111.103 Z M 86.414 111.103 L 98.759 111.103 L 98.759 123.448 L 86.414 123.448 L 86.414 111.103 Z M 98.759 111.103 L 111.103 111.103 L 111.103 123.448 L 98.759 123.448 L 98.759 111.103 Z M 123.448 111.103 L 135.793 111.103 L 135.793 123.448 L 123.448 123.448 L 123.448 111.103 Z M 148.138 111.103 L 160.483 111.103 L 160.483 123.448 L 148.138 123.448 L 148.138 111.103 Z M 160.483 111.103 L 172.828 111.103 L 172.828 123.448 L 160.483 123.448 L 160.483 111.103 Z M 197.517 111.103 L 209.862 111.103 L 209.862 123.448 L 197.517 123.448 L 197.517 111.103 Z M 234.552 111.103 L 246.897 111.103 L 246.897 123.448 L 234.552 123.448 L 234.552 111.103 Z M 246.897 111.103 L 259.241 111.103 L 259.241 123.448 L 246.897 123.448 L 246.897 111.103 Z M 271.586 111.103 L 283.931 111.103 L 283.931 123.448 L 271.586 123.448 L 271.586 111.103 Z M 283.931 111.103 L 296.276 111.103 L 296.276 123.448 L 283.931 123.448 L 283.931 111.103 Z M 296.276 111.103 L 308.621 111.103 L 308.621 123.448 L 296.276 123.448 L 296.276 111.103 Z M 345.655 111.103 L 358 111.103 L 358 123.448 L 345.655 123.448 L 345.655 111.103 Z M 0 123.448 L 12.345 123.448 L 12.345 135.793 L 0 135.793 L 0 123.448 Z M 12.345 123.448 L 24.69 123.448 L 24.69 135.793 L 12.345 135.793 L 12.345 123.448 Z M 24.69 123.448 L 37.034 123.448 L 37.034 135.793 L 24.69 135.793 L 24.69 123.448 Z M 37.034 123.448 L 49.379 123.448 L 49.379 135.793 L 37.034 135.793 L 37.034 123.448 Z M 49.379 123.448 L 61.724 123.448 L 61.724 135.793 L 49.379 135.793 L 49.379 123.448 Z M 61.724 123.448 L 74.069 123.448 L 74.069 135.793 L 61.724 135.793 L 61.724 123.448 Z M 74.069 123.448 L 86.414 123.448 L 86.414 135.793 L 74.069 135.793 L 74.069 123.448 Z M 111.103 123.448 L 123.448 123.448 L 123.448 135.793 L 111.103 135.793 L 111.103 123.448 Z M 123.448 123.448 L 135.793 123.448 L 135.793 135.793 L 123.448 135.793 L 123.448 123.448 Z M 135.793 123.448 L 148.138 123.448 L 148.138 135.793 L 135.793 135.793 L 135.793 123.448 Z M 148.138 123.448 L 160.483 123.448 L 160.483 135.793 L 148.138 135.793 L 148.138 123.448 Z M 160.483 123.448 L 172.828 123.448 L 172.828 135.793 L 160.483 135.793 L 160.483 123.448 Z M 197.517 123.448 L 209.862 123.448 L 209.862 135.793 L 197.517 135.793 L 197.517 123.448 Z M 283.931 123.448 L 296.276 123.448 L 296.276 135.793 L 283.931 135.793 L 283.931 123.448 Z M 296.276 123.448 L 308.621 123.448 L 308.621 135.793 L 296.276 135.793 L 296.276 123.448 Z M 320.966 123.448 L 333.31 123.448 L 333.31 135.793 L 320.966 135.793 L 320.966 123.448 Z M 333.31 123.448 L 345.655 123.448 L 345.655 135.793 L 333.31 135.793 L 333.31 123.448 Z M 0 135.793 L 12.345 135.793 L 12.345 148.138 L 0 148.138 L 0 135.793 Z M 24.69 135.793 L 37.034 135.793 L 37.034 148.138 L 24.69 148.138 L 24.69 135.793 Z M 37.034 135.793 L 49.379 135.793 L 49.379 148.138 L 37.034 148.138 L 37.034 135.793 Z M 61.724 135.793 L 74.069 135.793 L 74.069 148.138 L 61.724 148.138 L 61.724 135.793 Z M 86.414 135.793 L 98.759 135.793 L 98.759 148.138 L 86.414 148.138 L 86.414 135.793 Z M 111.103 135.793 L 123.448 135.793 L 123.448 148.138 L 111.103 148.138 L 111.103 135.793 Z M 123.448 135.793 L 135.793 135.793 L 135.793 148.138 L 123.448 148.138 L 123.448 135.793 Z M 197.517 135.793 L 209.862 135.793 L 209.862 148.138 L 197.517 148.138 L 197.517 135.793 Z M 246.897 135.793 L 259.241 135.793 L 259.241 148.138 L 246.897 148.138 L 246.897 135.793 Z M 259.241 135.793 L 271.586 135.793 L 271.586 148.138 L 259.241 148.138 L 259.241 135.793 Z M 308.621 135.793 L 320.966 135.793 L 320.966 148.138 L 308.621 148.138 L 308.621 135.793 Z M 345.655 135.793 L 358 135.793 L 358 148.138 L 345.655 148.138 L 345.655 135.793 Z M 0 148.138 L 12.345 148.138 L 12.345 160.483 L 0 160.483 L 0 148.138 Z M 37.034 148.138 L 49.379 148.138 L 49.379 160.483 L 37.034 160.483 L 37.034 148.138 Z M 61.724 148.138 L 74.069 148.138 L 74.069 160.483 L 61.724 160.483 L 61.724 148.138 Z M 74.069 148.138 L 86.414 148.138 L 86.414 160.483 L 74.069 160.483 L 74.069 148.138 Z M 86.414 148.138 L 98.759 148.138 L 98.759 160.483 L 86.414 160.483 L 86.414 148.138 Z M 111.103 148.138 L 123.448 148.138 L 123.448 160.483 L 111.103 160.483 L 111.103 148.138 Z M 123.448 148.138 L 135.793 148.138 L 135.793 160.483 L 123.448 160.483 L 123.448 148.138 Z M 148.138 148.138 L 160.483 148.138 L 160.483 160.483 L 148.138 160.483 L 148.138 148.138 Z M 172.828 148.138 L 185.172 148.138 L 185.172 160.483 L 172.828 160.483 L 172.828 148.138 Z M 185.172 148.138 L 197.517 148.138 L 197.517 160.483 L 185.172 160.483 L 185.172 148.138 Z M 209.862 148.138 L 222.207 148.138 L 222.207 160.483 L 209.862 160.483 L 209.862 148.138 Z M 234.552 148.138 L 246.897 148.138 L 246.897 160.483 L 234.552 160.483 L 234.552 148.138 Z M 308.621 148.138 L 320.966 148.138 L 320.966 160.483 L 308.621 160.483 L 308.621 148.138 Z M 320.966 148.138 L 333.31 148.138 L 333.31 160.483 L 320.966 160.483 L 320.966 148.138 Z M 49.379 160.483 L 61.724 160.483 L 61.724 172.828 L 49.379 172.828 L 49.379 160.483 Z M 61.724 160.483 L 74.069 160.483 L 74.069 172.828 L 61.724 172.828 L 61.724 160.483 Z M 98.759 160.483 L 111.103 160.483 L 111.103 172.828 L 98.759 172.828 L 98.759 160.483 Z M 135.793 160.483 L 148.138 160.483 L 148.138 172.828 L 135.793 172.828 L 135.793 160.483 Z M 148.138 160.483 L 160.483 160.483 L 160.483 172.828 L 148.138 172.828 L 148.138 160.483 Z M 172.828 160.483 L 185.172 160.483 L 185.172 172.828 L 172.828 172.828 L 172.828 160.483 Z M 185.172 160.483 L 197.517 160.483 L 197.517 172.828 L 185.172 172.828 L 185.172 160.483 Z M 197.517 160.483 L 209.862 160.483 L 209.862 172.828 L 197.517 172.828 L 197.517 160.483 Z M 209.862 160.483 L 222.207 160.483 L 222.207 172.828 L 209.862 172.828 L 209.862 160.483 Z M 234.552 160.483 L 246.897 160.483 L 246.897 172.828 L 234.552 172.828 L 234.552 160.483 Z M 246.897 160.483 L 259.241 160.483 L 259.241 172.828 L 246.897 172.828 L 246.897 160.483 Z M 271.586 160.483 L 283.931 160.483 L 283.931 172.828 L 271.586 172.828 L 271.586 160.483 Z M 333.31 160.483 L 345.655 160.483 L 345.655 172.828 L 333.31 172.828 L 333.31 160.483 Z M 345.655 160.483 L 358 160.483 L 358 172.828 L 345.655 172.828 L 345.655 160.483 Z M 12.345 172.828 L 24.69 172.828 L 24.69 185.172 L 12.345 185.172 L 12.345 172.828 Z M 24.69 172.828 L 37.034 172.828 L 37.034 185.172 L 24.69 185.172 L 24.69 172.828 Z M 49.379 172.828 L 61.724 172.828 L 61.724 185.172 L 49.379 185.172 L 49.379 172.828 Z M 61.724 172.828 L 74.069 172.828 L 74.069 185.172 L 61.724 185.172 L 61.724 172.828 Z M 74.069 172.828 L 86.414 172.828 L 86.414 185.172 L 74.069 185.172 L 74.069 172.828 Z M 98.759 172.828 L 111.103 172.828 L 111.103 185.172 L 98.759 185.172 L 98.759 172.828 Z M 123.448 172.828 L 135.793 172.828 L 135.793 185.172 L 123.448 185.172 L 123.448 172.828 Z M 135.793 172.828 L 148.138 172.828 L 148.138 185.172 L 135.793 185.172 L 135.793 172.828 Z M 160.483 172.828 L 172.828 172.828 L 172.828 185.172 L 160.483 185.172 L 160.483 172.828 Z M 209.862 172.828 L 222.207 172.828 L 222.207 185.172 L 209.862 185.172 L 209.862 172.828 Z M 234.552 172.828 L 246.897 172.828 L 246.897 185.172 L 234.552 185.172 L 234.552 172.828 Z M 246.897 172.828 L 259.241 172.828 L 259.241 185.172 L 246.897 185.172 L 246.897 172.828 Z M 259.241 172.828 L 271.586 172.828 L 271.586 185.172 L 259.241 185.172 L 259.241 172.828 Z M 283.931 172.828 L 296.276 172.828 L 296.276 185.172 L 283.931 185.172 L 283.931 172.828 Z M 308.621 172.828 L 320.966 172.828 L 320.966 185.172 L 308.621 185.172 L 308.621 172.828 Z M 320.966 172.828 L 333.31 172.828 L 333.31 185.172 L 320.966 185.172 L 320.966 172.828 Z M 333.31 172.828 L 345.655 172.828 L 345.655 185.172 L 333.31 185.172 L 333.31 172.828 Z M 345.655 172.828 L 358 172.828 L 358 185.172 L 345.655 185.172 L 345.655 172.828 Z M 0 185.172 L 12.345 185.172 L 12.345 197.517 L 0 197.517 L 0 185.172 Z M 24.69 185.172 L 37.034 185.172 L 37.034 197.517 L 24.69 197.517 L 24.69 185.172 Z M 49.379 185.172 L 61.724 185.172 L 61.724 197.517 L 49.379 197.517 L 49.379 185.172 Z M 61.724 185.172 L 74.069 185.172 L 74.069 197.517 L 61.724 197.517 L 61.724 185.172 Z M 86.414 185.172 L 98.759 185.172 L 98.759 197.517 L 86.414 197.517 L 86.414 185.172 Z M 98.759 185.172 L 111.103 185.172 L 111.103 197.517 L 98.759 197.517 L 98.759 185.172 Z M 111.103 185.172 L 123.448 185.172 L 123.448 197.517 L 111.103 197.517 L 111.103 185.172 Z M 123.448 185.172 L 135.793 185.172 L 135.793 197.517 L 123.448 197.517 L 123.448 185.172 Z M 135.793 185.172 L 148.138 185.172 L 148.138 197.517 L 135.793 197.517 L 135.793 185.172 Z M 172.828 185.172 L 185.172 185.172 L 185.172 197.517 L 172.828 197.517 L 172.828 185.172 Z M 197.517 185.172 L 209.862 185.172 L 209.862 197.517 L 197.517 197.517 L 197.517 185.172 Z M 246.897 185.172 L 259.241 185.172 L 259.241 197.517 L 246.897 197.517 L 246.897 185.172 Z M 271.586 185.172 L 283.931 185.172 L 283.931 197.517 L 271.586 197.517 L 271.586 185.172 Z M 333.31 185.172 L 345.655 185.172 L 345.655 197.517 L 333.31 197.517 L 333.31 185.172 Z M 37.034 197.517 L 49.379 197.517 L 49.379 209.862 L 37.034 209.862 L 37.034 197.517 Z M 49.379 197.517 L 61.724 197.517 L 61.724 209.862 L 49.379 209.862 L 49.379 197.517 Z M 61.724 197.517 L 74.069 197.517 L 74.069 209.862 L 61.724 209.862 L 61.724 197.517 Z M 74.069 197.517 L 86.414 197.517 L 86.414 209.862 L 74.069 209.862 L 74.069 197.517 Z M 98.759 197.517 L 111.103 197.517 L 111.103 209.862 L 98.759 209.862 L 98.759 197.517 Z M 148.138 197.517 L 160.483 197.517 L 160.483 209.862 L 148.138 209.862 L 148.138 197.517 Z M 172.828 197.517 L 185.172 197.517 L 185.172 209.862 L 172.828 209.862 L 172.828 197.517 Z M 222.207 197.517 L 234.552 197.517 L 234.552 209.862 L 222.207 209.862 L 222.207 197.517 Z M 234.552 197.517 L 246.897 197.517 L 246.897 209.862 L 234.552 209.862 L 234.552 197.517 Z M 246.897 197.517 L 259.241 197.517 L 259.241 209.862 L 246.897 209.862 L 246.897 197.517 Z M 259.241 197.517 L 271.586 197.517 L 271.586 209.862 L 259.241 209.862 L 259.241 197.517 Z M 283.931 197.517 L 296.276 197.517 L 296.276 209.862 L 283.931 209.862 L 283.931 197.517 Z M 296.276 197.517 L 308.621 197.517 L 308.621 209.862 L 296.276 209.862 L 296.276 197.517 Z M 333.31 197.517 L 345.655 197.517 L 345.655 209.862 L 333.31 209.862 L 333.31 197.517 Z M 12.345 209.862 L 24.69 209.862 L 24.69 222.207 L 12.345 222.207 L 12.345 209.862 Z M 61.724 209.862 L 74.069 209.862 L 74.069 222.207 L 61.724 222.207 L 61.724 209.862 Z M 172.828 209.862 L 185.172 209.862 L 185.172 222.207 L 172.828 222.207 L 172.828 209.862 Z M 185.172 209.862 L 197.517 209.862 L 197.517 222.207 L 185.172 222.207 L 185.172 209.862 Z M 222.207 209.862 L 234.552 209.862 L 234.552 222.207 L 222.207 222.207 L 222.207 209.862 Z M 246.897 209.862 L 259.241 209.862 L 259.241 222.207 L 246.897 222.207 L 246.897 209.862 Z M 283.931 209.862 L 296.276 209.862 L 296.276 222.207 L 283.931 222.207 L 283.931 209.862 Z M 320.966 209.862 L 333.31 209.862 L 333.31 222.207 L 320.966 222.207 L 320.966 209.862 Z M 333.31 209.862 L 345.655 209.862 L 345.655 222.207 L 333.31 222.207 L 333.31 209.862 Z M 0 222.207 L 12.345 222.207 L 12.345 234.552 L 0 234.552 L 0 222.207 Z M 49.379 222.207 L 61.724 222.207 L 61.724 234.552 L 49.379 234.552 L 49.379 222.207 Z M 61.724 222.207 L 74.069 222.207 L 74.069 234.552 L 61.724 234.552 L 61.724 222.207 Z M 74.069 222.207 L 86.414 222.207 L 86.414 234.552 L 74.069 234.552 L 74.069 222.207 Z M 86.414 222.207 L 98.759 222.207 L 98.759 234.552 L 86.414 234.552 L 86.414 222.207 Z M 98.759 222.207 L 111.103 222.207 L 111.103 234.552 L 98.759 234.552 L 98.759 222.207 Z M 111.103 222.207 L 123.448 222.207 L 123.448 234.552 L 111.103 234.552 L 111.103 222.207 Z M 123.448 222.207 L 135.793 222.207 L 135.793 234.552 L 123.448 234.552 L 123.448 222.207 Z M 160.483 222.207 L 172.828 222.207 L 172.828 234.552 L 160.483 234.552 L 160.483 222.207 Z M 172.828 222.207 L 185.172 222.207 L 185.172 234.552 L 172.828 234.552 L 172.828 222.207 Z M 185.172 222.207 L 197.517 222.207 L 197.517 234.552 L 185.172 234.552 L 185.172 222.207 Z M 197.517 222.207 L 209.862 222.207 L 209.862 234.552 L 197.517 234.552 L 197.517 222.207 Z M 246.897 222.207 L 259.241 222.207 L 259.241 234.552 L 246.897 234.552 L 246.897 222.207 Z M 271.586 222.207 L 283.931 222.207 L 283.931 234.552 L 271.586 234.552 L 271.586 222.207 Z M 283.931 222.207 L 296.276 222.207 L 296.276 234.552 L 283.931 234.552 L 283.931 222.207 Z M 308.621 222.207 L 320.966 222.207 L 320.966 234.552 L 308.621 234.552 L 308.621 222.207 Z M 320.966 222.207 L 333.31 222.207 L 333.31 234.552 L 320.966 234.552 L 320.966 222.207 Z M 24.69 234.552 L 37.034 234.552 L 37.034 246.897 L 24.69 246.897 L 24.69 234.552 Z M 37.034 234.552 L 49.379 234.552 L 49.379 246.897 L 37.034 246.897 L 37.034 234.552 Z M 111.103 234.552 L 123.448 234.552 L 123.448 246.897 L 111.103 246.897 L 111.103 234.552 Z M 123.448 234.552 L 135.793 234.552 L 135.793 246.897 L 123.448 246.897 L 123.448 234.552 Z M 135.793 234.552 L 148.138 234.552 L 148.138 246.897 L 135.793 246.897 L 135.793 234.552 Z M 160.483 234.552 L 172.828 234.552 L 172.828 246.897 L 160.483 246.897 L 160.483 234.552 Z M 172.828 234.552 L 185.172 234.552 L 185.172 246.897 L 172.828 246.897 L 172.828 234.552 Z M 209.862 234.552 L 222.207 234.552 L 222.207 246.897 L 209.862 246.897 L 209.862 234.552 Z M 222.207 234.552 L 234.552 234.552 L 234.552 246.897 L 222.207 246.897 L 222.207 234.552 Z M 234.552 234.552 L 246.897 234.552 L 246.897 246.897 L 234.552 246.897 L 234.552 234.552 Z M 271.586 234.552 L 283.931 234.552 L 283.931 246.897 L 271.586 246.897 L 271.586 234.552 Z M 320.966 234.552 L 333.31 234.552 L 333.31 246.897 L 320.966 246.897 L 320.966 234.552 Z M 12.345 246.897 L 24.69 246.897 L 24.69 259.241 L 12.345 259.241 L 12.345 246.897 Z M 61.724 246.897 L 74.069 246.897 L 74.069 259.241 L 61.724 259.241 L 61.724 246.897 Z M 74.069 246.897 L 86.414 246.897 L 86.414 259.241 L 74.069 259.241 L 74.069 246.897 Z M 86.414 246.897 L 98.759 246.897 L 98.759 259.241 L 86.414 259.241 L 86.414 246.897 Z M 98.759 246.897 L 111.103 246.897 L 111.103 259.241 L 98.759 259.241 L 98.759 246.897 Z M 160.483 246.897 L 172.828 246.897 L 172.828 259.241 L 160.483 259.241 L 160.483 246.897 Z M 172.828 246.897 L 185.172 246.897 L 185.172 259.241 L 172.828 259.241 L 172.828 246.897 Z M 185.172 246.897 L 197.517 246.897 L 197.517 259.241 L 185.172 259.241 L 185.172 246.897 Z M 197.517 246.897 L 209.862 246.897 L 209.862 259.241 L 197.517 259.241 L 197.517 246.897 Z M 209.862 246.897 L 222.207 246.897 L 222.207 259.241 L 209.862 259.241 L 209.862 246.897 Z M 222.207 246.897 L 234.552 246.897 L 234.552 259.241 L 222.207 259.241 L 222.207 246.897 Z M 246.897 246.897 L 259.241 246.897 L 259.241 259.241 L 246.897 259.241 L 246.897 246.897 Z M 259.241 246.897 L 271.586 246.897 L 271.586 259.241 L 259.241 259.241 L 259.241 246.897 Z M 271.586 246.897 L 283.931 246.897 L 283.931 259.241 L 271.586 259.241 L 271.586 246.897 Z M 283.931 246.897 L 296.276 246.897 L 296.276 259.241 L 283.931 259.241 L 283.931 246.897 Z M 296.276 246.897 L 308.621 246.897 L 308.621 259.241 L 296.276 259.241 L 296.276 246.897 Z M 308.621 246.897 L 320.966 246.897 L 320.966 259.241 L 308.621 259.241 L 308.621 246.897 Z M 320.966 246.897 L 333.31 246.897 L 333.31 259.241 L 320.966 259.241 L 320.966 246.897 Z M 98.759 259.241 L 111.103 259.241 L 111.103 271.586 L 98.759 271.586 L 98.759 259.241 Z M 123.448 259.241 L 135.793 259.241 L 135.793 271.586 L 123.448 271.586 L 123.448 259.241 Z M 197.517 259.241 L 209.862 259.241 L 209.862 271.586 L 197.517 271.586 L 197.517 259.241 Z M 209.862 259.241 L 222.207 259.241 L 222.207 271.586 L 209.862 271.586 L 209.862 259.241 Z M 222.207 259.241 L 234.552 259.241 L 234.552 271.586 L 222.207 271.586 L 222.207 259.241 Z M 246.897 259.241 L 259.241 259.241 L 259.241 271.586 L 246.897 271.586 L 246.897 259.241 Z M 296.276 259.241 L 308.621 259.241 L 308.621 271.586 L 296.276 271.586 L 296.276 259.241 Z M 308.621 259.241 L 320.966 259.241 L 320.966 271.586 L 308.621 271.586 L 308.621 259.241 Z M 320.966 259.241 L 333.31 259.241 L 333.31 271.586 L 320.966 271.586 L 320.966 259.241 Z M 333.31 259.241 L 345.655 259.241 L 345.655 271.586 L 333.31 271.586 L 333.31 259.241 Z M 345.655 259.241 L 358 259.241 L 358 271.586 L 345.655 271.586 L 345.655 259.241 Z M 0 271.586 L 12.345 271.586 L 12.345 283.931 L 0 283.931 L 0 271.586 Z M 12.345 271.586 L 24.69 271.586 L 24.69 283.931 L 12.345 283.931 L 12.345 271.586 Z M 24.69 271.586 L 37.034 271.586 L 37.034 283.931 L 24.69 283.931 L 24.69 271.586 Z M 37.034 271.586 L 49.379 271.586 L 49.379 283.931 L 37.034 283.931 L 37.034 271.586 Z M 49.379 271.586 L 61.724 271.586 L 61.724 283.931 L 49.379 283.931 L 49.379 271.586 Z M 61.724 271.586 L 74.069 271.586 L 74.069 283.931 L 61.724 283.931 L 61.724 271.586 Z M 74.069 271.586 L 86.414 271.586 L 86.414 283.931 L 74.069 283.931 L 74.069 271.586 Z M 123.448 271.586 L 135.793 271.586 L 135.793 283.931 L 123.448 283.931 L 123.448 271.586 Z M 172.828 271.586 L 185.172 271.586 L 185.172 283.931 L 172.828 283.931 L 172.828 271.586 Z M 209.862 271.586 L 222.207 271.586 L 222.207 283.931 L 209.862 283.931 L 209.862 271.586 Z M 222.207 271.586 L 234.552 271.586 L 234.552 283.931 L 222.207 283.931 L 222.207 271.586 Z M 234.552 271.586 L 246.897 271.586 L 246.897 283.931 L 234.552 283.931 L 234.552 271.586 Z M 246.897 271.586 L 259.241 271.586 L 259.241 283.931 L 246.897 283.931 L 246.897 271.586 Z M 271.586 271.586 L 283.931 271.586 L 283.931 283.931 L 271.586 283.931 L 271.586 271.586 Z M 296.276 271.586 L 308.621 271.586 L 308.621 283.931 L 296.276 283.931 L 296.276 271.586 Z M 308.621 271.586 L 320.966 271.586 L 320.966 283.931 L 308.621 283.931 L 308.621 271.586 Z M 333.31 271.586 L 345.655 271.586 L 345.655 283.931 L 333.31 283.931 L 333.31 271.586 Z M 0 283.931 L 12.345 283.931 L 12.345 296.276 L 0 296.276 L 0 283.931 Z M 74.069 283.931 L 86.414 283.931 L 86.414 296.276 L 74.069 296.276 L 74.069 283.931 Z M 123.448 283.931 L 135.793 283.931 L 135.793 296.276 L 123.448 296.276 L 123.448 283.931 Z M 135.793 283.931 L 148.138 283.931 L 148.138 296.276 L 135.793 296.276 L 135.793 283.931 Z M 148.138 283.931 L 160.483 283.931 L 160.483 296.276 L 148.138 296.276 L 148.138 283.931 Z M 160.483 283.931 L 172.828 283.931 L 172.828 296.276 L 160.483 296.276 L 160.483 283.931 Z M 172.828 283.931 L 185.172 283.931 L 185.172 296.276 L 172.828 296.276 L 172.828 283.931 Z M 185.172 283.931 L 197.517 283.931 L 197.517 296.276 L 185.172 296.276 L 185.172 283.931 Z M 222.207 283.931 L 234.552 283.931 L 234.552 296.276 L 222.207 296.276 L 222.207 283.931 Z M 246.897 283.931 L 259.241 283.931 L 259.241 296.276 L 246.897 296.276 L 246.897 283.931 Z M 296.276 283.931 L 308.621 283.931 L 308.621 296.276 L 296.276 296.276 L 296.276 283.931 Z M 0 296.276 L 12.345 296.276 L 12.345 308.621 L 0 308.621 L 0 296.276 Z M 24.69 296.276 L 37.034 296.276 L 37.034 308.621 L 24.69 308.621 L 24.69 296.276 Z M 37.034 296.276 L 49.379 296.276 L 49.379 308.621 L 37.034 308.621 L 37.034 296.276 Z M 49.379 296.276 L 61.724 296.276 L 61.724 308.621 L 49.379 308.621 L 49.379 296.276 Z M 74.069 296.276 L 86.414 296.276 L 86.414 308.621 L 74.069 308.621 L 74.069 296.276 Z M 135.793 296.276 L 148.138 296.276 L 148.138 308.621 L 135.793 308.621 L 135.793 296.276 Z M 185.172 296.276 L 197.517 296.276 L 197.517 308.621 L 185.172 308.621 L 185.172 296.276 Z M 197.517 296.276 L 209.862 296.276 L 209.862 308.621 L 197.517 308.621 L 197.517 296.276 Z M 209.862 296.276 L 222.207 296.276 L 222.207 308.621 L 209.862 308.621 L 209.862 296.276 Z M 246.897 296.276 L 259.241 296.276 L 259.241 308.621 L 246.897 308.621 L 246.897 296.276 Z M 259.241 296.276 L 271.586 296.276 L 271.586 308.621 L 259.241 308.621 L 259.241 296.276 Z M 271.586 296.276 L 283.931 296.276 L 283.931 308.621 L 271.586 308.621 L 271.586 296.276 Z M 283.931 296.276 L 296.276 296.276 L 296.276 308.621 L 283.931 308.621 L 283.931 296.276 Z M 296.276 296.276 L 308.621 296.276 L 308.621 308.621 L 296.276 308.621 L 296.276 296.276 Z M 320.966 296.276 L 333.31 296.276 L 333.31 308.621 L 320.966 308.621 L 320.966 296.276 Z M 0 308.621 L 12.345 308.621 L 12.345 320.966 L 0 320.966 L 0 308.621 Z M 24.69 308.621 L 37.034 308.621 L 37.034 320.966 L 24.69 320.966 L 24.69 308.621 Z M 37.034 308.621 L 49.379 308.621 L 49.379 320.966 L 37.034 320.966 L 37.034 308.621 Z M 49.379 308.621 L 61.724 308.621 L 61.724 320.966 L 49.379 320.966 L 49.379 308.621 Z M 74.069 308.621 L 86.414 308.621 L 86.414 320.966 L 74.069 320.966 L 74.069 308.621 Z M 98.759 308.621 L 111.103 308.621 L 111.103 320.966 L 98.759 320.966 L 98.759 308.621 Z M 111.103 308.621 L 123.448 308.621 L 123.448 320.966 L 111.103 320.966 L 111.103 308.621 Z M 135.793 308.621 L 148.138 308.621 L 148.138 320.966 L 135.793 320.966 L 135.793 308.621 Z M 160.483 308.621 L 172.828 308.621 L 172.828 320.966 L 160.483 320.966 L 160.483 308.621 Z M 185.172 308.621 L 197.517 308.621 L 197.517 320.966 L 185.172 320.966 L 185.172 308.621 Z M 197.517 308.621 L 209.862 308.621 L 209.862 320.966 L 197.517 320.966 L 197.517 308.621 Z M 234.552 308.621 L 246.897 308.621 L 246.897 320.966 L 234.552 320.966 L 234.552 308.621 Z M 283.931 308.621 L 296.276 308.621 L 296.276 320.966 L 283.931 320.966 L 283.931 308.621 Z M 296.276 308.621 L 308.621 308.621 L 308.621 320.966 L 296.276 320.966 L 296.276 308.621 Z M 308.621 308.621 L 320.966 308.621 L 320.966 320.966 L 308.621 320.966 L 308.621 308.621 Z M 345.655 308.621 L 358 308.621 L 358 320.966 L 345.655 320.966 L 345.655 308.621 Z M 0 320.966 L 12.345 320.966 L 12.345 333.31 L 0 333.31 L 0 320.966 Z M 24.69 320.966 L 37.034 320.966 L 37.034 333.31 L 24.69 333.31 L 24.69 320.966 Z M 37.034 320.966 L 49.379 320.966 L 49.379 333.31 L 37.034 333.31 L 37.034 320.966 Z M 49.379 320.966 L 61.724 320.966 L 61.724 333.31 L 49.379 333.31 L 49.379 320.966 Z M 74.069 320.966 L 86.414 320.966 L 86.414 333.31 L 74.069 333.31 L 74.069 320.966 Z M 98.759 320.966 L 111.103 320.966 L 111.103 333.31 L 98.759 333.31 L 98.759 320.966 Z M 148.138 320.966 L 160.483 320.966 L 160.483 333.31 L 148.138 333.31 L 148.138 320.966 Z M 172.828 320.966 L 185.172 320.966 L 185.172 333.31 L 172.828 333.31 L 172.828 320.966 Z M 209.862 320.966 L 222.207 320.966 L 222.207 333.31 L 209.862 333.31 L 209.862 320.966 Z M 222.207 320.966 L 234.552 320.966 L 234.552 333.31 L 222.207 333.31 L 222.207 320.966 Z M 234.552 320.966 L 246.897 320.966 L 246.897 333.31 L 234.552 333.31 L 234.552 320.966 Z M 283.931 320.966 L 296.276 320.966 L 296.276 333.31 L 283.931 333.31 L 283.931 320.966 Z M 308.621 320.966 L 320.966 320.966 L 320.966 333.31 L 308.621 333.31 L 308.621 320.966 Z M 320.966 320.966 L 333.31 320.966 L 333.31 333.31 L 320.966 333.31 L 320.966 320.966 Z M 345.655 320.966 L 358 320.966 L 358 333.31 L 345.655 333.31 L 345.655 320.966 Z M 0 333.31 L 12.345 333.31 L 12.345 345.655 L 0 345.655 L 0 333.31 Z M 74.069 333.31 L 86.414 333.31 L 86.414 345.655 L 74.069 345.655 L 74.069 333.31 Z M 98.759 333.31 L 111.103 333.31 L 111.103 345.655 L 98.759 345.655 L 98.759 333.31 Z M 123.448 333.31 L 135.793 333.31 L 135.793 345.655 L 123.448 345.655 L 123.448 333.31 Z M 148.138 333.31 L 160.483 333.31 L 160.483 345.655 L 148.138 345.655 L 148.138 333.31 Z M 160.483 333.31 L 172.828 333.31 L 172.828 345.655 L 160.483 345.655 L 160.483 333.31 Z M 185.172 333.31 L 197.517 333.31 L 197.517 345.655 L 185.172 345.655 L 185.172 333.31 Z M 222.207 333.31 L 234.552 333.31 L 234.552 345.655 L 222.207 345.655 L 222.207 333.31 Z M 246.897 333.31 L 259.241 333.31 L 259.241 345.655 L 246.897 345.655 L 246.897 333.31 Z M 271.586 333.31 L 283.931 333.31 L 283.931 345.655 L 271.586 345.655 L 271.586 333.31 Z M 296.276 333.31 L 308.621 333.31 L 308.621 345.655 L 296.276 345.655 L 296.276 333.31 Z M 308.621 333.31 L 320.966 333.31 L 320.966 345.655 L 308.621 345.655 L 308.621 333.31 Z M 333.31 333.31 L 345.655 333.31 L 345.655 345.655 L 333.31 345.655 L 333.31 333.31 Z M 0 345.655 L 12.345 345.655 L 12.345 358 L 0 358 L 0 345.655 Z M 12.345 345.655 L 24.69 345.655 L 24.69 358 L 12.345 358 L 12.345 345.655 Z M 24.69 345.655 L 37.034 345.655 L 37.034 358 L 24.69 358 L 24.69 345.655 Z M 37.034 345.655 L 49.379 345.655 L 49.379 358 L 37.034 358 L 37.034 345.655 Z M 49.379 345.655 L 61.724 345.655 L 61.724 358 L 49.379 358 L 49.379 345.655 Z M 61.724 345.655 L 74.069 345.655 L 74.069 358 L 61.724 358 L 61.724 345.655 Z M 74.069 345.655 L 86.414 345.655 L 86.414 358 L 74.069 358 L 74.069 345.655 Z M 98.759 345.655 L 111.103 345.655 L 111.103 358 L 98.759 358 L 98.759 345.655 Z M 123.448 345.655 L 135.793 345.655 L 135.793 358 L 123.448 358 L 123.448 345.655 Z M 135.793 345.655 L 148.138 345.655 L 148.138 358 L 135.793 358 L 135.793 345.655 Z M 222.207 345.655 L 234.552 345.655 L 234.552 358 L 222.207 358 L 222.207 345.655 Z M 234.552 345.655 L 246.897 345.655 L 246.897 358 L 234.552 358 L 234.552 345.655 Z M 246.897 345.655 L 259.241 345.655 L 259.241 358 L 246.897 358 L 246.897 345.655 Z M 271.586 345.655 L 283.931 345.655 L 283.931 358 L 271.586 358 L 271.586 345.655 Z M 283.931 345.655 L 296.276 345.655 L 296.276 358 L 283.931 358 L 283.931 345.655 Z M 308.621 345.655 L 320.966 345.655 L 320.966 358 L 308.621 358 L 308.621 345.655 Z M 333.31 345.655 L 345.655 345.655 L 345.655 358 L 333.31 358 L 333.31 345.655 Z" stroke="transparent" fill="black" style=""></path> </svg>