<?xml version="1.0" encoding="utf-8"?>
<svg version="1.1" id="svg2" width="205px" height="205px" viewBox="397.476 -20.208 205 205" preserveAspectRatio="xMaxYMin" xmlns="http://www.w3.org/2000/svg">
  <defs id="defs6"/>
  <rect y="0.002" width="602.476" height="324.318" style="fill: none;"/>
  <g id="g8" transform="matrix(1.3333333,0,0,-1.3333333,0,324.32)">
    <g id="g10" transform="scale(0.1)">
      <path d="m 3572.21,2336.05 c 3.61,0 9.37,-1.45 12.99,-1.45 3.61,0 20.76,-7.32 28.51,-12.01 6.5,-3.97 13.42,-10.41 21.53,-13.47 10.66,-4.15 30.78,-7.73 34.39,-7.73 6.32,0 44.22,7.23 44.75,7.23 14.8,0 47.5,-21.05 57.78,-34.94 3.42,-4.69 5.02,-14.86 5.02,-18.47 0,-3.61 -1.46,-13.71 -1.46,-17.32 0,-6.67 -8.65,-17.33 -15.14,-17.33 -7.95,0 -17.34,30.74 -19.84,33.45 -13.2,14.79 -54.33,35.85 -75.43,35.85 -1.81,0 -15.15,-0.91 -15.15,-8.66 0,-16.24 41.85,-22.75 41.85,-38.99 0,-5.22 -8.67,-8.65 -11.56,-8.65 -9.91,0 -35.26,20.98 -39.95,22.78 -14.07,5.6 -30.19,8.99 -44.52,11.86 -17.44,0.42 -20.16,0 -21.53,0.01 -24.79,-6.48 -45.1,-29.01 -61.21,-51.67 -4.06,-5.72 -3.83,-19.07 -7.44,-19.07 -3.6,0 -18.05,4.33 -21.64,4.33 -30.67,0 -42.41,-21.3 -42.41,-48.35 0,-7.58 -3.77,-16.17 -8.82,-22.13 -3.79,-4.51 -14.45,-10.36 -18.07,-10.36 -10.46,0 -17.32,7.94 -17.32,13.72 0,3.61 0.44,6.48 1.44,10.11 0.98,3.47 9.01,18.85 14.96,26.43 25.63,32.48 61.04,61.35 99.47,81.57 6.32,3.24 16.44,2.71 23.13,5.79 3.61,1.62 29.9,19.19 29.9,27.67 0,3.61 -6.73,9.42 -10.94,10.83 0,0 -42.87,-1.9 -46.58,-1.24 -0.66,0.58 -1.67,1.95 -1.67,5.55 0,6.87 9.12,10.66 13.18,13.78 11.19,8.61 40.22,20.88 51.78,20.88" style="fill:#ffffff;fill-opacity:1;fill-rule:nonzero;stroke:none" id="path78"/>
      <path d="m 3941,2318.72 c 3.61,0 5.7,-0.59 8.94,-2.94 1.68,-1.59 2.07,-2.4 1.97,-4.23 -0.05,-1.66 -0.43,-2.82 -1.97,-3.78 -14.48,-4.63 -48.61,-50.51 -51.52,-59.06 -2.96,-8.67 -5.77,-20.93 -5.77,-24.53 0,-5.96 2.7,-12.28 7.94,-12.28 3.61,0 15.89,5.4 22.95,6.85 12.98,2.7 35.5,6.15 39.11,6.15 23.09,0 61.35,-21.3 61.35,-43.31 0,-3.61 -0.14,-8.57 -3.22,-12.86 -2.97,-4.12 -10.66,7.41 -15.08,9.66 -6.51,3.32 -18.5,6.09 -22.11,6.09 -35.02,0 -39.16,-23.1 -63.51,-23.1 -10.83,0 -18.43,0.63 -29.81,14.71 -5.76,7.03 -3.5,19.45 -8.19,29 -2.35,4.87 -9.83,8.52 -13.45,12.86 -3.42,4.15 -7.17,10.37 -8.81,16.14 -1.07,4.15 -2.11,9.79 -0.67,15.77 5.1,21.35 11.44,34.21 27.96,46.66 4.88,3.69 42.53,22.2 53.89,22.2" style="fill:#ffffff;fill-opacity:1;fill-rule:nonzero;stroke:none" id="path80"/>
      <path d="m 3977.09,2148.39 c 3.6,0 18.6,-5.82 27.59,-8.13 36.51,-9.41 51.39,-52.63 58.64,-80.53 0.84,-3.23 1.93,-7.28 1.93,-10.89 0,-3.61 -0.13,-7.86 -1.71,-13.9 0,0 -0.57,-3.47 -4.18,-3.47 -8.66,0 -16.45,6.77 -26.53,19.03 -12.63,15.51 -19.16,35.59 -30.9,52.01 -6.84,9.37 -16.97,18.03 -25.39,25.54 -2.56,2.31 -11.32,7.9 -11.73,13.13 -0.22,2.95 0.4,4.51 1.57,5.45 2.31,1.87 7.1,1.76 10.71,1.76" style="fill:#ffffff;fill-opacity:1;fill-rule:nonzero;stroke:none" id="path82"/>
      <path d="m 4052.87,1982.39 c 14.43,0 37.52,-20.21 37.52,-34.64 0,-3.96 -4.07,-9.37 -6.43,-9.56 -25.97,-2.71 -39.75,-29.24 -39.75,-47.46 0,-20.03 13.4,-35.59 35.57,-45.73 4.69,-2.15 12.17,-2.97 15.78,-2.97 3.61,0 14.67,3.49 22.62,8.01 12.81,7.57 19.39,31.63 35.43,25.4 12.23,-16.03 16.17,-27.46 16.17,-41.01 0,-21.65 -48.18,-29.59 -54.14,-29.59 -22.72,0 -55.2,13.98 -75.24,37.79 -8.29,9.92 -15.56,22.61 -20.75,33.91 -5.88,12.78 -10.08,28.81 -10.08,38.02 0,16.24 18.39,67.83 43.3,67.83" style="fill:#ffffff;fill-opacity:1;fill-rule:nonzero;stroke:none" id="path84"/>
      <path d="m 3964.81,1820.01 c 0,3.6 -1.64,17.5 -3.44,24.71 -2.17,8.3 -10.76,14.64 -15.96,12.01 -1.87,-0.95 -9.47,-13.27 -9.47,-19.41 0,-3.61 1.15,-17.56 -1.91,-24.24 -6.86,-15.15 -37.41,-34.22 -50.05,-34.22 -3.78,0 -11.55,2.35 -11.55,12.99 0,3.61 7.22,10.11 7.22,13.71 0,5.96 -4.84,4.76 -11.64,8.99 0,0 -2.7,1.4 0,5.06 9.76,4.06 19.73,5.28 29.83,7.45 10.11,2.17 28,26.69 28,37.69 0,3.79 -10.11,15.15 -18.77,15.15 -3.61,0 -2.48,-1.92 -2.48,-1.92 1.96,-9.94 -4.45,-28.36 -13.11,-35.22 -5.23,-4.15 -13.28,-7.61 -16.87,-7.61 -3.6,0 -10.16,0.76 -11.79,1.25 -19.68,5.93 -25.03,21.85 -25.03,35.56 0,4.71 1.84,2.96 -1.93,7.91 -3.88,-1.07 -26.93,-11.33 -26.93,-21.62 0,-8.12 24.53,-21.65 24.53,-27.41 0,-14.98 -23.09,-3.08 -23.09,-15.89 0,-3.61 8.66,-40.24 8.66,-43.85 v -22.01 c 0,-32.3 21.65,-23.1 21.65,-52.51 0,-5.95 -13.34,-23.17 -17.85,-24.98 -4.32,-1.61 -6.4,-4.09 -10,-7.18 -2.97,-3.9 -2.5,-4.37 -5.6,-9.69 -4.95,-8.43 -11.48,-7.71 -17.52,-6.56 -14.67,2.82 -21.39,5.34 -33.48,5.34 -3.59,0 -12.26,-9.63 -15.88,-9.63 -3.59,0 -8.85,2.12 -12.11,5.54 -1.79,1.82 -7.98,21.56 -18.81,21.56 -3.59,0 -23.18,-9.04 -26.81,-9.04 -13.34,0 -29.59,16.24 -29.59,28.88 0,0.89 0.08,12.65 10.16,12.65 7.41,0 4.84,-8.79 12.26,-12.65 9.01,5.89 21.62,21.64 25.22,21.64 3.61,0 5.21,-0.26 7.56,-1.7 5.42,-3.24 12.65,-17.97 12.65,-27.17 0,-8.66 10.1,-15.88 18.77,-15.88 18.22,0 28.87,13.71 28.87,31.05 0,3.6 -7.23,28.87 -7.23,32.48 0,3.59 -0.02,1.97 0.35,3.53 -0.35,4.46 -0.35,8.86 -0.9,11.55 0.51,1.25 4.88,48.42 4.88,52.04 0,24.71 -12.98,48.53 -12.98,74.33 0,10.65 1.93,38.63 11.68,47.83 19.66,18.58 64.45,41.66 100.18,41.66 3.61,0 26.03,-5.16 37.22,-10.39 3.44,-1.45 14.22,-10.15 19.24,-11.24 7.34,6.11 12.11,22.36 12.11,31.74 0,32.84 -41.86,57.92 -41.86,95.28 0,3.6 7.21,44.01 7.21,47.62 0,3.61 -1.27,11.11 -1.98,16.7 -3.98,28.33 -38.08,58.36 -61.53,58.36 -3.6,0 -61.35,-5.77 -64.95,-5.77 -35.74,0 -58.46,23.09 -97.44,23.09 -3.6,0 -39.2,-4.87 -57.78,-6.13 -79.4,-5.59 -119.04,-62.79 -119.04,-141.1 0,-3.61 2.01,-16.79 0.38,-23.63 -9.2,-36.46 -33.58,-62.07 -33.58,-94.74 l 4.34,-136.39 c -2.89,-40.92 -31.76,-19.14 -31.76,-57.75 0,-3.6 1.45,-21.96 3.26,-31.88 1.08,-5.95 4.82,-12.41 7.34,-15.65 1.45,-1.98 13.95,-8.05 17.54,-8.05 9.92,0 15.67,19.04 23.17,21.66 8.12,-2.32 2.2,-21.28 3.43,-31.06 2.53,-20.17 15.04,-59.61 16.37,-63.67 2.37,-7.25 5.08,-12 7.25,-17.41 3.42,-8.66 11.13,-21.38 11.13,-25 0,-0.63 4.02,-10.82 10.47,-26.61 0.41,1.27 1.01,1.57 0.82,2.18 h 3.61 c 8.46,-7.16 104.36,-101.91 141.54,-102.59 h 56.28 c 23.46,0 58.65,13.53 58.65,47.63 0,29.78 -33.21,34.64 -53.4,34.64 -3.61,0 -29.04,-5.36 -36.83,-5.76 -3.78,-0.2 -25.26,5.76 -25.26,14.42 0,12.46 32.13,14.45 39.71,14.45 3.61,0 42.57,-10.1 46.19,-10.1 13.53,0 33.92,8.11 33.92,28.86 0,11.36 -18.22,18.76 -28.86,18.76 -13.36,0 -27.85,-12.26 -43.54,-12.26 -3.61,0 -19.21,7.5 -22.81,7.5 -3.61,0 -27.25,-11.12 -33.73,-10.94 -5.71,0.17 -22.95,17.49 -26.56,17.49 -3.62,0 -14.84,-10.54 -18.44,-10.54 -3.62,0 -4.63,4.16 -7.17,5.24 1.08,2.56 2.93,24.55 17.36,24.55 3.62,0 16.51,-9.48 20.12,-9.48 20.39,0 18.22,17.31 35.37,17.31 20.2,0 21.84,-24.54 37.54,-24.54 12.8,0 17.13,23.11 35.35,23.11 14.81,0 29.4,-17.33 37.53,-17.33 8.3,0 16.96,11.54 31.75,11.54 3.61,0 8.89,-7.96 10.31,-12.48 1.27,-4.15 -0.03,-8.44 -0.03,-12.78 0,-4.33 1.66,-9.71 4.02,-12.05 1.97,-1.98 2.3,-4.55 5.91,-4.55 h 17.14 c 19.86,0 71.42,99.05 72.5,103.02 2.71,9.94 6.34,26.18 6.34,29.78 0,3.62 2.72,19.53 1.46,42.62 -1.26,26.35 12.98,45.8 12.98,72.15 m -314.12,13.77 c -1.61,1.02 -3.42,3.51 -3.42,3.51 6.05,9.98 17.32,23.49 17.32,31.79 0,5.77 -15.24,17.16 -19.34,16.61 -8.77,-2.87 -2.14,-15.26 -2.87,-21.03 -1.8,-12.99 -18.94,-30.95 -31.93,-30.95 -6.31,0 -22.54,7.1 -26.15,10.88 -15.14,16.05 -7.77,18.36 -7.77,32.43 0,3.6 -1.45,2.17 -1.23,4.54 -0.92,-0.2 -0.92,1.23 -4.54,1.23 -9.57,0 -18.78,-15.16 -18.78,-20.93 0,-11 7.2,-24.92 23.04,-28.55 -4.7,-10.01 -8.05,-11.13 -15.09,-11.13 -27.23,0 -23.99,36.07 -36.08,36.07 -3.61,0 -7.21,-2.89 -10.82,-2.89 -3.62,0 -10.57,6.67 -13.81,9.37 -5.96,4.88 -4.96,10.31 -4.96,13.73 0,49.99 40.74,78.85 97.44,82.28 11.64,-1.45 12.99,0 14.46,0 11.6,-1.45 25.91,-2.25 36.38,-7.66 18.05,-9.2 44.98,-25.97 60.3,-44.57 2.53,-3.06 7.93,-25.36 7.93,-32.21 0,-3.61 -10.13,-43.73 -10.1,-55.58 0.01,-8.52 7.22,-41.86 7.22,-45.47 0,-7.4 0.94,-19.73 -6.21,-29.53 -6.36,0.85 -28.45,36.21 -28.45,49.02 0,18.94 17.34,22.01 17.34,47.63 0,4.7 -0.9,8.67 -5.78,8.67 -3.61,0 -18.93,-17.33 -22.54,-17.29 0,0 -7.76,-2.39 -11.56,0.03 m 79.57,-445.01 c -26.78,0.17 -113.67,13.5 -139.96,30.2 31.79,-73.64 64.19,-145.33 69.23,-145.33 23.09,0 90.23,81.92 90.23,103.21 0,3.62 -1.62,6.22 -3.75,8.9 -6.17,1.9 -11.42,3.02 -15.75,3.02 m -139.96,30.2 c -21.74,50.36 -43.03,101.27 -55.26,131.19 -0.15,-0.45 -0.37,-0.57 -0.37,-1.53 0,-3.6 35.64,-116.69 55.31,-129.49 0.1,-0.06 0.24,-0.11 0.32,-0.17" style="fill:#ffffff;fill-opacity:1;fill-rule:nonzero;stroke:none" id="path86"/>
      <path d="m 3572.87,1943.41 c 11.92,0.93 17.23,0.62 21.8,0 15.23,-3.62 45.37,-16.41 45.37,-36.08 0,-3.6 -0.71,-7.22 -4.32,-7.22 -3.61,0 -13.17,10.11 -16.78,10.13 h -9.68 c -1.18,-1.25 -0.98,0.69 -0.98,-2.91 0,-3.6 2.89,-3.6 2.89,-7.22 0,-3.6 -1.44,-3.6 -1.68,-5.59 -15.39,2 -23.42,-1.78 -41.35,-5.79 -0.27,4.89 -0.27,9.22 -0.21,13.28 -1.29,1.2 -0.78,0.99 -4.38,0.99 -11.56,0 -20.21,-21.66 -31.77,-21.66 -8.65,0 -12.98,7.95 -12.98,13 0,15.52 18.47,37.46 33.62,44.33 5.41,2.34 13.15,3.29 20.45,4.74" style="fill:#ffffff;fill-opacity:1;fill-rule:nonzero;stroke:none" id="path88"/>
      <path d="m 3880.38,1933.32 c 3.6,0 6.92,-2.72 11.62,-3.25 12.27,-1.46 35.29,-13.36 35.29,-29.23 0,-3.62 -1.52,-10.43 -4.95,-16.59 -6.39,5.97 -13.56,14.59 -22,21.68 h -3.86 c -1.16,-1.27 -2.39,0.69 -2.39,-2.93 0,-3.61 1.36,-4.72 2.88,-8.05 -1.65,-1.85 -1.44,-3.5 -5.06,-3.5 -2.14,0 -17.3,7.23 -25.96,7.23 -15.17,0 -34.65,-11.55 -38.98,-11.55 -3.61,0 -6.49,4.32 -6.49,7.94 0,17.32 27.42,12.98 27.42,25.97 0,6.68 17.5,9.39 18.05,9.39 3.6,0 10.82,2.89 14.43,2.89" style="fill:#ffffff;fill-opacity:1;fill-rule:nonzero;stroke:none" id="path90"/>
      <path d="m 3606.85,1887.13 c 9.73,0 10.1,-8.84 10.1,-11.56 0,-6.68 -5.06,-14.42 -10.84,-14.42 -10.45,0 -12.25,8.29 -12.25,12.99 0,8.65 4.51,12.99 12.99,12.99" style="fill:#ffffff;fill-opacity:1;fill-rule:nonzero;stroke:none" id="path92"/>
      <path d="m 3865.95,1885.68 c 8.29,0 13.5,-7.94 13.7,-13.71 0.19,-5.73 -7.93,-12.27 -11.54,-12.27 -6.67,0 -11.39,8.57 -11.56,14.43 -0.08,2.89 4.15,11.55 9.4,11.55" style="fill:#ffffff;fill-opacity:1;fill-rule:nonzero;stroke:none" id="path94"/>
      <path d="m 3813.26,1695.87 c 0,-11.56 -9.03,-20.93 -19.49,-20.93 -3.61,0 -3.73,-0.01 -5.06,1.55 -1.67,1.96 0.11,6.56 0.11,6.56 -0.1,3.62 5.71,9.93 5.67,13.53 -0.08,6.58 -1.44,10.75 -2.6,24.4 15.51,-6.04 21.37,-10.5 21.37,-25.11" style="fill:#ffffff;fill-opacity:1;fill-rule:nonzero;stroke:none" id="path96"/>
      <path d="m 3978.61,1536.36 c 4.5,-1.59 6.04,-1.9 7.31,-7.79 6.37,-29.98 13.53,-89.65 13.53,-93.26 0,-16.59 -14.35,-46.38 -22.28,-59.73 -10.65,-17.68 -30.94,-46.05 -48.63,-59.3 -3.38,-2.52 -57.91,-39.24 -79.92,-41.18 -15.63,-1.39 -41.26,23.82 -47.83,33.44 -9.19,13.49 -15.97,27.91 -22.65,40.56 -4.68,8.84 -12.51,22.7 -12.51,26.32 0,5.41 6.19,9.9 9.27,10.45 1.43,0.17 35.37,5.73 47.46,10.95 55.03,23.82 127.35,65.95 147.18,128.94 1.26,4.13 4.08,7.61 9.07,10.6" style="fill:#ffffff;fill-opacity:1;fill-rule:nonzero;stroke:none" id="path98"/>
      <path d="m 3996.41,1350.05 c 4.35,-0.15 3.39,-9.03 3.39,-11.94 0.47,-17.49 0.47,-8.28 -0.39,-20.16 -0.31,-19.78 -13.77,-44.67 -22.24,-59.28 -8.12,-14.07 -54.93,-86.07 -85.25,-86.07 -17.14,0 -39.69,26.7 -39.69,38.26 0,8.47 11.91,12.24 19.29,14.23 7.41,1.98 14.89,4.28 21.56,7.17 37.16,16.78 64.3,54.04 84.3,87.25 4.62,7.67 8.52,26.25 12.51,28.55 2.3,1.32 3.51,2.08 6.52,1.99" style="fill:#ffffff;fill-opacity:1;fill-rule:nonzero;stroke:none" id="path100"/>
      <path d="m 3764.88,1324.17 c 11.1,-3.08 13.73,-25.62 13.73,-33.21 0,-12.45 -10.47,-52.66 -28.86,-52.66 -3.62,0 -8.66,3.59 -12.27,3.59 -8.66,0 -26.71,-18.04 -26.71,-23.83 0,-11.17 20.55,-13.01 35.43,-15.09 7.69,-1.07 19.91,-0.07 19.91,-0.07 14.59,11.4 10.18,33.84 24.82,47.21 2.85,1.3 5.67,1.94 11.29,3.28 h 4.87 c 0.55,-0.52 17.71,-27.03 17.71,-33.87 0,-31.41 -75.23,-48.36 -88.76,-48.36 -34.11,0 -51.25,56.66 -51.25,75.06 0,16.41 7.4,27.43 22.37,27.43 3.61,0 27.43,-8.66 31.04,-8.66 13.53,0 17.32,14.78 17.32,22.37 0,3.6 -3.08,15.16 -2.89,18.77 0.55,9.65 5.85,18.08 12.25,18.04" style="fill:#ffffff;fill-opacity:1;fill-rule:nonzero;stroke:none" id="path102"/>
      <path d="m 3307.73,1814.85 c 4.01,0.12 9.03,0.46 13.74,-1.78 5.66,-7.79 0.03,-23.47 11.46,-30.82 2.75,-0.5 5.51,-1.93 9.12,-1.93 16.25,0 30.31,25.98 32.48,25.98 3.6,0 10.27,-4.35 16.52,-6.05 0,0 1.15,-2.74 0,-7.48 -1.03,-4.21 -31.19,-41.49 -36.42,-45.04 -2.34,-1.58 -7.07,-3.97 -11.58,-5.79 -5.4,-2.33 -13.27,-3.48 -16.88,-3.48 -17.31,0 -28.87,23.82 -28.87,34.64 0,12.45 4.94,29.9 10.43,41.75" style="fill:#ffffff;fill-opacity:1;fill-rule:nonzero;stroke:none" id="path104"/>
      <path d="m 3512.4,1376.11 c 2.28,1.27 6.66,0.04 6.66,0.04 30.9,-40.57 60.04,-87.8 103.34,-108.55 8.3,-3.98 18.44,-8.27 24.76,-14.59 8.64,-8.83 29.61,-42.73 29.61,-55.72 0,-12.62 -14.07,-12.99 -18.04,-12.99 -7.76,0 -29.92,10.91 -36.42,14.15 -65.49,33.93 -94.54,111.4 -111.53,166.94 0,0 -2.07,8.65 1.62,10.72" style="fill:#ffffff;fill-opacity:1;fill-rule:nonzero;stroke:none" id="path106"/>
      <path d="m 3429.94,1363.3 c 8.66,0 24.61,-29.57 28.22,-35.35 2.89,-4.69 31.41,-45.84 38.99,-58.83 16.05,-27.26 61.27,-84.99 61.23,-88.61 0,0 2.78,-7.39 -0.06,-10.13 -1.31,-1.26 -0.62,-1.95 -4.24,-1.95 -3.61,0 -13.92,-0.82 -22.75,7.87 -7.14,7.02 -108.62,161.2 -108.62,178.34 0,3.61 3.62,8.66 7.23,8.66" style="fill:#ffffff;fill-opacity:1;fill-rule:nonzero;stroke:none" id="path108"/>
      <path d="m 3530.63,1575.38 c 0.25,-0.83 4.68,-22.98 4.68,-26.6 0,-3.6 7.87,-17.54 11.84,-25.66 8.85,-17.86 20.49,-37.58 33.11,-53.27 14.8,-18.59 44.22,-42.25 63.88,-55.06 26,-16.78 59.88,-25.69 86.78,-25.87 4.31,0 9.57,-1.11 15.72,-3.01 2.15,-2.68 3.74,-5.29 3.74,-8.9 0,-21.11 -67.12,-103.21 -90.2,-103.21 -12.46,0 -28.58,14.27 -39.47,21.35 -33.89,22.03 -68.87,60.56 -89.25,94.48 -10.83,18.22 -35.11,58.29 -35.11,77.59 0,3.62 1.44,13 1.44,16.6 0,3.62 12.99,46.92 12.99,50.53 0,3.61 14.43,38.97 14.43,42.58 l 5.42,-1.55" style="fill:#ffffff;fill-opacity:1;fill-rule:nonzero;stroke:none" id="path110"/>
      <path d="m 4481.3,1079.93 c -0.01,0.83 -1.74,83.49 -60.63,134.65 -44.48,38.64 -171.1,94.6 -246.74,128.03 -33.07,14.61 -56.96,25.17 -66.67,30.82 -3.65,1.98 -12.18,6.63 -11.92,16.04 0.1,3.1 0.14,4.37 15.22,38.64 l 1.08,2.48 c 11.15,25.6 21.21,46.73 30.09,65.37 24.64,51.77 34.28,73.47 25.35,90.72 -10.57,20.43 -49.86,41.33 -118.42,76.51 l -7.44,3.83 0.77,8.32 c 0.77,8.44 7.73,20.62 25.63,44.94 l 5.81,7.89 8.25,-2.32 c 8.78,-2.47 16.99,-5.11 24.76,-7.61 43.02,-13.83 64.61,-20.76 97.45,24.05 19.29,26.36 20.47,68.12 13.06,97.81 -6.54,26.29 -10.29,29.4 -31.11,46.66 l -5.32,4.38 c -4.26,3.32 -12.19,9.49 -11.55,19.18 0.96,13.93 5.41,26.75 9.7,39.14 5.4,15.6 10.51,30.33 9.09,47.05 l -0.5,6.12 c -3.09,37.64 -11.3,137.64 -54.19,148.7 l -5.68,1.46 -7.34,15.81 2.4,5.21 c 22.29,48.16 -5.63,110.48 -45.51,142.9 -27.82,22.63 -56.46,27.23 -76.59,12.28 l -13.03,-9.67 -5.88,15.12 c -6.8,17.43 -15.11,27.8 -24.73,30.82 -9.98,3.12 -23.36,-0.89 -39.83,-11.94 l -10.82,-7.26 -12,20.01 c -23.04,30.89 -38.41,43.43 -72.14,41.34 -52.15,-3.25 -118.44,-10.14 -168.47,-34.84 l -6.94,-3.41 -6.11,4.72 c -41.06,31.73 -100.71,26.37 -177.3,-15.92 -29.57,-16.32 -35.13,-43.77 -38.81,-61.93 -2.23,-10.99 -3.99,-19.67 -11.82,-23.84 l -5.33,-2.82 c -45.67,-24.14 -88.8,-46.94 -88.16,-99.89 0.35,-27.41 -12.18,-36.52 -22.25,-43.85 -6.62,-4.81 -11.85,-8.61 -15.71,-18.33 -0.83,-2.35 -1.31,-11.61 -1,-19.39 -0.06,-20.52 3.36,-37.06 6.97,-54.57 2.13,-10.29 4.33,-20.93 5.91,-32.69 2,-14.87 -6.35,-24.49 -13.72,-32.99 -13.63,-15.72 -30.61,-35.27 6.76,-110.39 l 3.19,-6.42 -3.98,-5.97 c -24.03,-35.98 -36.57,-96.25 -15.94,-134.83 11.66,-21.8 32.5,-32.85 61.94,-32.85 24.23,0 45.53,14.1 59.63,23.44 9.63,6.38 15.56,10.19 22.21,9.86 l 6.43,-0.34 3.41,-5.48 c 7.06,-11.33 15.45,-22.39 23.56,-33.09 l 2.84,-3.75 -0.36,-4.68 c -0.71,-9.13 -8.27,-15.08 -34.43,-34.29 -28.62,-21.03 -81.9,-60.18 -81.02,-85.58 0.35,-10.11 23.84,-49.25 39.38,-75.15 20.9,-34.83 33.27,-55.88 35.38,-68.04 l 4.97,-13.46 -9.62,-5.06 c -48.71,-25.55 -95.78,-46.19 -141.3,-66.16 -142.62,-62.54 -245.66,-107.72 -245.09,-235.29 l -24.77,-0.11 c -0.63,143.83 114.35,194.24 259.92,258.08 42.29,18.55 85.95,37.69 130.72,60.73 -3.7,10.36 -19.55,36.76 -31.44,56.57 -26.34,43.88 -42.36,71.64 -42.9,87.03 -1.34,38.46 52.1,77.72 91.11,106.39 7.18,5.28 15.57,11.45 20.85,15.79 -4.31,5.75 -8.61,11.62 -12.73,17.66 -1.16,-0.76 -2.34,-1.54 -3.46,-2.28 -15.55,-10.3 -41.61,-27.54 -73.29,-27.54 -48.94,0 -72.57,24.98 -83.78,45.93 -24.7,46.22 -11.87,112.16 13.33,154.16 -37.32,78.23 -20.64,107.8 -0.22,131.34 6.09,7.03 8.35,10 7.89,13.46 -1.48,10.9 -3.58,21.11 -5.63,30.99 -3.71,17.98 -7.54,36.57 -7.48,59.12 -0.24,5.65 -0.47,20.93 2.75,29.02 6.52,16.36 16.72,23.77 24.16,29.19 8.41,6.11 12.23,8.9 12.05,23.51 -0.82,68.08 55.83,98.03 101.35,122.09 l 2.61,1.38 c 0.58,2.07 1.26,5.45 1.84,8.31 4.02,19.86 11.51,56.84 51.11,78.69 82.51,45.55 149.12,51.69 198.17,18.36 52.92,24.02 118.87,30.87 171.08,34.12 48.86,3.03 70.57,-20.43 93.72,-51.51 18.7,10.24 35.15,12.94 50.02,8.27 13.89,-4.35 25.43,-15.21 34.45,-32.34 27.87,12.61 61.98,5.43 94,-20.61 44.38,-36.11 77.52,-104.45 55.92,-163.88 51.63,-23.33 59.53,-119.74 63.44,-167.4 l 0.5,-6.05 c 1.86,-21.95 -4.64,-40.7 -10.37,-57.24 -3.52,-10.16 -6.85,-19.81 -8.05,-29.31 0.62,-0.51 1.28,-1.03 1.71,-1.36 l 5.93,-4.87 c 21.8,-18.08 30.82,-25.56 39.33,-59.74 8.15,-32.7 8.56,-83.34 -17.11,-118.42 -43.39,-59.23 -81.2,-47.07 -125.01,-32.99 -5.02,1.61 -10.23,3.29 -15.67,4.94 -6.67,-9.29 -10.67,-15.48 -13.08,-19.6 142.7,-73.61 146.17,-85.02 93.97,-194.69 -8.79,-18.47 -18.76,-39.4 -29.74,-64.62 l -1.13,-2.56 c -5.48,-12.46 -8.77,-20.13 -10.73,-24.84 10.33,-5.45 33.19,-15.55 61.46,-28.04 81.9,-36.2 205.67,-90.9 252.97,-131.99 67.47,-58.61 69.12,-149.25 69.15,-153.09 l -24.76,-0.25" style="fill:#ffffff;fill-opacity:1;fill-rule:nonzero;stroke:none" id="path112"/>
    </g>
  </g>
</svg>